<svg width="850" height="850" viewBox="0 0 850 850" fill="none" xmlns="http://www.w3.org/2000/svg">
<circle cx="425" cy="425" r="425" fill="#F3D9B8"/>
<ellipse cx="425" cy="425" rx="332.031" ry="332.031" fill="#DFBE95"/>
<circle cx="425" cy="425" r="312.109" fill="#F6960C"/>
<ellipse cx="425" cy="425" rx="258.984" ry="258.984" fill="#C05C04"/>
<ellipse cx="425" cy="425" rx="239.063" ry="239.063" fill="url(#paint0_linear_2121_31385)"/>
<mask id="mask0_2121_31385" style="mask-type:alpha" maskUnits="userSpaceOnUse" x="185" y="185" width="480" height="480">
<circle cx="425" cy="425" r="239.063" fill="url(#paint1_linear_2121_31385)"/>
</mask>
<g mask="url(#mask0_2121_31385)">
<path d="M425.001 185.938C557.031 185.938 664.063 292.969 664.063 425C664.063 430.378 663.882 435.714 663.532 441.004C655.298 316.436 551.653 217.947 425.001 217.947C298.348 217.947 194.702 316.436 186.468 441.004C186.118 435.714 185.939 430.378 185.939 425C185.939 292.969 292.97 185.938 425.001 185.938Z" fill="#33271D"/>
</g>
<ellipse cx="425" cy="425" rx="149.414" ry="149.414" fill="url(#paint2_radial_2121_31385)"/>
<path opacity="0.8" d="M425 275.586C507.519 275.586 574.414 342.481 574.414 425C574.414 507.519 507.519 574.414 425 574.414C342.481 574.414 275.586 507.519 275.586 425C275.586 342.481 342.481 275.586 425 275.586ZM425 295.508C353.483 295.508 295.508 353.483 295.508 425C295.508 496.517 353.483 554.492 425 554.492C496.516 554.492 554.492 496.516 554.492 425C554.492 353.484 496.516 295.508 425 295.508Z" fill="#AC5B00"/>
<path d="M370.064 46.4841C370.064 31.8405 370.064 24.5187 372.784 18.8702C375.484 13.2637 380.008 8.74018 385.614 6.04026C391.263 3.32007 398.584 3.32007 413.228 3.32007H436.772C451.416 3.32007 458.737 3.32007 464.386 6.04026C469.992 8.74018 474.516 13.2637 477.216 18.8702C479.936 24.5187 479.936 31.8405 479.936 46.4841C479.936 61.1278 479.936 68.4496 477.216 74.0981C474.516 79.7045 469.992 84.2281 464.386 86.928C458.737 89.6482 451.416 89.6482 436.772 89.6482H413.228C398.584 89.6482 391.263 89.6482 385.614 86.928C380.008 84.2281 375.484 79.7045 372.784 74.0981C370.064 68.4496 370.064 61.1278 370.064 46.4841Z" fill="url(#paint3_linear_2121_31385)"/>
<path d="M375.95 41.9899C375.95 29.7198 375.95 23.5847 378.017 18.7681C380.596 12.7569 385.387 7.96643 391.398 5.38694C396.215 3.32007 402.35 3.32007 414.62 3.32007H435.38C447.65 3.32007 453.785 3.32007 458.602 5.38694C464.613 7.96643 469.404 12.7569 471.983 18.7681C474.05 23.5847 474.05 29.7198 474.05 41.9899C474.05 54.26 474.05 60.395 471.983 65.2117C469.404 71.2229 464.613 76.0133 458.602 78.5928C453.785 80.6597 447.65 80.6597 435.38 80.6597H414.62C402.35 80.6597 396.215 80.6597 391.398 78.5928C385.387 76.0133 380.596 71.2229 378.017 65.2117C375.95 60.395 375.95 54.26 375.95 41.9899Z" fill="url(#paint4_linear_2121_31385)"/>
<path d="M370.064 803.516C370.064 818.159 370.064 825.481 372.784 831.13C375.484 836.736 380.008 841.26 385.614 843.959C391.263 846.68 398.584 846.68 413.228 846.68H436.772C451.416 846.68 458.737 846.68 464.386 843.959C469.992 841.26 474.516 836.736 477.216 831.13C479.936 825.481 479.936 818.159 479.936 803.516C479.936 788.872 479.936 781.55 477.216 775.902C474.516 770.295 469.992 765.772 464.386 763.072C458.737 760.352 451.416 760.352 436.772 760.352H413.228C398.584 760.352 391.263 760.352 385.614 763.072C380.008 765.772 375.484 770.295 372.784 775.902C370.064 781.55 370.064 788.872 370.064 803.516Z" fill="url(#paint5_linear_2121_31385)"/>
<path d="M375.95 808.01C375.95 820.28 375.95 826.415 378.017 831.232C380.596 837.243 385.387 842.033 391.398 844.613C396.215 846.68 402.35 846.68 414.62 846.68H435.38C447.65 846.68 453.785 846.68 458.602 844.613C464.613 842.033 469.404 837.243 471.983 831.232C474.05 826.415 474.05 820.28 474.05 808.01C474.05 795.74 474.05 789.605 471.983 784.788C469.404 778.777 464.613 773.986 458.602 771.407C453.785 769.34 447.65 769.34 435.38 769.34H414.62C402.35 769.34 396.215 769.34 391.398 771.407C385.387 773.986 380.596 778.777 378.017 784.788C375.95 789.605 375.95 795.74 375.95 808.01Z" fill="url(#paint6_linear_2121_31385)"/>
<path d="M46.4844 479.936C31.8408 479.936 24.519 479.936 18.8704 477.216C13.264 474.516 8.74042 469.992 6.0405 464.386C3.32031 458.737 3.32031 451.416 3.32031 436.772L3.32031 413.228C3.32031 398.584 3.32031 391.263 6.0405 385.614C8.74042 380.008 13.264 375.484 18.8704 372.784C24.5189 370.064 31.8408 370.064 46.4844 370.064C61.128 370.064 68.4498 370.064 74.0983 372.784C79.7048 375.484 84.2283 380.008 86.9282 385.614C89.6484 391.263 89.6484 398.584 89.6484 413.228L89.6484 436.772C89.6484 451.416 89.6484 458.737 86.9283 464.386C84.2283 469.992 79.7048 474.516 74.0983 477.216C68.4498 479.936 61.128 479.936 46.4844 479.936Z" fill="url(#paint7_linear_2121_31385)"/>
<path d="M41.9901 474.05C29.72 474.05 23.585 474.05 18.7684 471.983C12.7571 469.404 7.96667 464.613 5.38718 458.602C3.32031 453.785 3.32031 447.65 3.32031 435.38L3.32031 414.62C3.32031 402.35 3.32031 396.215 5.38718 391.398C7.96667 385.387 12.7571 380.596 18.7684 378.017C23.585 375.95 29.72 375.95 41.9901 375.95C54.2602 375.95 60.3953 375.95 65.2119 378.017C71.2231 380.596 76.0136 385.387 78.5931 391.398C80.6599 396.215 80.6599 402.35 80.6599 414.62L80.6599 435.38C80.6599 447.65 80.6599 453.785 78.5931 458.602C76.0136 464.613 71.2231 469.404 65.2119 471.983C60.3953 474.05 54.2602 474.05 41.9901 474.05Z" fill="url(#paint8_linear_2121_31385)"/>
<path d="M803.516 479.936C818.159 479.936 825.481 479.936 831.13 477.216C836.736 474.516 841.26 469.992 843.959 464.386C846.68 458.737 846.68 451.416 846.68 436.772L846.68 413.228C846.68 398.584 846.68 391.263 843.96 385.614C841.26 380.008 836.736 375.484 831.13 372.784C825.481 370.064 818.159 370.064 803.516 370.064C788.872 370.064 781.55 370.064 775.902 372.784C770.295 375.484 765.772 380.008 763.072 385.614C760.352 391.263 760.352 398.584 760.352 413.228L760.352 436.772C760.352 451.416 760.352 458.737 763.072 464.386C765.772 469.992 770.295 474.516 775.902 477.216C781.55 479.936 788.872 479.936 803.516 479.936Z" fill="url(#paint9_linear_2121_31385)"/>
<path d="M808.01 474.05C820.28 474.05 826.415 474.05 831.232 471.983C837.243 469.404 842.033 464.613 844.613 458.602C846.68 453.785 846.68 447.65 846.68 435.38L846.68 414.62C846.68 402.35 846.68 396.215 844.613 391.398C842.033 385.387 837.243 380.596 831.232 378.017C826.415 375.95 820.28 375.95 808.01 375.95C795.74 375.95 789.605 375.95 784.788 378.017C778.777 380.596 773.986 385.387 771.407 391.398C769.34 396.215 769.34 402.35 769.34 414.62L769.34 435.38C769.34 447.65 769.34 453.785 771.407 458.602C773.986 464.613 778.777 469.404 784.788 471.983C789.605 474.05 795.74 474.05 808.01 474.05Z" fill="url(#paint10_linear_2121_31385)"/>
<defs>
<linearGradient id="paint0_linear_2121_31385" x1="425" y1="185.937" x2="425" y2="664.063" gradientUnits="userSpaceOnUse">
<stop stop-color="#4A3D2D"/>
<stop offset="1" stop-color="#281602"/>
</linearGradient>
<linearGradient id="paint1_linear_2121_31385" x1="425" y1="185.938" x2="425" y2="664.063" gradientUnits="userSpaceOnUse">
<stop stop-color="#4A3D2D"/>
<stop offset="1" stop-color="#281602"/>
</linearGradient>
<radialGradient id="paint2_radial_2121_31385" cx="0" cy="0" r="1" gradientUnits="userSpaceOnUse" gradientTransform="translate(425 425) rotate(90) scale(149.414 149.414)">
<stop stop-color="#FFF989"/>
<stop offset="1" stop-color="#FDB10E"/>
</radialGradient>
<linearGradient id="paint3_linear_2121_31385" x1="425" y1="3.32007" x2="425" y2="89.6482" gradientUnits="userSpaceOnUse">
<stop stop-color="#4D4A45"/>
<stop offset="1" stop-color="#2C261E"/>
</linearGradient>
<linearGradient id="paint4_linear_2121_31385" x1="425" y1="3.32007" x2="425" y2="80.6597" gradientUnits="userSpaceOnUse">
<stop stop-color="#53504B"/>
<stop offset="1" stop-color="#4D4A45"/>
</linearGradient>
<linearGradient id="paint5_linear_2121_31385" x1="425" y1="846.68" x2="425" y2="760.352" gradientUnits="userSpaceOnUse">
<stop stop-color="#4D4A45"/>
<stop offset="1" stop-color="#2C261E"/>
</linearGradient>
<linearGradient id="paint6_linear_2121_31385" x1="425" y1="846.68" x2="425" y2="769.34" gradientUnits="userSpaceOnUse">
<stop stop-color="#53504B"/>
<stop offset="1" stop-color="#4D4A45"/>
</linearGradient>
<linearGradient id="paint7_linear_2121_31385" x1="3.32031" y1="425" x2="89.6484" y2="425" gradientUnits="userSpaceOnUse">
<stop stop-color="#4D4A45"/>
<stop offset="1" stop-color="#2C261E"/>
</linearGradient>
<linearGradient id="paint8_linear_2121_31385" x1="3.32031" y1="425" x2="80.6599" y2="425" gradientUnits="userSpaceOnUse">
<stop stop-color="#53504B"/>
<stop offset="1" stop-color="#4D4A45"/>
</linearGradient>
<linearGradient id="paint9_linear_2121_31385" x1="846.68" y1="425" x2="760.352" y2="425" gradientUnits="userSpaceOnUse">
<stop stop-color="#4D4A45"/>
<stop offset="1" stop-color="#2C261E"/>
</linearGradient>
<linearGradient id="paint10_linear_2121_31385" x1="846.68" y1="425" x2="769.34" y2="425" gradientUnits="userSpaceOnUse">
<stop stop-color="#53504B"/>
<stop offset="1" stop-color="#4D4A45"/>
</linearGradient>
</defs>
</svg>
