<svg width="24" height="25" viewBox="0 0 24 25" fill="none" xmlns="http://www.w3.org/2000/svg">
<path d="M2 7.59998V5.59998C2 4.80433 2.3163 4.04149 2.87891 3.47888C3.44152 2.91627 4.20435 2.59998 5 2.59998H7C7.55228 2.59998 8 3.04769 8 3.59998C8 4.15226 7.55228 4.59998 7 4.59998H5C4.73478 4.59998 4.4805 4.70541 4.29297 4.89294C4.10543 5.08048 4 5.33476 4 5.59998V7.59998C4 8.15226 3.55228 8.59998 3 8.59998C2.44772 8.59998 2 8.15226 2 7.59998Z" fill="#0A8E2D"/>
<path d="M20 7.59998V5.59998C20 5.33476 19.8946 5.08048 19.707 4.89294C19.5429 4.7288 19.3276 4.62755 19.0986 4.60486L19 4.59998H17C16.4477 4.59998 16 4.15226 16 3.59998C16 3.04769 16.4477 2.59998 17 2.59998H19C19.7957 2.59998 20.5585 2.91627 21.1211 3.47888C21.6837 4.04149 22 4.80433 22 5.59998V7.59998C22 8.15226 21.5523 8.59998 21 8.59998C20.4477 8.59998 20 8.15226 20 7.59998Z" fill="#0A8E2D"/>
<path d="M20 19.6V17.6C20 17.0477 20.4477 16.6 21 16.6C21.5523 16.6 22 17.0477 22 17.6V19.6C22 20.3956 21.6837 21.1585 21.1211 21.7211C20.5585 22.2837 19.7957 22.6 19 22.6H17C16.4477 22.6 16 22.1523 16 21.6C16 21.0477 16.4477 20.6 17 20.6H19C19.2652 20.6 19.5195 20.4945 19.707 20.307C19.8946 20.1195 20 19.8652 20 19.6Z" fill="#0A8E2D"/>
<path d="M2 19.6V17.6C2 17.0477 2.44772 16.6 3 16.6C3.55228 16.6 4 17.0477 4 17.6V19.6L4.00488 19.6986C4.02757 19.9276 4.12883 20.1429 4.29297 20.307C4.48051 20.4945 4.73478 20.6 5 20.6H7C7.55228 20.6 8 21.0477 8 21.6C8 22.1523 7.55228 22.6 7 22.6H5C4.20435 22.6 3.44151 22.2837 2.87891 21.7211C2.3163 21.1585 2 20.3956 2 19.6Z" fill="#0A8E2D"/>
<path d="M8 9.59998V15.6H16V9.59998H8ZM18 15.6C18 16.7045 17.1046 17.6 16 17.6H8C6.89543 17.6 6 16.7045 6 15.6V9.59998C6 8.49541 6.89543 7.59998 8 7.59998H16C17.1046 7.59998 18 8.49541 18 9.59998V15.6Z" fill="#0A8E2D"/>
</svg>
