<svg width="40" height="41" viewBox="0 0 40 41" fill="none" xmlns="http://www.w3.org/2000/svg">
<path d="M25 22.2668C25.9205 22.2668 26.6667 23.013 26.6667 23.9335C26.6667 24.854 25.9205 25.6002 25 25.6002H15C14.0795 25.6002 13.3333 24.854 13.3333 23.9335C13.3333 23.013 14.0795 22.2668 15 22.2668H25Z" fill="#0A8E2D"/>
<path fill-rule="evenodd" clip-rule="evenodd" d="M25 2.26685C26.8409 2.26685 28.3333 3.75923 28.3333 5.60018H30C31.3261 5.60018 32.5975 6.12734 33.5352 7.06502C34.4728 8.0027 35 9.2741 35 10.6002V33.9335C35 35.2596 34.4728 36.531 33.5352 37.4687C32.5975 38.4063 31.3261 38.9335 30 38.9335H10C8.67392 38.9335 7.40252 38.4063 6.46484 37.4687C5.52716 36.531 5 35.2596 5 33.9335V10.6002C5 9.2741 5.52716 8.0027 6.46484 7.06502C7.40253 6.12734 8.67392 5.60018 10 5.60018H11.6667C11.6667 3.75923 13.1591 2.26685 15 2.26685H25ZM10 8.93351C9.55797 8.93351 9.13417 9.10923 8.82161 9.42179C8.50905 9.73435 8.33333 10.1582 8.33333 10.6002V33.9335L8.34147 34.0979C8.37929 34.4796 8.54804 34.8383 8.82161 35.1119C9.13418 35.4245 9.55797 35.6002 10 35.6002H30C30.442 35.6002 30.8658 35.4245 31.1784 35.1119C31.4909 34.7993 31.6667 34.3755 31.6667 33.9335V10.6002C31.6667 10.1582 31.4909 9.73435 31.1784 9.42179C30.9048 9.14822 30.5461 8.97947 30.1644 8.94165L30 8.93351H28.3333C28.3333 10.7745 26.8409 12.2668 25 12.2668H15C13.1591 12.2668 11.6667 10.7745 11.6667 8.93351H10ZM15 8.93351H25V5.60018H15V8.93351Z" fill="#0A8E2D"/>
</svg>
