<svg width="24" height="25" viewBox="0 0 24 25" fill="none" xmlns="http://www.w3.org/2000/svg">
<path d="M13.125 8.8501C13.125 8.55173 13.2435 8.26558 13.4545 8.0546C13.6655 7.84362 13.9516 7.7251 14.25 7.7251H17.25C17.5484 7.7251 17.8345 7.84362 18.0455 8.0546C18.2565 8.26558 18.375 8.55173 18.375 8.8501V11.8501C18.375 12.1485 18.2565 12.4346 18.0455 12.6456C17.8345 12.8566 17.5484 12.9751 17.25 12.9751C16.9516 12.9751 16.6655 12.8566 16.4545 12.6456C16.2435 12.4346 16.125 12.1485 16.125 11.8501V9.9751H14.25C13.9516 9.9751 13.6655 9.85657 13.4545 9.64559C13.2435 9.43461 13.125 9.14847 13.125 8.8501ZM6.75 17.4751H9.75C10.0484 17.4751 10.3345 17.3566 10.5455 17.1456C10.7565 16.9346 10.875 16.6485 10.875 16.3501C10.875 16.0517 10.7565 15.7656 10.5455 15.5546C10.3345 15.3436 10.0484 15.2251 9.75 15.2251H7.875V13.3501C7.875 13.0517 7.75647 12.7656 7.5455 12.5546C7.33452 12.3436 7.04837 12.2251 6.75 12.2251C6.45163 12.2251 6.16548 12.3436 5.9545 12.5546C5.74353 12.7656 5.625 13.0517 5.625 13.3501V16.3501C5.625 16.6485 5.74353 16.9346 5.9545 17.1456C6.16548 17.3566 6.45163 17.4751 6.75 17.4751ZM22.125 5.8501V19.3501C22.125 19.8474 21.9275 20.3243 21.5758 20.6759C21.2242 21.0276 20.7473 21.2251 20.25 21.2251H3.75C3.25272 21.2251 2.77581 21.0276 2.42417 20.6759C2.07254 20.3243 1.875 19.8474 1.875 19.3501V5.8501C1.875 5.35282 2.07254 4.8759 2.42417 4.52427C2.77581 4.17264 3.25272 3.9751 3.75 3.9751H20.25C20.7473 3.9751 21.2242 4.17264 21.5758 4.52427C21.9275 4.8759 22.125 5.35282 22.125 5.8501ZM19.875 6.2251H4.125V18.9751H19.875V6.2251Z" fill="#00FF44"/>
</svg>
