<svg width="40" height="41" viewBox="0 0 40 41" fill="none" xmlns="http://www.w3.org/2000/svg">
<path fill-rule="evenodd" clip-rule="evenodd" d="M20.0001 10.6002C22.6522 10.6002 25.195 11.6545 27.0704 13.5299C28.9458 15.4052 30.0001 17.948 30.0001 20.6002V29.2249C30.6958 29.4713 31.3367 29.8665 31.8686 30.3984C32.8062 31.336 33.3334 32.6074 33.3334 33.9335V35.6002C33.3334 36.4842 32.982 37.3318 32.3568 37.9569C31.7317 38.5821 30.8841 38.9335 30.0001 38.9335H10.0001C9.11603 38.9335 8.26843 38.5821 7.64331 37.9569C7.01819 37.3318 6.66675 36.4842 6.66675 35.6002V33.9335C6.66675 32.6074 7.19391 31.336 8.13159 30.3984C8.66348 29.8665 9.30437 29.4713 10.0001 29.2249V20.6002C10.0001 17.948 11.0544 15.4052 12.9298 13.5299C14.8051 11.6545 17.3479 10.6002 20.0001 10.6002ZM11.6667 32.2668C11.2247 32.2668 10.8009 32.4426 10.4884 32.7551C10.1758 33.0677 10.0001 33.4915 10.0001 33.9335V35.6002H30.0001V33.9335C30.0001 33.4915 29.8244 33.0677 29.5118 32.7551C29.1992 32.4426 28.7754 32.2668 28.3334 32.2668H11.6667ZM20.0001 13.9335C18.232 13.9335 16.5368 14.6364 15.2865 15.8866C14.0363 17.1369 13.3334 18.8321 13.3334 20.6002V28.9335H18.3334V20.6002C18.3334 19.6797 19.0796 18.9335 20.0001 18.9335C20.9206 18.9335 21.6667 19.6797 21.6667 20.6002V28.9335H26.6667V20.6002C26.6667 18.8321 25.9639 17.1369 24.7136 15.8866C23.4634 14.6364 21.7682 13.9335 20.0001 13.9335Z" fill="#0A8E2D"/>
<path d="M5.00008 18.9335C5.92056 18.9335 6.66675 19.6797 6.66675 20.6002C6.66675 21.5207 5.92056 22.2668 5.00008 22.2668H3.33341C2.41294 22.2668 1.66675 21.5207 1.66675 20.6002C1.66675 19.6797 2.41294 18.9335 3.33341 18.9335H5.00008Z" fill="#0A8E2D"/>
<path d="M36.6667 18.9335C37.5872 18.9335 38.3334 19.6797 38.3334 20.6002C38.3334 21.5207 37.5872 22.2668 36.6667 22.2668H35.0001C34.0796 22.2668 33.3334 21.5207 33.3334 20.6002C33.3334 19.6797 34.0796 18.9335 35.0001 18.9335H36.6667Z" fill="#0A8E2D"/>
<path d="M7.03621 7.63631C7.68693 6.9856 8.74207 6.98592 9.39298 7.63631L10.5714 8.8147C11.2222 9.46557 11.2222 10.5206 10.5714 11.1715C9.9205 11.8221 8.86541 11.8222 8.2146 11.1715L7.03621 9.99308C6.38589 9.34224 6.3857 8.28704 7.03621 7.63631Z" fill="#0A8E2D"/>
<path d="M29.655 6.92179C30.3059 6.27092 31.3609 6.27092 32.0118 6.92179C32.6625 7.57268 32.6626 8.62773 32.0118 9.27856L31.1785 10.1119C30.5276 10.7627 29.4726 10.7626 28.8217 10.1119C28.1708 9.46102 28.1708 8.406 28.8217 7.75513L29.655 6.92179Z" fill="#0A8E2D"/>
<path d="M20.0001 2.26685C20.9206 2.26685 21.6667 3.01304 21.6667 3.93351V5.60018C21.6667 6.52065 20.9206 7.26685 20.0001 7.26685C19.0796 7.26685 18.3334 6.52065 18.3334 5.60018V3.93351C18.3334 3.01304 19.0796 2.26685 20.0001 2.26685Z" fill="#0A8E2D"/>
</svg>
