<svg width="40" height="41" viewBox="0 0 40 41" fill="none" xmlns="http://www.w3.org/2000/svg">
<path d="M36.6666 32.2668C37.5871 32.2668 38.3333 33.013 38.3333 33.9334C38.3333 34.8539 37.5871 35.6001 36.6666 35.6001H3.33329C2.41282 35.6001 1.66663 34.8539 1.66663 33.9334C1.66663 33.013 2.41282 32.2668 3.33329 32.2668H36.6666Z" fill="#0A8E2D"/>
<path d="M23.8216 12.755C24.4724 12.1042 25.5275 12.1042 26.1783 12.755C26.8291 13.4059 26.8292 14.461 26.1783 15.1118L19.5117 21.7785C18.8608 22.4293 17.8058 22.4292 17.1549 21.7785L13.8216 18.4451C13.1707 17.7943 13.1707 16.7393 13.8216 16.0884C14.4724 15.4375 15.5275 15.4375 16.1783 16.0884L18.3333 18.2433L23.8216 12.755Z" fill="#0A8E2D"/>
<path fill-rule="evenodd" clip-rule="evenodd" d="M31.6666 5.6001C34.428 5.6001 36.6666 7.83867 36.6666 10.6001V23.9334C36.6666 26.6949 34.428 28.9334 31.6666 28.9334H8.33329C5.57187 28.9334 3.33329 26.6949 3.33329 23.9334V10.6001C3.33329 7.83867 5.57187 5.6001 8.33329 5.6001H31.6666ZM8.33329 8.93343C7.41282 8.93343 6.66663 9.67962 6.66663 10.6001V23.9334C6.66663 24.8539 7.41282 25.6001 8.33329 25.6001H31.6666C32.5871 25.6001 33.3333 24.8539 33.3333 23.9334V10.6001C33.3333 9.67962 32.5871 8.93343 31.6666 8.93343H8.33329Z" fill="#0A8E2D"/>
</svg>
