<svg width="40" height="41" viewBox="0 0 40 41" fill="none" xmlns="http://www.w3.org/2000/svg">
<path fill-rule="evenodd" clip-rule="evenodd" d="M15.4885 16.9305C16.1394 16.2797 17.1944 16.2796 17.8453 16.9305C18.4959 17.5813 18.4959 18.6364 17.8453 19.2872L14.857 22.2755L17.5002 24.9187L20.4885 21.9305C21.1394 21.2797 22.1944 21.2796 22.8453 21.9305C23.4959 22.5813 23.4959 23.6364 22.8453 24.2872L19.857 27.2755L21.1786 28.5971C21.4911 28.9097 21.6668 29.3335 21.6669 29.7755C21.6669 30.2175 21.4911 30.6414 21.1786 30.9539L17.3456 34.7869C16.8195 35.3143 16.1943 35.7333 15.5064 36.019C14.8177 36.3049 14.0792 36.4519 13.3335 36.4519C12.5879 36.4519 11.8494 36.3049 11.1607 36.019C10.4726 35.7333 9.84759 35.3144 9.32149 34.7869L8.33353 33.7989L4.51192 37.6206C3.86109 38.2714 2.80603 38.2713 2.15515 37.6206C1.50427 36.9697 1.50427 35.9147 2.15515 35.2638L5.97676 31.4422L4.98881 30.4542L4.99043 30.4526C4.46297 29.9265 4.0424 29.3031 3.75671 28.615C3.50663 28.0126 3.36243 27.3722 3.33028 26.7221L3.32377 26.4422C3.32379 25.6965 3.4708 24.958 3.75671 24.2693C4.04269 23.5807 4.46225 22.9549 4.99043 22.4285L8.82181 18.5971L8.94388 18.4865C9.24044 18.2435 9.61346 18.1089 10.0002 18.1088C10.4422 18.1089 10.8661 18.2846 11.1786 18.5971L12.5002 19.9187L15.4885 16.9305ZM7.34558 24.7869L7.34395 24.7902C7.12665 25.0067 6.95388 25.2637 6.83614 25.547C6.71839 25.8306 6.65712 26.1351 6.6571 26.4422L6.66849 26.6717C6.69106 26.9 6.74783 27.1247 6.83614 27.3374C6.92448 27.55 7.04354 27.7478 7.18933 27.9249L7.34395 28.0942L7.34558 28.0975L11.6783 32.4301L11.6815 32.4318C11.8981 32.6491 12.155 32.8218 12.4384 32.9396C12.7219 33.0573 13.0265 33.1186 13.3335 33.1186C13.6406 33.1186 13.9451 33.0573 14.2287 32.9396C14.5121 32.8218 14.7706 32.6491 14.9872 32.4318L17.6434 29.7755L10.0002 22.1323L7.34558 24.7869Z" fill="#0A8E2D"/>
<path fill-rule="evenodd" clip-rule="evenodd" d="M35.4885 1.93046C36.1394 1.27974 37.1944 1.27964 37.8452 1.93046C38.4959 2.5813 38.4959 3.63639 37.8452 4.28723L34.0236 8.10885L35.01 9.09517L35.2036 9.297C35.6415 9.77873 35.9935 10.3335 36.2437 10.936C36.5296 11.6247 36.6766 12.3632 36.6766 13.1088C36.6766 13.8545 36.5296 14.593 36.2437 15.2817C35.958 15.9697 35.5374 16.5932 35.01 17.1193L35.0116 17.1209L31.1786 20.9539C30.8661 21.2664 30.4422 21.4421 30.0002 21.4422C29.5582 21.4422 29.1344 21.2665 28.8218 20.9539L18.8218 10.9539C18.5093 10.6413 18.3335 10.2175 18.3335 9.77551C18.3336 9.33356 18.5093 8.90964 18.8218 8.59713L22.6548 4.76412C23.1809 4.23673 23.806 3.81769 24.494 3.53202C25.1827 3.24615 25.9212 3.09908 26.6669 3.09908C27.4125 3.0991 28.1511 3.24612 28.8397 3.53202C29.5277 3.81771 30.1528 4.23668 30.6789 4.76412L31.6669 5.75208L35.4885 1.93046ZM26.6669 6.43241C26.3598 6.43241 26.0553 6.49373 25.7717 6.61145C25.4884 6.72917 25.2314 6.90199 25.0148 7.11926L25.0116 7.12089L22.357 9.77551L30.0002 17.4187L32.6548 14.7641L32.6564 14.7609C32.8737 14.5443 33.0465 14.2873 33.1643 14.004C33.282 13.7205 33.3433 13.4159 33.3433 13.1088C33.3433 12.8018 33.282 12.4972 33.1643 12.2137C33.0465 11.9303 32.8738 11.6734 32.6564 11.4568L32.6548 11.4536L28.3221 7.12089L28.3189 7.11926C28.1023 6.90195 27.8454 6.7292 27.562 6.61145C27.2785 6.4937 26.9739 6.43244 26.6669 6.43241Z" fill="#0A8E2D"/>
</svg>
