<svg width="40" height="41" viewBox="0 0 40 41" fill="none" xmlns="http://www.w3.org/2000/svg">
<path d="M26.6667 2.26685C27.5872 2.26685 28.3334 3.01304 28.3334 3.93351V5.60018H31.6667C32.9928 5.60018 34.2642 6.12734 35.2019 7.06502C36.1395 8.0027 36.6667 9.2741 36.6667 10.6002V14.7668C36.6667 15.6873 35.9205 16.4335 35 16.4335C34.0796 16.4335 33.3334 15.6873 33.3334 14.7668V10.6002C33.3334 10.1582 33.1577 9.73435 32.8451 9.42179C32.5715 9.14822 32.2128 8.97947 31.8311 8.94165L31.6667 8.93351H28.3334V10.6002C28.3334 11.5207 27.5872 12.2668 26.6667 12.2668C25.7462 12.2668 25 11.5207 25 10.6002V8.93351H15V10.6002C15 11.5207 14.2538 12.2668 13.3334 12.2668C12.4129 12.2668 11.6667 11.5207 11.6667 10.6002V8.93351H8.33337C7.89135 8.93351 7.46755 9.10923 7.15499 9.42179C6.84243 9.73435 6.66671 10.1582 6.66671 10.6002V15.6002H11.6667C12.5872 15.6002 13.3334 16.3464 13.3334 17.2668C13.3334 18.1873 12.5872 18.9335 11.6667 18.9335H6.66671V33.9335C6.66671 34.3755 6.84243 34.7993 7.15499 35.1119C7.46755 35.4245 7.89135 35.6002 8.33337 35.6002H15.4997C16.4202 35.6002 17.1664 36.3464 17.1664 37.2668C17.1664 38.1873 16.4202 38.9335 15.4997 38.9335H8.33337C7.00729 38.9335 5.7359 38.4063 4.79822 37.4687C3.86054 36.531 3.33337 35.2596 3.33337 33.9335V10.6002C3.33337 9.2741 3.86054 8.0027 4.79822 7.06502C5.7359 6.12734 7.00729 5.60018 8.33337 5.60018H11.6667V3.93351C11.6667 3.01304 12.4129 2.26685 13.3334 2.26685C14.2538 2.26685 15 3.01304 15 3.93351V5.60018H25V3.93351C25 3.01304 25.7462 2.26685 26.6667 2.26685Z" fill="#0A8E2D"/>
<path d="M35.0635 28.9351C35.088 28.9361 35.1124 28.938 35.1368 28.94C35.1718 28.9429 35.2065 28.9464 35.2409 28.9514C35.2633 28.9546 35.2854 28.9587 35.3077 28.9628C35.3329 28.9675 35.3577 28.9733 35.3825 28.9791C35.4098 28.9855 35.4369 28.9925 35.4639 29.0002C35.4747 29.0034 35.4858 29.0051 35.4965 29.0084L35.5941 29.0426C35.5989 29.0444 35.604 29.0456 35.6088 29.0474C35.6421 29.0605 35.6742 29.0763 35.7064 29.0914C35.7284 29.1017 35.7499 29.1127 35.7715 29.1239C35.7857 29.1314 35.7999 29.1389 35.8138 29.1467C35.8496 29.1667 35.8851 29.1873 35.9196 29.2102C35.9284 29.216 35.937 29.2221 35.9457 29.2281C36.0177 29.2778 36.0871 29.3333 36.1524 29.3957L36.1784 29.4218C36.183 29.4264 36.1869 29.4318 36.1914 29.4364C36.4602 29.7112 36.6152 30.056 36.6553 30.413C36.6581 30.4378 36.6585 30.4628 36.6602 30.4879C36.6625 30.5215 36.6648 30.5551 36.6651 30.5888C36.6651 30.5926 36.6667 30.5964 36.6667 30.6002V37.2668C36.6667 38.1873 35.9205 38.9335 35 38.9335C34.0796 38.9335 33.3334 38.1873 33.3334 37.2668V34.7164C32.2376 35.6967 30.9396 36.4271 29.528 36.8485C28.0025 37.3039 26.3891 37.3893 24.8243 37.0959C23.2594 36.8024 21.786 36.1395 20.529 35.1624C19.2722 34.1852 18.2664 32.9215 17.5961 31.4775C17.2088 30.6428 17.5721 29.6516 18.4066 29.2639C19.2413 28.8765 20.2324 29.2384 20.6202 30.0728C21.067 31.0356 21.737 31.879 22.5749 32.5305C23.4127 33.1818 24.3949 33.6238 25.4379 33.8196C26.4811 34.0152 27.5572 33.9587 28.5743 33.6552C29.499 33.3791 30.3503 32.9035 31.0726 32.2668H28.3334C27.4129 32.2668 26.6667 31.5207 26.6667 30.6002C26.6667 29.6797 27.4129 28.9335 28.3334 28.9335H35C35.0213 28.9335 35.0425 28.9343 35.0635 28.9351Z" fill="#0A8E2D"/>
<path d="M18.3334 15.6002C19.2538 15.6002 20 16.3464 20 17.2668V19.8173C21.0959 18.8368 22.3936 18.1067 23.8054 17.6851C25.3312 17.2297 26.9441 17.1443 28.5092 17.4377C30.0742 17.7312 31.5473 18.3941 32.8044 19.3713C34.0613 20.3485 35.067 21.6121 35.7373 23.0562C36.1248 23.8911 35.7615 24.8822 34.9268 25.2698C34.0921 25.6572 33.101 25.2954 32.7133 24.4609C32.2664 23.4981 31.5965 22.6547 30.7585 22.0032C29.9206 21.3518 28.9386 20.9098 27.8955 20.7141C26.8522 20.5185 25.7763 20.5749 24.7592 20.8785C23.8339 21.1547 22.9819 21.6299 22.2592 22.2668H25C25.9205 22.2668 26.6667 23.013 26.6667 23.9335C26.6667 24.854 25.9205 25.6002 25 25.6002H18.3334C18.311 25.6002 18.2888 25.5978 18.2666 25.5969C18.2427 25.596 18.2189 25.594 18.195 25.592C18.1588 25.5891 18.1231 25.5843 18.0876 25.579C18.0681 25.5761 18.0484 25.5745 18.029 25.5709C18.0009 25.5657 17.9736 25.5579 17.946 25.5513C17.92 25.5452 17.8936 25.5409 17.8679 25.5334C17.8303 25.5225 17.7936 25.5095 17.7572 25.496C17.749 25.493 17.741 25.4894 17.7328 25.4862C17.6952 25.4717 17.6583 25.4562 17.6221 25.439C17.6013 25.4292 17.5808 25.4189 17.5603 25.4081C17.5426 25.3988 17.5255 25.3887 17.5082 25.3788C17.4787 25.362 17.4489 25.3455 17.4203 25.3267C17.4033 25.3156 17.3864 25.3043 17.3698 25.2926C17.3044 25.246 17.2408 25.1951 17.181 25.1379L17.155 25.1119C17.1447 25.1016 17.1357 25.0899 17.1257 25.0793C16.992 24.9386 16.8867 24.781 16.8116 24.6122C16.7764 24.5334 16.7481 24.4512 16.7253 24.3665C16.7035 24.2849 16.6858 24.2025 16.6765 24.1191C16.6738 24.0948 16.6732 24.0703 16.6716 24.0458C16.6699 24.0209 16.6673 23.9959 16.6667 23.9709V17.2668C16.6667 16.3464 17.4129 15.6002 18.3334 15.6002Z" fill="#0A8E2D"/>
</svg>
