<svg width="40" height="41" viewBox="0 0 40 41" fill="none" xmlns="http://www.w3.org/2000/svg">
<path fill-rule="evenodd" clip-rule="evenodd" d="M30.0001 2.26685C32.7615 2.26685 35.0001 4.50542 35.0001 7.26685V33.9335C35.0001 36.6949 32.7615 38.9335 30.0001 38.9335H10.0001C7.23866 38.9335 5.00008 36.6949 5.00008 33.9335V32.2668H3.33341C2.41294 32.2668 1.66675 31.5207 1.66675 30.6002C1.66675 29.6797 2.41294 28.9335 3.33341 28.9335H5.00008V25.6002H3.33341C2.41294 25.6002 1.66675 24.854 1.66675 23.9335C1.66675 23.013 2.41294 22.2668 3.33341 22.2668H5.00008V18.9335H3.33341C2.41294 18.9335 1.66675 18.1873 1.66675 17.2668C1.66675 16.3464 2.41294 15.6002 3.33341 15.6002H5.00008V12.2668H3.33341C2.41294 12.2668 1.66675 11.5207 1.66675 10.6002C1.66675 9.6797 2.41294 8.93351 3.33341 8.93351H5.00008V7.26685C5.00008 4.50542 7.23866 2.26685 10.0001 2.26685H30.0001ZM10.0001 5.60018C9.07961 5.60018 8.33341 6.34637 8.33341 7.26685V8.93351H10.0001C10.9206 8.93351 11.6667 9.6797 11.6667 10.6002C11.6667 11.5207 10.9206 12.2668 10.0001 12.2668H8.33341V15.6002H10.0001C10.9206 15.6002 11.6667 16.3464 11.6667 17.2668C11.6667 18.1873 10.9206 18.9335 10.0001 18.9335H8.33341V22.2668H10.0001C10.9206 22.2668 11.6667 23.013 11.6667 23.9335C11.6667 24.854 10.9206 25.6002 10.0001 25.6002H8.33341V28.9335H10.0001C10.9206 28.9335 11.6667 29.6797 11.6667 30.6002C11.6667 31.5207 10.9206 32.2668 10.0001 32.2668H8.33341V33.9335C8.33341 34.854 9.07961 35.6002 10.0001 35.6002H23.3334V5.60018H10.0001ZM26.6667 30.6002V35.6002H30.0001C30.9206 35.6002 31.6667 34.854 31.6667 33.9335V30.6002H26.6667ZM26.6667 27.2668H31.6667V22.2668H26.6667V27.2668ZM26.6667 18.9335H31.6667V13.9335H26.6667V18.9335ZM26.6667 10.6002H31.6667V7.26685C31.6667 6.34637 30.9206 5.60018 30.0001 5.60018H26.6667V10.6002Z" fill="#0A8E2D"/>
</svg>
