<svg viewBox="0 0 165 24" fill="none" xmlns="http://www.w3.org/2000/svg">
<g clip-path="url(#clip0_285_28692)">
<path d="M0.333496 8.66667C0.333496 3.8802 4.21369 0 9.00016 0L11.6668 0L11.6668 24H9.00016C4.21369 24 0.333496 20.1198 0.333496 15.3333L0.333496 8.66667Z" fill="#E7E4DE"/>
<path d="M13 12.6665H24.3333V15.3332C24.3333 20.1196 20.4531 23.9998 15.6667 23.9998H13L13 12.6665Z" fill="#E7E4DE"/>
<path d="M13 11.333H24.3333V8.66634C24.3333 3.87987 20.4531 -0.000325859 15.6667 -0.000325859H13L13 11.333Z" fill="#E7E4DE"/>
</g>
<path d="M163.426 17.7904C163.193 18.7555 162.827 19.6215 162.329 20.3885C161.832 21.1555 161.227 21.8082 160.516 22.3466C159.805 22.8799 158.997 23.2888 158.093 23.5732C157.194 23.8577 156.226 23.9999 155.19 23.9999C154.337 23.9999 153.532 23.9034 152.775 23.7104C152.018 23.5174 151.32 23.2405 150.68 22.8799C150.045 22.5142 149.473 22.0723 148.966 21.5542C148.463 21.031 148.033 20.4418 147.678 19.7866C147.327 19.1263 147.058 18.405 146.87 17.6228C146.682 16.8406 146.588 16.0101 146.588 15.1313C146.588 14.2526 146.68 13.4247 146.863 12.6475C147.051 11.8653 147.317 11.1466 147.663 10.4914C148.013 9.83612 148.437 9.24945 148.935 8.73136C149.438 8.20818 150.004 7.76628 150.634 7.40564C151.269 7.04501 151.96 6.76818 152.706 6.57517C153.458 6.38215 154.256 6.28564 155.099 6.28564C155.942 6.28564 156.734 6.38215 157.476 6.57517C158.218 6.76311 158.898 7.03739 159.518 7.39802C160.143 7.75358 160.701 8.1904 161.194 8.7085C161.687 9.22659 162.103 9.81326 162.444 10.4685C162.789 11.1237 163.051 11.8425 163.228 12.6247C163.411 13.4018 163.503 14.2323 163.503 15.1161C163.503 15.5377 163.48 15.9593 163.434 16.3809H151.625C151.691 16.9396 151.823 17.4374 152.021 17.8742C152.219 18.311 152.475 18.6818 152.79 18.9866C153.105 19.2863 153.476 19.5174 153.903 19.6799C154.334 19.8374 154.814 19.9161 155.343 19.9161C156.125 19.9161 156.778 19.7409 157.301 19.3904C157.829 19.0348 158.243 18.5015 158.543 17.7904H163.426ZM158.52 13.4856C158.159 11.3472 157.032 10.278 155.137 10.278C154.162 10.278 153.379 10.5523 152.79 11.1009C152.206 11.6494 151.833 12.4444 151.67 13.4856H158.52Z" fill="#E7E4DE"/>
<path d="M123.373 23.5428H118.07V6.74279H123.373V11.8171C123.698 9.99866 124.326 8.62215 125.255 7.68755C126.19 6.75295 127.406 6.28564 128.905 6.28564C131.947 6.28564 133.631 8.25136 133.956 12.1828C134.24 10.2526 134.858 8.78723 135.807 7.7866C136.762 6.78596 138.012 6.28564 139.556 6.28564C141.258 6.28564 142.535 6.90025 143.388 8.12945C144.247 9.35358 144.676 11.1771 144.676 13.5999V23.5428H139.373V14.7428C139.373 13.4374 139.162 12.4621 138.741 11.8171C138.319 11.172 137.677 10.8494 136.813 10.8494C135.909 10.8494 135.218 11.1898 134.741 11.8704C134.263 12.546 134.025 13.5441 134.025 14.8647V23.5428H128.722V14.7428C128.722 13.4374 128.511 12.4621 128.089 11.8171C127.668 11.172 127.025 10.8494 126.162 10.8494C125.258 10.8494 124.567 11.1898 124.089 11.8704C123.612 12.546 123.373 13.5441 123.373 14.8647V23.5428Z" fill="#E7E4DE"/>
<path d="M116.163 23.4135C115.417 23.6065 114.718 23.7513 114.068 23.8478C113.423 23.9494 112.816 24.0002 112.247 24.0002C110.317 24.0002 108.859 23.4389 107.874 22.3163C106.888 21.1938 106.396 19.5227 106.396 17.303V10.8878H104.384V6.74303H106.396V2.87256H111.699V6.74303H116.163V10.8878H111.699V17.3106C111.699 18.1995 111.859 18.8471 112.179 19.2535C112.504 19.6598 113.024 19.863 113.74 19.863C114.035 19.863 114.378 19.83 114.769 19.764C115.16 19.6979 115.625 19.5989 116.163 19.4668V23.4135Z" fill="#E7E4DE"/>
<path d="M92.6557 10.8876H90.5376V6.74285H92.6557V6.22476C92.6557 5.21396 92.8005 4.32254 93.09 3.55047C93.3846 2.77333 93.8163 2.12317 94.3852 1.6C94.9592 1.07174 95.6652 0.673015 96.5033 0.403809C97.3465 0.134603 98.3141 0 99.4062 0C99.8887 0 100.397 0.0253968 100.93 0.0761903C101.463 0.126984 102.002 0.200635 102.545 0.297143V4.2438C102.164 4.17777 101.793 4.12952 101.433 4.09904C101.072 4.06349 100.739 4.04571 100.435 4.04571C99.5001 4.04571 98.8119 4.22857 98.37 4.59428C97.9331 4.95999 97.7147 5.52888 97.7147 6.30095V6.74285H102.545V10.8876H97.9585V23.5428H92.6557V10.8876Z" fill="#E7E4DE"/>
<path d="M72.5397 13.0514C72.5397 12.005 72.7301 11.0653 73.1111 10.2323C73.4971 9.39929 74.0482 8.69072 74.7644 8.1066C75.4806 7.51739 76.3492 7.06787 77.3701 6.75803C78.3962 6.44311 79.5492 6.28564 80.8292 6.28564C82.1346 6.28564 83.2978 6.45072 84.3187 6.78088C85.3397 7.10596 86.2031 7.58088 86.9092 8.20564C87.6152 8.82532 88.1536 9.58723 88.5244 10.4914C88.8952 11.3955 89.0806 12.4241 89.0806 13.5771V23.5428H83.7778V19.3523C83.6 20.0685 83.3232 20.7136 82.9473 21.2875C82.5765 21.8615 82.1219 22.3491 81.5835 22.7504C81.0501 23.1517 80.4432 23.459 79.7625 23.6723C79.087 23.8907 78.3555 23.9999 77.5682 23.9999C76.7403 23.9999 75.986 23.8805 75.3054 23.6418C74.6298 23.4082 74.0482 23.078 73.5606 22.6513C73.0781 22.2196 72.7048 21.704 72.4406 21.1047C72.1765 20.5002 72.0444 19.8298 72.0444 19.0932C72.0444 18.2856 72.2044 17.5644 72.5244 16.9294C72.8495 16.2894 73.3194 15.751 73.934 15.3142C74.5536 14.8774 75.3079 14.5447 76.1968 14.3161C77.0908 14.0825 78.1041 13.9656 79.2368 13.9656H83.7778V13.5771C83.7778 13.0539 83.7092 12.5891 83.572 12.1828C83.44 11.7714 83.2419 11.426 82.9778 11.1466C82.7187 10.8621 82.3987 10.6463 82.0178 10.499C81.6368 10.3517 81.1974 10.278 80.6997 10.278C80.2019 10.278 79.7727 10.3415 79.412 10.4685C79.0514 10.5955 78.7517 10.7783 78.513 11.0171C78.2793 11.2507 78.1041 11.5402 77.9873 11.8856C77.8755 12.226 77.8197 12.6145 77.8197 13.0514H72.5397ZM79.953 16.8304C79.0997 16.8304 78.4546 16.9726 78.0178 17.2571C77.586 17.5364 77.3701 17.9529 77.3701 18.5066C77.3701 19.0602 77.586 19.4894 78.0178 19.7942C78.4495 20.099 79.0616 20.2513 79.8539 20.2513C80.4127 20.2513 80.9308 20.1777 81.4082 20.0304C81.8857 19.878 82.2997 19.6723 82.6501 19.4133C83.0006 19.1542 83.2749 18.8469 83.473 18.4913C83.6762 18.1358 83.7778 17.7523 83.7778 17.3409V16.8304H79.953Z" fill="#E7E4DE"/>
<path d="M64.7277 23.5427H59.4248V6.74268H64.7277V12.8151C64.8597 11.8855 65.0527 11.0474 65.3067 10.3008C65.5658 9.54902 65.9035 8.91156 66.32 8.38839C66.7365 7.86014 67.2394 7.45379 67.8286 7.16934C68.4178 6.8849 69.1086 6.74268 69.901 6.74268H71.021V11.7103H68.7505C67.9632 11.7103 67.3105 11.7992 66.7924 11.977C66.2743 12.1547 65.8629 12.4265 65.5581 12.7922C65.2534 13.1579 65.0375 13.6227 64.9105 14.1865C64.7886 14.7503 64.7277 15.4182 64.7277 16.1903V23.5427Z" fill="#E7E4DE"/>
<path d="M42.107 12.6478C42.107 13.7348 42.2162 14.6948 42.4347 15.5278C42.6582 16.3557 42.9858 17.049 43.4175 17.6078C43.8493 18.1614 44.3801 18.5805 45.0099 18.8649C45.6397 19.1494 46.3635 19.2916 47.1813 19.2916C48.4766 19.2916 49.5102 18.9056 50.2823 18.1335C51.0543 17.3563 51.5648 16.1881 51.8137 14.6287H57.3908C57.2639 15.5989 57.0505 16.5056 56.7508 17.3487C56.4562 18.1868 56.0854 18.9538 55.6385 19.6497C55.1915 20.3405 54.6734 20.9576 54.0842 21.5011C53.5 22.0395 52.8499 22.4941 52.1337 22.8649C51.4226 23.2357 50.6505 23.5176 49.8175 23.7106C48.9845 23.9036 48.1032 24.0001 47.1737 24.0001C46.1324 24.0001 45.142 23.8782 44.2023 23.6344C43.2677 23.3957 42.4016 23.0478 41.6042 22.5906C40.8118 22.1284 40.0956 21.5671 39.4556 20.9068C38.8207 20.2465 38.2797 19.4973 37.8328 18.6592C37.3858 17.816 37.0404 16.8916 36.7966 15.8859C36.5578 14.8751 36.4385 13.7957 36.4385 12.6478C36.4385 11.4998 36.5578 10.423 36.7966 9.41731C37.0404 8.40651 37.3858 7.48207 37.8328 6.64398C38.2797 5.8008 38.8207 5.04906 39.4556 4.38874C40.0956 3.72842 40.8118 3.16969 41.6042 2.71255C42.4016 2.25033 43.2677 1.89985 44.2023 1.66112C45.142 1.41731 46.1324 1.29541 47.1737 1.29541C48.5705 1.29541 49.8505 1.51128 51.0137 1.94303C52.182 2.36969 53.2054 2.98684 54.0842 3.79446C54.968 4.60207 55.6918 5.58493 56.2556 6.74302C56.8194 7.90112 57.1978 9.20905 57.3908 10.6668H51.8137C51.5648 9.10239 51.0543 7.93413 50.2823 7.16207C49.5102 6.39001 48.4766 6.00398 47.1813 6.00398C46.3635 6.00398 45.6397 6.1462 45.0099 6.43064C44.3801 6.71001 43.8493 7.12905 43.4175 7.68778C42.9858 8.24651 42.6582 8.93985 42.4347 9.76778C42.2162 10.5957 42.107 11.5557 42.107 12.6478Z" fill="#E7E4DE"/>
<defs>
<clipPath id="clip0_285_28692">
<rect width="24" height="24" fill="white" transform="translate(0.333496)"/>
</clipPath>
</defs>
</svg>
