<svg width="1234" height="1850" viewBox="0 0 1234 1850" fill="none" xmlns="http://www.w3.org/2000/svg">
<path d="M0.826172 1H206.16V206.337H0.826172V1Z" stroke="#DDE3DF" stroke-width="1.0423"/>
<path d="M206.16 1H411.494V206.337H206.16V1Z" stroke="#DDE3DF" stroke-width="1.0423"/>
<path d="M411.494 1H616.828V206.337H411.494V1Z" stroke="#DDE3DF" stroke-width="1.0423"/>
<path d="M616.828 1H822.162V206.337H616.828V1Z" stroke="#DDE3DF" stroke-width="1.0423"/>
<path d="M822.162 1H1027.5V206.337H822.162V1Z" stroke="#DDE3DF" stroke-width="1.0423"/>
<path d="M1027.5 1H1232.83V206.337H1027.5V1Z" stroke="#DDE3DF" stroke-width="1.0423"/>
<path d="M0.826172 206.337H206.16V411.673H0.826172V206.337Z" stroke="#DDE3DF" stroke-width="1.0423"/>
<path d="M206.16 206.337H411.494V411.673H206.16V206.337Z" stroke="#DDE3DF" stroke-width="1.0423"/>
<path d="M411.494 206.337H616.828V411.673H411.494V206.337Z" stroke="#DDE3DF" stroke-width="1.0423"/>
<path d="M616.828 206.337H822.162V411.673H616.828V206.337Z" stroke="#DDE3DF" stroke-width="1.0423"/>
<path d="M822.162 206.337H1027.5V411.673H822.162V206.337Z" stroke="#DDE3DF" stroke-width="1.0423"/>
<path d="M1027.5 206.337H1232.83V411.673H1027.5V206.337Z" stroke="#DDE3DF" stroke-width="1.0423"/>
<path d="M0.826172 411.673H206.16V617.01H0.826172V411.673Z" stroke="#DDE3DF" stroke-width="1.0423"/>
<path d="M206.16 411.673H411.494V617.01H206.16V411.673Z" stroke="#DDE3DF" stroke-width="1.0423"/>
<path d="M411.494 411.673H616.828V617.01H411.494V411.673Z" stroke="#DDE3DF" stroke-width="1.0423"/>
<path d="M616.828 411.673H822.162V617.01H616.828V411.673Z" stroke="#DDE3DF" stroke-width="1.0423"/>
<path d="M822.162 411.673H1027.5V617.01H822.162V411.673Z" stroke="#DDE3DF" stroke-width="1.0423"/>
<path d="M1027.5 411.673H1232.83V617.01H1027.5V411.673Z" stroke="#DDE3DF" stroke-width="1.0423"/>
<path d="M0.826172 617.01H206.16V822.347H0.826172V617.01Z" stroke="#DDE3DF" stroke-width="1.0423"/>
<path d="M206.16 617.01H411.494V822.347H206.16V617.01Z" stroke="#DDE3DF" stroke-width="1.0423"/>
<path d="M411.494 617.01H616.828V822.347H411.494V617.01Z" stroke="#DDE3DF" stroke-width="1.0423"/>
<path d="M616.828 617.01H822.162V822.347H616.828V617.01Z" stroke="#DDE3DF" stroke-width="1.0423"/>
<path d="M822.162 617.01H1027.5V822.347H822.162V617.01Z" stroke="#DDE3DF" stroke-width="1.0423"/>
<path d="M1027.5 617.01H1232.83V822.347H1027.5V617.01Z" stroke="#DDE3DF" stroke-width="1.0423"/>
<path d="M0.826172 822.347H206.16V1027.68H0.826172V822.347Z" stroke="#DDE3DF" stroke-width="1.0423"/>
<path d="M206.16 822.347H411.494V1027.68H206.16V822.347Z" stroke="#DDE3DF" stroke-width="1.0423"/>
<path d="M411.494 822.347H616.828V1027.68H411.494V822.347Z" stroke="#DDE3DF" stroke-width="1.0423"/>
<path d="M616.828 822.347H822.162V1027.68H616.828V822.347Z" stroke="#DDE3DF" stroke-width="1.0423"/>
<path d="M822.162 822.347H1027.5V1027.68H822.162V822.347Z" stroke="#DDE3DF" stroke-width="1.0423"/>
<path d="M1027.5 822.347H1232.83V1027.68H1027.5V822.347Z" stroke="#DDE3DF" stroke-width="1.0423"/>
<path d="M0.826172 1027.68H206.16V1233.02H0.826172V1027.68Z" stroke="#DDE3DF" stroke-width="1.0423"/>
<path d="M206.16 1027.68H411.494V1233.02H206.16V1027.68Z" stroke="#DDE3DF" stroke-width="1.0423"/>
<path d="M411.494 1027.68H616.828V1233.02H411.494V1027.68Z" stroke="#DDE3DF" stroke-width="1.0423"/>
<path d="M616.828 1027.68H822.162V1233.02H616.828V1027.68Z" stroke="#DDE3DF" stroke-width="1.0423"/>
<path d="M822.162 1027.68H1027.5V1233.02H822.162V1027.68Z" stroke="#DDE3DF" stroke-width="1.0423"/>
<path d="M1027.5 1027.68H1232.83V1233.02H1027.5V1027.68Z" stroke="#DDE3DF" stroke-width="1.0423"/>
<path d="M0.826172 1233.02H206.16V1438.36H0.826172V1233.02Z" stroke="#DDE3DF" stroke-width="1.0423"/>
<path d="M206.16 1233.02H411.494V1438.36H206.16V1233.02Z" stroke="#DDE3DF" stroke-width="1.0423"/>
<path d="M411.494 1233.02H616.828V1438.36H411.494V1233.02Z" stroke="#DDE3DF" stroke-width="1.0423"/>
<path d="M616.828 1233.02H822.162V1438.36H616.828V1233.02Z" stroke="#DDE3DF" stroke-width="1.0423"/>
<path d="M822.162 1233.02H1027.5V1438.36H822.162V1233.02Z" stroke="#DDE3DF" stroke-width="1.0423"/>
<path d="M1027.5 1233.02H1232.83V1438.36H1027.5V1233.02Z" stroke="#DDE3DF" stroke-width="1.0423"/>
<path d="M0.826172 1438.36H206.16V1643.69H0.826172V1438.36Z" stroke="#DDE3DF" stroke-width="1.0423"/>
<path d="M206.16 1438.36H411.494V1643.69H206.16V1438.36Z" stroke="#DDE3DF" stroke-width="1.0423"/>
<path d="M411.494 1438.36H616.828V1643.69H411.494V1438.36Z" stroke="#DDE3DF" stroke-width="1.0423"/>
<path d="M616.828 1438.36H822.162V1643.69H616.828V1438.36Z" stroke="#DDE3DF" stroke-width="1.0423"/>
<path d="M822.162 1438.36H1027.5V1643.69H822.162V1438.36Z" stroke="#DDE3DF" stroke-width="1.0423"/>
<path d="M1027.5 1438.36H1232.83V1643.69H1027.5V1438.36Z" stroke="#DDE3DF" stroke-width="1.0423"/>
</svg>
