<svg width="823" height="1645" viewBox="0 0 823 1645" fill="none" xmlns="http://www.w3.org/2000/svg">
<path d="M1 1H206.334V206.337H1V1Z" stroke="#DDE3DF" stroke-width="1.0423"/>
<path d="M206.334 1H411.668V206.337H206.334V1Z" stroke="#DDE3DF" stroke-width="1.0423"/>
<path d="M411.668 1H617.002V206.337H411.668V1Z" stroke="#DDE3DF" stroke-width="1.0423"/>
<path d="M617.002 1H822.336V206.337H617.002V1Z" stroke="#DDE3DF" stroke-width="1.0423"/>
<path d="M1 206.337H206.334V411.673H1V206.337Z" stroke="#DDE3DF" stroke-width="1.0423"/>
<path d="M206.334 206.337H411.668V411.673H206.334V206.337Z" stroke="#DDE3DF" stroke-width="1.0423"/>
<path d="M411.668 206.337H617.002V411.673H411.668V206.337Z" stroke="#DDE3DF" stroke-width="1.0423"/>
<path d="M617.002 206.337H822.336V411.673H617.002V206.337Z" stroke="#DDE3DF" stroke-width="1.0423"/>
<path d="M1 411.673H206.334V617.01H1V411.673Z" stroke="#DDE3DF" stroke-width="1.0423"/>
<path d="M206.334 411.673H411.668V617.01H206.334V411.673Z" stroke="#DDE3DF" stroke-width="1.0423"/>
<path d="M411.668 411.673H617.002V617.01H411.668V411.673Z" stroke="#DDE3DF" stroke-width="1.0423"/>
<path d="M617.002 411.673H822.336V617.01H617.002V411.673Z" stroke="#DDE3DF" stroke-width="1.0423"/>
<path d="M1 617.01H206.334V822.347H1V617.01Z" stroke="#DDE3DF" stroke-width="1.0423"/>
<path d="M206.334 617.01H411.668V822.347H206.334V617.01Z" stroke="#DDE3DF" stroke-width="1.0423"/>
<path d="M411.668 617.01H617.002V822.347H411.668V617.01Z" stroke="#DDE3DF" stroke-width="1.0423"/>
<path d="M617.002 617.01H822.336V822.347H617.002V617.01Z" stroke="#DDE3DF" stroke-width="1.0423"/>
<path d="M1 822.347H206.334V1027.68H1V822.347Z" stroke="#DDE3DF" stroke-width="1.0423"/>
<path d="M206.334 822.347H411.668V1027.68H206.334V822.347Z" stroke="#DDE3DF" stroke-width="1.0423"/>
<path d="M411.668 822.347H617.002V1027.68H411.668V822.347Z" stroke="#DDE3DF" stroke-width="1.0423"/>
<path d="M617.002 822.347H822.336V1027.68H617.002V822.347Z" stroke="#DDE3DF" stroke-width="1.0423"/>
<path d="M1 1027.68H206.334V1233.02H1V1027.68Z" stroke="#DDE3DF" stroke-width="1.0423"/>
<path d="M206.334 1027.68H411.668V1233.02H206.334V1027.68Z" stroke="#DDE3DF" stroke-width="1.0423"/>
<path d="M411.668 1027.68H617.002V1233.02H411.668V1027.68Z" stroke="#DDE3DF" stroke-width="1.0423"/>
<path d="M617.002 1027.68H822.336V1233.02H617.002V1027.68Z" stroke="#DDE3DF" stroke-width="1.0423"/>
<path d="M1 1233.02H206.334V1438.36H1V1233.02Z" stroke="#DDE3DF" stroke-width="1.0423"/>
<path d="M206.334 1233.02H411.668V1438.36H206.334V1233.02Z" stroke="#DDE3DF" stroke-width="1.0423"/>
<path d="M411.668 1233.02H617.002V1438.36H411.668V1233.02Z" stroke="#DDE3DF" stroke-width="1.0423"/>
<path d="M617.002 1233.02H822.336V1438.36H617.002V1233.02Z" stroke="#DDE3DF" stroke-width="1.0423"/>
<path d="M1 1438.36H206.334V1643.69H1V1438.36Z" stroke="#DDE3DF" stroke-width="1.0423"/>
<path d="M206.334 1438.36H411.668V1643.69H206.334V1438.36Z" stroke="#DDE3DF" stroke-width="1.0423"/>
<path d="M411.668 1438.36H617.002V1643.69H411.668V1438.36Z" stroke="#DDE3DF" stroke-width="1.0423"/>
<path d="M617.002 1438.36H822.336V1643.69H617.002V1438.36Z" stroke="#DDE3DF" stroke-width="1.0423"/>
</svg>
