<svg width="32" height="32" viewBox="0 0 32 32" fill="none" xmlns="http://www.w3.org/2000/svg">
<circle cx="16" cy="16" r="16" fill="url(#paint0_linear_2141_37487)"/>
<ellipse cx="16" cy="16" rx="12.5" ry="12.5" fill="url(#paint1_linear_2141_37487)"/>
<circle cx="16" cy="16" r="11.75" fill="url(#paint2_linear_2141_37487)"/>
<circle cx="16" cy="16" r="9.75" fill="url(#paint3_linear_2141_37487)"/>
<circle cx="16" cy="16" r="9" fill="url(#paint4_linear_2141_37487)"/>
<mask id="mask0_2141_37487" style="mask-type:alpha" maskUnits="userSpaceOnUse" x="7" y="7" width="18" height="18">
<ellipse cx="16" cy="16" rx="9" ry="9" fill="url(#paint5_linear_2141_37487)"/>
</mask>
<g mask="url(#mask0_2141_37487)">
<path d="M16 7C20.9706 7.00001 25 11.0294 25 16C25 16.2025 24.9932 16.4034 24.98 16.6025C24.67 11.9129 20.7681 8.20505 16 8.20505C11.2319 8.20505 7.32994 11.9129 7.01995 16.6025C7.00679 16.4034 7.00003 16.2025 7.00003 16C7.00003 11.0294 11.0295 7 16 7Z" fill="#33271D"/>
</g>
<circle cx="16" cy="16" r="5.625" fill="url(#paint6_radial_2141_37487)"/>
<path opacity="0.8" d="M16 10.375C19.1066 10.375 21.625 12.8934 21.625 16C21.625 19.1066 19.1066 21.625 16 21.625C12.8934 21.625 10.375 19.1066 10.375 16C10.375 12.8934 12.8934 10.375 16 10.375ZM16 11.125C13.3076 11.125 11.125 13.3076 11.125 16C11.125 18.6924 13.3076 20.875 16 20.875C18.6924 20.875 20.875 18.6924 20.875 16C20.875 13.3076 18.6924 11.125 16 11.125Z" fill="#AC5B00"/>
<path d="M13.9318 1.75C13.9318 1.19871 13.9318 0.923066 14.0342 0.710416C14.1359 0.49935 14.3062 0.329051 14.5172 0.227407C14.7299 0.125 15.0055 0.125 15.5568 0.125H16.4432C16.9945 0.125 17.2701 0.125 17.4828 0.227407C17.6938 0.329051 17.8641 0.49935 17.9658 0.710416C18.0682 0.923066 18.0682 1.19871 18.0682 1.75C18.0682 2.30129 18.0682 2.57693 17.9658 2.78958C17.8641 3.00065 17.6938 3.17095 17.4828 3.27259C17.2701 3.375 16.9945 3.375 16.4432 3.375H15.5568C15.0055 3.375 14.7299 3.375 14.5172 3.27259C14.3062 3.17095 14.1359 3.00065 14.0342 2.78958C13.9318 2.57693 13.9318 2.30129 13.9318 1.75Z" fill="url(#paint7_linear_2141_37487)"/>
<path d="M14.1534 1.5808C14.1534 1.11887 14.1534 0.887905 14.2312 0.706573C14.3283 0.480267 14.5087 0.299922 14.735 0.202811C14.9163 0.125 15.1473 0.125 15.6092 0.125H16.3908C16.8527 0.125 17.0837 0.125 17.265 0.202811C17.4913 0.299922 17.6717 0.480267 17.7688 0.706573C17.8466 0.887905 17.8466 1.11887 17.8466 1.5808C17.8466 2.04274 17.8466 2.2737 17.7688 2.45504C17.6717 2.68134 17.4913 2.86169 17.265 2.9588C17.0837 3.03661 16.8527 3.03661 16.3908 3.03661H15.6092C15.1473 3.03661 14.9163 3.03661 14.735 2.9588C14.5087 2.86169 14.3283 2.68134 14.2312 2.45504C14.1534 2.2737 14.1534 2.04274 14.1534 1.5808Z" fill="url(#paint8_linear_2141_37487)"/>
<path d="M13.9318 30.25C13.9318 30.8013 13.9318 31.0769 14.0342 31.2896C14.1359 31.5007 14.3062 31.6709 14.5172 31.7726C14.7299 31.875 15.0055 31.875 15.5568 31.875H16.4432C16.9945 31.875 17.2701 31.875 17.4828 31.7726C17.6938 31.6709 17.8641 31.5007 17.9658 31.2896C18.0682 31.0769 18.0682 30.8013 18.0682 30.25C18.0682 29.6987 18.0682 29.4231 17.9658 29.2104C17.8641 28.9993 17.6938 28.8291 17.4828 28.7274C17.2701 28.625 16.9945 28.625 16.4432 28.625H15.5568C15.0055 28.625 14.7299 28.625 14.5172 28.7274C14.3062 28.8291 14.1359 28.9993 14.0342 29.2104C13.9318 29.4231 13.9318 29.6987 13.9318 30.25Z" fill="url(#paint9_linear_2141_37487)"/>
<path d="M14.1534 30.4192C14.1534 30.8811 14.1534 31.1121 14.2312 31.2934C14.3283 31.5197 14.5087 31.7001 14.735 31.7972C14.9163 31.875 15.1473 31.875 15.6092 31.875H16.3908C16.8527 31.875 17.0837 31.875 17.265 31.7972C17.4913 31.7001 17.6717 31.5197 17.7688 31.2934C17.8466 31.1121 17.8466 30.8811 17.8466 30.4192C17.8466 29.9573 17.8466 29.7263 17.7688 29.545C17.6717 29.3187 17.4913 29.1383 17.265 29.0412C17.0837 28.9634 16.8527 28.9634 16.3908 28.9634H15.6092C15.1473 28.9634 14.9163 28.9634 14.735 29.0412C14.5087 29.1383 14.3283 29.3187 14.2312 29.545C14.1534 29.7263 14.1534 29.9573 14.1534 30.4192Z" fill="url(#paint10_linear_2141_37487)"/>
<path d="M1.75 18.0682C1.19871 18.0682 0.923066 18.0682 0.710416 17.9658C0.49935 17.8641 0.329051 17.6938 0.227407 17.4828C0.125 17.2701 0.125 16.9945 0.125 16.4432L0.125 15.5568C0.125 15.0055 0.125 14.7299 0.227407 14.5172C0.329051 14.3062 0.49935 14.1359 0.710416 14.0342C0.923066 13.9318 1.19871 13.9318 1.75 13.9318C2.30129 13.9318 2.57693 13.9318 2.78958 14.0342C3.00065 14.1359 3.17095 14.3062 3.27259 14.5172C3.375 14.7299 3.375 15.0055 3.375 15.5568L3.375 16.4432C3.375 16.9945 3.375 17.2701 3.27259 17.4828C3.17095 17.6938 3.00065 17.8641 2.78958 17.9658C2.57693 18.0682 2.30129 18.0682 1.75 18.0682Z" fill="url(#paint11_linear_2141_37487)"/>
<path d="M1.5808 17.8466C1.11887 17.8466 0.887905 17.8466 0.706573 17.7688C0.480267 17.6717 0.299922 17.4913 0.202811 17.265C0.125 17.0837 0.125 16.8527 0.125 16.3908L0.125 15.6092C0.125 15.1473 0.125 14.9163 0.202811 14.735C0.299922 14.5087 0.480267 14.3283 0.706573 14.2312C0.887905 14.1534 1.11887 14.1534 1.5808 14.1534C2.04274 14.1534 2.2737 14.1534 2.45504 14.2312C2.68134 14.3283 2.86169 14.5087 2.9588 14.735C3.03661 14.9163 3.03661 15.1473 3.03661 15.6092L3.03661 16.3908C3.03661 16.8527 3.03661 17.0837 2.9588 17.265C2.86169 17.4913 2.68134 17.6717 2.45504 17.7688C2.2737 17.8466 2.04274 17.8466 1.5808 17.8466Z" fill="url(#paint12_linear_2141_37487)"/>
<path d="M30.25 18.0682C30.8013 18.0682 31.0769 18.0682 31.2896 17.9658C31.5007 17.8641 31.6709 17.6938 31.7726 17.4828C31.875 17.2701 31.875 16.9945 31.875 16.4432L31.875 15.5568C31.875 15.0055 31.875 14.7299 31.7726 14.5172C31.6709 14.3062 31.5007 14.1359 31.2896 14.0342C31.0769 13.9318 30.8013 13.9318 30.25 13.9318C29.6987 13.9318 29.4231 13.9318 29.2104 14.0342C28.9994 14.1359 28.8291 14.3062 28.7274 14.5172C28.625 14.7299 28.625 15.0055 28.625 15.5568L28.625 16.4432C28.625 16.9945 28.625 17.2701 28.7274 17.4828C28.8291 17.6938 28.9993 17.8641 29.2104 17.9658C29.4231 18.0682 29.6987 18.0682 30.25 18.0682Z" fill="url(#paint13_linear_2141_37487)"/>
<path d="M30.4192 17.8466C30.8811 17.8466 31.1121 17.8466 31.2934 17.7688C31.5197 17.6717 31.7001 17.4913 31.7972 17.265C31.875 17.0837 31.875 16.8527 31.875 16.3908L31.875 15.6092C31.875 15.1473 31.875 14.9163 31.7972 14.735C31.7001 14.5087 31.5197 14.3283 31.2934 14.2312C31.1121 14.1534 30.8811 14.1534 30.4192 14.1534C29.9573 14.1534 29.7263 14.1534 29.545 14.2312C29.3187 14.3283 29.1383 14.5087 29.0412 14.735C28.9634 14.9163 28.9634 15.1473 28.9634 15.6092L28.9634 16.3908C28.9634 16.8527 28.9634 17.0837 29.0412 17.265C29.1383 17.4913 29.3187 17.6717 29.545 17.7688C29.7263 17.8466 29.9573 17.8466 30.4192 17.8466Z" fill="url(#paint14_linear_2141_37487)"/>
<defs>
<linearGradient id="paint0_linear_2141_37487" x1="16" y1="0" x2="16" y2="32" gradientUnits="userSpaceOnUse">
<stop stop-color="#F5E1C8"/>
<stop offset="0.495275" stop-color="#C19E70"/>
<stop offset="1" stop-color="#B28956"/>
</linearGradient>
<linearGradient id="paint1_linear_2141_37487" x1="16" y1="3.5" x2="16" y2="28.5" gradientUnits="userSpaceOnUse">
<stop stop-color="#DFBE95"/>
<stop offset="1" stop-color="#D4B58B"/>
</linearGradient>
<linearGradient id="paint2_linear_2141_37487" x1="16" y1="4.25" x2="16" y2="27.75" gradientUnits="userSpaceOnUse">
<stop stop-color="#F6960C"/>
<stop offset="0.473881" stop-color="#BF6102"/>
<stop offset="1" stop-color="#B95B01"/>
</linearGradient>
<linearGradient id="paint3_linear_2141_37487" x1="16" y1="6.25" x2="16" y2="25.75" gradientUnits="userSpaceOnUse">
<stop stop-color="#C05C04"/>
<stop offset="1" stop-color="#FE920E"/>
</linearGradient>
<linearGradient id="paint4_linear_2141_37487" x1="16" y1="7" x2="16" y2="25" gradientUnits="userSpaceOnUse">
<stop stop-color="#4A3D2D"/>
<stop offset="1" stop-color="#281602"/>
</linearGradient>
<linearGradient id="paint5_linear_2141_37487" x1="16" y1="7" x2="16" y2="25" gradientUnits="userSpaceOnUse">
<stop stop-color="#4A3D2D"/>
<stop offset="1" stop-color="#281602"/>
</linearGradient>
<radialGradient id="paint6_radial_2141_37487" cx="0" cy="0" r="1" gradientUnits="userSpaceOnUse" gradientTransform="translate(16 16) rotate(90) scale(5.625)">
<stop stop-color="#FFF989"/>
<stop offset="1" stop-color="#FDB10E"/>
</radialGradient>
<linearGradient id="paint7_linear_2141_37487" x1="16" y1="0.125" x2="16" y2="3.375" gradientUnits="userSpaceOnUse">
<stop stop-color="#4D4A45"/>
<stop offset="1" stop-color="#2C261E"/>
</linearGradient>
<linearGradient id="paint8_linear_2141_37487" x1="16" y1="0.125" x2="16" y2="3.03661" gradientUnits="userSpaceOnUse">
<stop stop-color="#53504B"/>
<stop offset="1" stop-color="#4D4A45"/>
</linearGradient>
<linearGradient id="paint9_linear_2141_37487" x1="16" y1="31.875" x2="16" y2="28.625" gradientUnits="userSpaceOnUse">
<stop stop-color="#2C261E"/>
<stop offset="1" stop-color="#4D4A45"/>
</linearGradient>
<linearGradient id="paint10_linear_2141_37487" x1="16" y1="31.875" x2="16" y2="28.9634" gradientUnits="userSpaceOnUse">
<stop stop-color="#4D4A45"/>
<stop offset="1" stop-color="#53504B"/>
</linearGradient>
<linearGradient id="paint11_linear_2141_37487" x1="1.75" y1="13.9318" x2="1.75" y2="18.0682" gradientUnits="userSpaceOnUse">
<stop stop-color="#4D4A45"/>
<stop offset="1" stop-color="#2C261E"/>
</linearGradient>
<linearGradient id="paint12_linear_2141_37487" x1="1.5808" y1="14.1534" x2="1.5808" y2="17.8466" gradientUnits="userSpaceOnUse">
<stop stop-color="#53504B"/>
<stop offset="1" stop-color="#4D4A45"/>
</linearGradient>
<linearGradient id="paint13_linear_2141_37487" x1="30.25" y1="13.9318" x2="30.25" y2="18.0682" gradientUnits="userSpaceOnUse">
<stop stop-color="#4D4A45"/>
<stop offset="1" stop-color="#2C261E"/>
</linearGradient>
<linearGradient id="paint14_linear_2141_37487" x1="30.4192" y1="14.1534" x2="30.4192" y2="17.8466" gradientUnits="userSpaceOnUse">
<stop stop-color="#53504B"/>
<stop offset="1" stop-color="#4D4A45"/>
</linearGradient>
</defs>
</svg>
