<svg width="302" height="220" viewBox="0 0 302 220" fill="none" xmlns="http://www.w3.org/2000/svg">
<path d="M51.4967 219.18H50.988V206.462L47.0786 208.291V207.738L51.3182 205.819H51.4967V219.18Z" fill="#CFCFCF"/>
<path d="M58.8236 212.191L59.4484 205.828H65.964V206.31H59.9036L59.3591 211.665C59.7429 211.361 60.1892 211.138 60.6801 210.995C61.171 210.853 61.6708 210.772 62.1528 210.772C62.7508 210.772 63.2953 210.879 63.7772 211.094C64.2592 211.308 64.6787 211.602 65.0179 211.977C65.3571 212.352 65.6338 212.789 65.8123 213.289C65.9997 213.798 66.089 214.334 66.089 214.923C66.089 215.512 66.0176 216.092 65.8658 216.627C65.723 217.163 65.491 217.636 65.1786 218.038C64.8662 218.448 64.4824 218.77 64.0004 219.002C63.5273 219.243 62.9651 219.359 62.3135 219.359C61.7512 219.359 61.2424 219.269 60.7783 219.091C60.3141 218.912 59.9125 218.662 59.5733 218.332C59.2342 218.011 58.9574 217.618 58.7522 217.163C58.5469 216.708 58.413 216.208 58.3506 215.655H58.8593C58.9128 216.145 59.0289 216.583 59.2163 216.976C59.3948 217.368 59.6358 217.707 59.9303 217.984C60.2249 218.27 60.573 218.484 60.9747 218.627C61.3763 218.779 61.8226 218.85 62.3313 218.85C62.9025 218.85 63.4024 218.743 63.813 218.538C64.2236 218.323 64.5627 218.047 64.8305 217.681C65.0893 217.324 65.2857 216.904 65.4106 216.431C65.5356 215.958 65.5981 215.458 65.5981 214.923C65.5981 214.387 65.5177 213.932 65.3571 213.486C65.1964 213.039 64.9733 212.656 64.6698 212.325C64.3753 211.995 64.0183 211.736 63.5898 211.54C63.1703 211.344 62.6883 211.254 62.1617 211.254C61.5994 211.254 61.0728 211.326 60.573 211.495C60.0732 211.665 59.6179 211.942 59.1984 212.316L58.8236 212.174V212.191Z" fill="#CFCFCF"/>
<path d="M73.4612 210.666C73.4612 210.514 73.5148 210.38 73.6308 210.273C73.7379 210.166 73.8628 210.113 73.9967 210.113C74.1306 210.113 74.2645 210.166 74.3805 210.273C74.4965 210.38 74.5501 210.514 74.5501 210.666C74.5501 210.818 74.4965 210.943 74.3805 211.041C74.2645 211.148 74.1395 211.193 73.9967 211.193C73.8539 211.193 73.7379 211.139 73.6308 211.041C73.5237 210.934 73.4612 210.809 73.4612 210.666ZM73.4612 218.708C73.4612 218.556 73.5148 218.422 73.6308 218.315C73.7379 218.208 73.8628 218.154 73.9967 218.154C74.1306 218.154 74.2645 218.208 74.3805 218.315C74.4965 218.422 74.5501 218.556 74.5501 218.708C74.5501 218.86 74.4965 218.976 74.3805 219.083C74.2645 219.19 74.1395 219.234 73.9967 219.234C73.8539 219.234 73.7379 219.181 73.6308 219.083C73.5237 218.976 73.4612 218.851 73.4612 218.708Z" fill="#CFCFCF"/>
<path d="M82.6025 212.12H83.62C84.0484 212.12 84.4769 212.049 84.9053 211.933C85.3337 211.817 85.7264 211.638 86.0656 211.397C86.4048 211.156 86.6904 210.862 86.9046 210.505C87.1188 210.148 87.2259 209.719 87.2259 209.237C87.2259 208.755 87.1456 208.327 86.976 207.952C86.8153 207.568 86.5833 207.247 86.2887 206.979C85.9942 206.711 85.6461 206.506 85.2445 206.363C84.8428 206.22 84.4144 206.149 83.9502 206.149C83.4861 206.149 83.0309 206.229 82.6114 206.381C82.2008 206.533 81.8349 206.747 81.5314 207.024C81.2279 207.3 80.978 207.64 80.7995 208.023C80.6121 208.416 80.5139 208.853 80.4961 209.335H79.9962C80.0141 208.782 80.1301 208.282 80.3354 207.827C80.5407 207.372 80.8263 206.988 81.1833 206.658C81.5403 206.336 81.9509 206.086 82.424 205.908C82.897 205.729 83.4058 205.64 83.9502 205.64C84.4947 205.64 84.9856 205.729 85.4497 205.899C85.9049 206.069 86.3066 206.31 86.6457 206.631C86.9849 206.943 87.2527 207.327 87.4401 207.773C87.6275 208.22 87.7257 208.719 87.7257 209.273C87.7257 209.683 87.6543 210.058 87.5115 210.389C87.3687 210.719 87.1813 211.013 86.9492 211.272C86.7172 211.531 86.4405 211.745 86.1281 211.924C85.8157 212.102 85.4765 212.254 85.1195 212.361C85.5211 212.45 85.896 212.584 86.2441 212.763C86.5922 212.941 86.9046 213.164 87.1634 213.432C87.4223 213.7 87.6365 214.021 87.7882 214.387C87.94 214.753 88.0203 215.173 88.0203 215.646C88.0203 216.217 87.9132 216.735 87.7079 217.199C87.5026 217.654 87.217 218.047 86.86 218.368C86.503 218.689 86.0834 218.939 85.5925 219.109C85.1105 219.287 84.5839 219.368 84.0395 219.368C83.4593 219.368 82.9149 219.278 82.3972 219.091C81.8795 218.904 81.4332 218.645 81.0405 218.305C80.6478 217.966 80.3443 217.556 80.1033 217.074C79.8713 216.592 79.7374 216.056 79.7196 215.467H80.2194C80.2372 215.985 80.3532 216.458 80.5674 216.877C80.7816 217.297 81.0583 217.654 81.4064 217.949C81.7545 218.243 82.1473 218.475 82.6025 218.636C83.0577 218.796 83.5307 218.877 84.0395 218.877C84.5482 218.877 84.9856 218.805 85.414 218.663C85.8424 218.52 86.2084 218.314 86.5208 218.047C86.8332 217.779 87.0831 217.44 87.2616 217.047C87.4401 216.654 87.5294 216.199 87.5294 215.681C87.5294 215.119 87.4223 214.646 87.1902 214.262C86.9671 213.878 86.6725 213.566 86.3065 213.325C85.9406 213.084 85.5301 212.914 85.057 212.807C84.5929 212.7 84.1109 212.647 83.62 212.638H82.6025V212.12Z" fill="#CFCFCF"/>
<path d="M99.8282 213.727C99.8282 214.164 99.7925 214.602 99.7301 215.048C99.6676 215.494 99.5783 215.923 99.4444 216.342C99.3105 216.762 99.141 217.155 98.9357 217.52C98.7304 217.886 98.4716 218.208 98.177 218.475C97.8736 218.743 97.5254 218.966 97.1238 219.118C96.7221 219.279 96.267 219.359 95.7493 219.359C95.2316 219.359 94.7853 219.279 94.3837 219.118C93.982 218.957 93.6339 218.743 93.3305 218.475C93.027 218.208 92.7681 217.886 92.5539 217.52C92.3397 217.155 92.1701 216.762 92.0362 216.342C91.9024 215.923 91.8042 215.494 91.7417 215.048C91.6792 214.602 91.6435 214.164 91.6435 213.727V211.273C91.6435 210.844 91.6703 210.407 91.7327 209.961C91.7952 209.514 91.8934 209.077 92.0184 208.657C92.1523 208.238 92.3219 207.845 92.5361 207.479C92.7503 207.113 93.0002 206.792 93.3037 206.515C93.6071 206.239 93.9552 206.024 94.3569 205.864C94.7585 205.703 95.2137 205.623 95.7314 205.623C96.2491 205.623 96.7042 205.703 97.1059 205.864C97.5075 206.024 97.8557 206.239 98.1592 206.506C98.4626 206.783 98.7125 207.095 98.9267 207.461C99.1409 207.827 99.3105 208.22 99.4444 208.64C99.5783 209.059 99.6765 209.487 99.7301 209.934C99.7836 210.38 99.8193 210.817 99.8282 211.255V213.727ZM92.1523 213.709C92.1523 214.031 92.1701 214.352 92.2058 214.673C92.2415 215.003 92.2951 215.325 92.3754 215.646L99.0249 208.943C98.9178 208.559 98.7661 208.193 98.5876 207.854C98.4001 207.515 98.177 207.211 97.9092 206.953C97.6414 206.694 97.3291 206.488 96.9721 206.346C96.6151 206.194 96.2045 206.123 95.7404 206.123C95.2762 206.123 94.8656 206.194 94.5086 206.346C94.1516 206.488 93.8392 206.694 93.5803 206.944C93.3126 207.194 93.0894 207.497 92.9109 207.836C92.7324 208.175 92.5807 208.541 92.4736 208.916C92.3665 209.3 92.2861 209.693 92.2326 210.094C92.179 210.496 92.1523 210.889 92.1523 211.273V213.709ZM99.3373 211.273C99.3373 210.978 99.3106 210.684 99.2838 210.38C99.257 210.077 99.2124 209.773 99.1499 209.479L92.5093 216.173C92.6253 216.539 92.777 216.887 92.9556 217.217C93.143 217.547 93.3661 217.833 93.625 218.074C93.8838 218.315 94.1962 218.511 94.5443 218.654C94.8924 218.797 95.2941 218.868 95.7493 218.868C96.2045 218.868 96.6151 218.797 96.9721 218.645C97.3291 218.493 97.6414 218.297 97.9003 218.038C98.1591 217.788 98.3823 217.485 98.5697 217.146C98.7482 216.806 98.8999 216.449 99.007 216.066C99.1141 215.682 99.1945 215.289 99.248 214.887C99.2927 214.486 99.3285 214.093 99.3285 213.709V211.273H99.3373Z" fill="#CFCFCF"/>
<path d="M31.6973 191.413C31.6973 191.85 31.6616 192.288 31.5991 192.734C31.5455 193.18 31.4474 193.609 31.3135 194.028C31.1796 194.448 31.01 194.84 30.8047 195.206C30.5994 195.572 30.3406 195.894 30.0461 196.161C29.7426 196.429 29.3945 196.652 28.9928 196.804C28.5912 196.965 28.136 197.045 27.6183 197.045C27.1006 197.045 26.6544 196.965 26.2527 196.804C25.8511 196.643 25.503 196.429 25.1995 196.161C24.896 195.894 24.6372 195.572 24.423 195.206C24.2088 194.84 24.0392 194.448 23.9053 194.028C23.7714 193.609 23.6732 193.18 23.6107 192.734C23.5482 192.288 23.5126 191.85 23.5126 191.413V188.958C23.5126 188.53 23.5393 188.093 23.6018 187.646C23.6643 187.2 23.7625 186.763 23.8874 186.343C24.0213 185.924 24.1909 185.531 24.4051 185.165C24.6193 184.799 24.8692 184.478 25.1727 184.201C25.4762 183.924 25.8242 183.71 26.2259 183.549C26.6275 183.389 27.0828 183.309 27.6005 183.309C28.1181 183.309 28.5733 183.389 28.975 183.549C29.3766 183.71 29.7247 183.924 30.0282 184.192C30.3317 184.469 30.5816 184.781 30.7958 185.147C31.01 185.513 31.1796 185.906 31.3135 186.325C31.4474 186.745 31.5455 187.173 31.5991 187.62C31.6526 188.066 31.6883 188.503 31.6973 188.941V191.413ZM24.0124 191.395C24.0124 191.716 24.0302 192.038 24.0659 192.359C24.1016 192.689 24.1552 193.011 24.2355 193.332L30.8851 186.629C30.778 186.245 30.6262 185.879 30.4477 185.54C30.2603 185.201 30.0371 184.897 29.7694 184.638C29.5016 184.38 29.1892 184.174 28.8322 184.031C28.4752 183.88 28.0646 183.808 27.6005 183.808C27.1363 183.808 26.7258 183.88 26.3687 184.031C26.0117 184.174 25.6993 184.38 25.4405 184.63C25.1727 184.879 24.9496 185.183 24.7711 185.522C24.5926 185.861 24.4408 186.227 24.3337 186.602C24.2266 186.986 24.1463 187.379 24.0927 187.78C24.0392 188.182 24.0124 188.575 24.0124 188.958V191.395ZM31.1974 188.958C31.1974 188.664 31.1707 188.369 31.1439 188.066C31.1171 187.762 31.0725 187.459 31.01 187.164L24.3694 193.859C24.4855 194.224 24.6372 194.573 24.8157 194.903C25.0031 195.233 25.2263 195.519 25.4851 195.76C25.7529 196.001 26.0563 196.197 26.4044 196.34C26.7525 196.483 27.1542 196.554 27.6094 196.554C28.0646 196.554 28.4752 196.483 28.8322 196.331C29.1892 196.179 29.5016 195.983 29.7604 195.724C30.0193 195.474 30.2424 195.171 30.4298 194.831C30.6084 194.492 30.7601 194.135 30.8672 193.751C30.9743 193.368 31.0546 192.975 31.1082 192.573C31.1528 192.172 31.1885 191.779 31.1885 191.395V188.958H31.1974Z" fill="#CFCFCF"/>
<path d="M1.96733 6.90371L2.59213 0.539795H9.10777V1.02175H3.03841L2.49397 6.37708C2.87776 6.07361 3.32402 5.85047 3.81493 5.70766C4.30583 5.56485 4.80569 5.48452 5.28766 5.48452C5.88568 5.48452 6.43014 5.59167 6.91212 5.80589C7.3941 6.0201 7.81356 6.31463 8.15273 6.68951C8.50082 7.06438 8.7686 7.5017 8.94711 8.00153C9.13455 8.51029 9.2238 9.04584 9.2238 9.63492C9.2238 10.224 9.1524 10.8042 9.00067 11.3397C8.85786 11.8753 8.62583 12.3483 8.31344 12.7499C8.00104 13.1605 7.61724 13.4818 7.13526 13.7139C6.6622 13.9549 6.09988 14.0709 5.44832 14.0709C4.88601 14.0709 4.37722 13.9816 3.9131 13.8031C3.44897 13.6246 3.04734 13.3747 2.70817 13.0445C2.369 12.7232 2.09232 12.3304 1.88704 11.8752C1.68175 11.42 1.54785 10.9202 1.48538 10.3668H1.99414C2.04769 10.8577 2.16369 11.2951 2.35113 11.6878C2.52964 12.0805 2.77067 12.4197 3.06521 12.6964C3.35976 12.982 3.70784 13.1962 4.10949 13.339C4.51114 13.4908 4.95743 13.5622 5.46619 13.5622C6.03742 13.5622 6.53723 13.455 6.9478 13.2498C7.35838 13.0355 7.69756 12.7589 7.96533 12.3929C8.22417 12.0359 8.4205 11.6164 8.54545 11.1433C8.67041 10.6703 8.73291 10.1705 8.73291 9.63492C8.73291 9.09939 8.65256 8.6442 8.4919 8.19792C8.33124 7.75165 8.10814 7.36786 7.80467 7.03761C7.51013 6.70737 7.15309 6.44852 6.72466 6.25216C6.30516 6.0558 5.82321 5.96654 5.2966 5.96654C4.73429 5.96654 4.20766 6.03796 3.70783 6.20755C3.208 6.37713 2.75281 6.65381 2.33331 7.02868L1.9584 6.88584L1.96733 6.90371Z" fill="#CFCFCF"/>
<path d="M20.4261 8.43937C20.4261 8.87672 20.3904 9.31405 20.3279 9.76033C20.2743 10.2066 20.1761 10.635 20.0423 11.0545C19.9084 11.474 19.7388 11.8668 19.5335 12.2327C19.3282 12.5987 19.0694 12.9199 18.7749 13.1877C18.4714 13.4555 18.1233 13.6786 17.7216 13.8304C17.32 13.991 16.8648 14.0714 16.3471 14.0714C15.8294 14.0714 15.3831 13.991 14.9815 13.8304C14.5798 13.6697 14.2318 13.4555 13.9283 13.1877C13.6248 12.9199 13.366 12.5987 13.1518 12.2327C12.9376 11.8668 12.768 11.474 12.6341 11.0545C12.5002 10.635 12.402 10.2066 12.3395 9.76033C12.277 9.31405 12.2413 8.87672 12.2413 8.43937V5.98484C12.2413 5.55642 12.2682 5.11904 12.3306 4.67276C12.3931 4.22648 12.4912 3.78911 12.6162 3.36961C12.7501 2.95011 12.9197 2.55744 13.1339 2.19149C13.3481 1.82554 13.598 1.50421 13.9015 1.22751C14.205 0.950823 14.5531 0.736573 14.9547 0.575913C15.3564 0.415254 15.8116 0.334961 16.3293 0.334961C16.8469 0.334961 17.3021 0.415254 17.7038 0.575913C18.1054 0.736573 18.4535 0.950814 18.757 1.21858C19.0605 1.49527 19.3104 1.80767 19.5246 2.17362C19.7388 2.53957 19.9084 2.9323 20.0423 3.3518C20.1761 3.7713 20.2743 4.19974 20.3279 4.64601C20.3814 5.09229 20.4171 5.52962 20.4261 5.96697V8.43937ZM12.7412 8.4215C12.7412 8.74282 12.759 9.06415 12.7947 9.38547C12.8304 9.71572 12.884 10.037 12.9643 10.3583L19.6139 3.65524C19.5067 3.27144 19.355 2.90552 19.1765 2.56635C18.9891 2.22718 18.7659 1.9237 18.4982 1.66486C18.2304 1.40602 17.918 1.20074 17.561 1.05793C17.204 0.906193 16.7934 0.834789 16.3293 0.834789C15.8651 0.834789 15.4546 0.906193 15.0975 1.05793C14.7405 1.20074 14.4281 1.40601 14.1693 1.65592C13.9015 1.90584 13.6784 2.20931 13.4999 2.54848C13.3214 2.88765 13.1696 3.25361 13.0625 3.62849C12.9554 4.01229 12.8751 4.40502 12.8215 4.80667C12.768 5.20831 12.7412 5.60105 12.7412 5.98484V8.4215ZM19.9262 5.98484C19.9262 5.6903 19.8995 5.39576 19.8727 5.09229C19.8459 4.78882 19.8013 4.48534 19.7388 4.1908L13.0982 10.885C13.2143 11.2509 13.366 11.599 13.5445 11.9292C13.7319 12.2595 13.9551 12.5451 14.2139 12.7861C14.4817 13.0271 14.7851 13.2234 15.1332 13.3662C15.4813 13.509 15.883 13.5804 16.3382 13.5804C16.7934 13.5804 17.204 13.509 17.561 13.3573C17.918 13.2056 18.2304 13.0092 18.4892 12.7504C18.7481 12.5004 18.9712 12.197 19.1586 11.8578C19.3372 11.5186 19.4889 11.1617 19.596 10.7779C19.7031 10.3941 19.7834 10.0013 19.837 9.59968C19.8816 9.19803 19.9173 8.8053 19.9173 8.4215V5.98484H19.9262Z" fill="#CFCFCF"/>
<path d="M31.698 8.43937C31.698 8.87672 31.6623 9.31405 31.5999 9.76033C31.5463 10.2066 31.4481 10.635 31.3142 11.0545C31.1804 11.474 31.0108 11.8668 30.8055 12.2327C30.6002 12.5987 30.3414 12.9199 30.0468 13.1877C29.7434 13.4555 29.3953 13.6786 28.9936 13.8304C28.592 13.991 28.1367 14.0714 27.6191 14.0714C27.1014 14.0714 26.6551 13.991 26.2535 13.8304C25.8518 13.6697 25.5037 13.4555 25.2003 13.1877C24.8968 12.9199 24.638 12.5987 24.4238 12.2327C24.2095 11.8668 24.0399 11.474 23.9061 11.0545C23.7722 10.635 23.674 10.2066 23.6115 9.76033C23.549 9.31405 23.5133 8.87672 23.5133 8.43937V5.98484C23.5133 5.55642 23.5401 5.11904 23.6026 4.67276C23.665 4.22648 23.7632 3.78911 23.8882 3.36961C24.0221 2.95011 24.1917 2.55744 24.4059 2.19149C24.6201 1.82554 24.87 1.50421 25.1735 1.22751C25.4769 0.950823 25.825 0.736573 26.2267 0.575913C26.6283 0.415254 27.0836 0.334961 27.6012 0.334961C28.1189 0.334961 28.5741 0.415254 28.9758 0.575913C29.3774 0.736573 29.7255 0.950814 30.029 1.21858C30.3324 1.49527 30.5824 1.80767 30.7966 2.17362C31.0108 2.53957 31.1804 2.9323 31.3142 3.3518C31.4481 3.7713 31.5463 4.19974 31.5999 4.64601C31.6534 5.09229 31.6891 5.52962 31.698 5.96697V8.43937ZM24.0132 8.4215C24.0132 8.74282 24.031 9.06415 24.0667 9.38547C24.1024 9.71572 24.156 10.037 24.2363 10.3583L30.8858 3.65524C30.7787 3.27144 30.627 2.90552 30.4485 2.56635C30.2611 2.22718 30.0379 1.9237 29.7701 1.66486C29.5024 1.40602 29.19 1.20074 28.833 1.05793C28.4759 0.906193 28.0654 0.834789 27.6012 0.834789C27.1371 0.834789 26.7265 0.906193 26.3695 1.05793C26.0125 1.20074 25.7001 1.40601 25.4413 1.65592C25.1735 1.90584 24.9504 2.20931 24.7719 2.54848C24.5934 2.88765 24.4416 3.25361 24.3345 3.62849C24.2274 4.01229 24.1471 4.40502 24.0935 4.80667C24.04 5.20831 24.0132 5.60105 24.0132 5.98484V8.4215ZM31.1982 5.98484C31.1982 5.6903 31.1714 5.39576 31.1447 5.09229C31.1179 4.78882 31.0733 4.48534 31.0108 4.1908L24.3702 10.885C24.4862 11.2509 24.638 11.599 24.8165 11.9292C25.0039 12.2595 25.2271 12.5451 25.4859 12.7861C25.7537 13.0271 26.0571 13.2234 26.4052 13.3662C26.7533 13.509 27.155 13.5804 27.6102 13.5804C28.0654 13.5804 28.4759 13.509 28.833 13.3573C29.19 13.2056 29.5024 13.0092 29.7612 12.7504C30.02 12.5004 30.2432 12.197 30.4306 11.8578C30.6091 11.5186 30.7609 11.1617 30.868 10.7779C30.9751 10.3941 31.0554 10.0013 31.109 9.59968C31.1536 9.19803 31.1893 8.8053 31.1893 8.4215V5.98484H31.1982Z" fill="#CFCFCF"/>
<path d="M7.21489 46.3548H9.52663V46.8457H7.21489V50.4873H6.71506V46.8457H0.235107V46.569L6.60796 37.1258H7.20595V46.3459L7.21489 46.3548ZM1.01163 46.3548H6.71506V37.7327L5.94747 39.0002L1.01163 46.3638V46.3548Z" fill="#CFCFCF"/>
<path d="M20.424 45.0341C20.424 45.4714 20.3883 45.9088 20.3258 46.355C20.2722 46.8013 20.1741 47.2297 20.0402 47.6492C19.9063 48.0687 19.7367 48.4615 19.5314 48.8274C19.3261 49.1934 19.0673 49.5146 18.7728 49.7824C18.4693 50.0502 18.1212 50.2733 17.7196 50.4251C17.3179 50.5857 16.8627 50.6661 16.345 50.6661C15.8274 50.6661 15.3811 50.5857 14.9794 50.4251C14.5778 50.2644 14.2297 50.0502 13.9262 49.7824C13.6227 49.5146 13.3639 49.1934 13.1497 48.8274C12.9355 48.4615 12.7659 48.0687 12.632 47.6492C12.4981 47.2297 12.3999 46.8013 12.3374 46.355C12.275 45.9088 12.2393 45.4714 12.2393 45.0341V42.5795C12.2393 42.1511 12.2661 41.7137 12.3285 41.2675C12.391 40.8212 12.4892 40.3838 12.6141 39.9643C12.748 39.5448 12.9176 39.1521 13.1318 38.7862C13.346 38.4202 13.5959 38.0989 13.8994 37.8222C14.2029 37.5455 14.551 37.3313 14.9527 37.1706C15.3543 37.01 15.8095 36.9297 16.3272 36.9297C16.8449 36.9297 17.3 37.01 17.7017 37.1706C18.1033 37.3313 18.4514 37.5455 18.7549 37.8133C19.0584 38.09 19.3083 38.4024 19.5225 38.7683C19.7367 39.1343 19.9063 39.527 20.0402 39.9465C20.1741 40.366 20.2722 40.7944 20.3258 41.2407C20.3794 41.687 20.415 42.1243 20.424 42.5617V45.0341ZM12.7391 45.0162C12.7391 45.3375 12.7569 45.6589 12.7926 45.9802C12.8283 46.3104 12.8819 46.6317 12.9622 46.953L19.6118 40.2499C19.5047 39.8661 19.3529 39.5002 19.1744 39.161C18.987 38.8219 18.7638 38.5184 18.4961 38.2596C18.2283 38.0007 17.9159 37.7954 17.5589 37.6526C17.2019 37.5009 16.7913 37.4295 16.3272 37.4295C15.863 37.4295 15.4525 37.5009 15.0954 37.6526C14.7384 37.7954 14.426 38.0007 14.1672 38.2506C13.8994 38.5005 13.6763 38.804 13.4978 39.1432C13.3193 39.4824 13.1675 39.8483 13.0604 40.2232C12.9533 40.607 12.873 40.9997 12.8194 41.4014C12.7659 41.803 12.7391 42.1957 12.7391 42.5795V45.0162ZM19.9241 42.5795C19.9241 42.285 19.8974 41.9905 19.8706 41.687C19.8438 41.3835 19.7992 41.0801 19.7367 40.7855L13.0961 47.4797C13.2122 47.8456 13.3639 48.1937 13.5424 48.5239C13.7298 48.8542 13.953 49.1398 14.2118 49.3808C14.4796 49.6218 14.783 49.8181 15.1311 49.9609C15.4792 50.1037 15.8809 50.1751 16.3361 50.1751C16.7913 50.1751 17.2019 50.1037 17.5589 49.952C17.9159 49.8003 18.2283 49.6039 18.4871 49.3451C18.746 49.0952 18.9691 48.7917 19.1566 48.4525C19.3351 48.1133 19.4868 47.7564 19.5939 47.3726C19.701 46.9888 19.7814 46.596 19.8349 46.1944C19.8795 45.7927 19.9153 45.4 19.9153 45.0162V42.5795H19.9241Z" fill="#CFCFCF"/>
<path d="M31.6959 45.0341C31.6959 45.4714 31.6603 45.9088 31.5978 46.355C31.5442 46.8013 31.446 47.2297 31.3122 47.6492C31.1783 48.0687 31.0087 48.4615 30.8034 48.8274C30.5981 49.1934 30.3393 49.5146 30.0447 49.7824C29.7413 50.0502 29.3932 50.2733 28.9915 50.4251C28.5899 50.5857 28.1347 50.6661 27.617 50.6661C27.0993 50.6661 26.653 50.5857 26.2514 50.4251C25.8497 50.2644 25.5017 50.0502 25.1982 49.7824C24.8947 49.5146 24.6359 49.1934 24.4217 48.8274C24.2075 48.4615 24.0379 48.0687 23.904 47.6492C23.7701 47.2297 23.6719 46.8013 23.6094 46.355C23.5469 45.9088 23.5112 45.4714 23.5112 45.0341V42.5795C23.5112 42.1511 23.538 41.7137 23.6005 41.2675C23.663 40.8212 23.7611 40.3838 23.8861 39.9643C24.02 39.5448 24.1896 39.1521 24.4038 38.7862C24.618 38.4202 24.8679 38.0989 25.1714 37.8222C25.4748 37.5455 25.8229 37.3313 26.2246 37.1706C26.6262 37.01 27.0815 36.9297 27.5992 36.9297C28.1168 36.9297 28.572 37.01 28.9737 37.1706C29.3753 37.3313 29.7234 37.5455 30.0269 37.8133C30.3303 38.09 30.5803 38.4024 30.7945 38.7683C31.0087 39.1343 31.1783 39.527 31.3122 39.9465C31.446 40.366 31.5442 40.7944 31.5978 41.2407C31.6513 41.687 31.687 42.1243 31.6959 42.5617V45.0341ZM24.0111 45.0162C24.0111 45.3375 24.0289 45.6589 24.0646 45.9802C24.1003 46.3104 24.1539 46.6317 24.2342 46.953L30.8837 40.2499C30.7766 39.8661 30.6249 39.5002 30.4464 39.161C30.259 38.8219 30.0358 38.5184 29.7681 38.2596C29.5003 38.0007 29.1879 37.7954 28.8309 37.6526C28.4739 37.5009 28.0633 37.4295 27.5992 37.4295C27.135 37.4295 26.7244 37.5009 26.3674 37.6526C26.0104 37.7954 25.698 38.0007 25.4392 38.2506C25.1714 38.5005 24.9483 38.804 24.7698 39.1432C24.5913 39.4824 24.4395 39.8483 24.3324 40.2232C24.2253 40.607 24.145 40.9997 24.0914 41.4014C24.0379 41.803 24.0111 42.1957 24.0111 42.5795V45.0162ZM31.1961 42.5795C31.1961 42.285 31.1693 41.9905 31.1426 41.687C31.1158 41.3835 31.0712 41.0801 31.0087 40.7855L24.3681 47.4797C24.4841 47.8456 24.6359 48.1937 24.8144 48.5239C25.0018 48.8542 25.225 49.1398 25.4838 49.3808C25.7516 49.6218 26.055 49.8181 26.4031 49.9609C26.7512 50.1037 27.1529 50.1751 27.6081 50.1751C28.0633 50.1751 28.4739 50.1037 28.8309 49.952C29.1879 49.8003 29.5003 49.6039 29.7591 49.3451C30.018 49.0952 30.2411 48.7917 30.4285 48.4525C30.607 48.1133 30.7588 47.7564 30.8659 47.3726C30.973 46.9888 31.0533 46.596 31.1069 46.1944C31.1515 45.7927 31.1872 45.4 31.1872 45.0162V42.5795H31.1961Z" fill="#CFCFCF"/>
<path d="M3.18719 80.0218H4.20471C4.63314 80.0218 5.06157 79.9504 5.48999 79.8344C5.91842 79.7183 6.31113 79.5398 6.6503 79.2988C6.98947 79.0578 7.27509 78.7633 7.48931 78.4062C7.70352 78.0492 7.81067 77.6208 7.81067 77.1388C7.81067 76.6568 7.73031 76.2284 7.56073 75.8535C7.39114 75.4697 7.16798 75.1484 6.87344 74.8806C6.5789 74.6129 6.23082 74.4076 5.82917 74.2648C5.42752 74.122 4.99908 74.0506 4.53495 74.0506C4.07083 74.0506 3.61562 74.1309 3.19612 74.2826C2.78555 74.4344 2.41964 74.6486 2.11617 74.9253C1.8127 75.202 1.56278 75.5412 1.38427 75.925C1.19683 76.3177 1.09863 76.755 1.08077 77.237H0.580946C0.598797 76.6836 0.714834 76.1838 0.920121 75.7286C1.12541 75.2734 1.41104 74.8896 1.76806 74.5593C2.12508 74.238 2.53567 73.9881 3.00872 73.8096C3.48178 73.6311 3.9905 73.5418 4.53495 73.5418C5.07941 73.5418 5.57031 73.6311 6.03444 73.8007C6.48964 73.9703 6.89131 74.2113 7.23048 74.5326C7.56966 74.845 7.83743 75.2287 8.02487 75.675C8.21231 76.1213 8.3105 76.6211 8.3105 77.1745C8.3105 77.5851 8.23904 77.96 8.09624 78.2902C7.95343 78.6204 7.76599 78.915 7.53392 79.1739C7.30186 79.4327 7.02518 79.6469 6.71279 79.8254C6.40039 80.0039 6.06122 80.1557 5.7042 80.2628C6.10585 80.352 6.48073 80.4859 6.82882 80.6644C7.17692 80.8429 7.48934 81.0661 7.74818 81.3338C8.00702 81.6016 8.22119 81.9229 8.37293 82.2889C8.52466 82.6548 8.605 83.0743 8.605 83.5474C8.605 84.1186 8.49791 84.6363 8.29263 85.1004C8.08734 85.5556 7.80171 85.9483 7.44469 86.2696C7.08767 86.5909 6.66818 86.8409 6.17728 87.0105C5.6953 87.189 5.1687 87.2693 4.62424 87.2693C4.04408 87.2693 3.4996 87.18 2.98192 86.9926C2.46424 86.8052 2.01794 86.5463 1.62522 86.2071C1.2325 85.868 0.929038 85.4575 0.688048 84.9755C0.455984 84.4935 0.322108 83.9579 0.304256 83.3688H0.804085C0.821936 83.8865 0.937981 84.3596 1.15219 84.7791C1.36641 85.1986 1.6431 85.5556 1.9912 85.8502C2.33929 86.1447 2.73199 86.3768 3.18719 86.5374C3.64239 86.6981 4.12441 86.7784 4.62424 86.7784C5.12407 86.7784 5.57033 86.707 5.99876 86.5642C6.42718 86.4214 6.79312 86.2161 7.10551 85.9483C7.41791 85.6806 7.66784 85.3414 7.84635 84.9487C8.02486 84.5559 8.1141 84.1007 8.1141 83.583C8.1141 83.0207 8.00699 82.5477 7.77493 82.1639C7.55179 81.7801 7.25726 81.4677 6.89131 81.2267C6.52536 80.9857 6.11477 80.8161 5.64171 80.709C5.17758 80.6019 4.69562 80.5484 4.20471 80.5395H3.18719V80.0218Z" fill="#CFCFCF"/>
<path d="M20.4234 81.6288C20.4234 82.0661 20.3877 82.5035 20.3252 82.9497C20.2717 83.396 20.1735 83.8244 20.0396 84.2439C19.9057 84.6635 19.7361 85.0562 19.5308 85.4221C19.3255 85.7881 19.0667 86.1093 18.7722 86.3771C18.4687 86.6449 18.1206 86.868 17.719 87.0198C17.3173 87.1804 16.8621 87.2608 16.3445 87.2608C15.8268 87.2608 15.3805 87.1804 14.9788 87.0198C14.5772 86.8591 14.2291 86.6449 13.9256 86.3771C13.6222 86.1093 13.3633 85.7881 13.1491 85.4221C12.9349 85.0562 12.7653 84.6635 12.6314 84.2439C12.4975 83.8244 12.3993 83.396 12.3368 82.9497C12.2744 82.5035 12.2387 82.0661 12.2387 81.6288V79.1743C12.2387 78.7458 12.2655 78.3084 12.328 77.8622C12.3904 77.4159 12.4886 76.9785 12.6135 76.559C12.7474 76.1395 12.917 75.7468 13.1312 75.3809C13.3454 75.015 13.5953 74.6936 13.8988 74.4169C14.2023 74.1402 14.5504 73.926 14.9521 73.7653C15.3537 73.6047 15.8089 73.5244 16.3266 73.5244C16.8443 73.5244 17.2995 73.6047 17.7011 73.7653C18.1028 73.926 18.4508 74.1402 18.7543 74.408C19.0578 74.6847 19.3077 74.9971 19.5219 75.363C19.7362 75.729 19.9057 76.1217 20.0396 76.5412C20.1735 76.9607 20.2717 77.3891 20.3252 77.8354C20.3788 78.2817 20.4145 78.719 20.4234 79.1564V81.6288ZM12.7385 81.6109C12.7385 81.9322 12.7564 82.2536 12.7921 82.5749C12.8278 82.9051 12.8813 83.2264 12.9616 83.5477L19.6112 76.8446C19.5041 76.4608 19.3524 76.0949 19.1738 75.7558C18.9864 75.4166 18.7633 75.1131 18.4955 74.8543C18.2277 74.5954 17.9153 74.3901 17.5583 74.2473C17.2013 74.0956 16.7907 74.0242 16.3266 74.0242C15.8625 74.0242 15.4519 74.0956 15.0949 74.2473C14.7378 74.3901 14.4255 74.5954 14.1666 74.8453C13.8989 75.0952 13.6757 75.3987 13.4972 75.7379C13.3187 76.0771 13.1669 76.443 13.0598 76.8179C12.9527 77.2017 12.8724 77.5944 12.8189 77.9961C12.7653 78.3977 12.7385 78.7905 12.7385 79.1743V81.6109ZM19.9236 79.1743C19.9236 78.8797 19.8968 78.5852 19.87 78.2817C19.8432 77.9782 19.7986 77.6748 19.7362 77.3802L13.0956 84.0744C13.2116 84.4403 13.3633 84.7884 13.5418 85.1186C13.7293 85.4489 13.9524 85.7345 14.2112 85.9755C14.479 86.2165 14.7824 86.4128 15.1305 86.5556C15.4786 86.6984 15.8803 86.7698 16.3355 86.7698C16.7907 86.7698 17.2013 86.6984 17.5583 86.5467C17.9153 86.395 18.2277 86.1986 18.4866 85.9398C18.7454 85.6899 18.9685 85.3864 19.156 85.0472C19.3345 84.708 19.4862 84.3511 19.5933 83.9673C19.7004 83.5835 19.7808 83.1907 19.8343 82.7891C19.879 82.3874 19.9147 81.9947 19.9147 81.6109V79.1743H19.9236Z" fill="#CFCFCF"/>
<path d="M31.6954 81.6288C31.6954 82.0661 31.6597 82.5035 31.5972 82.9497C31.5436 83.396 31.4455 83.8244 31.3116 84.2439C31.1777 84.6635 31.0081 85.0562 30.8028 85.4221C30.5975 85.7881 30.3387 86.1093 30.0442 86.3771C29.7407 86.6449 29.3926 86.868 28.991 87.0198C28.5893 87.1804 28.1341 87.2608 27.6164 87.2608C27.0987 87.2608 26.6525 87.1804 26.2508 87.0198C25.8492 86.8591 25.5011 86.6449 25.1976 86.3771C24.8941 86.1093 24.6353 85.7881 24.4211 85.4221C24.2069 85.0562 24.0373 84.6635 23.9034 84.2439C23.7695 83.8244 23.6713 83.396 23.6088 82.9497C23.5464 82.5035 23.5107 82.0661 23.5107 81.6288V79.1743C23.5107 78.7458 23.5374 78.3084 23.5999 77.8622C23.6624 77.4159 23.7606 76.9785 23.8855 76.559C24.0194 76.1395 24.189 75.7468 24.4032 75.3809C24.6174 75.015 24.8673 74.6936 25.1708 74.4169C25.4743 74.1402 25.8224 73.926 26.224 73.7653C26.6257 73.6047 27.0809 73.5244 27.5986 73.5244C28.1163 73.5244 28.5714 73.6047 28.9731 73.7653C29.3747 73.926 29.7228 74.1402 30.0263 74.408C30.3298 74.6847 30.5797 74.9971 30.7939 75.363C31.0081 75.729 31.1777 76.1217 31.3116 76.5412C31.4455 76.9607 31.5436 77.3891 31.5972 77.8354C31.6508 78.2817 31.6864 78.719 31.6954 79.1564V81.6288ZM24.0105 81.6109C24.0105 81.9322 24.0283 82.2536 24.064 82.5749C24.0997 82.9051 24.1533 83.2264 24.2336 83.5477L30.8832 76.8446C30.7761 76.4608 30.6243 76.0949 30.4458 75.7558C30.2584 75.4166 30.0352 75.1131 29.7675 74.8543C29.4997 74.5954 29.1873 74.3901 28.8303 74.2473C28.4733 74.0956 28.0627 74.0242 27.5986 74.0242C27.1344 74.0242 26.7239 74.0956 26.3668 74.2473C26.0098 74.3901 25.6974 74.5954 25.4386 74.8453C25.1708 75.0952 24.9477 75.3987 24.7692 75.7379C24.5907 76.0771 24.4389 76.443 24.3318 76.8179C24.2247 77.2017 24.1444 77.5944 24.0908 77.9961C24.0373 78.3977 24.0105 78.7905 24.0105 79.1743V81.6109ZM31.1955 79.1743C31.1955 78.8797 31.1688 78.5852 31.142 78.2817C31.1152 77.9782 31.0706 77.6748 31.0081 77.3802L24.3675 84.0744C24.4836 84.4403 24.6353 84.7884 24.8138 85.1186C25.0012 85.4489 25.2244 85.7345 25.4832 85.9755C25.751 86.2165 26.0544 86.4128 26.4025 86.5556C26.7506 86.6984 27.1523 86.7698 27.6075 86.7698C28.0627 86.7698 28.4733 86.6984 28.8303 86.5467C29.1873 86.395 29.4997 86.1986 29.7585 85.9398C30.0174 85.6899 30.2405 85.3864 30.428 85.0472C30.6065 84.708 30.7582 84.3511 30.8653 83.9673C30.9724 83.5835 31.0528 83.1907 31.1063 82.7891C31.1509 82.3874 31.1866 81.9947 31.1866 81.6109V79.1743H31.1955Z" fill="#CFCFCF"/>
<path d="M8.7453 123.677H0.756928V123.186L5.13047 118.143C5.38931 117.84 5.65704 117.528 5.93373 117.188C6.21042 116.849 6.46926 116.501 6.71025 116.126C6.94231 115.751 7.1387 115.368 7.29043 114.966C7.44217 114.564 7.5225 114.154 7.5225 113.734C7.5225 113.252 7.44216 112.815 7.2815 112.431C7.12084 112.047 6.88876 111.726 6.60315 111.458C6.3086 111.19 5.96946 110.985 5.56781 110.851C5.16616 110.708 4.73771 110.637 4.26466 110.637C3.76483 110.637 3.31854 110.726 2.91689 110.914C2.51524 111.101 2.16716 111.351 1.87262 111.663C1.57808 111.976 1.35492 112.342 1.18534 112.761C1.01575 113.181 0.926498 113.627 0.908647 114.1H0.408819C0.42667 113.565 0.533809 113.056 0.721246 112.574C0.908682 112.092 1.17641 111.672 1.51558 111.315C1.85475 110.958 2.2475 110.673 2.71162 110.459C3.17575 110.244 3.68454 110.146 4.24685 110.146C4.80915 110.146 5.29108 110.226 5.75521 110.387C6.21041 110.548 6.61209 110.789 6.95126 111.101C7.29043 111.414 7.54927 111.788 7.73671 112.235C7.92414 112.681 8.0134 113.181 8.0134 113.734C8.0134 114.207 7.92415 114.671 7.74564 115.118C7.56713 115.564 7.34398 115.992 7.06729 116.412C6.79953 116.831 6.50499 117.224 6.18367 117.608C5.86235 117.992 5.55886 118.349 5.26432 118.679L1.39066 123.195H8.72743V123.686L8.7453 123.677Z" fill="#CFCFCF"/>
<path d="M20.4303 118.223C20.4303 118.661 20.3946 119.098 20.3322 119.544C20.2786 119.991 20.1804 120.419 20.0465 120.839C19.9127 121.258 19.7431 121.651 19.5378 122.017C19.3325 122.383 19.0737 122.704 18.7791 122.972C18.4757 123.24 18.1276 123.463 17.7259 123.614C17.3243 123.775 16.8691 123.855 16.3514 123.855C15.8337 123.855 15.3874 123.775 14.9858 123.614C14.5841 123.454 14.236 123.24 13.9326 122.972C13.6291 122.704 13.3703 122.383 13.156 122.017C12.9418 121.651 12.7722 121.258 12.6383 120.839C12.5045 120.419 12.4063 119.991 12.3438 119.544C12.2813 119.098 12.2456 118.661 12.2456 118.223V115.769C12.2456 115.341 12.2724 114.903 12.3349 114.457C12.3974 114.011 12.4955 113.573 12.6205 113.154C12.7544 112.734 12.924 112.342 13.1382 111.976C13.3524 111.61 13.6023 111.288 13.9058 111.012C14.2092 110.735 14.5574 110.521 14.959 110.36C15.3607 110.199 15.8159 110.119 16.3335 110.119C16.8512 110.119 17.3064 110.199 17.708 110.36C18.1097 110.521 18.4578 110.735 18.7613 111.003C19.0647 111.279 19.3147 111.592 19.5289 111.958C19.7431 112.324 19.9127 112.716 20.0465 113.136C20.1804 113.555 20.2786 113.984 20.3322 114.43C20.3857 114.876 20.4214 115.314 20.4303 115.751V118.223ZM12.7454 118.206C12.7454 118.527 12.7633 118.848 12.799 119.17C12.8347 119.5 12.8883 119.821 12.9686 120.142L19.6181 113.439C19.511 113.056 19.3593 112.69 19.1808 112.35C18.9933 112.011 18.7702 111.708 18.5024 111.449C18.2347 111.19 17.9223 110.985 17.5653 110.842C17.2082 110.69 16.7977 110.619 16.3335 110.619C15.8694 110.619 15.4588 110.69 15.1018 110.842C14.7448 110.985 14.4324 111.19 14.1736 111.44C13.9058 111.69 13.6827 111.993 13.5042 112.333C13.3256 112.672 13.1739 113.038 13.0668 113.413C12.9596 113.796 12.8794 114.189 12.8258 114.591C12.7722 114.992 12.7454 115.385 12.7454 115.769V118.206ZM19.9305 115.769C19.9305 115.474 19.9037 115.18 19.8769 114.876C19.8502 114.573 19.8056 114.269 19.7431 113.975L13.1025 120.669C13.2185 121.035 13.3703 121.383 13.5488 121.713C13.7362 122.044 13.9593 122.329 14.2182 122.57C14.4859 122.811 14.7894 123.008 15.1375 123.15C15.4856 123.293 15.8873 123.365 16.3425 123.365C16.7977 123.365 17.2082 123.293 17.5653 123.141C17.9223 122.99 18.2347 122.793 18.4935 122.534C18.7523 122.285 18.9755 121.981 19.1629 121.642C19.3414 121.303 19.4932 120.946 19.6003 120.562C19.7074 120.178 19.7877 119.785 19.8413 119.384C19.8859 118.982 19.9216 118.589 19.9216 118.206V115.769H19.9305Z" fill="#CFCFCF"/>
<path d="M31.7023 118.223C31.7023 118.661 31.6666 119.098 31.6041 119.544C31.5506 119.991 31.4524 120.419 31.3185 120.839C31.1846 121.258 31.015 121.651 30.8098 122.017C30.6045 122.383 30.3456 122.704 30.0511 122.972C29.7476 123.24 29.3995 123.463 28.9979 123.614C28.5962 123.775 28.141 123.855 27.6233 123.855C27.1056 123.855 26.6594 123.775 26.2577 123.614C25.8561 123.454 25.508 123.24 25.2045 122.972C24.9011 122.704 24.6422 122.383 24.428 122.017C24.2138 121.651 24.0442 121.258 23.9103 120.839C23.7764 120.419 23.6782 119.991 23.6158 119.544C23.5533 119.098 23.5176 118.661 23.5176 118.223V115.769C23.5176 115.341 23.5444 114.903 23.6068 114.457C23.6693 114.011 23.7675 113.573 23.8925 113.154C24.0263 112.734 24.1959 112.342 24.4102 111.976C24.6244 111.61 24.8743 111.288 25.1777 111.012C25.4812 110.735 25.8293 110.521 26.2309 110.36C26.6326 110.199 27.0878 110.119 27.6055 110.119C28.1232 110.119 28.5784 110.199 28.98 110.36C29.3817 110.521 29.7298 110.735 30.0332 111.003C30.3367 111.279 30.5867 111.592 30.8009 111.958C31.0151 112.324 31.1846 112.716 31.3185 113.136C31.4524 113.555 31.5506 113.984 31.6041 114.43C31.6577 114.876 31.6934 115.314 31.7023 115.751V118.223ZM24.0174 118.206C24.0174 118.527 24.0353 118.848 24.071 119.17C24.1067 119.5 24.1602 119.821 24.2406 120.142L30.8901 113.439C30.783 113.056 30.6313 112.69 30.4528 112.35C30.2653 112.011 30.0422 111.708 29.7744 111.449C29.5066 111.19 29.1943 110.985 28.8372 110.842C28.4802 110.69 28.0696 110.619 27.6055 110.619C27.1414 110.619 26.7308 110.69 26.3738 110.842C26.0168 110.985 25.7044 111.19 25.4455 111.44C25.1778 111.69 24.9546 111.993 24.7761 112.333C24.5976 112.672 24.4458 113.038 24.3387 113.413C24.2316 113.796 24.1513 114.189 24.0978 114.591C24.0442 114.992 24.0174 115.385 24.0174 115.769V118.206ZM31.2025 115.769C31.2025 115.474 31.1757 115.18 31.1489 114.876C31.1221 114.573 31.0776 114.269 31.0151 113.975L24.3745 120.669C24.4905 121.035 24.6422 121.383 24.8207 121.713C25.0082 122.044 25.2313 122.329 25.4902 122.57C25.7579 122.811 26.0614 123.008 26.4095 123.15C26.7576 123.293 27.1592 123.365 27.6144 123.365C28.0697 123.365 28.4802 123.293 28.8372 123.141C29.1943 122.99 29.5066 122.793 29.7655 122.534C30.0243 122.285 30.2475 121.981 30.4349 121.642C30.6134 121.303 30.7651 120.946 30.8722 120.562C30.9793 120.178 31.0597 119.785 31.1132 119.384C31.1579 118.982 31.1935 118.589 31.1935 118.206V115.769H31.2025Z" fill="#CFCFCF"/>
<path d="M5.91273 160.271H5.40397V147.553L1.49458 149.382V148.829L5.73421 146.91H5.91273V160.271Z" fill="#CFCFCF"/>
<path d="M20.4248 154.818C20.4248 155.256 20.3891 155.693 20.3266 156.139C20.2731 156.585 20.1749 157.014 20.041 157.433C19.9071 157.853 19.7375 158.246 19.5322 158.612C19.327 158.977 19.0681 159.299 18.7736 159.567C18.4701 159.834 18.122 160.057 17.7204 160.209C17.3187 160.37 16.8636 160.45 16.3459 160.45C15.8282 160.45 15.3819 160.37 14.9802 160.209C14.5786 160.049 14.2305 159.834 13.927 159.567C13.6236 159.299 13.3647 158.977 13.1505 158.612C12.9363 158.246 12.7667 157.853 12.6328 157.433C12.4989 157.014 12.4007 156.585 12.3383 156.139C12.2758 155.693 12.2401 155.256 12.2401 154.818V152.364C12.2401 151.935 12.2669 151.498 12.3294 151.052C12.3919 150.605 12.49 150.168 12.6149 149.748C12.7488 149.329 12.9184 148.936 13.1326 148.57C13.3469 148.204 13.5968 147.883 13.9002 147.606C14.2037 147.33 14.5518 147.115 14.9535 146.955C15.3551 146.794 15.8103 146.714 16.328 146.714C16.8457 146.714 17.3009 146.794 17.7025 146.955C18.1042 147.115 18.4523 147.33 18.7557 147.597C19.0592 147.874 19.3091 148.186 19.5234 148.552C19.7376 148.918 19.9071 149.311 20.041 149.731C20.1749 150.15 20.2731 150.579 20.3266 151.025C20.3802 151.471 20.4159 151.908 20.4248 152.346V154.818ZM12.7399 154.8C12.7399 155.122 12.7578 155.443 12.7935 155.764C12.8292 156.095 12.8827 156.416 12.9631 156.737L19.6126 150.034C19.5055 149.65 19.3538 149.284 19.1753 148.945C18.9878 148.606 18.7647 148.303 18.4969 148.044C18.2291 147.785 17.9168 147.58 17.5597 147.437C17.2027 147.285 16.7921 147.214 16.328 147.214C15.8639 147.214 15.4533 147.285 15.0963 147.437C14.7393 147.58 14.4269 147.785 14.168 148.035C13.9003 148.285 13.6771 148.588 13.4986 148.927C13.3201 149.266 13.1683 149.632 13.0612 150.007C12.9541 150.391 12.8738 150.784 12.8203 151.185C12.7667 151.587 12.7399 151.98 12.7399 152.364V154.8ZM19.925 152.364C19.925 152.069 19.8982 151.775 19.8714 151.471C19.8446 151.168 19.8 150.864 19.7376 150.57L13.097 157.264C13.213 157.63 13.3647 157.978 13.5432 158.308C13.7307 158.638 13.9538 158.924 14.2127 159.165C14.4804 159.406 14.7839 159.602 15.132 159.745C15.4801 159.888 15.8817 159.959 16.3369 159.959C16.7921 159.959 17.2027 159.888 17.5597 159.736C17.9168 159.584 18.2291 159.388 18.488 159.129C18.7468 158.879 18.9699 158.576 19.1574 158.237C19.3359 157.897 19.4876 157.54 19.5947 157.157C19.7018 156.773 19.7822 156.38 19.8357 155.979C19.8804 155.577 19.9161 155.184 19.9161 154.8V152.364H19.925Z" fill="#CFCFCF"/>
<path d="M31.7003 154.818C31.7003 155.256 31.6646 155.693 31.6021 156.139C31.5485 156.585 31.4504 157.014 31.3165 157.433C31.1826 157.853 31.013 158.246 30.8077 158.612C30.6024 158.977 30.3436 159.299 30.0491 159.567C29.7456 159.834 29.3975 160.057 28.9959 160.209C28.5942 160.37 28.139 160.45 27.6213 160.45C27.1036 160.45 26.6574 160.37 26.2557 160.209C25.8541 160.049 25.506 159.834 25.2025 159.567C24.899 159.299 24.6402 158.977 24.426 158.612C24.2118 158.246 24.0422 157.853 23.9083 157.433C23.7744 157.014 23.6762 156.585 23.6137 156.139C23.5512 155.693 23.5156 155.256 23.5156 154.818V152.364C23.5156 151.935 23.5423 151.498 23.6048 151.052C23.6673 150.605 23.7655 150.168 23.8904 149.748C24.0243 149.329 24.1939 148.936 24.4081 148.57C24.6223 148.204 24.8722 147.883 25.1757 147.606C25.4792 147.33 25.8273 147.115 26.2289 146.955C26.6306 146.794 27.0858 146.714 27.6035 146.714C28.1212 146.714 28.5763 146.794 28.978 146.955C29.3796 147.115 29.7277 147.33 30.0312 147.597C30.3347 147.874 30.5846 148.186 30.7988 148.552C31.013 148.918 31.1826 149.311 31.3165 149.731C31.4504 150.15 31.5485 150.579 31.6021 151.025C31.6556 151.471 31.6913 151.908 31.7003 152.346V154.818ZM24.0154 154.8C24.0154 155.122 24.0332 155.443 24.0689 155.764C24.1046 156.095 24.1582 156.416 24.2385 156.737L30.8881 150.034C30.781 149.65 30.6292 149.284 30.4507 148.945C30.2633 148.606 30.0401 148.303 29.7724 148.044C29.5046 147.785 29.1922 147.58 28.8352 147.437C28.4782 147.285 28.0676 147.214 27.6035 147.214C27.1393 147.214 26.7288 147.285 26.3717 147.437C26.0147 147.58 25.7023 147.785 25.4435 148.035C25.1757 148.285 24.9526 148.588 24.7741 148.927C24.5956 149.266 24.4438 149.632 24.3367 150.007C24.2296 150.391 24.1493 150.784 24.0957 151.185C24.0422 151.587 24.0154 151.98 24.0154 152.364V154.8ZM31.2004 152.364C31.2004 152.069 31.1737 151.775 31.1469 151.471C31.1201 151.168 31.0755 150.864 31.013 150.57L24.3724 157.264C24.4885 157.63 24.6402 157.978 24.8187 158.308C25.0061 158.638 25.2293 158.924 25.4881 159.165C25.7559 159.406 26.0593 159.602 26.4074 159.745C26.7555 159.888 27.1572 159.959 27.6124 159.959C28.0676 159.959 28.4782 159.888 28.8352 159.736C29.1922 159.584 29.5046 159.388 29.7634 159.129C30.0223 158.879 30.2454 158.576 30.4329 158.237C30.6114 157.897 30.7631 157.54 30.8702 157.157C30.9773 156.773 31.0576 156.38 31.1112 155.979C31.1558 155.577 31.1915 155.184 31.1915 154.8V152.364H31.2004Z" fill="#CFCFCF"/>
<path d="M133.609 219.18H133.101V206.462L129.191 208.291V207.738L133.431 205.819H133.609V219.18Z" fill="#CFCFCF"/>
<path d="M146.345 205.64V206.131H146.166C145.229 206.131 144.408 206.31 143.694 206.649C142.98 206.988 142.391 207.443 141.9 208.023C141.418 208.595 141.034 209.264 140.775 210.032C140.507 210.799 140.356 211.611 140.311 212.468C140.499 212.147 140.722 211.861 140.989 211.602C141.257 211.344 141.561 211.129 141.882 210.942C142.212 210.763 142.56 210.621 142.926 210.531C143.292 210.433 143.676 210.389 144.06 210.389C144.676 210.389 145.229 210.505 145.711 210.746C146.193 210.987 146.595 211.308 146.925 211.71C147.255 212.111 147.505 212.575 147.675 213.111C147.844 213.637 147.934 214.191 147.934 214.771C147.934 215.351 147.853 215.869 147.693 216.422C147.532 216.967 147.291 217.458 146.97 217.895C146.648 218.332 146.256 218.68 145.782 218.957C145.309 219.225 144.774 219.368 144.158 219.368C143.489 219.368 142.891 219.243 142.355 218.993C141.82 218.743 141.364 218.404 140.989 217.966C140.615 217.538 140.329 217.038 140.124 216.467C139.918 215.896 139.811 215.298 139.811 214.673V213.129C139.811 212.468 139.883 211.826 139.999 211.201C140.115 210.576 140.284 209.987 140.516 209.434C140.748 208.88 141.034 208.371 141.382 207.907C141.73 207.443 142.141 207.05 142.614 206.711C143.087 206.381 143.614 206.122 144.203 205.935C144.792 205.747 145.452 205.649 146.166 205.649H146.345V205.64ZM144.006 210.897C143.596 210.897 143.194 210.96 142.792 211.085C142.391 211.21 142.025 211.388 141.686 211.62C141.346 211.852 141.061 212.129 140.811 212.459C140.561 212.79 140.4 213.147 140.302 213.548V214.655C140.302 215.217 140.4 215.753 140.579 216.262C140.757 216.77 141.007 217.226 141.338 217.609C141.668 218.002 142.069 218.306 142.542 218.538C143.016 218.77 143.551 218.877 144.149 218.877C144.685 218.877 145.158 218.743 145.568 218.493C145.979 218.243 146.318 217.922 146.595 217.538C146.871 217.145 147.077 216.708 147.219 216.217C147.362 215.735 147.434 215.253 147.434 214.771C147.434 214.253 147.362 213.753 147.211 213.289C147.059 212.825 146.845 212.415 146.55 212.058C146.256 211.701 145.899 211.424 145.47 211.21C145.042 210.996 144.551 210.897 144.006 210.897Z" fill="#CFCFCF"/>
<path d="M155.574 210.666C155.574 210.514 155.628 210.38 155.744 210.273C155.851 210.166 155.976 210.113 156.11 210.113C156.243 210.113 156.377 210.166 156.493 210.273C156.609 210.38 156.663 210.514 156.663 210.666C156.663 210.818 156.609 210.943 156.493 211.041C156.377 211.148 156.252 211.193 156.11 211.193C155.967 211.193 155.851 211.139 155.744 211.041C155.637 210.934 155.574 210.809 155.574 210.666ZM155.574 218.708C155.574 218.556 155.628 218.422 155.744 218.315C155.851 218.208 155.976 218.154 156.11 218.154C156.243 218.154 156.377 218.208 156.493 218.315C156.609 218.422 156.663 218.556 156.663 218.708C156.663 218.86 156.609 218.976 156.493 219.083C156.377 219.19 156.252 219.234 156.11 219.234C155.967 219.234 155.851 219.181 155.744 219.083C155.637 218.976 155.574 218.851 155.574 218.708Z" fill="#CFCFCF"/>
<path d="M170.669 213.727C170.669 214.164 170.633 214.602 170.571 215.048C170.508 215.494 170.419 215.923 170.285 216.342C170.151 216.762 169.982 217.155 169.777 217.52C169.571 217.886 169.312 218.208 169.018 218.475C168.714 218.743 168.366 218.966 167.965 219.118C167.563 219.279 167.108 219.359 166.59 219.359C166.072 219.359 165.626 219.279 165.225 219.118C164.823 218.957 164.475 218.743 164.171 218.475C163.868 218.208 163.609 217.886 163.395 217.52C163.181 217.155 163.011 216.762 162.877 216.342C162.743 215.923 162.645 215.494 162.583 215.048C162.52 214.602 162.484 214.164 162.484 213.727V211.273C162.484 210.844 162.511 210.407 162.574 209.961C162.636 209.514 162.734 209.077 162.859 208.657C162.993 208.238 163.163 207.845 163.377 207.479C163.591 207.113 163.841 206.792 164.145 206.515C164.448 206.239 164.796 206.024 165.198 205.864C165.599 205.703 166.055 205.623 166.572 205.623C167.09 205.623 167.545 205.703 167.947 205.864C168.348 206.024 168.697 206.239 169 206.506C169.303 206.783 169.553 207.095 169.768 207.461C169.982 207.827 170.151 208.22 170.285 208.64C170.419 209.059 170.517 209.487 170.571 209.934C170.624 210.38 170.66 210.817 170.669 211.255V213.727ZM162.993 213.709C162.993 214.031 163.011 214.352 163.047 214.673C163.082 215.003 163.136 215.325 163.216 215.646L169.866 208.943C169.759 208.559 169.607 208.193 169.428 207.854C169.241 207.515 169.018 207.211 168.75 206.953C168.482 206.694 168.17 206.488 167.813 206.346C167.456 206.194 167.045 206.123 166.581 206.123C166.117 206.123 165.706 206.194 165.349 206.346C164.992 206.488 164.68 206.694 164.421 206.944C164.153 207.194 163.93 207.497 163.752 207.836C163.573 208.175 163.422 208.541 163.314 208.916C163.207 209.3 163.127 209.693 163.073 210.094C163.02 210.496 162.993 210.889 162.993 211.273V213.709ZM170.178 211.273C170.178 210.978 170.151 210.684 170.125 210.38C170.098 210.077 170.053 209.773 169.991 209.479L163.35 216.173C163.466 216.539 163.618 216.887 163.796 217.217C163.984 217.547 164.207 217.833 164.466 218.074C164.725 218.315 165.037 218.511 165.385 218.654C165.733 218.797 166.135 218.868 166.59 218.868C167.045 218.868 167.456 218.797 167.813 218.645C168.17 218.493 168.482 218.297 168.741 218.038C169 217.788 169.223 217.485 169.411 217.146C169.589 216.806 169.741 216.449 169.848 216.066C169.955 215.682 170.035 215.289 170.089 214.887C170.134 214.486 170.169 214.093 170.169 213.709V211.273H170.178Z" fill="#CFCFCF"/>
<path d="M181.941 213.727C181.941 214.164 181.905 214.602 181.843 215.048C181.78 215.494 181.691 215.923 181.557 216.342C181.423 216.762 181.254 217.155 181.048 217.52C180.843 217.886 180.584 218.208 180.29 218.475C179.986 218.743 179.638 218.966 179.237 219.118C178.835 219.279 178.38 219.359 177.862 219.359C177.344 219.359 176.898 219.279 176.496 219.118C176.095 218.957 175.747 218.743 175.443 218.475C175.14 218.208 174.881 217.886 174.667 217.52C174.452 217.155 174.283 216.762 174.149 216.342C174.015 215.923 173.917 215.494 173.855 215.048C173.792 214.602 173.756 214.164 173.756 213.727V211.273C173.756 210.844 173.783 210.407 173.846 209.961C173.908 209.514 174.006 209.077 174.131 208.657C174.265 208.238 174.435 207.845 174.649 207.479C174.863 207.113 175.113 206.792 175.417 206.515C175.72 206.239 176.068 206.024 176.47 205.864C176.871 205.703 177.327 205.623 177.844 205.623C178.362 205.623 178.817 205.703 179.219 205.864C179.62 206.024 179.969 206.239 180.272 206.506C180.575 206.783 180.825 207.095 181.04 207.461C181.254 207.827 181.423 208.22 181.557 208.64C181.691 209.059 181.789 209.487 181.843 209.934C181.896 210.38 181.932 210.817 181.941 211.255V213.727ZM174.265 213.709C174.265 214.031 174.283 214.352 174.319 214.673C174.354 215.003 174.408 215.325 174.488 215.646L181.138 208.943C181.031 208.559 180.879 208.193 180.7 207.854C180.513 207.515 180.29 207.211 180.022 206.953C179.754 206.694 179.442 206.488 179.085 206.346C178.728 206.194 178.317 206.123 177.853 206.123C177.389 206.123 176.978 206.194 176.621 206.346C176.264 206.488 175.952 206.694 175.693 206.944C175.425 207.194 175.202 207.497 175.024 207.836C174.845 208.175 174.694 208.541 174.586 208.916C174.479 209.3 174.399 209.693 174.345 210.094C174.292 210.496 174.265 210.889 174.265 211.273V213.709ZM181.45 211.273C181.45 210.978 181.423 210.684 181.397 210.38C181.37 210.077 181.325 209.773 181.263 209.479L174.622 216.173C174.738 216.539 174.89 216.887 175.068 217.217C175.256 217.547 175.479 217.833 175.738 218.074C175.997 218.315 176.309 218.511 176.657 218.654C177.005 218.797 177.407 218.868 177.862 218.868C178.317 218.868 178.728 218.797 179.085 218.645C179.442 218.493 179.754 218.297 180.013 218.038C180.272 217.788 180.495 217.485 180.683 217.146C180.861 216.806 181.013 216.449 181.12 216.066C181.227 215.682 181.307 215.289 181.361 214.887C181.405 214.486 181.441 214.093 181.441 213.709V211.273H181.45Z" fill="#CFCFCF"/>
<path d="M215.279 219.18H214.77V206.462L210.861 208.291V207.738L215.1 205.819H215.279V219.18Z" fill="#CFCFCF"/>
<path d="M228.014 205.64V206.131H227.836C226.899 206.131 226.077 206.31 225.363 206.649C224.649 206.988 224.06 207.443 223.569 208.023C223.087 208.595 222.704 209.264 222.445 210.032C222.177 210.799 222.025 211.611 221.981 212.468C222.168 212.147 222.391 211.861 222.659 211.602C222.927 211.344 223.23 211.129 223.551 210.942C223.882 210.763 224.23 210.621 224.596 210.531C224.962 210.433 225.346 210.389 225.729 210.389C226.345 210.389 226.899 210.505 227.381 210.746C227.862 210.987 228.264 211.308 228.594 211.71C228.925 212.111 229.175 212.575 229.344 213.111C229.514 213.637 229.603 214.191 229.603 214.771C229.603 215.351 229.523 215.869 229.362 216.422C229.201 216.967 228.96 217.458 228.639 217.895C228.318 218.332 227.925 218.68 227.452 218.957C226.979 219.225 226.443 219.368 225.827 219.368C225.158 219.368 224.56 219.243 224.025 218.993C223.489 218.743 223.034 218.404 222.659 217.966C222.284 217.538 221.998 217.038 221.793 216.467C221.588 215.896 221.481 215.298 221.481 214.673V213.129C221.481 212.468 221.552 211.826 221.668 211.201C221.784 210.576 221.954 209.987 222.186 209.434C222.418 208.88 222.704 208.371 223.052 207.907C223.4 207.443 223.81 207.05 224.283 206.711C224.756 206.381 225.283 206.122 225.872 205.935C226.461 205.747 227.122 205.649 227.836 205.649H228.014V205.64ZM225.676 210.897C225.265 210.897 224.864 210.96 224.462 211.085C224.06 211.21 223.694 211.388 223.355 211.62C223.016 211.852 222.73 212.129 222.48 212.459C222.23 212.79 222.07 213.147 221.972 213.548V214.655C221.972 215.217 222.07 215.753 222.248 216.262C222.427 216.77 222.677 217.226 223.007 217.609C223.337 218.002 223.739 218.306 224.212 218.538C224.685 218.77 225.221 218.877 225.819 218.877C226.354 218.877 226.827 218.743 227.238 218.493C227.648 218.243 227.987 217.922 228.264 217.538C228.541 217.145 228.746 216.708 228.889 216.217C229.032 215.735 229.103 215.253 229.103 214.771C229.103 214.253 229.032 213.753 228.88 213.289C228.728 212.825 228.514 212.415 228.219 212.058C227.925 211.701 227.568 211.424 227.14 211.21C226.711 210.996 226.22 210.897 225.676 210.897Z" fill="#CFCFCF"/>
<path d="M237.243 210.666C237.243 210.514 237.297 210.38 237.413 210.273C237.52 210.166 237.645 210.113 237.779 210.113C237.913 210.113 238.047 210.166 238.163 210.273C238.279 210.38 238.332 210.514 238.332 210.666C238.332 210.818 238.279 210.943 238.163 211.041C238.047 211.148 237.922 211.193 237.779 211.193C237.636 211.193 237.52 211.139 237.413 211.041C237.306 210.934 237.243 210.809 237.243 210.666ZM237.243 218.708C237.243 218.556 237.297 218.422 237.413 218.315C237.52 218.208 237.645 218.154 237.779 218.154C237.913 218.154 238.047 218.208 238.163 218.315C238.279 218.422 238.332 218.556 238.332 218.708C238.332 218.86 238.279 218.976 238.163 219.083C238.047 219.19 237.922 219.234 237.779 219.234C237.636 219.234 237.52 219.181 237.413 219.083C237.306 218.976 237.243 218.851 237.243 218.708Z" fill="#CFCFCF"/>
<path d="M246.385 212.12H247.402C247.831 212.12 248.259 212.049 248.688 211.933C249.116 211.817 249.509 211.638 249.848 211.397C250.187 211.156 250.473 210.862 250.687 210.505C250.901 210.148 251.008 209.719 251.008 209.237C251.008 208.755 250.928 208.327 250.758 207.952C250.598 207.568 250.365 207.247 250.071 206.979C249.776 206.711 249.428 206.506 249.027 206.363C248.625 206.22 248.197 206.149 247.732 206.149C247.268 206.149 246.813 206.229 246.394 206.381C245.983 206.533 245.617 206.747 245.314 207.024C245.01 207.3 244.76 207.64 244.582 208.023C244.394 208.416 244.296 208.853 244.278 209.335H243.778C243.796 208.782 243.912 208.282 244.118 207.827C244.323 207.372 244.609 206.988 244.966 206.658C245.323 206.336 245.733 206.086 246.206 205.908C246.679 205.729 247.188 205.64 247.732 205.64C248.277 205.64 248.768 205.729 249.232 205.899C249.687 206.069 250.089 206.31 250.428 206.631C250.767 206.943 251.035 207.327 251.222 207.773C251.41 208.22 251.508 208.719 251.508 209.273C251.508 209.683 251.437 210.058 251.294 210.389C251.151 210.719 250.963 211.013 250.731 211.272C250.499 211.531 250.223 211.745 249.91 211.924C249.598 212.102 249.259 212.254 248.902 212.361C249.303 212.45 249.678 212.584 250.026 212.763C250.374 212.941 250.687 213.164 250.946 213.432C251.205 213.7 251.419 214.021 251.57 214.387C251.722 214.753 251.803 215.173 251.803 215.646C251.803 216.217 251.695 216.735 251.49 217.199C251.285 217.654 250.999 218.047 250.642 218.368C250.285 218.689 249.866 218.939 249.375 219.109C248.893 219.287 248.366 219.368 247.822 219.368C247.242 219.368 246.697 219.278 246.179 219.091C245.662 218.904 245.215 218.645 244.823 218.305C244.43 217.966 244.127 217.556 243.886 217.074C243.654 216.592 243.52 216.056 243.502 215.467H244.002C244.019 215.985 244.136 216.458 244.35 216.877C244.564 217.297 244.841 217.654 245.189 217.949C245.537 218.243 245.929 218.475 246.385 218.636C246.84 218.796 247.313 218.877 247.822 218.877C248.331 218.877 248.768 218.805 249.196 218.663C249.625 218.52 249.991 218.314 250.303 218.047C250.615 217.779 250.865 217.44 251.044 217.047C251.222 216.654 251.312 216.199 251.312 215.681C251.312 215.119 251.204 214.646 250.972 214.262C250.749 213.878 250.455 213.566 250.089 213.325C249.723 213.084 249.312 212.914 248.839 212.807C248.375 212.7 247.893 212.647 247.402 212.638H246.385V212.12Z" fill="#CFCFCF"/>
<path d="M263.61 213.727C263.61 214.164 263.575 214.602 263.512 215.048C263.45 215.494 263.36 215.923 263.227 216.342C263.093 216.762 262.923 217.155 262.718 217.52C262.513 217.886 262.254 218.208 261.959 218.475C261.656 218.743 261.308 218.966 260.906 219.118C260.504 219.279 260.049 219.359 259.532 219.359C259.014 219.359 258.568 219.279 258.166 219.118C257.764 218.957 257.416 218.743 257.113 218.475C256.809 218.208 256.55 217.886 256.336 217.52C256.122 217.155 255.952 216.762 255.818 216.342C255.685 215.923 255.586 215.494 255.524 215.048C255.461 214.602 255.426 214.164 255.426 213.727V211.273C255.426 210.844 255.453 210.407 255.515 209.961C255.578 209.514 255.676 209.077 255.801 208.657C255.934 208.238 256.104 207.845 256.318 207.479C256.532 207.113 256.782 206.792 257.086 206.515C257.389 206.239 257.737 206.024 258.139 205.864C258.541 205.703 258.996 205.623 259.514 205.623C260.031 205.623 260.486 205.703 260.888 205.864C261.29 206.024 261.638 206.239 261.941 206.506C262.245 206.783 262.495 207.095 262.709 207.461C262.923 207.827 263.093 208.22 263.227 208.64C263.36 209.059 263.459 209.487 263.512 209.934C263.566 210.38 263.602 210.817 263.61 211.255V213.727ZM255.935 213.709C255.935 214.031 255.952 214.352 255.988 214.673C256.024 215.003 256.077 215.325 256.158 215.646L262.807 208.943C262.7 208.559 262.548 208.193 262.37 207.854C262.182 207.515 261.959 207.211 261.691 206.953C261.424 206.694 261.111 206.488 260.754 206.346C260.397 206.194 259.987 206.123 259.523 206.123C259.058 206.123 258.648 206.194 258.291 206.346C257.934 206.488 257.621 206.694 257.363 206.944C257.095 207.194 256.872 207.497 256.693 207.836C256.515 208.175 256.363 208.541 256.256 208.916C256.149 209.3 256.068 209.693 256.015 210.094C255.961 210.496 255.935 210.889 255.935 211.273V213.709ZM263.12 211.273C263.12 210.978 263.093 210.684 263.066 210.38C263.039 210.077 262.995 209.773 262.932 209.479L256.292 216.173C256.408 216.539 256.559 216.887 256.738 217.217C256.925 217.547 257.148 217.833 257.407 218.074C257.666 218.315 257.978 218.511 258.327 218.654C258.675 218.797 259.076 218.868 259.532 218.868C259.987 218.868 260.397 218.797 260.754 218.645C261.111 218.493 261.424 218.297 261.682 218.038C261.941 217.788 262.164 217.485 262.352 217.146C262.53 216.806 262.682 216.449 262.789 216.066C262.896 215.682 262.977 215.289 263.03 214.887C263.075 214.486 263.111 214.093 263.111 213.709V211.273H263.12Z" fill="#CFCFCF"/>
<path d="M49.2118 2.96817V189.066H297.958V189.958H48.7656L48.3193 189.512V2.96817H49.2118Z" fill="#4D4D4D"/>
<path d="M131.166 189.512V199.777H130.274V189.512H131.166Z" fill="#4D4D4D"/>
<path d="M49.292 189.512V199.777H48.3995V189.512H49.292Z" fill="#4D4D4D"/>
<path d="M48.6229 188.843V189.735H38.3582V188.843H48.6229Z" fill="#4D4D4D"/>
<path d="M48.6229 115.028V115.921H38.3582V115.028H48.6229Z" fill="#4D4D4D"/>
<path d="M48.6229 41.2137V42.1063H38.3582V41.2137H48.6229Z" fill="#4D4D4D"/>
<path d="M48.6229 78.1214V79.014H38.3582V78.1214H48.6229Z" fill="#4D4D4D"/>
<path d="M48.6229 151.935V152.827H38.3582V151.935H48.6229Z" fill="#4D4D4D"/>
<path d="M48.6229 4.30699V5.19957H38.3582V4.30699H48.6229Z" fill="#4D4D4D"/>
<path d="M213.048 189.512V199.777H212.155V189.512H213.048Z" fill="#4D4D4D"/>
<path d="M294.933 189.512V199.777H294.04V189.512H294.933Z" fill="#4D4D4D"/>
<path d="M63.4403 38.0985C66.9838 42.3292 70.6879 42.2488 73.7851 46.8187C79.0154 54.5482 79.1404 66.7495 80.4078 75.8803C81.8537 86.225 94.4655 92.214 96.447 102.469C97.2771 106.736 98.9194 124.025 107.104 124.025C111.112 124.025 112.584 117.161 112.906 113.162C113.352 107.655 115.137 93.6778 120.198 93.6778C125.259 93.6778 125.035 108.628 131.801 110.931C135.889 112.323 139.29 104.612 140.575 92.6335C142.208 77.3887 145.707 69.3557 151.803 72.9259C157.899 76.4961 158.337 82.146 164.558 81.4409C170.654 80.7447 171.85 72.9348 173.483 67.0172C175.527 59.609 176.161 51.3261 182.971 52.0223C190.263 52.7631 194.387 80.9946 194.869 85.1985C198.885 120.008 202.456 135.628 211.872 169.116C213.006 173.142 215.826 177.301 220.003 177.301C228.331 177.301 226.769 155.041 235.917 136.52C245.066 118 241.273 112.645 246.61 84.2078C247.351 80.2716 248.538 76.2998 250.912 73.0776C253.287 69.8466 257.419 67.5706 261.293 68.5881C267.8 70.3018 270.879 83.4134 272.361 90.5539C276.091 108.459 284.258 129.826 293.336 134.137V189.627H48.0349V16.9182C48.0349 16.9182 58.8973 32.6896 63.4315 38.0985H63.4403Z" fill="#515151"/>
<path d="M60.0058 38.3217C60.0058 36.6527 61.3625 35.296 63.0405 35.296C64.7185 35.296 66.0663 36.6527 66.0663 38.3217C66.0663 39.9908 64.7096 41.3564 63.0405 41.3564C61.3715 41.3564 60.0058 39.9997 60.0058 38.3217Z" fill="#5E5E5E"/>
<path d="M179.357 52.2365C179.357 50.5674 180.714 49.2107 182.383 49.2107C184.052 49.2107 185.409 50.5674 185.409 52.2365C185.409 53.9055 184.052 55.2712 182.383 55.2712C180.714 55.2712 179.357 53.9145 179.357 52.2365Z" fill="#5E5E5E"/>
<path d="M78.8924 79.4594C78.8924 77.7903 80.2491 76.4336 81.9271 76.4336C83.6051 76.4336 84.9529 77.7903 84.9529 79.4594C84.9529 81.1284 83.5962 82.4851 81.9271 82.4851C80.258 82.4851 78.8924 81.1284 78.8924 79.4594Z" fill="#5E5E5E"/>
<path d="M91.7264 98.2214C91.7264 96.5523 93.0831 95.1956 94.7611 95.1956C96.4391 95.1956 97.7868 96.5523 97.7868 98.2214C97.7868 99.8904 96.4301 101.256 94.7611 101.256C93.092 101.256 91.7264 99.8994 91.7264 98.2214Z" fill="#5E5E5E"/>
<path d="M103.169 124.132C103.169 122.454 104.526 121.097 106.204 121.097C107.882 121.097 109.23 122.454 109.23 124.132C109.23 125.81 107.873 127.158 106.204 127.158C104.535 127.158 103.169 125.801 103.169 124.132Z" fill="#5E5E5E"/>
<path d="M116.551 93.8562C116.551 92.1782 117.907 90.8304 119.576 90.8304C121.245 90.8304 122.602 92.1871 122.602 93.8562C122.602 95.5252 121.245 96.8819 119.576 96.8819C117.907 96.8819 116.551 95.5252 116.551 93.8562Z" fill="#5E5E5E"/>
<path d="M129.838 110.485C129.838 108.816 131.194 107.459 132.872 107.459C134.55 107.459 135.898 108.816 135.898 110.485C135.898 112.154 134.542 113.52 132.872 113.52C131.203 113.52 129.838 112.163 129.838 110.485Z" fill="#5E5E5E"/>
<path d="M145.743 71.9354C145.743 70.2574 147.1 68.9097 148.769 68.9097C150.438 68.9097 151.804 70.2663 151.804 71.9354C151.804 73.6045 150.447 74.9612 148.769 74.9612C147.091 74.9612 145.743 73.6045 145.743 71.9354Z" fill="#5E5E5E"/>
<path d="M162.113 81.4676C162.113 79.7896 163.469 78.4419 165.138 78.4419C166.807 78.4419 168.173 79.7985 168.173 81.4676C168.173 83.1367 166.816 84.4934 165.138 84.4934C163.46 84.4934 162.113 83.1367 162.113 81.4676Z" fill="#5E5E5E"/>
<path d="M192.54 92.5359C192.54 90.8579 193.896 89.5012 195.565 89.5012C197.234 89.5012 198.591 90.8579 198.591 92.5359C198.591 94.2139 197.234 95.5706 195.565 95.5706C193.896 95.5706 192.54 94.2139 192.54 92.5359Z" fill="#5E5E5E"/>
<path d="M285.867 131.21C285.867 129.541 287.224 128.184 288.893 128.184C290.562 128.184 291.919 129.541 291.919 131.21C291.919 132.879 290.562 134.245 288.893 134.245C287.224 134.245 285.867 132.888 285.867 131.21Z" fill="#5E5E5E"/>
<path d="M258.163 68.713C258.163 67.044 259.52 65.6873 261.189 65.6873C262.858 65.6873 264.215 67.044 264.215 68.713C264.215 70.3821 262.858 71.7477 261.189 71.7477C259.52 71.7477 258.163 70.391 258.163 68.713Z" fill="#5E5E5E"/>
<path d="M246.7 75.3542C246.7 73.6762 248.056 72.3195 249.725 72.3195C251.394 72.3195 252.751 73.6762 252.751 75.3542C252.751 77.0322 251.394 78.38 249.725 78.38C248.056 78.38 246.7 77.0233 246.7 75.3542Z" fill="#5E5E5E"/>
<path d="M220.121 180.772C221.796 180.729 223.12 179.336 223.077 177.661C223.034 175.985 221.641 174.662 219.965 174.705C218.29 174.748 216.966 176.141 217.009 177.816C217.052 179.492 218.445 180.815 220.121 180.772Z" fill="#5E5E5E"/>
<path d="M234.392 133.298C234.392 131.629 235.749 130.273 237.427 130.273C239.105 130.273 240.453 131.629 240.453 133.298C240.453 134.968 239.096 136.324 237.427 136.324C235.758 136.324 234.392 134.968 234.392 133.298Z" fill="#5E5E5E"/>
<path d="M78.8299 44.8995C78.8299 41.201 75.8341 38.2053 72.1356 38.2052C68.4369 38.2052 65.4412 41.2009 65.4412 44.8995C65.4413 48.5981 68.437 51.5939 72.1356 51.5939C75.834 51.5938 78.8298 48.598 78.8299 44.8995ZM79.7225 44.8995C79.7224 49.091 76.327 52.4864 72.1356 52.4865C67.9441 52.4865 64.5487 49.091 64.5486 44.8995C64.5486 40.708 67.944 37.3126 72.1356 37.3126C76.327 37.3127 79.7225 40.708 79.7225 44.8995Z" fill="#5E5E5E"/>
<path d="M68.1468 44.8996C68.1468 42.695 69.9319 40.9099 72.1365 40.9099C74.3411 40.9099 76.1262 42.695 76.1262 44.8996C76.1262 47.1042 74.3411 48.8893 72.1365 48.8893C69.9319 48.8893 68.1468 47.1042 68.1468 44.8996Z" fill="#5E5E5E"/>
<path d="M47.5133 16.0728C48.123 15.655 48.9565 15.8108 49.3746 16.4205L49.3756 16.4224C49.3769 16.4242 49.3789 16.4275 49.3815 16.4312C49.3865 16.4386 49.3948 16.4498 49.4049 16.4644C49.425 16.4937 49.4546 16.5374 49.4938 16.5943C49.5725 16.7088 49.689 16.8774 49.8385 17.0943C50.1376 17.528 50.5699 18.1543 51.1031 18.9224C52.1697 20.4587 53.6386 22.563 55.2487 24.8355C58.4817 29.3989 62.2435 34.5836 64.4694 37.2388C66.0802 39.1621 67.7042 40.0958 69.485 41.191C71.1708 42.2277 72.9463 43.3861 74.5729 45.6089L74.8961 46.0679L74.8971 46.0689C77.6782 50.1789 79.0545 55.3956 79.9069 60.608C80.3351 63.2265 80.6369 65.8818 80.9088 68.4332C81.1821 70.9967 81.424 73.4401 81.7369 75.6949C82.3952 80.4041 85.6022 84.194 89.235 88.3248C92.7503 92.322 96.6909 96.6616 97.7643 102.214L97.9391 103.201C98.3689 105.79 98.9783 110.277 100.297 114.443C101.047 116.809 101.986 118.929 103.161 120.433C104.319 121.916 105.605 122.686 107.107 122.686C108.213 122.686 109.269 121.737 110.152 119.585C110.988 117.547 111.42 114.984 111.575 113.055C111.8 110.272 112.366 105.305 113.533 101.004C114.113 98.8647 114.867 96.7948 115.859 95.231C116.83 93.7005 118.242 92.3395 120.201 92.3394C122.248 92.3394 123.527 93.8812 124.369 95.4009C125.233 96.9612 125.933 99.0361 126.626 100.995C127.342 103.021 128.069 104.988 129.005 106.587C129.941 108.187 130.983 109.237 132.236 109.664C132.761 109.843 133.275 109.773 133.894 109.29C134.571 108.761 135.31 107.767 136.03 106.229C137.462 103.17 138.611 98.4142 139.247 92.4908C140.065 84.8519 141.366 78.808 143.337 75.0962C144.323 73.2375 145.578 71.7728 147.209 71.1138C148.91 70.4264 150.713 70.7345 152.483 71.771C155.754 73.6867 157.592 76.2376 159.117 77.8746C159.904 78.72 160.597 79.3261 161.381 79.7037C162.137 80.0671 163.072 80.2622 164.409 80.1109C166.773 79.8409 168.297 78.2288 169.479 75.6324C170.686 72.9819 171.343 69.7517 172.196 66.6617C172.703 64.8251 173.108 62.9861 173.575 61.1255C174.031 59.3077 174.536 57.509 175.215 55.9468C175.893 54.3889 176.791 52.9526 178.098 51.9625C179.447 50.9415 181.11 50.4864 183.111 50.691C184.457 50.8278 185.594 51.584 186.529 52.564C187.467 53.5473 188.297 54.8553 189.038 56.3248C190.521 59.2671 191.762 63.1044 192.772 66.9742C194.795 74.7283 195.956 82.9017 196.202 85.0455L196.577 88.2457C200.437 120.758 204.057 136.362 213.165 168.754C213.691 170.623 214.598 172.473 215.801 173.83C216.996 175.176 218.406 175.962 220.006 175.962C221.319 175.962 222.433 175.152 223.518 172.944C224.606 170.73 225.449 167.52 226.35 163.559C228.127 155.755 230.058 145.365 234.72 135.927C239.219 126.821 240.52 121.002 241.367 113.924C242.219 106.802 242.618 98.2366 245.298 83.9615C246.052 79.954 247.286 75.7467 249.838 72.2837C252.406 68.7895 257.046 66.0877 261.636 67.2935C263.651 67.8243 265.292 69.2067 266.62 70.9185C267.951 72.6352 269.047 74.7829 269.956 77.0357C271.773 81.5407 272.933 86.706 273.674 90.2808L274.034 91.9546C275.895 100.368 278.697 109.382 282.068 116.895C283.866 120.902 285.811 124.449 287.84 127.24C289.882 130.049 291.935 131.989 293.913 132.928C294.581 133.245 294.865 134.044 294.548 134.711C294.231 135.379 293.432 135.664 292.764 135.347C290.204 134.131 287.832 131.783 285.673 128.814C283.501 125.826 281.469 122.103 279.625 117.992C275.935 109.768 272.934 99.8541 271.053 90.8277L271.052 90.8257C270.313 87.2603 269.192 82.3003 267.472 78.0367C266.613 75.9051 265.627 74.0068 264.505 72.5601C263.379 71.1086 262.193 70.2095 260.955 69.8834C257.799 69.0552 254.175 70.904 251.995 73.8707L251.994 73.8726C249.797 76.8539 248.657 80.5909 247.929 84.4556C245.271 98.6165 244.899 106.947 244.026 114.242C243.148 121.581 241.771 127.7 237.121 137.114C232.634 146.196 230.773 156.198 228.962 164.154C228.069 168.073 227.169 171.586 225.922 174.125C224.671 176.669 222.857 178.64 220.006 178.64C217.43 178.64 215.342 177.347 213.798 175.607C212.264 173.878 211.194 171.636 210.587 169.48C201.156 135.94 197.569 120.248 193.543 85.3521L193.542 85.3511C193.305 83.2891 192.163 75.2463 190.181 67.65C189.188 63.8438 188.002 60.2205 186.646 57.5298C185.967 56.1831 185.276 55.1313 184.59 54.4127C183.902 53.6908 183.317 53.4036 182.839 53.355L182.839 53.3541C181.434 53.2105 180.464 53.5296 179.714 54.0972C178.924 54.6958 178.258 55.6635 177.671 57.0152C177.085 58.3626 176.623 59.9802 176.173 61.7769C175.788 63.3118 175.403 65.0156 174.967 66.6685L174.777 67.3736C173.997 70.2008 173.239 73.8341 171.916 76.7418C170.567 79.7038 168.444 82.3449 164.713 82.771C162.939 82.972 161.486 82.7257 160.22 82.1168C158.983 81.5217 158.018 80.6248 157.157 79.6998C155.383 77.7955 153.955 75.7361 151.13 74.0816C149.852 73.3333 148.931 73.3064 148.212 73.5972C147.421 73.9166 146.555 74.7435 145.701 76.3521C143.99 79.5755 142.725 85.1713 141.91 92.7769C141.26 98.8314 140.066 103.92 138.455 107.364C137.653 109.077 136.694 110.499 135.544 111.399C134.41 112.285 133.07 112.667 131.656 112.285L131.373 112.199C129.243 111.474 127.776 109.791 126.693 107.94C125.61 106.089 124.808 103.887 124.101 101.887C123.371 99.8206 122.755 98.0136 122.027 96.6988C121.276 95.3434 120.684 95.0171 120.201 95.0171C119.629 95.0172 118.921 95.4035 118.12 96.6656C117.34 97.8945 116.671 99.6629 116.117 101.706C115.014 105.771 114.465 110.547 114.244 113.271C114.077 115.341 113.612 118.208 112.63 120.601C111.694 122.88 110.009 125.364 107.107 125.364C104.517 125.364 102.528 123.973 101.05 122.081C99.5896 120.21 98.533 117.741 97.7448 115.252C96.1774 110.302 95.5213 104.704 95.1364 102.725L95.1354 102.724C94.2269 98.0222 90.8713 94.2393 87.2243 90.0923C83.6944 86.0787 79.8723 81.7013 79.0846 76.066C78.764 73.756 78.5157 71.2493 78.2457 68.7164C77.9744 66.1705 77.6795 63.5798 77.2643 61.0406C76.4298 55.9375 75.1285 51.1883 72.6793 47.5689C71.2952 45.5274 69.7951 44.526 68.0817 43.4722C66.4584 42.4739 64.5985 41.4082 62.7799 39.3775L62.4176 38.9585C60.1093 36.2049 56.2841 30.9283 53.0641 26.3834C51.4477 24.1019 49.9738 21.99 48.9039 20.4488C48.3691 19.6784 47.9349 19.0505 47.6344 18.6148C47.4843 18.3972 47.3671 18.2273 47.2877 18.1119C47.2481 18.0542 47.2173 18.0098 47.1969 17.98C47.1867 17.9652 47.1796 17.9534 47.1744 17.9459C47.1718 17.9421 47.1689 17.939 47.1676 17.9371L47.1666 17.9351L47.1656 17.9341C46.7478 17.3244 46.9037 16.4909 47.5133 16.0728Z" fill="#5E5E5E"/>
<path d="M48.4181 190.485H293.13V60.7786C289.854 74.2116 279.313 90.5989 273.966 90.5989C265.291 90.5989 266.88 81.8251 256.544 81.8251C241.585 81.8251 237.059 124.721 226.652 124.721C216.245 124.721 217.521 114.939 207.444 113.118C197.367 111.297 186.362 91.3843 177.312 91.3843C168.261 91.3843 162.79 119.607 147.545 120.856C138.718 121.579 139.209 134.227 129.337 134.227C119.465 134.227 117.073 112.136 105.916 112.136C94.7594 112.136 89.2346 140.609 78.3187 140.609C64.85 140.609 55.023 116.706 48.1503 139.377L48.4092 190.476L48.4181 190.485Z" fill="url(#paint0_linear_2138_36925)"/>
<path d="M291.388 60.3556C291.621 59.3978 292.587 58.8105 293.545 59.0441C294.503 59.2777 295.09 60.2436 294.857 61.2013C293.163 68.1447 289.618 75.7817 285.819 81.6916C283.918 84.6476 281.914 87.2347 279.994 89.1066C279.035 90.0422 278.057 90.8372 277.088 91.4074C276.135 91.9681 275.066 92.3839 273.959 92.3839C271.451 92.3839 269.576 91.7385 268.039 90.7131C266.579 89.7388 265.478 88.4413 264.545 87.4074C263.565 86.321 262.686 85.4156 261.514 84.7463C260.375 84.0958 258.848 83.6105 256.536 83.6105C253.738 83.6105 251.116 85.6133 248.502 89.5197C245.929 93.3656 243.697 98.5624 241.54 103.938C239.419 109.225 237.359 114.723 235.181 118.852C234.089 120.921 232.905 122.773 231.578 124.127C230.249 125.484 228.609 126.506 226.645 126.506C223.735 126.506 221.528 125.815 219.719 124.675C217.958 123.566 216.671 122.087 215.549 120.749C213.28 118.043 211.451 115.657 207.119 114.874C204.141 114.336 201.273 112.51 198.618 110.334C195.94 108.139 193.265 105.403 190.716 102.822C188.127 100.202 185.673 97.7468 183.324 95.9386C180.935 94.099 178.95 93.1691 177.304 93.1691C175.983 93.1693 174.419 94.234 172.401 96.8927C170.449 99.4624 168.525 102.886 166.267 106.582C164.059 110.197 161.571 113.999 158.614 116.981C155.644 119.976 152.07 122.276 147.684 122.636C144.268 122.916 142.642 125.38 140.301 128.818C138.099 132.051 135.279 136.012 129.329 136.012C126.11 136.012 123.659 134.186 121.723 131.942C119.804 129.717 118.139 126.785 116.56 124.082C114.93 121.292 113.372 118.71 111.586 116.811C109.832 114.946 108.029 113.921 105.909 113.921C103.931 113.921 101.949 115.183 99.7883 117.737C97.6522 120.263 95.6542 123.674 93.5627 127.27C91.5165 130.788 89.3746 134.493 87.0305 137.303C84.7152 140.078 81.8647 142.394 78.3108 142.394C74.4229 142.394 70.9263 140.673 67.9133 138.728C66.3962 137.748 64.9434 136.672 63.5969 135.676C62.2296 134.664 60.9853 133.745 59.8039 133.002C57.3272 131.446 55.7801 131.098 54.5969 131.632C53.2798 132.227 51.5612 134.253 49.8508 139.895C49.5647 140.838 48.5686 141.371 47.6252 141.085C46.6817 140.799 46.1488 139.802 46.4348 138.859C48.1606 133.166 50.248 129.678 53.1272 128.378C56.1402 127.018 59.1808 128.394 61.7033 129.98C63.0215 130.808 64.3798 131.814 65.7209 132.806C67.0828 133.813 68.4444 134.82 69.8498 135.728C72.682 137.556 75.4645 138.823 78.3108 138.823C80.2148 138.823 82.1499 137.58 84.2893 135.016C86.3996 132.487 88.3829 129.075 90.4768 125.475C92.5256 121.952 94.683 118.244 97.0617 115.432C99.4161 112.648 102.31 110.351 105.909 110.351C109.368 110.351 112.047 112.088 114.188 114.364C116.297 116.607 118.046 119.548 119.643 122.28C121.29 125.1 122.772 127.691 124.426 129.609C126.063 131.506 127.614 132.441 129.329 132.442C133.252 132.442 135.123 130.078 137.35 126.808C139.438 123.741 141.981 119.52 147.392 119.077L147.694 119.048C150.804 118.705 153.535 117.032 156.079 114.467C158.719 111.805 161.023 108.317 163.22 104.721C165.367 101.206 167.46 97.4947 169.557 94.7336C171.585 92.0621 174.1 89.599 177.304 89.5988C180.182 89.5988 182.968 91.1588 185.502 93.1095C188.077 95.0919 190.702 97.7285 193.256 100.314C195.849 102.939 198.38 105.523 200.882 107.573C203.408 109.643 205.694 110.989 207.754 111.361C213.499 112.4 216.071 115.815 218.284 118.455C219.404 119.791 220.38 120.872 221.621 121.653C222.814 122.405 224.351 122.936 226.645 122.936C227.282 122.936 228.06 122.618 229.029 121.629C230 120.637 230.994 119.138 232.024 117.186C234.088 113.272 236.046 108.045 238.227 102.609C240.373 97.2597 242.726 91.7314 245.534 87.5343C248.302 83.3981 251.856 80.0402 256.536 80.0402C259.392 80.0402 261.543 80.651 263.284 81.6457C264.993 82.6213 266.197 83.9089 267.196 85.0158C268.242 86.1753 269.015 87.0724 270.021 87.7433C270.949 88.3629 272.13 88.8136 273.959 88.8136C274.188 88.8136 274.619 88.7169 275.278 88.3293C275.921 87.9508 276.671 87.3606 277.502 86.55C279.164 84.9295 281.003 82.5805 282.816 79.7609C286.443 74.1189 289.805 66.8452 291.388 60.3556Z" fill="#FF5900"/>
<path d="M286.352 60.9661C286.352 57.021 289.547 53.8257 293.492 53.8257C297.437 53.8257 300.633 57.021 300.633 60.9661C300.633 64.9112 297.437 68.1066 293.492 68.1066C289.547 68.1066 286.352 64.9112 286.352 60.9661Z" fill="#FF5900"/>
<path d="M300.187 60.9663C300.187 57.2678 297.191 54.2721 293.492 54.272C289.794 54.272 286.798 57.2677 286.798 60.9663C286.798 64.6649 289.794 67.6607 293.492 67.6607C297.191 67.6606 300.187 64.6648 300.187 60.9663ZM301.079 60.9663C301.079 65.1577 297.684 68.5531 293.492 68.5532C289.301 68.5532 285.906 65.1578 285.906 60.9663C285.906 56.7748 289.301 53.3794 293.492 53.3794C297.684 53.3795 301.079 56.7748 301.079 60.9663Z" fill="#FF5900"/>
<path d="M289.504 60.9664C289.504 58.7618 291.289 56.9767 293.493 56.9767C295.698 56.9767 297.483 58.7618 297.483 60.9664C297.483 63.171 295.698 64.9561 293.493 64.9561C291.289 64.9561 289.504 63.171 289.504 60.9664Z" fill="#4D4D4D"/>
<path d="M296.591 60.9659C296.59 59.2545 295.204 57.8692 293.493 57.8692C291.782 57.8695 290.397 59.2546 290.396 60.9659C290.396 62.6774 291.781 64.0633 293.493 64.0635L293.493 64.9561L293.288 64.9512C291.179 64.8444 289.504 63.1021 289.504 60.9664C289.504 58.7618 291.289 56.9767 293.493 56.9767C295.698 56.9767 297.483 58.7618 297.483 60.9664L297.478 61.1719C297.371 63.2809 295.629 64.9561 293.493 64.9561L293.493 64.0635C295.205 64.0635 296.591 62.6775 296.591 60.9659Z" fill="#FF5900"/>
<defs>
<linearGradient id="paint0_linear_2138_36925" x1="150.657" y1="0.334961" x2="150.657" y2="219.368" gradientUnits="userSpaceOnUse">
<stop stop-color="#FF5900"/>
<stop offset="1" stop-color="#570D0D"/>
</linearGradient>
</defs>
</svg>
