<svg width="290" height="214" viewBox="0 0 290 214" fill="none" xmlns="http://www.w3.org/2000/svg">
<path d="M50.1415 213.066H49.6466V200.693L45.8432 202.473V201.934L49.9678 200.067H50.1415V213.066Z" fill="#CFCFCF"/>
<path d="M57.2705 206.268L57.8783 200.077H64.2172V200.545H58.3211L57.7914 205.756C58.1648 205.46 58.599 205.243 59.0766 205.104C59.5542 204.965 60.0405 204.887 60.5094 204.887C61.0911 204.887 61.6208 204.991 62.0897 205.2C62.5586 205.408 62.9667 205.695 63.2967 206.059C63.6267 206.424 63.8959 206.85 64.0695 207.336C64.2519 207.831 64.3387 208.352 64.3387 208.925C64.3387 209.498 64.2692 210.063 64.1216 210.584C63.9826 211.105 63.757 211.565 63.453 211.955C63.1491 212.355 62.7757 212.667 62.3068 212.893C61.8465 213.128 61.2995 213.241 60.6656 213.241C60.1185 213.241 59.6236 213.154 59.1721 212.98C58.7205 212.807 58.3298 212.563 57.9998 212.242C57.6699 211.921 57.4006 211.547 57.2009 211.105C57.0012 210.662 56.871 210.175 56.8102 209.637H57.3051C57.3572 210.115 57.4701 210.54 57.6525 210.922C57.8261 211.304 58.0606 211.634 58.3472 211.903C58.6337 212.181 58.9723 212.39 59.3631 212.529C59.7538 212.676 60.188 212.746 60.683 212.746C61.2387 212.746 61.725 212.642 62.1245 212.442C62.5239 212.233 62.8539 211.964 63.1144 211.608C63.3662 211.261 63.5572 210.853 63.6788 210.393C63.8004 209.932 63.8611 209.446 63.8611 208.925C63.8611 208.404 63.783 207.961 63.6267 207.527C63.4704 207.093 63.2533 206.719 62.958 206.398C62.6628 206.077 62.3242 205.825 61.9074 205.634C61.4992 205.443 61.0304 205.356 60.518 205.356C59.971 205.356 59.4586 205.426 58.9724 205.591C58.4861 205.756 58.0432 206.025 57.6351 206.389L57.2705 206.251V206.268Z" fill="#CFCFCF"/>
<path d="M71.5077 204.782C71.5077 204.635 71.5598 204.505 71.664 204.4C71.7682 204.296 71.8898 204.244 72.0201 204.244C72.1503 204.244 72.2805 204.296 72.3934 204.4C72.5063 204.505 72.5584 204.635 72.5584 204.782C72.5584 204.93 72.5063 205.052 72.3934 205.147C72.2805 205.251 72.159 205.295 72.0201 205.295C71.8811 205.295 71.7682 205.243 71.664 205.147C71.5598 205.043 71.5077 204.921 71.5077 204.782ZM71.5077 212.606C71.5077 212.458 71.5598 212.328 71.664 212.224C71.7682 212.12 71.8898 212.068 72.0201 212.068C72.1503 212.068 72.2805 212.12 72.3934 212.224C72.5063 212.328 72.5584 212.458 72.5584 212.606C72.5584 212.754 72.5063 212.867 72.3934 212.971C72.2805 213.075 72.159 213.118 72.0201 213.118C71.8811 213.118 71.7682 213.066 71.664 212.971C71.5598 212.867 71.5077 212.745 71.5077 212.606Z" fill="#CFCFCF"/>
<path d="M80.4011 206.199H81.391C81.8078 206.199 82.2246 206.129 82.6414 206.016C83.0582 205.904 83.4403 205.73 83.7702 205.495C84.1002 205.261 84.3781 204.974 84.5865 204.627C84.7949 204.28 84.8991 203.863 84.8991 203.394C84.8991 202.925 84.8209 202.508 84.6559 202.144C84.4996 201.77 84.2739 201.458 83.9873 201.197C83.7008 200.937 83.3622 200.737 82.9714 200.598C82.5807 200.459 82.1638 200.39 81.7123 200.39C81.2607 200.39 80.8179 200.468 80.4098 200.615C80.0103 200.763 79.6543 200.971 79.3591 201.241C79.0639 201.51 78.8208 201.84 78.6471 202.213C78.4648 202.595 78.3692 203.021 78.3518 203.489H77.8656C77.8829 202.951 77.9958 202.465 78.1955 202.022C78.3953 201.579 78.6731 201.206 79.0204 200.884C79.3678 200.572 79.7672 200.329 80.2274 200.155C80.6877 199.981 81.1826 199.895 81.7123 199.895C82.242 199.895 82.7196 199.981 83.1711 200.146C83.614 200.311 84.0047 200.546 84.3347 200.858C84.6646 201.162 84.9251 201.536 85.1075 201.97C85.2898 202.404 85.3854 202.89 85.3854 203.429C85.3854 203.828 85.3159 204.193 85.1769 204.514C85.038 204.835 84.8556 205.122 84.6299 205.374C84.4041 205.626 84.135 205.834 83.8311 206.008C83.5271 206.181 83.1972 206.329 82.8498 206.433C83.2406 206.52 83.6053 206.65 83.944 206.824C84.2826 206.998 84.5866 207.215 84.8384 207.475C85.0902 207.736 85.2985 208.048 85.4462 208.404C85.5938 208.76 85.6719 209.168 85.6719 209.629C85.6719 210.184 85.5678 210.688 85.368 211.14C85.1683 211.582 84.8904 211.964 84.5431 212.277C84.1957 212.59 83.7877 212.833 83.3101 212.998C82.8412 213.172 82.3289 213.25 81.7992 213.25C81.2348 213.25 80.705 213.163 80.2014 212.98C79.6977 212.798 79.2635 212.546 78.8815 212.216C78.4994 211.886 78.2042 211.487 77.9698 211.018C77.744 210.549 77.6137 210.028 77.5963 209.455H78.0827C78.1 209.959 78.2129 210.419 78.4213 210.827C78.6297 211.235 78.8989 211.582 79.2375 211.869C79.5762 212.156 79.9582 212.381 80.4011 212.538C80.8439 212.694 81.3042 212.772 81.7992 212.772C82.2941 212.772 82.7195 212.703 83.1364 212.564C83.5532 212.425 83.9092 212.225 84.2131 211.964C84.517 211.704 84.7602 211.374 84.9339 210.992C85.1075 210.61 85.1943 210.167 85.1943 209.663C85.1943 209.116 85.0901 208.656 84.8643 208.283C84.6473 207.909 84.3607 207.605 84.0047 207.371C83.6487 207.136 83.2492 206.972 82.789 206.867C82.3375 206.763 81.8686 206.711 81.391 206.702H80.4011V206.199Z" fill="#CFCFCF"/>
<path d="M97.1625 207.761C97.1625 208.186 97.1278 208.612 97.067 209.046C97.0062 209.48 96.9193 209.897 96.7891 210.305C96.6588 210.713 96.4939 211.095 96.2942 211.451C96.0944 211.807 95.8426 212.12 95.5561 212.38C95.2608 212.641 94.9221 212.858 94.5314 213.005C94.1406 213.162 93.6979 213.24 93.1942 213.24C92.6906 213.24 92.2564 213.162 91.8656 213.005C91.4749 212.849 91.1362 212.641 90.841 212.38C90.5457 212.12 90.2939 211.807 90.0855 211.451C89.8771 211.095 89.7122 210.713 89.5819 210.305C89.4517 209.897 89.3562 209.48 89.2954 209.046C89.2346 208.612 89.1998 208.186 89.1998 207.761V205.373C89.1998 204.956 89.2259 204.531 89.2867 204.096C89.3475 203.662 89.443 203.237 89.5645 202.829C89.6948 202.42 89.8597 202.038 90.0681 201.682C90.2765 201.326 90.5198 201.014 90.815 200.744C91.1102 200.475 91.4488 200.267 91.8396 200.111C92.2303 199.954 92.6732 199.876 93.1768 199.876C93.6805 199.876 94.1233 199.954 94.514 200.111C94.9048 200.267 95.2435 200.475 95.5387 200.736C95.8339 201.005 96.0771 201.309 96.2855 201.665C96.4939 202.021 96.6588 202.403 96.7891 202.811C96.9193 203.219 97.0149 203.636 97.067 204.07C97.1191 204.504 97.1538 204.93 97.1625 205.355V207.761ZM89.6948 207.743C89.6948 208.056 89.7121 208.369 89.7468 208.681C89.7816 209.002 89.8337 209.315 89.9119 209.628L96.381 203.106C96.2768 202.733 96.1292 202.377 95.9555 202.047C95.7731 201.717 95.556 201.422 95.2955 201.17C95.035 200.918 94.7312 200.718 94.3839 200.58C94.0365 200.432 93.6371 200.362 93.1855 200.362C92.734 200.362 92.3346 200.432 91.9872 200.58C91.6399 200.718 91.3359 200.918 91.0841 201.161C90.8236 201.405 90.6065 201.7 90.4329 202.03C90.2592 202.36 90.1116 202.716 90.0074 203.08C89.9032 203.454 89.825 203.836 89.7729 204.227C89.7208 204.617 89.6948 204.999 89.6948 205.373V207.743ZM96.6849 205.373C96.6849 205.086 96.6589 204.8 96.6328 204.504C96.6068 204.209 96.5633 203.914 96.5025 203.627L90.0422 210.14C90.155 210.496 90.3027 210.835 90.4763 211.156C90.6587 211.477 90.8758 211.755 91.1276 211.99C91.3794 212.224 91.6832 212.415 92.0219 212.554C92.3605 212.693 92.7514 212.762 93.1942 212.762C93.6371 212.762 94.0365 212.693 94.3839 212.545C94.7312 212.398 95.035 212.207 95.2868 211.955C95.5387 211.712 95.7558 211.416 95.9381 211.086C96.1118 210.756 96.2594 210.409 96.3636 210.036C96.4678 209.662 96.546 209.28 96.5981 208.89C96.6415 208.499 96.6763 208.117 96.6763 207.743V205.373H96.6849Z" fill="#CFCFCF"/>
<path d="M30.8797 186.053C30.8797 186.478 30.845 186.903 30.7842 187.338C30.7234 187.772 30.6365 188.189 30.5062 188.597C30.376 189.005 30.2111 189.387 30.0113 189.743C29.8116 190.099 29.5597 190.412 29.2732 190.672C28.9779 190.933 28.6393 191.15 28.2486 191.297C27.8578 191.454 27.4149 191.532 26.9113 191.532C26.4077 191.532 25.9735 191.454 25.5827 191.297C25.192 191.141 24.8534 190.933 24.5581 190.672C24.2629 190.412 24.0111 190.099 23.8027 189.743C23.5943 189.387 23.4293 189.005 23.2991 188.597C23.1688 188.189 23.0733 187.772 23.0125 187.338C22.9517 186.903 22.917 186.478 22.917 186.053V183.665C22.917 183.248 22.943 182.822 23.0038 182.388C23.0646 181.954 23.1601 181.528 23.2817 181.12C23.412 180.712 23.5769 180.33 23.7853 179.974C23.9937 179.618 24.2368 179.305 24.5321 179.036C24.8273 178.767 25.166 178.559 25.5567 178.402C25.9475 178.246 26.3903 178.168 26.8939 178.168C27.3976 178.168 27.8404 178.246 28.2312 178.402C28.622 178.559 28.9606 178.767 29.2559 179.028C29.5511 179.297 29.7942 179.601 30.0026 179.957C30.211 180.313 30.376 180.695 30.5062 181.103C30.6365 181.511 30.7321 181.928 30.7842 182.362C30.8363 182.796 30.871 183.222 30.8797 183.647V186.053ZM23.4033 186.035C23.4033 186.348 23.4206 186.66 23.4553 186.973C23.4901 187.294 23.5422 187.607 23.6204 187.919L30.0895 181.398C29.9853 181.025 29.8376 180.669 29.664 180.339C29.4903 180.009 29.2645 179.714 29.004 179.462C28.7435 179.21 28.4396 179.01 28.0922 178.871C27.7449 178.724 27.3455 178.654 26.8939 178.654C26.4424 178.654 26.0429 178.724 25.6956 178.871C25.3483 179.01 25.0444 179.21 24.7926 179.453C24.5321 179.696 24.315 179.992 24.1414 180.322C23.9677 180.651 23.8201 181.007 23.7159 181.372C23.6117 181.746 23.5335 182.128 23.4814 182.518C23.4293 182.909 23.4033 183.291 23.4033 183.665V186.035ZM30.3934 183.665C30.3934 183.378 30.3674 183.091 30.3413 182.796C30.3153 182.501 30.2718 182.206 30.211 181.919L23.7505 188.432C23.8634 188.788 24.011 189.126 24.1847 189.448C24.3671 189.769 24.5841 190.047 24.836 190.281C25.0878 190.516 25.3917 190.707 25.7304 190.846C26.069 190.985 26.4598 191.054 26.9026 191.054C27.3455 191.054 27.7449 190.985 28.0922 190.837C28.4396 190.689 28.7435 190.498 28.9953 190.247C29.2472 190.003 29.4642 189.708 29.6466 189.378C29.8203 189.048 29.9679 188.701 30.0721 188.328C30.1763 187.954 30.2544 187.572 30.3065 187.181C30.35 186.791 30.3847 186.409 30.3847 186.035V183.665H30.3934Z" fill="#CFCFCF"/>
<path d="M1.95711 6.55095L2.56501 0.359683H8.90383V0.828514H2.99918L2.4694 6.03855C2.84279 5.74332 3.27704 5.52623 3.75463 5.3873C4.23222 5.24836 4.7184 5.17021 5.18731 5.17021C5.76909 5.17021 6.29884 5.2744 6.76774 5.4828C7.23665 5.6912 7.64478 5.97775 7.97475 6.34245C8.3134 6.70715 8.57392 7.13272 8.74758 7.61899C8.92994 8.11394 9.01671 8.63491 9.01671 9.20801C9.01671 9.78112 8.94725 10.3456 8.79963 10.8666C8.66069 11.3876 8.43491 11.8478 8.13099 12.2385C7.82707 12.6379 7.45373 12.9505 6.98483 13.1763C6.52461 13.4107 5.97754 13.5236 5.34365 13.5236C4.7966 13.5236 4.30167 13.4369 3.85014 13.2632C3.3986 13.0895 3.00787 12.8463 2.6779 12.525C2.34793 12.2124 2.07871 11.8304 1.87899 11.3876C1.67927 10.9447 1.54896 10.4584 1.48817 9.92H1.98318C2.03528 10.3976 2.14819 10.8232 2.33054 11.2052C2.50421 11.5873 2.7386 11.9173 3.02515 12.1865C3.3117 12.4643 3.65039 12.6727 4.04115 12.8116C4.4319 12.9593 4.86609 13.0287 5.36104 13.0287C5.91678 13.0287 6.40308 12.9245 6.80251 12.7248C7.20195 12.5164 7.53182 12.2472 7.79233 11.8912C8.04414 11.5438 8.2352 11.1358 8.35677 10.6756C8.47834 10.2153 8.53919 9.72902 8.53919 9.20801C8.53919 8.68701 8.46102 8.24417 8.30472 7.81C8.14842 7.37583 7.93132 7.0024 7.63608 6.68112C7.34085 6.35983 7.00223 6.10801 6.58543 5.91697C6.17731 5.72594 5.70832 5.63915 5.196 5.63915C4.64894 5.63915 4.1367 5.70863 3.65043 5.87362C3.16416 6.0386 2.72128 6.30772 2.31316 6.67242L1.94842 6.53357L1.95711 6.55095Z" fill="#CFCFCF"/>
<path d="M19.9138 8.04377C19.9138 8.46926 19.8791 8.89473 19.8183 9.3289C19.7576 9.76307 19.6707 10.1798 19.5404 10.5879C19.4102 10.9961 19.2452 11.3782 19.0455 11.7342C18.8458 12.0902 18.594 12.4028 18.3074 12.6633C18.0122 12.9238 17.6735 13.1409 17.2828 13.2885C16.892 13.4448 16.4491 13.5229 15.9455 13.5229C15.4418 13.5229 15.0077 13.4448 14.617 13.2885C14.2262 13.1322 13.8875 12.9238 13.5923 12.6633C13.2971 12.4028 13.0453 12.0902 12.8369 11.7342C12.6285 11.3782 12.4635 10.9961 12.3333 10.5879C12.203 10.1798 12.1074 9.76307 12.0466 9.3289C11.9859 8.89473 11.9511 8.46926 11.9511 8.04377V5.65584C11.9511 5.23903 11.9772 4.81357 12.0379 4.3794C12.0987 3.94523 12.1943 3.51968 12.3159 3.11156C12.4461 2.70344 12.6111 2.32141 12.8195 1.96539C13.0279 1.60937 13.271 1.2967 13.5662 1.02752C13.8615 0.758334 14.2002 0.549949 14.5909 0.393648C14.9817 0.237347 15.4245 0.15918 15.9281 0.15918C16.4317 0.15918 16.8746 0.237347 17.2654 0.393648C17.6561 0.549949 17.9948 0.758326 18.2901 1.01883C18.5853 1.28801 18.8284 1.59199 19.0368 1.94801C19.2452 2.30403 19.4102 2.68605 19.5404 3.09417C19.6707 3.50229 19.7662 3.91916 19.8183 4.35333C19.8704 4.7875 19.9052 5.21297 19.9138 5.63845V8.04377ZM12.4375 8.02639C12.4375 8.33899 12.4548 8.65155 12.4895 8.96416C12.5242 9.28544 12.5764 9.59812 12.6545 9.91072L19.1236 3.38948C19.0194 3.0161 18.8718 2.66 18.6982 2.33003C18.5245 2.00006 18.2987 1.70482 18.0382 1.453C17.7777 1.20118 17.4737 1.00152 17.1264 0.862586C16.7791 0.714968 16.3796 0.645501 15.9281 0.645501C15.4766 0.645501 15.0771 0.714968 14.7298 0.862586C14.3824 1.00152 14.0786 1.20128 13.8268 1.44441C13.5663 1.68755 13.3492 1.98278 13.1755 2.31275C13.0019 2.64272 12.8542 2.99871 12.75 3.36341C12.6458 3.73679 12.5677 4.11882 12.5156 4.50957C12.4635 4.90032 12.4375 5.28245 12.4375 5.65584V8.02639ZM19.4275 5.65584C19.4275 5.36929 19.4015 5.08273 19.3755 4.7875C19.3494 4.49226 19.306 4.19702 19.2452 3.91047L12.7847 10.423C12.8976 10.779 13.0452 11.1176 13.2189 11.4389C13.4012 11.7602 13.6183 12.0381 13.8701 12.2726C14.1306 12.507 14.4259 12.6981 14.7645 12.837C15.1032 12.976 15.4939 13.0454 15.9368 13.0454C16.3796 13.0454 16.7791 12.9759 17.1264 12.8283C17.4737 12.6807 17.7777 12.4896 18.0295 12.2378C18.2813 11.9947 18.4984 11.6994 18.6808 11.3695C18.8544 11.0395 19.002 10.6922 19.1062 10.3188C19.2104 9.94543 19.2886 9.5633 19.3407 9.17255C19.3841 8.7818 19.4188 8.39977 19.4188 8.02639V5.65584H19.4275Z" fill="#CFCFCF"/>
<path d="M30.8808 8.04377C30.8808 8.46926 30.8461 8.89473 30.7853 9.3289C30.7245 9.76307 30.6376 10.1798 30.5074 10.5879C30.3771 10.9961 30.2122 11.3782 30.0125 11.7342C29.8128 12.0902 29.5609 12.4028 29.2743 12.6633C28.9791 12.9238 28.6405 13.1409 28.2497 13.2885C27.859 13.4448 27.4161 13.5229 26.9125 13.5229C26.4088 13.5229 25.9746 13.4448 25.5839 13.2885C25.1931 13.1322 24.8545 12.9238 24.5593 12.6633C24.2641 12.4028 24.0122 12.0902 23.8038 11.7342C23.5954 11.3782 23.4305 10.9961 23.3002 10.5879C23.17 10.1798 23.0744 9.76307 23.0136 9.3289C22.9528 8.89473 22.9181 8.46926 22.9181 8.04377V5.65584C22.9181 5.23903 22.9441 4.81357 23.0049 4.3794C23.0657 3.94523 23.1613 3.51968 23.2829 3.11156C23.4131 2.70344 23.5781 2.32141 23.7865 1.96539C23.9949 1.60937 24.238 1.2967 24.5332 1.02752C24.8285 0.758334 25.1671 0.549949 25.5579 0.393648C25.9487 0.237347 26.3914 0.15918 26.8951 0.15918C27.3987 0.15918 27.8416 0.237347 28.2323 0.393648C28.6231 0.549949 28.9618 0.758326 29.257 1.01883C29.5523 1.28801 29.7954 1.59199 30.0038 1.94801C30.2122 2.30403 30.3771 2.68605 30.5074 3.09417C30.6376 3.50229 30.7332 3.91916 30.7853 4.35333C30.8374 4.7875 30.8721 5.21297 30.8808 5.63845V8.04377ZM23.4044 8.02639C23.4044 8.33899 23.4217 8.65155 23.4565 8.96416C23.4912 9.28544 23.5434 9.59812 23.6215 9.91072L30.0906 3.38948C29.9864 3.0161 29.8388 2.66 29.6651 2.33003C29.4915 2.00006 29.2657 1.70482 29.0052 1.453C28.7447 1.20118 28.4407 1.00152 28.0934 0.862586C27.746 0.714968 27.3466 0.645501 26.8951 0.645501C26.4435 0.645501 26.0441 0.714968 25.6968 0.862586C25.3494 1.00152 25.0456 1.20128 24.7938 1.44441C24.5333 1.68755 24.3162 1.98278 24.1425 2.31275C23.9688 2.64272 23.8212 2.99871 23.717 3.36341C23.6128 3.73679 23.5347 4.11882 23.4826 4.50957C23.4305 4.90032 23.4044 5.28245 23.4044 5.65584V8.02639ZM30.3945 5.65584C30.3945 5.36929 30.3685 5.08273 30.3425 4.7875C30.3164 4.49226 30.273 4.19702 30.2122 3.91047L23.7517 10.423C23.8646 10.779 24.0122 11.1176 24.1859 11.4389C24.3682 11.7602 24.5853 12.0381 24.8371 12.2726C25.0889 12.507 25.3929 12.6981 25.7315 12.837C26.0702 12.976 26.4609 13.0454 26.9038 13.0454C27.3466 13.0454 27.746 12.9759 28.0934 12.8283C28.4407 12.6807 28.7447 12.4896 28.9965 12.2378C29.2483 11.9947 29.4654 11.6994 29.6477 11.3695C29.8214 11.0395 29.969 10.6922 30.0732 10.3188C30.1774 9.94543 30.2556 9.5633 30.3077 9.17255C30.3511 8.7818 30.3858 8.39977 30.3858 8.02639V5.65584H30.3945Z" fill="#CFCFCF"/>
<path d="M7.06527 44.9301H9.31424V45.4077H7.06527V48.9505H6.57906V45.4077H0.274902V45.1385L6.47486 35.9515H7.05658V44.9214L7.06527 44.9301ZM1.03035 44.9301H6.57906V36.5419L5.83219 37.7749L1.03035 44.9388V44.9301Z" fill="#CFCFCF"/>
<path d="M19.9146 43.6457C19.9146 44.0712 19.8799 44.4966 19.8191 44.9308C19.7583 45.365 19.6715 45.7817 19.5412 46.1898C19.411 46.598 19.246 46.9801 19.0463 47.3361C18.8466 47.6921 18.5948 48.0047 18.3082 48.2652C18.013 48.5257 17.6743 48.7427 17.2835 48.8904C16.8928 49.0467 16.4499 49.1248 15.9463 49.1248C15.4426 49.1248 15.0085 49.0467 14.6178 48.8904C14.227 48.7341 13.8883 48.5257 13.5931 48.2652C13.2979 48.0047 13.046 47.6921 12.8376 47.3361C12.6292 46.9801 12.4643 46.598 12.334 46.1898C12.2038 45.7817 12.1082 45.365 12.0474 44.9308C11.9866 44.4966 11.9519 44.0712 11.9519 43.6457V41.2577C11.9519 40.8409 11.978 40.4155 12.0387 39.9813C12.0995 39.5471 12.1951 39.1216 12.3167 38.7134C12.4469 38.3053 12.6119 37.9233 12.8203 37.5673C13.0287 37.2113 13.2718 36.8986 13.567 36.6294C13.8623 36.3602 14.201 36.1518 14.5917 35.9955C14.9825 35.8392 15.4252 35.7611 15.9289 35.7611C16.4325 35.7611 16.8754 35.8392 17.2662 35.9955C17.6569 36.1518 17.9956 36.3602 18.2908 36.6207C18.5861 36.8899 18.8292 37.1939 19.0376 37.5499C19.246 37.9059 19.411 38.2879 19.5412 38.6961C19.6715 39.1042 19.767 39.521 19.8191 39.9552C19.8712 40.3894 19.906 40.8149 19.9146 41.2403V43.6457ZM12.4382 43.6283C12.4382 43.9409 12.4556 44.2534 12.4903 44.566C12.525 44.8873 12.5772 45.2 12.6553 45.5126L19.1244 38.9914C19.0202 38.618 18.8726 38.2619 18.6989 37.9319C18.5253 37.602 18.2995 37.3067 18.039 37.0549C17.7785 36.8031 17.4745 36.6034 17.1272 36.4645C16.7799 36.3169 16.3804 36.2474 15.9289 36.2474C15.4773 36.2474 15.0779 36.3169 14.7306 36.4645C14.3832 36.6034 14.0794 36.8032 13.8276 37.0463C13.5671 37.2894 13.35 37.5847 13.1763 37.9146C13.0026 38.2446 12.855 38.6006 12.7508 38.9653C12.6466 39.3387 12.5685 39.7207 12.5164 40.1115C12.4643 40.5022 12.4382 40.8843 12.4382 41.2577V43.6283ZM19.4283 41.2577C19.4283 40.9712 19.4023 40.6846 19.3763 40.3894C19.3502 40.0942 19.3068 39.7989 19.246 39.5124L12.7855 46.0249C12.8984 46.3809 13.046 46.7195 13.2197 47.0408C13.402 47.3621 13.6191 47.64 13.8709 47.8745C14.1314 48.1089 14.4267 48.3 14.7653 48.4389C15.104 48.5778 15.4947 48.6473 15.9376 48.6473C16.3804 48.6473 16.7799 48.5778 17.1272 48.4302C17.4745 48.2826 17.7785 48.0915 18.0303 47.8397C18.2821 47.5966 18.4992 47.3013 18.6816 46.9714C18.8552 46.6414 19.0028 46.2941 19.107 45.9207C19.2112 45.5473 19.2894 45.1652 19.3415 44.7744C19.3849 44.3837 19.4196 44.0017 19.4196 43.6283V41.2577H19.4283Z" fill="#CFCFCF"/>
<path d="M30.8816 43.6457C30.8816 44.0712 30.8469 44.4966 30.7861 44.9308C30.7253 45.365 30.6384 45.7817 30.5082 46.1898C30.3779 46.598 30.213 46.9801 30.0133 47.3361C29.8136 47.6921 29.5617 48.0047 29.2751 48.2652C28.9799 48.5257 28.6413 48.7427 28.2505 48.8904C27.8598 49.0467 27.4169 49.1248 26.9132 49.1248C26.4096 49.1248 25.9754 49.0467 25.5847 48.8904C25.1939 48.7341 24.8553 48.5257 24.5601 48.2652C24.2648 48.0047 24.013 47.6921 23.8046 47.3361C23.5962 46.9801 23.4313 46.598 23.301 46.1898C23.1708 45.7817 23.0752 45.365 23.0144 44.9308C22.9536 44.4966 22.9189 44.0712 22.9189 43.6457V41.2577C22.9189 40.8409 22.9449 40.4155 23.0057 39.9813C23.0665 39.5471 23.1621 39.1216 23.2836 38.7134C23.4139 38.3053 23.5788 37.9233 23.7872 37.5673C23.9956 37.2113 24.2388 36.8986 24.534 36.6294C24.8292 36.3602 25.1679 36.1518 25.5587 35.9955C25.9494 35.8392 26.3922 35.7611 26.8959 35.7611C27.3995 35.7611 27.8424 35.8392 28.2331 35.9955C28.6239 36.1518 28.9626 36.3602 29.2578 36.6207C29.5531 36.8899 29.7962 37.1939 30.0046 37.5499C30.213 37.9059 30.3779 38.2879 30.5082 38.6961C30.6384 39.1042 30.734 39.521 30.7861 39.9552C30.8382 40.3894 30.8729 40.8149 30.8816 41.2403V43.6457ZM23.4052 43.6283C23.4052 43.9409 23.4225 44.2534 23.4573 44.566C23.492 44.8873 23.5442 45.2 23.6223 45.5126L30.0914 38.9914C29.9872 38.618 29.8396 38.2619 29.6659 37.9319C29.4923 37.602 29.2665 37.3067 29.006 37.0549C28.7455 36.8031 28.4415 36.6034 28.0942 36.4645C27.7468 36.3169 27.3474 36.2474 26.8959 36.2474C26.4443 36.2474 26.0449 36.3169 25.6975 36.4645C25.3502 36.6034 25.0464 36.8032 24.7945 37.0463C24.534 37.2894 24.317 37.5847 24.1433 37.9146C23.9696 38.2446 23.822 38.6006 23.7178 38.9653C23.6136 39.3387 23.5354 39.7207 23.4833 40.1115C23.4312 40.5022 23.4052 40.8843 23.4052 41.2577V43.6283ZM30.3953 41.2577C30.3953 40.9712 30.3693 40.6846 30.3432 40.3894C30.3172 40.0942 30.2738 39.7989 30.213 39.5124L23.7525 46.0249C23.8654 46.3809 24.013 46.7195 24.1866 47.0408C24.369 47.3621 24.5861 47.64 24.8379 47.8745C25.0897 48.1089 25.3937 48.3 25.7323 48.4389C26.071 48.5778 26.4617 48.6473 26.9046 48.6473C27.3474 48.6473 27.7468 48.5778 28.0942 48.4302C28.4415 48.2826 28.7455 48.0915 28.9973 47.8397C29.2491 47.5966 29.4662 47.3013 29.6485 46.9714C29.8222 46.6414 29.9698 46.2941 30.074 45.9207C30.1782 45.5473 30.2564 45.1652 30.3085 44.7744C30.3519 44.3837 30.3866 44.0017 30.3866 43.6283V41.2577H30.3953Z" fill="#CFCFCF"/>
<path d="M4.13558 77.6847C4.55238 77.6847 4.96924 77.6152 5.38604 77.5023C5.80285 77.3895 6.18485 77.2158 6.51482 76.9814C6.84479 76.7469 7.12271 76.4604 7.33111 76.113C7.53952 75.7657 7.6437 75.3488 7.6437 74.8799C7.6437 74.411 7.56553 73.9943 7.40054 73.6296C7.23556 73.2649 7.01846 72.9435 6.73191 72.683C6.44535 72.4225 6.10677 72.2228 5.71602 72.0839C5.32526 71.945 4.9084 71.8755 4.45686 71.8755C4.00532 71.8755 3.56247 71.9537 3.15435 72.1013C2.75491 72.2489 2.39893 72.4573 2.10369 72.7265C1.80846 72.9956 1.56526 73.3256 1.3916 73.699C1.20924 74.0811 1.11376 74.5065 1.09639 74.9754H0.610175C0.627542 74.4371 0.74043 73.9508 0.940148 73.508C1.13987 73.0651 1.41769 72.6917 1.76503 72.3704C2.11236 72.0578 2.51181 71.8147 2.97203 71.641C3.43225 71.4674 3.92717 71.3805 4.45686 71.3805C4.98655 71.3805 5.46418 71.4674 5.91572 71.6323C6.35857 71.7973 6.74929 72.0317 7.07926 72.3443C7.40923 72.6483 7.66975 73.0217 7.8521 73.4558C8.03445 73.89 8.12992 74.3763 8.12992 74.9147C8.12992 75.3141 8.06046 75.6788 7.92153 76.0001C7.78259 76.3214 7.60024 76.608 7.37447 76.8598C7.1487 77.1116 6.87958 77.32 6.57566 77.4936C6.27174 77.6673 5.94177 77.8149 5.59444 77.9191C5.98519 78.006 6.3499 78.1362 6.68855 78.3098C7.0272 78.4835 7.33104 78.7006 7.58286 78.9611C7.83468 79.2216 8.04314 79.5342 8.19076 79.8903C8.33838 80.2463 8.41654 80.6544 8.41654 81.1147C8.41654 81.6704 8.31225 82.174 8.11254 82.6256C7.91282 83.0684 7.63499 83.4504 7.28766 83.763C6.94032 84.0756 6.53216 84.3188 6.05457 84.4838C5.58567 84.6575 5.07336 84.7356 4.54367 84.7356C3.97925 84.7356 3.44959 84.6488 2.94596 84.4664C2.44232 84.2841 2.00813 84.0323 1.62606 83.7023C1.24399 83.3723 0.948823 82.9729 0.714371 82.504C0.488603 82.0351 0.358305 81.514 0.340939 80.9409H0.82726C0.844626 81.4446 0.957417 81.9049 1.16582 82.313C1.37422 82.7211 1.64345 83.0684 1.97342 83.3549C2.31207 83.6415 2.69411 83.8673 3.13697 84.0236C3.57982 84.1799 4.04871 84.258 4.53498 84.258C5.02125 84.258 5.45545 84.1886 5.87226 84.0497C6.28906 83.9107 6.64507 83.7109 6.94899 83.4504C7.25291 83.1899 7.49611 82.86 7.66978 82.4779C7.84345 82.0958 7.93022 81.653 7.93022 81.1493C7.93022 80.6023 7.82601 80.1421 7.60024 79.7687C7.38316 79.3953 7.09662 79.0913 6.7406 78.8569C6.38458 78.6224 5.98512 78.4575 5.5249 78.3533C5.07336 78.2491 4.60447 78.197 4.12689 78.1884H3.13697V77.6847H4.13558Z" fill="#CFCFCF"/>
<path d="M19.9144 79.2467C19.9144 79.6722 19.8797 80.0977 19.8189 80.5318C19.7582 80.966 19.6713 81.3828 19.541 81.7909C19.4108 82.199 19.2458 82.5811 19.0461 82.9371C18.8464 83.2932 18.5946 83.6057 18.308 83.8662C18.0128 84.1267 17.6741 84.3438 17.2834 84.4914C16.8926 84.6477 16.4497 84.7259 15.9461 84.7259C15.4424 84.7259 15.0084 84.6477 14.6176 84.4914C14.2268 84.3351 13.8881 84.1267 13.5929 83.8662C13.2977 83.6057 13.0459 83.2932 12.8375 82.9371C12.6291 82.5811 12.4641 82.199 12.3339 81.7909C12.2036 81.3828 12.108 80.966 12.0472 80.5318C11.9865 80.0977 11.9517 79.6722 11.9517 79.2467V76.8588C11.9517 76.442 11.9778 76.0165 12.0385 75.5823C12.0993 75.1482 12.1949 74.7226 12.3165 74.3145C12.4467 73.9064 12.6117 73.5243 12.8201 73.1683C13.0285 72.8123 13.2716 72.4996 13.5668 72.2304C13.8621 71.9613 14.2008 71.7529 14.5915 71.5966C14.9823 71.4403 15.4251 71.3621 15.9287 71.3621C16.4323 71.3621 16.8752 71.4403 17.266 71.5966C17.6567 71.7529 17.9954 71.9612 18.2907 72.2217C18.5859 72.4909 18.829 72.7949 19.0374 73.1509C19.2458 73.507 19.4108 73.889 19.541 74.2971C19.6713 74.7052 19.7668 75.1221 19.8189 75.5563C19.871 75.9904 19.9058 76.4159 19.9144 76.8414V79.2467ZM12.4381 79.2293C12.4381 79.5419 12.4554 79.8545 12.4901 80.1671C12.5248 80.4884 12.577 80.801 12.6551 81.1136L19.1242 74.5924C19.02 74.219 18.8724 73.8629 18.6988 73.533C18.5251 73.203 18.2993 72.9077 18.0388 72.6559C17.7783 72.4041 17.4743 72.2044 17.127 72.0655C16.7797 71.9179 16.3802 71.8484 15.9287 71.8484C15.4772 71.8484 15.0777 71.9179 14.7304 72.0655C14.383 72.2044 14.0792 72.4042 13.8274 72.6473C13.5669 72.8905 13.3498 73.1857 13.1761 73.5157C13.0025 73.8456 12.8548 74.2016 12.7506 74.5663C12.6464 74.9397 12.5683 75.3217 12.5162 75.7125C12.4641 76.1032 12.4381 76.4854 12.4381 76.8588V79.2293ZM19.4281 76.8588C19.4281 76.5722 19.4021 76.2857 19.3761 75.9904C19.35 75.6952 19.3066 75.3999 19.2458 75.1134L12.7853 81.6259C12.8982 81.982 13.0458 82.3205 13.2195 82.6418C13.4018 82.9631 13.6189 83.2411 13.8707 83.4755C14.1312 83.71 14.4265 83.901 14.7651 84.0399C15.1038 84.1789 15.4945 84.2483 15.9374 84.2483C16.3802 84.2483 16.7797 84.1789 17.127 84.0313C17.4743 83.8836 17.7783 83.6926 18.0301 83.4407C18.2819 83.1976 18.499 82.9024 18.6814 82.5724C18.855 82.2424 19.0026 81.8951 19.1068 81.5217C19.211 81.1484 19.2892 80.7662 19.3413 80.3755C19.3847 79.9847 19.4194 79.6027 19.4194 79.2293V76.8588H19.4281Z" fill="#CFCFCF"/>
<path d="M30.8814 79.2467C30.8814 79.6722 30.8467 80.0977 30.7859 80.5318C30.7251 80.966 30.6382 81.3828 30.508 81.7909C30.3777 82.199 30.2128 82.5811 30.0131 82.9371C29.8134 83.2932 29.5615 83.6057 29.2749 83.8662C28.9797 84.1267 28.6411 84.3438 28.2503 84.4914C27.8596 84.6477 27.4167 84.7259 26.9131 84.7259C26.4094 84.7259 25.9752 84.6477 25.5845 84.4914C25.1937 84.3351 24.8551 84.1267 24.5599 83.8662C24.2647 83.6057 24.0128 83.2932 23.8044 82.9371C23.596 82.5811 23.4311 82.199 23.3008 81.7909C23.1706 81.3828 23.075 80.966 23.0142 80.5318C22.9534 80.0977 22.9187 79.6722 22.9187 79.2467V76.8588C22.9187 76.442 22.9447 76.0165 23.0055 75.5823C23.0663 75.1482 23.1619 74.7226 23.2835 74.3145C23.4137 73.9064 23.5787 73.5243 23.7871 73.1683C23.9955 72.8123 24.2386 72.4996 24.5338 72.2304C24.8291 71.9613 25.1677 71.7529 25.5585 71.5966C25.9493 71.4403 26.392 71.3621 26.8957 71.3621C27.3993 71.3621 27.8422 71.4403 28.233 71.5966C28.6237 71.7529 28.9624 71.9612 29.2576 72.2217C29.5529 72.4909 29.796 72.7949 30.0044 73.1509C30.2128 73.507 30.3777 73.889 30.508 74.2971C30.6382 74.7052 30.7338 75.1221 30.7859 75.5563C30.838 75.9904 30.8727 76.4159 30.8814 76.8414V79.2467ZM23.405 79.2293C23.405 79.5419 23.4223 79.8545 23.4571 80.1671C23.4918 80.4884 23.544 80.801 23.6221 81.1136L30.0912 74.5924C29.987 74.219 29.8394 73.8629 29.6657 73.533C29.4921 73.203 29.2663 72.9077 29.0058 72.6559C28.7453 72.4041 28.4413 72.2044 28.094 72.0655C27.7467 71.9179 27.3472 71.8484 26.8957 71.8484C26.4441 71.8484 26.0447 71.9179 25.6974 72.0655C25.35 72.2044 25.0462 72.4042 24.7944 72.6473C24.5339 72.8905 24.3168 73.1857 24.1431 73.5157C23.9694 73.8456 23.8218 74.2016 23.7176 74.5663C23.6134 74.9397 23.5353 75.3217 23.4832 75.7125C23.4311 76.1032 23.405 76.4854 23.405 76.8588V79.2293ZM30.3951 76.8588C30.3951 76.5722 30.3691 76.2857 30.3431 75.9904C30.317 75.6952 30.2736 75.3999 30.2128 75.1134L23.7523 81.6259C23.8652 81.982 24.0128 82.3205 24.1865 82.6418C24.3688 82.9631 24.5859 83.2411 24.8377 83.4755C25.0895 83.71 25.3935 83.901 25.7321 84.0399C26.0708 84.1789 26.4615 84.2483 26.9044 84.2483C27.3472 84.2483 27.7467 84.1789 28.094 84.0313C28.4413 83.8836 28.7453 83.6926 28.9971 83.4407C29.2489 83.1976 29.466 82.9024 29.6483 82.5724C29.822 82.2424 29.9696 81.8951 30.0738 81.5217C30.178 81.1484 30.2562 80.7662 30.3083 80.3755C30.3517 79.9847 30.3864 79.6027 30.3864 79.2293V76.8588H30.3951Z" fill="#CFCFCF"/>
<path d="M8.5483 120.155H0.776705V119.677L5.03159 114.771C5.28341 114.476 5.54393 114.172 5.81312 113.842C6.09099 113.512 6.33412 113.173 6.56857 112.809C6.79434 112.444 6.98529 112.07 7.1329 111.68C7.28052 111.289 7.35868 110.89 7.35868 110.481C7.35868 110.013 7.28062 109.587 7.12432 109.214C6.96802 108.84 6.74224 108.528 6.46437 108.267C6.17782 108.007 5.84782 107.807 5.45707 107.677C5.06632 107.538 4.64955 107.468 4.18933 107.468C3.70306 107.468 3.26888 107.555 2.87813 107.737C2.48737 107.92 2.14868 108.163 1.86213 108.467C1.57558 108.771 1.35848 109.127 1.19349 109.535C1.02851 109.943 0.941728 110.377 0.924361 110.837H0.43804C0.455407 110.316 0.559586 109.821 0.741937 109.353C0.924289 108.884 1.1848 108.476 1.51477 108.128C1.84474 107.781 2.22689 107.503 2.67842 107.295C3.12996 107.086 3.62489 106.991 4.17194 106.991C4.719 106.991 5.18785 107.069 5.63939 107.225C6.08224 107.381 6.47307 107.616 6.80304 107.92C7.13301 108.224 7.38472 108.588 7.56707 109.023C7.74943 109.457 7.83631 109.943 7.83631 110.481C7.83631 110.942 7.74943 111.393 7.57577 111.827C7.4021 112.262 7.185 112.678 6.91582 113.086C6.65532 113.495 6.36877 113.877 6.05617 114.25C5.74357 114.623 5.44841 114.971 5.16186 115.292L1.39319 119.686H8.53102V120.163L8.5483 120.155Z" fill="#CFCFCF"/>
<path d="M19.9159 114.849C19.9159 115.274 19.8812 115.7 19.8204 116.134C19.7596 116.568 19.6727 116.985 19.5425 117.393C19.4122 117.801 19.2473 118.183 19.0476 118.539C18.8478 118.895 18.596 119.208 18.3095 119.468C18.0143 119.729 17.6756 119.946 17.2848 120.093C16.894 120.25 16.4512 120.328 15.9475 120.328C15.4439 120.328 15.0098 120.25 14.619 120.093C14.2283 119.937 13.8896 119.729 13.5944 119.468C13.2991 119.208 13.0473 118.895 12.8389 118.539C12.6305 118.183 12.4656 117.801 12.3353 117.393C12.2051 116.985 12.1095 116.568 12.0487 116.134C11.9879 115.7 11.9532 115.274 11.9532 114.849V112.461C11.9532 112.044 11.9792 111.618 12.04 111.184C12.1008 110.75 12.1964 110.324 12.3179 109.916C12.4482 109.508 12.6131 109.126 12.8215 108.77C13.0299 108.414 13.273 108.102 13.5683 107.832C13.8635 107.563 14.2022 107.355 14.593 107.198C14.9837 107.042 15.4265 106.964 15.9301 106.964C16.4338 106.964 16.8767 107.042 17.2674 107.198C17.6582 107.355 17.9969 107.563 18.2921 107.824C18.5873 108.093 18.8305 108.397 19.0389 108.753C19.2473 109.109 19.4122 109.491 19.5425 109.899C19.6727 110.307 19.7683 110.724 19.8204 111.158C19.8725 111.592 19.9072 112.018 19.9159 112.443V114.849ZM12.4395 114.831C12.4395 115.144 12.4568 115.456 12.4916 115.769C12.5263 116.09 12.5784 116.403 12.6566 116.716L19.1257 110.194C19.0215 109.821 18.8739 109.465 18.7002 109.135C18.5265 108.805 18.3008 108.51 18.0403 108.258C17.7798 108.006 17.4758 107.806 17.1285 107.667C16.7811 107.52 16.3817 107.45 15.9301 107.45C15.4786 107.45 15.0792 107.52 14.7318 107.667C14.3845 107.806 14.0806 108.006 13.8288 108.249C13.5683 108.492 13.3512 108.788 13.1776 109.118C13.0039 109.448 12.8563 109.804 12.7521 110.168C12.6479 110.542 12.5697 110.924 12.5176 111.314C12.4655 111.705 12.4395 112.087 12.4395 112.461V114.831ZM19.4296 112.461C19.4296 112.174 19.4036 111.888 19.3775 111.592C19.3515 111.297 19.308 111.002 19.2473 110.715L12.7868 117.228C12.8996 117.584 13.0473 117.922 13.2209 118.244C13.4033 118.565 13.6204 118.843 13.8722 119.077C14.1327 119.312 14.4279 119.503 14.7666 119.642C15.1052 119.781 15.496 119.85 15.9388 119.85C16.3817 119.85 16.7811 119.781 17.1285 119.633C17.4758 119.486 17.7797 119.294 18.0316 119.043C18.2834 118.799 18.5005 118.504 18.6828 118.174C18.8565 117.844 19.0041 117.497 19.1083 117.124C19.2125 116.75 19.2907 116.368 19.3428 115.977C19.3862 115.587 19.4209 115.205 19.4209 114.831V112.461H19.4296Z" fill="#CFCFCF"/>
<path d="M30.8829 114.849C30.8829 115.274 30.8482 115.7 30.7874 116.134C30.7266 116.568 30.6397 116.985 30.5094 117.393C30.3792 117.801 30.2143 118.183 30.0145 118.539C29.8148 118.895 29.5629 119.208 29.2764 119.468C28.9811 119.729 28.6425 119.946 28.2518 120.093C27.861 120.25 27.4181 120.328 26.9145 120.328C26.4109 120.328 25.9767 120.25 25.5859 120.093C25.1952 119.937 24.8566 119.729 24.5613 119.468C24.2661 119.208 24.0143 118.895 23.8059 118.539C23.5975 118.183 23.4325 117.801 23.3023 117.393C23.172 116.985 23.0765 116.568 23.0157 116.134C22.9549 115.7 22.9202 115.274 22.9202 114.849V112.461C22.9202 112.044 22.9462 111.618 23.007 111.184C23.0678 110.75 23.1633 110.324 23.2849 109.916C23.4152 109.508 23.5801 109.126 23.7885 108.77C23.9969 108.414 24.24 108.102 24.5353 107.832C24.8305 107.563 25.1692 107.355 25.5599 107.198C25.9507 107.042 26.3935 106.964 26.8971 106.964C27.4008 106.964 27.8436 107.042 28.2344 107.198C28.6252 107.355 28.9639 107.563 29.2591 107.824C29.5543 108.093 29.7974 108.397 30.0058 108.753C30.2142 109.109 30.3792 109.491 30.5094 109.899C30.6397 110.307 30.7353 110.724 30.7874 111.158C30.8395 111.592 30.8742 112.018 30.8829 112.443V114.849ZM23.4065 114.831C23.4065 115.144 23.4238 115.456 23.4585 115.769C23.4933 116.09 23.5454 116.403 23.6236 116.716L30.0927 110.194C29.9885 109.821 29.8408 109.465 29.6672 109.135C29.4935 108.805 29.2677 108.51 29.0072 108.258C28.7467 108.006 28.4428 107.806 28.0954 107.667C27.7481 107.52 27.3487 107.45 26.8971 107.45C26.4456 107.45 26.0461 107.52 25.6988 107.667C25.3515 107.806 25.0476 108.006 24.7958 108.249C24.5353 108.492 24.3182 108.788 24.1446 109.118C23.9709 109.448 23.8233 109.804 23.7191 110.168C23.6149 110.542 23.5367 110.924 23.4846 111.314C23.4325 111.705 23.4065 112.087 23.4065 112.461V114.831ZM30.3966 112.461C30.3966 112.174 30.3706 111.888 30.3445 111.592C30.3185 111.297 30.275 111.002 30.2142 110.715L23.7537 117.228C23.8666 117.584 24.0142 117.922 24.1879 118.244C24.3703 118.565 24.5873 118.843 24.8392 119.077C25.091 119.312 25.3949 119.503 25.7336 119.642C26.0722 119.781 26.463 119.85 26.9058 119.85C27.3487 119.85 27.7481 119.781 28.0954 119.633C28.4428 119.486 28.7467 119.294 28.9985 119.043C29.2504 118.799 29.4674 118.504 29.6498 118.174C29.8235 117.844 29.9711 117.497 30.0753 117.124C30.1795 116.75 30.2576 116.368 30.3097 115.977C30.3532 115.587 30.3879 115.205 30.3879 114.831V112.461H30.3966Z" fill="#CFCFCF"/>
<path d="M5.79687 155.756H5.30186V143.382L1.49853 145.162V144.624L5.62314 142.757H5.79687V155.756Z" fill="#CFCFCF"/>
<path d="M19.9132 150.451C19.9132 150.877 19.8784 151.302 19.8177 151.737C19.7569 152.171 19.67 152.588 19.5397 152.996C19.4095 153.404 19.2445 153.786 19.0448 154.142C18.8451 154.498 18.5933 154.81 18.3068 155.071C18.0115 155.331 17.6728 155.549 17.2821 155.696C16.8913 155.852 16.4484 155.931 15.9448 155.931C15.4412 155.931 15.0071 155.852 14.6163 155.696C14.2256 155.54 13.8869 155.331 13.5916 155.071C13.2964 154.81 13.0446 154.498 12.8362 154.142C12.6278 153.786 12.4628 153.404 12.3326 152.996C12.2023 152.588 12.1067 152.171 12.046 151.737C11.9852 151.302 11.9505 150.877 11.9505 150.451V148.064C11.9505 147.647 11.9765 147.221 12.0373 146.787C12.098 146.353 12.1936 145.927 12.3152 145.519C12.4454 145.111 12.6104 144.729 12.8188 144.373C13.0272 144.017 13.2703 143.704 13.5656 143.435C13.8608 143.166 14.1995 142.958 14.5902 142.801C14.981 142.645 15.4238 142.567 15.9274 142.567C16.431 142.567 16.8739 142.645 17.2647 142.801C17.6554 142.958 17.9941 143.166 18.2894 143.427C18.5846 143.696 18.8277 144 19.0361 144.356C19.2445 144.712 19.4095 145.094 19.5397 145.502C19.67 145.91 19.7656 146.327 19.8177 146.761C19.8698 147.195 19.9045 147.621 19.9132 148.046V150.451ZM12.4368 150.434C12.4368 150.747 12.4541 151.059 12.4888 151.372C12.5236 151.693 12.5757 152.006 12.6539 152.318L19.1229 145.797C19.0187 145.424 18.8711 145.068 18.6975 144.738C18.5238 144.408 18.298 144.112 18.0375 143.861C17.777 143.609 17.4731 143.409 17.1257 143.27C16.7784 143.123 16.3789 143.053 15.9274 143.053C15.4759 143.053 15.0764 143.123 14.7291 143.27C14.3818 143.409 14.0779 143.609 13.8261 143.852C13.5656 144.095 13.3485 144.39 13.1748 144.72C13.0012 145.05 12.8536 145.406 12.7494 145.771C12.6452 146.144 12.567 146.526 12.5149 146.917C12.4628 147.308 12.4368 147.69 12.4368 148.064V150.434ZM19.4268 148.064C19.4268 147.777 19.4008 147.49 19.3748 147.195C19.3487 146.9 19.3053 146.605 19.2445 146.318L12.784 152.831C12.8969 153.187 13.0445 153.525 13.2182 153.847C13.4005 154.168 13.6176 154.446 13.8694 154.68C14.13 154.915 14.4252 155.106 14.7639 155.245C15.1025 155.384 15.4932 155.453 15.9361 155.453C16.379 155.453 16.7784 155.384 17.1257 155.236C17.4731 155.088 17.777 154.897 18.0288 154.645C18.2806 154.402 18.4977 154.107 18.6801 153.777C18.8538 153.447 19.0014 153.1 19.1056 152.727C19.2098 152.353 19.2879 151.971 19.34 151.58C19.3834 151.189 19.4182 150.807 19.4182 150.434V148.064H19.4268Z" fill="#CFCFCF"/>
<path d="M30.8838 150.451C30.8838 150.877 30.8491 151.302 30.7883 151.737C30.7275 152.171 30.6406 152.588 30.5104 152.996C30.3801 153.404 30.2152 153.786 30.0155 154.142C29.8158 154.498 29.5639 154.81 29.2773 155.071C28.9821 155.331 28.6435 155.549 28.2527 155.696C27.862 155.852 27.4191 155.931 26.9155 155.931C26.4118 155.931 25.9776 155.852 25.5869 155.696C25.1961 155.54 24.8575 155.331 24.5623 155.071C24.2671 154.81 24.0152 154.498 23.8068 154.142C23.5984 153.786 23.4335 153.404 23.3032 152.996C23.173 152.588 23.0774 152.171 23.0166 151.737C22.9558 151.302 22.9211 150.877 22.9211 150.451V148.064C22.9211 147.647 22.9471 147.221 23.0079 146.787C23.0687 146.353 23.1643 145.927 23.2859 145.519C23.4161 145.111 23.5811 144.729 23.7895 144.373C23.9979 144.017 24.241 143.704 24.5362 143.435C24.8314 143.166 25.1701 142.958 25.5609 142.801C25.9517 142.645 26.3944 142.567 26.8981 142.567C27.4017 142.567 27.8446 142.645 28.2353 142.801C28.6261 142.958 28.9648 143.166 29.26 143.427C29.5553 143.696 29.7984 144 30.0068 144.356C30.2152 144.712 30.3801 145.094 30.5104 145.502C30.6406 145.91 30.7362 146.327 30.7883 146.761C30.8404 147.195 30.8751 147.621 30.8838 148.046V150.451ZM23.4074 150.434C23.4074 150.747 23.4247 151.059 23.4595 151.372C23.4942 151.693 23.5464 152.006 23.6245 152.318L30.0936 145.797C29.9894 145.424 29.8418 145.068 29.6681 144.738C29.4945 144.408 29.2687 144.112 29.0082 143.861C28.7477 143.609 28.4437 143.409 28.0964 143.27C27.749 143.123 27.3496 143.053 26.8981 143.053C26.4465 143.053 26.0471 143.123 25.6998 143.27C25.3524 143.409 25.0486 143.609 24.7968 143.852C24.5363 144.095 24.3192 144.39 24.1455 144.72C23.9718 145.05 23.8242 145.406 23.72 145.771C23.6158 146.144 23.5377 146.526 23.4856 146.917C23.4335 147.308 23.4074 147.69 23.4074 148.064V150.434ZM30.3975 148.064C30.3975 147.777 30.3715 147.49 30.3455 147.195C30.3194 146.9 30.276 146.605 30.2152 146.318L23.7547 152.831C23.8676 153.187 24.0152 153.525 24.1889 153.847C24.3712 154.168 24.5883 154.446 24.8401 154.68C25.0919 154.915 25.3959 155.106 25.7345 155.245C26.0732 155.384 26.4639 155.453 26.9068 155.453C27.3496 155.453 27.749 155.384 28.0964 155.236C28.4437 155.088 28.7477 154.897 28.9995 154.645C29.2513 154.402 29.4684 154.107 29.6507 153.777C29.8244 153.447 29.972 153.1 30.0762 152.727C30.1804 152.353 30.2586 151.971 30.3107 151.58C30.3541 151.189 30.3888 150.807 30.3888 150.434V148.064H30.3975Z" fill="#CFCFCF"/>
<path d="M130.029 213.066H129.534V200.693L125.73 202.473V201.934L129.855 200.067H130.029V213.066Z" fill="#CFCFCF"/>
<path d="M142.421 199.895V200.372H142.247C141.335 200.372 140.536 200.546 139.842 200.876C139.147 201.206 138.574 201.649 138.096 202.213C137.627 202.769 137.254 203.42 137.002 204.167C136.742 204.914 136.594 205.704 136.551 206.537C136.733 206.225 136.95 205.947 137.211 205.695C137.471 205.443 137.766 205.235 138.079 205.053C138.4 204.879 138.739 204.74 139.095 204.653C139.451 204.558 139.824 204.514 140.198 204.514C140.797 204.514 141.335 204.627 141.804 204.861C142.273 205.096 142.664 205.409 142.985 205.799C143.306 206.19 143.55 206.642 143.715 207.163C143.879 207.675 143.966 208.213 143.966 208.778C143.966 209.342 143.888 209.846 143.732 210.384C143.576 210.914 143.341 211.391 143.028 211.817C142.716 212.242 142.334 212.581 141.874 212.85C141.413 213.111 140.892 213.25 140.293 213.25C139.642 213.25 139.06 213.128 138.539 212.885C138.018 212.642 137.575 212.312 137.211 211.886C136.846 211.47 136.568 210.983 136.368 210.428C136.169 209.872 136.064 209.29 136.064 208.682V207.18C136.064 206.537 136.134 205.912 136.247 205.304C136.36 204.696 136.525 204.123 136.75 203.585C136.976 203.047 137.254 202.552 137.593 202.1C137.931 201.649 138.331 201.267 138.791 200.937C139.251 200.615 139.764 200.364 140.337 200.181C140.91 199.999 141.552 199.903 142.247 199.903H142.421V199.895ZM140.146 205.009C139.746 205.009 139.355 205.07 138.965 205.191C138.574 205.313 138.218 205.487 137.888 205.712C137.558 205.938 137.28 206.207 137.037 206.529C136.803 206.841 136.638 207.197 136.542 207.588V208.665C136.542 209.212 136.638 209.733 136.811 210.228C136.985 210.723 137.228 211.166 137.549 211.539C137.871 211.921 138.261 212.216 138.722 212.442C139.182 212.668 139.703 212.772 140.285 212.772C140.806 212.772 141.266 212.642 141.665 212.399C142.065 212.156 142.395 211.843 142.664 211.47C142.933 211.088 143.133 210.662 143.272 210.184C143.411 209.707 143.48 209.247 143.48 208.778C143.48 208.274 143.411 207.788 143.263 207.336C143.115 206.885 142.907 206.485 142.62 206.138C142.334 205.791 141.987 205.521 141.57 205.313C141.153 205.105 140.675 205.009 140.146 205.009Z" fill="#CFCFCF"/>
<path d="M151.398 204.782C151.398 204.635 151.451 204.505 151.555 204.4C151.659 204.296 151.781 204.244 151.911 204.244C152.041 204.244 152.171 204.296 152.284 204.4C152.397 204.505 152.449 204.635 152.449 204.782C152.449 204.93 152.397 205.052 152.284 205.147C152.171 205.251 152.05 205.295 151.911 205.295C151.772 205.295 151.659 205.243 151.555 205.147C151.451 205.043 151.398 204.921 151.398 204.782ZM151.398 212.606C151.398 212.458 151.451 212.328 151.555 212.224C151.659 212.12 151.781 212.068 151.911 212.068C152.041 212.068 152.171 212.12 152.284 212.224C152.397 212.328 152.449 212.458 152.449 212.606C152.449 212.754 152.397 212.867 152.284 212.971C152.171 213.075 152.05 213.118 151.911 213.118C151.772 213.118 151.659 213.066 151.555 212.971C151.451 212.867 151.398 212.745 151.398 212.606Z" fill="#CFCFCF"/>
<path d="M166.083 207.761C166.083 208.186 166.048 208.612 165.987 209.046C165.926 209.48 165.839 209.897 165.709 210.305C165.579 210.713 165.414 211.095 165.214 211.451C165.015 211.807 164.763 212.12 164.476 212.38C164.181 212.641 163.842 212.858 163.451 213.005C163.061 213.162 162.618 213.24 162.114 213.24C161.611 213.24 161.176 213.162 160.786 213.005C160.395 212.849 160.056 212.641 159.761 212.38C159.466 212.12 159.214 211.807 159.006 211.451C158.797 211.095 158.632 210.713 158.502 210.305C158.372 209.897 158.276 209.48 158.215 209.046C158.155 208.612 158.12 208.186 158.12 207.761V205.373C158.12 204.956 158.146 204.531 158.207 204.096C158.268 203.662 158.363 203.237 158.485 202.829C158.615 202.42 158.78 202.038 158.988 201.682C159.197 201.326 159.44 201.014 159.735 200.744C160.03 200.475 160.369 200.267 160.76 200.111C161.15 199.954 161.593 199.876 162.097 199.876C162.601 199.876 163.043 199.954 163.434 200.111C163.825 200.267 164.164 200.475 164.459 200.736C164.754 201.005 164.997 201.309 165.206 201.665C165.414 202.021 165.579 202.403 165.709 202.811C165.839 203.219 165.935 203.636 165.987 204.07C166.039 204.504 166.074 204.93 166.083 205.355V207.761ZM158.615 207.743C158.615 208.056 158.632 208.369 158.667 208.681C158.702 209.002 158.754 209.315 158.832 209.628L165.301 203.106C165.197 202.733 165.049 202.377 164.876 202.047C164.693 201.717 164.476 201.422 164.216 201.17C163.955 200.918 163.651 200.718 163.304 200.58C162.957 200.432 162.557 200.362 162.106 200.362C161.654 200.362 161.255 200.432 160.907 200.58C160.56 200.718 160.256 200.918 160.004 201.161C159.744 201.405 159.527 201.7 159.353 202.03C159.179 202.36 159.032 202.716 158.927 203.08C158.823 203.454 158.745 203.836 158.693 204.227C158.641 204.617 158.615 204.999 158.615 205.373V207.743ZM165.605 205.373C165.605 205.086 165.579 204.8 165.553 204.504C165.527 204.209 165.483 203.914 165.423 203.627L158.962 210.14C159.075 210.496 159.223 210.835 159.396 211.156C159.579 211.477 159.796 211.755 160.048 211.99C160.299 212.224 160.603 212.415 160.942 212.554C161.281 212.693 161.671 212.762 162.114 212.762C162.557 212.762 162.957 212.693 163.304 212.545C163.651 212.398 163.955 212.207 164.207 211.955C164.459 211.712 164.676 211.416 164.858 211.086C165.032 210.756 165.179 210.409 165.284 210.036C165.388 209.662 165.466 209.28 165.518 208.89C165.562 208.499 165.596 208.117 165.596 207.743V205.373H165.605Z" fill="#CFCFCF"/>
<path d="M177.05 207.761C177.05 208.186 177.015 208.612 176.954 209.046C176.902 209.48 176.806 209.897 176.676 210.305C176.546 210.713 176.381 211.095 176.181 211.451C175.981 211.807 175.73 212.12 175.443 212.38C175.148 212.641 174.809 212.858 174.418 213.005C174.028 213.162 173.585 213.24 173.081 213.24C172.578 213.24 172.143 213.162 171.753 213.005C171.362 212.849 171.023 212.641 170.728 212.38C170.433 212.12 170.181 211.807 169.973 211.451C169.764 211.095 169.599 210.713 169.469 210.305C169.339 209.897 169.243 209.48 169.182 209.046C169.122 208.612 169.087 208.186 169.087 207.761V205.373C169.087 204.956 169.113 204.531 169.174 204.096C169.235 203.662 169.33 203.237 169.452 202.829C169.582 202.42 169.747 202.038 169.955 201.682C170.164 201.326 170.407 201.014 170.702 200.744C170.997 200.475 171.336 200.267 171.727 200.111C172.117 199.954 172.56 199.876 173.064 199.876C173.568 199.876 174.01 199.954 174.401 200.111C174.792 200.267 175.131 200.475 175.426 200.736C175.721 201.005 175.964 201.309 176.173 201.665C176.381 202.021 176.546 202.403 176.676 202.811C176.806 203.219 176.902 203.636 176.954 204.07C177.006 204.504 177.041 204.93 177.05 205.355V207.761ZM169.582 207.743C169.582 208.056 169.599 208.369 169.634 208.681C169.669 209.002 169.721 209.315 169.799 209.628L176.268 203.106C176.164 202.733 176.016 202.377 175.843 202.047C175.66 201.717 175.443 201.422 175.183 201.17C174.922 200.918 174.618 200.718 174.271 200.58C173.924 200.432 173.524 200.362 173.073 200.362C172.621 200.362 172.222 200.432 171.874 200.58C171.527 200.718 171.223 200.918 170.971 201.161C170.711 201.405 170.494 201.7 170.32 202.03C170.146 202.36 169.999 202.716 169.894 203.08C169.79 203.454 169.712 203.836 169.66 204.227C169.608 204.617 169.582 204.999 169.582 205.373V207.743ZM176.572 205.373C176.572 205.086 176.546 204.8 176.52 204.504C176.494 204.209 176.45 203.914 176.39 203.627L169.929 210.14C170.042 210.496 170.19 210.835 170.363 211.156C170.546 211.477 170.763 211.755 171.015 211.99C171.266 212.224 171.57 212.415 171.909 212.554C172.248 212.693 172.638 212.762 173.081 212.762C173.524 212.762 173.924 212.693 174.271 212.545C174.618 212.398 174.922 212.207 175.174 211.955C175.426 211.712 175.643 211.416 175.825 211.086C175.999 210.756 176.146 210.409 176.251 210.036C176.355 209.662 176.433 209.28 176.485 208.89C176.529 208.499 176.563 208.117 176.563 207.743V205.373H176.572Z" fill="#CFCFCF"/>
<path d="M209.48 213.066H208.986V200.693L205.182 202.473V201.934L209.307 200.067H209.48V213.066Z" fill="#CFCFCF"/>
<path d="M221.869 199.895V200.372H221.695C220.784 200.372 219.985 200.546 219.29 200.876C218.595 201.206 218.022 201.649 217.545 202.213C217.076 202.769 216.702 203.42 216.451 204.167C216.19 204.914 216.042 205.704 215.999 206.537C216.181 206.225 216.398 205.947 216.659 205.695C216.919 205.443 217.215 205.235 217.527 205.053C217.849 204.879 218.187 204.74 218.543 204.653C218.899 204.558 219.273 204.514 219.646 204.514C220.245 204.514 220.784 204.627 221.252 204.861C221.721 205.096 222.112 205.409 222.433 205.799C222.755 206.19 222.998 206.642 223.163 207.163C223.328 207.675 223.415 208.213 223.415 208.778C223.415 209.342 223.336 209.846 223.18 210.384C223.024 210.914 222.789 211.391 222.477 211.817C222.164 212.242 221.782 212.581 221.322 212.85C220.862 213.111 220.341 213.25 219.742 213.25C219.09 213.25 218.509 213.128 217.988 212.885C217.467 212.642 217.024 212.312 216.659 211.886C216.294 211.47 216.016 210.983 215.817 210.428C215.617 209.872 215.513 209.29 215.513 208.682V207.18C215.513 206.537 215.582 205.912 215.695 205.304C215.808 204.696 215.973 204.123 216.199 203.585C216.424 203.047 216.702 202.552 217.041 202.1C217.38 201.649 217.779 201.267 218.239 200.937C218.7 200.615 219.212 200.364 219.785 200.181C220.358 199.999 221.001 199.903 221.695 199.903H221.869V199.895ZM219.594 205.009C219.194 205.009 218.804 205.07 218.413 205.191C218.022 205.313 217.666 205.487 217.336 205.712C217.006 205.938 216.728 206.207 216.485 206.529C216.251 206.841 216.086 207.197 215.99 207.588V208.665C215.99 209.212 216.086 209.733 216.26 210.228C216.433 210.723 216.676 211.166 216.998 211.539C217.319 211.921 217.71 212.216 218.17 212.442C218.63 212.668 219.151 212.772 219.733 212.772C220.254 212.772 220.714 212.642 221.114 212.399C221.513 212.156 221.843 211.843 222.112 211.47C222.381 211.088 222.581 210.662 222.72 210.184C222.859 209.707 222.928 209.247 222.928 208.778C222.928 208.274 222.859 207.788 222.711 207.336C222.564 206.885 222.355 206.485 222.069 206.138C221.782 205.791 221.435 205.521 221.018 205.313C220.601 205.105 220.124 205.009 219.594 205.009Z" fill="#CFCFCF"/>
<path d="M230.85 204.782C230.85 204.635 230.903 204.505 231.007 204.4C231.111 204.296 231.233 204.244 231.363 204.244C231.493 204.244 231.623 204.296 231.736 204.4C231.849 204.505 231.901 204.635 231.901 204.782C231.901 204.93 231.849 205.052 231.736 205.147C231.623 205.251 231.502 205.295 231.363 205.295C231.224 205.295 231.111 205.243 231.007 205.147C230.903 205.043 230.85 204.921 230.85 204.782ZM230.85 212.606C230.85 212.458 230.903 212.328 231.007 212.224C231.111 212.12 231.233 212.068 231.363 212.068C231.493 212.068 231.623 212.12 231.736 212.224C231.849 212.328 231.901 212.458 231.901 212.606C231.901 212.754 231.849 212.867 231.736 212.971C231.623 213.075 231.502 213.118 231.363 213.118C231.224 213.118 231.111 213.066 231.007 212.971C230.903 212.867 230.85 212.745 230.85 212.606Z" fill="#CFCFCF"/>
<path d="M239.744 206.199H240.734C241.15 206.199 241.567 206.129 241.984 206.016C242.401 205.904 242.783 205.73 243.113 205.495C243.443 205.261 243.721 204.974 243.929 204.627C244.138 204.28 244.242 203.863 244.242 203.394C244.242 202.925 244.164 202.508 243.999 202.144C243.842 201.77 243.617 201.458 243.33 201.197C243.043 200.937 242.705 200.737 242.314 200.598C241.923 200.459 241.506 200.39 241.055 200.39C240.603 200.39 240.161 200.468 239.752 200.615C239.353 200.763 238.997 200.971 238.702 201.241C238.407 201.51 238.163 201.84 237.99 202.213C237.807 202.595 237.712 203.021 237.694 203.489H237.208C237.226 202.951 237.339 202.465 237.538 202.022C237.738 201.579 238.016 201.206 238.363 200.884C238.71 200.572 239.11 200.329 239.57 200.155C240.03 199.981 240.525 199.895 241.055 199.895C241.585 199.895 242.062 199.981 242.514 200.146C242.957 200.311 243.347 200.546 243.677 200.858C244.007 201.162 244.268 201.536 244.45 201.97C244.633 202.404 244.728 202.89 244.728 203.429C244.728 203.828 244.659 204.193 244.52 204.514C244.381 204.835 244.198 205.122 243.973 205.374C243.747 205.626 243.478 205.834 243.174 206.008C242.87 206.181 242.54 206.329 242.193 206.433C242.583 206.52 242.948 206.65 243.287 206.824C243.625 206.998 243.929 207.215 244.181 207.475C244.433 207.736 244.641 208.048 244.789 208.404C244.936 208.76 245.015 209.168 245.015 209.629C245.015 210.184 244.91 210.688 244.711 211.14C244.511 211.582 244.233 211.964 243.886 212.277C243.538 212.59 243.13 212.833 242.653 212.998C242.184 213.172 241.672 213.25 241.142 213.25C240.577 213.25 240.048 213.163 239.544 212.98C239.04 212.798 238.606 212.546 238.224 212.216C237.842 211.886 237.547 211.487 237.312 211.018C237.087 210.549 236.956 210.028 236.939 209.455H237.425C237.443 209.959 237.556 210.419 237.764 210.827C237.972 211.235 238.242 211.582 238.58 211.869C238.919 212.156 239.301 212.381 239.744 212.538C240.187 212.694 240.647 212.772 241.142 212.772C241.637 212.772 242.062 212.703 242.479 212.564C242.896 212.425 243.252 212.225 243.556 211.964C243.86 211.704 244.103 211.374 244.277 210.992C244.45 210.61 244.537 210.167 244.537 209.663C244.537 209.116 244.433 208.656 244.216 208.283C243.999 207.909 243.712 207.605 243.356 207.371C243 207.136 242.601 206.972 242.14 206.867C241.689 206.763 241.22 206.711 240.742 206.702H239.752V206.199H239.744Z" fill="#CFCFCF"/>
<path d="M256.501 207.761C256.501 208.186 256.467 208.612 256.406 209.046C256.354 209.48 256.258 209.897 256.128 210.305C255.998 210.713 255.833 211.095 255.633 211.451C255.433 211.807 255.182 212.12 254.895 212.38C254.609 212.641 254.261 212.858 253.87 213.005C253.48 213.162 253.037 213.24 252.533 213.24C252.03 213.24 251.595 213.162 251.205 213.005C250.814 212.849 250.475 212.641 250.18 212.38C249.885 212.12 249.633 211.807 249.425 211.451C249.216 211.095 249.051 210.713 248.921 210.305C248.791 209.897 248.695 209.48 248.634 209.046C248.574 208.612 248.539 208.186 248.539 207.761V205.373C248.539 204.956 248.565 204.531 248.626 204.096C248.687 203.662 248.782 203.237 248.904 202.829C249.034 202.42 249.199 202.038 249.407 201.682C249.616 201.326 249.859 201.014 250.154 200.744C250.449 200.475 250.788 200.267 251.179 200.111C251.569 199.954 252.012 199.876 252.516 199.876C253.019 199.876 253.462 199.954 253.853 200.111C254.244 200.267 254.582 200.475 254.878 200.736C255.173 201.005 255.416 201.309 255.624 201.665C255.833 202.021 255.998 202.403 256.128 202.811C256.258 203.219 256.354 203.636 256.406 204.07C256.467 204.504 256.493 204.93 256.501 205.355V207.761ZM249.034 207.743C249.034 208.056 249.051 208.369 249.086 208.681C249.121 209.002 249.173 209.315 249.251 209.628L255.72 203.106C255.616 202.733 255.468 202.377 255.295 202.047C255.112 201.717 254.895 201.422 254.643 201.17C254.383 200.918 254.079 200.718 253.732 200.58C253.384 200.432 252.985 200.362 252.533 200.362C252.082 200.362 251.682 200.432 251.335 200.58C250.988 200.718 250.684 200.918 250.432 201.161C250.171 201.405 249.954 201.7 249.781 202.03C249.607 202.36 249.459 202.716 249.355 203.08C249.251 203.454 249.173 203.836 249.121 204.227C249.069 204.617 249.042 204.999 249.042 205.373V207.743H249.034ZM256.024 205.373C256.024 205.086 255.998 204.8 255.972 204.504C255.946 204.209 255.902 203.914 255.842 203.627L249.381 210.14C249.494 210.496 249.642 210.835 249.815 211.156C249.998 211.477 250.215 211.755 250.467 211.99C250.718 212.224 251.022 212.415 251.361 212.554C251.7 212.693 252.09 212.762 252.533 212.762C252.976 212.762 253.376 212.693 253.723 212.545C254.07 212.398 254.374 212.207 254.626 211.955C254.878 211.712 255.095 211.416 255.277 211.086C255.451 210.756 255.598 210.409 255.703 210.036C255.807 209.662 255.885 209.28 255.937 208.89C255.98 208.499 256.007 208.117 256.015 207.743V205.373H256.024Z" fill="#CFCFCF"/>
<path d="M285.57 184.315H46.7768V165.351L103.74 124.157L171.253 129.002L242.596 61.1673L285.57 94.2771V184.315Z" fill="url(#paint0_linear_2138_37005)"/>
<defs>
<linearGradient id="paint0_linear_2138_37005" x1="166.173" y1="61.168" x2="166.173" y2="184.316" gradientUnits="userSpaceOnUse">
<stop stop-color="#FF5900"/>
<stop offset="1" stop-color="#570D0D"/>
</linearGradient>
</defs>
</svg>
