<svg width="287" height="212" viewBox="0 0 287 212" fill="none" xmlns="http://www.w3.org/2000/svg">
<path d="M53.6163 198.133L56.6992 206.214L59.9539 198.133H60.6925V210.988H60.2201V204.737L60.2373 198.777L56.9053 206.841H56.4674L53.3845 198.871V204.745L53.3931 210.997H52.9122V198.141H53.6077L53.6163 198.133Z" fill="#F4F2F2"/>
<path d="M81.8709 198.614V210.989H81.3986L81.4158 198.614H77.1821V198.142H86.1045V198.614H81.8709Z" fill="#F4F2F2"/>
<path d="M103.983 208.078L104.232 209.701L104.498 208.078L106.482 198.168V198.142H106.919V198.168L108.886 208.078L109.144 209.718L109.41 208.078L111.007 198.142H111.437L109.384 210.998H108.946V210.972L106.868 200.28L106.688 199.344L106.516 200.28L104.412 210.972V210.998H103.983L101.922 198.142H102.36L103.965 208.078H103.983Z" fill="#F4F2F2"/>
<path d="M130.82 198.614V210.989H130.348L130.365 198.614H126.131V198.142H135.054V198.614H130.82Z" fill="#F4F2F2"/>
<path d="M157.973 204.668H151.953V210.988H151.498V198.133H158.797V198.605H151.953V204.17H157.973V204.668Z" fill="#F4F2F2"/>
<path d="M182.429 207.906C182.429 207.399 182.326 206.97 182.103 206.609C181.88 206.257 181.596 205.948 181.244 205.707C180.901 205.458 180.514 205.252 180.085 205.089C179.655 204.917 179.243 204.771 178.84 204.651C178.548 204.565 178.247 204.462 177.938 204.35C177.629 204.239 177.337 204.11 177.045 203.972C176.753 203.835 176.487 203.672 176.229 203.492C175.98 203.311 175.757 203.105 175.568 202.873C175.379 202.641 175.233 202.375 175.121 202.083C175.01 201.791 174.958 201.465 174.967 201.096C174.967 200.58 175.078 200.125 175.319 199.73C175.551 199.335 175.851 199.009 176.22 198.743C176.59 198.485 177.01 198.287 177.466 198.15C177.921 198.013 178.393 197.953 178.865 197.953C179.398 197.953 179.904 198.038 180.368 198.21C180.832 198.382 181.244 198.622 181.588 198.94C181.931 199.249 182.215 199.636 182.421 200.082C182.627 200.529 182.747 201.027 182.773 201.577H182.309C182.266 201.113 182.146 200.683 181.957 200.297C181.768 199.91 181.528 199.584 181.227 199.301C180.926 199.026 180.574 198.811 180.179 198.657C179.776 198.502 179.338 198.425 178.865 198.425C178.462 198.425 178.058 198.476 177.655 198.588C177.251 198.691 176.882 198.854 176.547 199.078C176.22 199.292 175.946 199.567 175.74 199.902C175.533 200.237 175.43 200.623 175.422 201.078C175.422 201.405 175.465 201.697 175.568 201.954C175.671 202.212 175.808 202.444 175.989 202.65C176.16 202.856 176.366 203.036 176.598 203.191C176.83 203.354 177.079 203.492 177.345 203.612C177.612 203.732 177.878 203.844 178.153 203.93C178.427 204.024 178.694 204.11 178.951 204.187C179.415 204.324 179.87 204.488 180.342 204.685C180.806 204.883 181.236 205.123 181.613 205.407C181.991 205.69 182.3 206.042 182.541 206.446C182.781 206.849 182.902 207.339 182.902 207.897C182.902 208.455 182.79 208.936 182.558 209.34C182.326 209.752 182.026 210.087 181.656 210.362C181.287 210.636 180.858 210.834 180.377 210.971C179.905 211.109 179.415 211.177 178.908 211.177C178.35 211.177 177.818 211.1 177.303 210.945C176.787 210.791 176.341 210.559 175.946 210.25C175.551 209.941 175.233 209.563 174.984 209.116C174.735 208.67 174.597 208.146 174.58 207.545H175.044C175.096 208.069 175.233 208.524 175.456 208.919C175.679 209.314 175.963 209.64 176.306 209.906C176.65 210.173 177.045 210.37 177.491 210.499C177.938 210.628 178.41 210.697 178.917 210.697C179.346 210.697 179.776 210.645 180.197 210.533C180.617 210.422 180.995 210.259 181.321 210.035C181.648 209.812 181.914 209.529 182.12 209.177C182.326 208.824 182.421 208.404 182.421 207.923L182.429 207.906Z" fill="#F4F2F2"/>
<path d="M207.333 207.906C207.333 207.399 207.23 206.97 207.007 206.609C206.784 206.257 206.5 205.948 206.148 205.707C205.805 205.458 205.418 205.252 204.989 205.089C204.559 204.917 204.147 204.771 203.743 204.651C203.452 204.565 203.151 204.462 202.842 204.35C202.533 204.239 202.241 204.11 201.949 203.972C201.657 203.835 201.391 203.672 201.133 203.492C200.884 203.311 200.661 203.105 200.472 202.873C200.283 202.641 200.137 202.375 200.025 202.083C199.913 201.791 199.862 201.465 199.871 201.096C199.871 200.58 199.982 200.125 200.223 199.73C200.454 199.335 200.755 199.009 201.124 198.743C201.494 198.485 201.914 198.287 202.37 198.15C202.825 198.013 203.297 197.953 203.769 197.953C204.302 197.953 204.808 198.038 205.272 198.21C205.736 198.382 206.148 198.622 206.492 198.94C206.835 199.249 207.118 199.636 207.325 200.082C207.531 200.529 207.651 201.027 207.677 201.577H207.213C207.17 201.113 207.05 200.683 206.861 200.297C206.672 199.91 206.431 199.584 206.131 199.301C205.83 199.026 205.478 198.811 205.083 198.657C204.68 198.502 204.242 198.425 203.769 198.425C203.366 198.425 202.962 198.476 202.558 198.588C202.155 198.691 201.786 198.854 201.451 199.078C201.124 199.292 200.85 199.567 200.643 199.902C200.437 200.237 200.334 200.623 200.326 201.078C200.326 201.405 200.369 201.697 200.472 201.954C200.575 202.212 200.712 202.444 200.892 202.65C201.064 202.856 201.27 203.036 201.502 203.191C201.734 203.354 201.983 203.492 202.249 203.612C202.515 203.732 202.782 203.844 203.057 203.93C203.331 204.024 203.598 204.11 203.855 204.187C204.319 204.324 204.774 204.488 205.246 204.685C205.71 204.883 206.14 205.123 206.517 205.407C206.895 205.69 207.204 206.042 207.445 206.446C207.685 206.849 207.805 207.339 207.805 207.897C207.805 208.455 207.694 208.936 207.462 209.34C207.23 209.752 206.93 210.087 206.56 210.362C206.191 210.636 205.762 210.834 205.281 210.971C204.808 211.109 204.319 211.177 203.812 211.177C203.254 211.177 202.722 211.1 202.206 210.945C201.691 210.791 201.245 210.559 200.85 210.25C200.454 209.941 200.137 209.563 199.888 209.116C199.639 208.67 199.501 208.146 199.484 207.545H199.948C199.999 208.069 200.137 208.524 200.36 208.919C200.583 209.314 200.867 209.64 201.21 209.906C201.554 210.173 201.949 210.37 202.395 210.499C202.842 210.628 203.314 210.697 203.821 210.697C204.25 210.697 204.68 210.645 205.1 210.533C205.521 210.422 205.899 210.259 206.225 210.035C206.552 209.812 206.818 209.529 207.024 209.177C207.23 208.824 207.325 208.404 207.325 207.923L207.333 207.906Z" fill="#F4F2F2"/>
<path d="M224.508 198.133L227.591 206.214L230.846 198.133H231.585V210.988H231.112V204.737L231.129 198.777L227.797 206.841H227.359L224.277 198.871V204.745L224.285 210.997H223.804V198.141H224.5L224.508 198.133Z" fill="#F4F2F2"/>
<path d="M252.763 198.614V210.989H252.291L252.308 198.614H248.074V198.142H256.997V198.614H252.763Z" fill="#F4F2F2"/>
<path d="M274.876 208.078L275.125 209.701L275.391 208.078L277.375 198.168V198.142H277.813V198.168L279.78 208.078L280.037 209.718L280.303 208.078L281.901 198.142H282.33L280.278 210.998H279.84V210.972L277.59 199.344L277.418 200.28L275.314 210.972V210.998H274.885L272.824 198.142H273.262L274.868 208.078H274.876Z" fill="#F4F2F2"/>
<path d="M31.2103 184.273C31.2103 184.694 31.176 185.114 31.1159 185.544C31.0558 185.973 30.9698 186.385 30.841 186.789C30.7122 187.193 30.5491 187.57 30.3516 187.923C30.154 188.275 29.9049 188.584 29.6215 188.841C29.3296 189.099 28.9947 189.314 28.6083 189.46C28.2218 189.614 27.7838 189.692 27.2857 189.692C26.7877 189.692 26.3583 189.614 25.9718 189.46C25.5854 189.305 25.2505 189.099 24.9586 188.841C24.6666 188.584 24.4175 188.275 24.2114 187.923C24.0053 187.57 23.8422 187.193 23.7134 186.789C23.5846 186.385 23.4901 185.973 23.4299 185.544C23.3698 185.114 23.3355 184.694 23.3355 184.273V181.911C23.3355 181.499 23.3612 181.078 23.4214 180.649C23.4815 180.22 23.576 179.799 23.6962 179.395C23.825 178.991 23.9882 178.614 24.1943 178.262C24.4004 177.909 24.6408 177.6 24.9328 177.334C25.2247 177.068 25.5597 176.862 25.9461 176.707C26.3326 176.553 26.7705 176.475 27.2686 176.475C27.7666 176.475 28.2046 176.553 28.5911 176.707C28.9775 176.862 29.3125 177.068 29.6044 177.325C29.8964 177.592 30.1369 177.892 30.343 178.244C30.5491 178.596 30.7122 178.974 30.841 179.378C30.9698 179.781 31.0643 180.194 31.1159 180.623C31.1674 181.053 31.2017 181.473 31.2103 181.894V184.273ZM23.8165 184.256C23.8165 184.565 23.8336 184.874 23.8679 185.183C23.9023 185.501 23.9539 185.81 24.0311 186.119L30.4288 179.67C30.3258 179.301 30.1798 178.949 30.008 178.622C29.8277 178.296 29.613 178.004 29.3554 177.755C29.0977 177.506 28.7971 177.308 28.4536 177.171C28.1101 177.025 27.7151 176.956 27.2686 176.956C26.822 176.956 26.427 177.025 26.0835 177.171C25.74 177.308 25.4395 177.506 25.1904 177.746C24.9328 177.987 24.7181 178.279 24.5464 178.605C24.3746 178.931 24.2286 179.283 24.1256 179.644C24.0225 180.013 23.9452 180.391 23.8937 180.778C23.8422 181.164 23.8165 181.542 23.8165 181.911V184.256ZM30.7294 181.911C30.7294 181.628 30.7037 181.344 30.6779 181.053C30.6521 180.761 30.6092 180.469 30.5491 180.185L24.1599 186.626C24.2715 186.978 24.4175 187.313 24.5892 187.631C24.7696 187.948 24.9843 188.223 25.2333 188.455C25.4824 188.687 25.7829 188.876 26.1179 189.013C26.4528 189.151 26.8392 189.219 27.2772 189.219C27.7151 189.219 28.1101 189.151 28.4536 189.005C28.7971 188.859 29.0977 188.67 29.3468 188.421C29.5958 188.18 29.8105 187.888 29.9908 187.562C30.1626 187.236 30.3086 186.892 30.4116 186.523C30.5147 186.154 30.592 185.776 30.6435 185.389C30.6864 185.003 30.7208 184.625 30.7208 184.256V181.911H30.7294Z" fill="#F4F2F2"/>
<path d="M2.60534 6.75108L3.20653 0.628161H9.47537V1.09182H3.6359L3.11197 6.24434C3.48124 5.95237 3.9107 5.73768 4.38302 5.60028C4.85533 5.46288 5.33615 5.38559 5.79988 5.38559C6.37524 5.38559 6.89914 5.48863 7.36287 5.69473C7.8266 5.90083 8.23022 6.18421 8.55655 6.54489C8.89146 6.90556 9.1491 7.32643 9.32085 7.80733C9.50119 8.29682 9.58701 8.81204 9.58701 9.37882C9.58701 9.94559 9.51831 10.5038 9.37232 11.0191C9.23492 11.5343 9.01163 11.9894 8.71107 12.3759C8.4105 12.7709 8.04128 13.08 7.57756 13.3033C7.12242 13.5351 6.58139 13.6468 5.9545 13.6468C5.41348 13.6468 4.92402 13.561 4.47747 13.3892C4.03091 13.2175 3.6445 12.977 3.31817 12.6592C2.99184 12.3501 2.72559 11.9723 2.52808 11.5343C2.33056 11.0963 2.20169 10.6154 2.14157 10.0829H2.63112C2.68265 10.5553 2.79431 10.9761 2.97465 11.354C3.1464 11.7318 3.3782 12.0582 3.66159 12.3244C3.94498 12.5992 4.27993 12.8053 4.66637 12.9427C5.05281 13.0887 5.4822 13.1574 5.97169 13.1574C6.52129 13.1574 7.00222 13.0543 7.39725 12.8568C7.79228 12.6507 8.11851 12.3844 8.37614 12.0323C8.62518 11.6888 8.81412 11.2853 8.93435 10.8302C9.05458 10.375 9.11476 9.89407 9.11476 9.37882C9.11476 8.86356 9.03746 8.42561 8.88288 7.99623C8.7283 7.56686 8.5136 7.19755 8.22162 6.87981C7.93823 6.56207 7.59477 6.31303 7.18256 6.1241C6.77895 5.93518 6.31514 5.84935 5.80847 5.84935C5.26746 5.84935 4.76087 5.91807 4.27997 6.08123C3.79907 6.24439 3.36107 6.51054 2.95745 6.87122L2.59674 6.73389L2.60534 6.75108Z" fill="#F4F2F2"/>
<path d="M20.365 8.22822C20.365 8.64901 20.3307 9.06978 20.2706 9.49916C20.2191 9.92854 20.1246 10.3407 19.9957 10.7443C19.8669 11.1479 19.7038 11.5258 19.5063 11.8779C19.3088 12.23 19.0598 12.5391 18.7764 12.7967C18.4844 13.0544 18.1494 13.269 17.763 13.415C17.3766 13.5696 16.9386 13.6469 16.4405 13.6469C15.9424 13.6469 15.5131 13.5696 15.1267 13.415C14.7402 13.2604 14.4053 13.0544 14.1133 12.7967C13.8213 12.5391 13.5723 12.23 13.3662 11.8779C13.1601 11.5258 12.997 11.1479 12.8681 10.7443C12.7393 10.3407 12.6448 9.92854 12.5847 9.49916C12.5246 9.06978 12.4902 8.64901 12.4902 8.22822V5.86665C12.4902 5.45444 12.516 5.03368 12.5761 4.6043C12.6362 4.17492 12.7307 3.75406 12.8509 3.35045C12.9798 2.94684 13.1429 2.56903 13.349 2.21694C13.5551 1.86485 13.7955 1.55563 14.0875 1.28942C14.3795 1.0232 14.7144 0.81712 15.1009 0.662544C15.4873 0.507969 15.9252 0.430664 16.4233 0.430664C16.9214 0.430664 17.3594 0.507969 17.7458 0.662544C18.1322 0.81712 18.4672 1.0232 18.7592 1.28082C19.0512 1.54704 19.2916 1.84766 19.4977 2.19975C19.7038 2.55184 19.8669 2.92964 19.9957 3.33326C20.1246 3.73687 20.2191 4.14914 20.2706 4.57851C20.3221 5.00789 20.3565 5.42866 20.365 5.84945V8.22822ZM12.9712 8.21103C12.9712 8.52018 12.9883 8.82929 13.0227 9.13844C13.057 9.45618 13.1086 9.76541 13.1859 10.0746L19.5836 3.62531C19.4805 3.25605 19.3345 2.90388 19.1628 2.57755C18.9824 2.25122 18.7677 1.95924 18.5101 1.7102C18.2525 1.46116 17.9519 1.26371 17.6084 1.12631C17.2649 0.980317 16.8698 0.911617 16.4233 0.911617C15.9767 0.911617 15.5817 0.980317 15.2382 1.12631C14.8947 1.26371 14.5942 1.46126 14.3452 1.70171C14.0875 1.94216 13.8729 2.23414 13.7011 2.56046C13.5294 2.88679 13.3834 3.23885 13.2803 3.59952C13.1773 3.96879 13.1 4.34659 13.0484 4.73303C12.9969 5.11947 12.9712 5.49738 12.9712 5.86665V8.21103ZM19.8841 5.86665C19.8841 5.58326 19.8584 5.29987 19.8326 5.00789C19.8069 4.71592 19.7639 4.42393 19.7038 4.14054L13.3146 10.5812C13.4262 10.9333 13.5722 11.2681 13.744 11.5859C13.9243 11.9036 14.139 12.1785 14.388 12.4103C14.6457 12.6422 14.9377 12.8312 15.2726 12.9686C15.6075 13.106 15.9939 13.1747 16.4319 13.1747C16.8699 13.1747 17.2649 13.106 17.6084 12.96C17.9519 12.814 18.2525 12.625 18.5015 12.376C18.7506 12.1355 18.9652 11.8435 19.1456 11.5172C19.3173 11.1909 19.4633 10.8474 19.5664 10.4782C19.6694 10.1089 19.7467 9.73098 19.7982 9.34454C19.8412 8.9581 19.8755 8.58029 19.8755 8.21103V5.86665H19.8841Z" fill="#F4F2F2"/>
<path d="M31.2102 8.22822C31.2102 8.64901 31.1758 9.06978 31.1157 9.49916C31.0556 9.92854 30.9697 10.3407 30.8409 10.7443C30.7121 11.1479 30.5489 11.5258 30.3514 11.8779C30.1539 12.23 29.9048 12.5391 29.6214 12.7967C29.3294 13.0544 28.9946 13.269 28.6081 13.415C28.2217 13.5696 27.7837 13.6469 27.2856 13.6469C26.7875 13.6469 26.3581 13.5696 25.9717 13.415C25.5852 13.2604 25.2504 13.0544 24.9584 12.7967C24.6664 12.5391 24.4174 12.23 24.2113 11.8779C24.0052 11.5258 23.8421 11.1479 23.7133 10.7443C23.5845 10.3407 23.4899 9.92854 23.4298 9.49916C23.3697 9.06978 23.3354 8.64901 23.3354 8.22822V5.86665C23.3354 5.45444 23.3611 5.03368 23.4212 4.6043C23.4813 4.17492 23.5758 3.75406 23.6961 3.35045C23.8249 2.94684 23.988 2.56903 24.1941 2.21694C24.4002 1.86485 24.6407 1.55563 24.9326 1.28942C25.2246 1.0232 25.5596 0.81712 25.946 0.662544C26.3324 0.507969 26.7703 0.430664 27.2684 0.430664C27.7665 0.430664 28.2045 0.507969 28.5909 0.662544C28.9774 0.81712 29.3123 1.0232 29.6043 1.28082C29.8963 1.54704 30.1367 1.84766 30.3428 2.19975C30.5489 2.55184 30.7121 2.92964 30.8409 3.33326C30.9697 3.73687 31.0642 4.14914 31.1157 4.57851C31.1672 5.00789 31.2016 5.42866 31.2102 5.84945V8.22822ZM23.8163 8.21103C23.8163 8.52018 23.8334 8.82929 23.8678 9.13844C23.9021 9.45618 23.9537 9.76541 24.031 10.0746L30.4287 3.62531C30.3256 3.25605 30.1796 2.90388 30.0079 2.57755C29.8276 2.25122 29.6129 1.95924 29.3552 1.7102C29.0976 1.46116 28.797 1.26371 28.4535 1.12631C28.11 0.980317 27.715 0.911617 27.2684 0.911617C26.8219 0.911617 26.4268 0.980317 26.0833 1.12631C25.7398 1.26371 25.4393 1.46126 25.1903 1.70171C24.9327 1.94216 24.718 2.23414 24.5462 2.56046C24.3745 2.88679 24.2285 3.23885 24.1255 3.59952C24.0224 3.96879 23.9451 4.34659 23.8936 4.73303C23.842 5.11947 23.8163 5.49738 23.8163 5.86665V8.21103ZM30.7292 5.86665C30.7292 5.58326 30.7035 5.29987 30.6778 5.00789C30.652 4.71592 30.609 4.42393 30.5489 4.14054L24.1597 10.5812C24.2714 10.9333 24.4174 11.2681 24.5891 11.5859C24.7694 11.9036 24.9841 12.1785 25.2332 12.4103C25.4822 12.6422 25.7828 12.8312 26.1177 12.9686C26.4526 13.106 26.839 13.1747 27.277 13.1747C27.715 13.1747 28.11 13.106 28.4535 12.96C28.797 12.814 29.0976 12.625 29.3466 12.376C29.5957 12.1355 29.8104 11.8435 29.9907 11.5172C30.1625 11.1909 30.3084 10.8474 30.4115 10.4782C30.5145 10.1089 30.5918 9.73098 30.6434 9.34454C30.6863 8.9581 30.7206 8.58029 30.7206 8.21103V5.86665H30.7292Z" fill="#F4F2F2"/>
<path d="M7.65438 44.7081H9.87852V45.1805H7.65438V48.6842H7.17353V45.1805H0.938965V44.9142L7.07048 35.8286H7.64578V44.6995L7.65438 44.7081ZM1.68608 44.7081H7.17353V36.4125L6.43491 37.632L1.68608 44.7167V44.7081Z" fill="#F4F2F2"/>
<path d="M20.3634 43.4371C20.3634 43.8579 20.329 44.2786 20.2689 44.708C20.2174 45.1374 20.1229 45.5496 19.994 45.9532C19.8652 46.3568 19.7021 46.7347 19.5046 47.0868C19.3071 47.4389 19.0581 47.748 18.7747 48.0056C18.4827 48.2632 18.1477 48.4779 17.7613 48.6239C17.3749 48.7785 16.9369 48.8558 16.4388 48.8558C15.9407 48.8558 15.5114 48.7785 15.125 48.6239C14.7385 48.4693 14.4036 48.2632 14.1116 48.0056C13.8196 47.748 13.5706 47.4389 13.3645 47.0868C13.1584 46.7347 12.9953 46.3568 12.8664 45.9532C12.7376 45.5496 12.6431 45.1374 12.583 44.708C12.5229 44.2786 12.4885 43.8579 12.4885 43.4371V41.0755C12.4885 40.6633 12.5143 40.2425 12.5744 39.8132C12.6345 39.3838 12.729 38.9629 12.8493 38.5593C12.9781 38.1557 13.1412 37.7779 13.3473 37.4258C13.5534 37.0737 13.7938 36.7645 14.0858 36.4983C14.3778 36.2321 14.7127 36.026 15.0992 35.8714C15.4856 35.7168 15.9235 35.6395 16.4216 35.6395C16.9197 35.6395 17.3577 35.7168 17.7441 35.8714C18.1305 36.026 18.4655 36.2321 18.7575 36.4897C19.0495 36.7559 19.2899 37.0565 19.496 37.4086C19.7021 37.7607 19.8652 38.1385 19.994 38.5421C20.1229 38.9457 20.2174 39.358 20.2689 39.7874C20.3204 40.2168 20.3548 40.6375 20.3634 41.0583V43.4371ZM12.9695 43.4199C12.9695 43.729 12.9866 44.0382 13.021 44.3473C13.0553 44.665 13.1069 44.9743 13.1842 45.2834L19.5819 38.8342C19.4788 38.4649 19.3328 38.1127 19.1611 37.7864C18.9807 37.4601 18.766 37.1681 18.5084 36.9191C18.2508 36.67 17.9502 36.4726 17.6067 36.3352C17.2632 36.1892 16.8681 36.1205 16.4216 36.1205C15.975 36.1205 15.58 36.1892 15.2365 36.3352C14.893 36.4726 14.5925 36.6701 14.3435 36.9106C14.0859 37.151 13.8712 37.443 13.6994 37.7693C13.5277 38.0957 13.3817 38.4477 13.2786 38.8084C13.1756 39.1776 13.0983 39.5555 13.0468 39.9419C12.9952 40.3283 12.9695 40.7062 12.9695 41.0755V43.4199ZM19.8824 41.0755C19.8824 40.7921 19.8567 40.5087 19.8309 40.2168C19.8052 39.9248 19.7622 39.6328 19.7021 39.3494L13.3129 45.7901C13.4245 46.1422 13.5705 46.477 13.7423 46.7947C13.9226 47.1125 14.1373 47.3873 14.3864 47.6192C14.644 47.8511 14.936 48.04 15.2709 48.1774C15.6058 48.3148 15.9922 48.3835 16.4302 48.3835C16.8682 48.3835 17.2632 48.3148 17.6067 48.1688C17.9502 48.0228 18.2508 47.8339 18.4998 47.5848C18.7489 47.3444 18.9635 47.0524 19.1439 46.7261C19.3156 46.3997 19.4616 46.0563 19.5647 45.687C19.6677 45.3178 19.745 44.9398 19.7965 44.5534C19.8395 44.167 19.8738 43.7892 19.8738 43.4199V41.0755H19.8824Z" fill="#F4F2F2"/>
<path d="M31.2085 43.4371C31.2085 43.8579 31.1741 44.2786 31.114 44.708C31.0539 45.1374 30.968 45.5496 30.8392 45.9532C30.7104 46.3568 30.5472 46.7347 30.3497 47.0868C30.1522 47.4389 29.9031 47.748 29.6197 48.0056C29.3277 48.2632 28.9929 48.4779 28.6064 48.6239C28.22 48.7785 27.782 48.8558 27.2839 48.8558C26.7858 48.8558 26.3564 48.7785 25.97 48.6239C25.5836 48.4693 25.2487 48.2632 24.9567 48.0056C24.6647 47.748 24.4157 47.4389 24.2096 47.0868C24.0035 46.7347 23.8404 46.3568 23.7116 45.9532C23.5828 45.5496 23.4882 45.1374 23.4281 44.708C23.368 44.2786 23.3337 43.8579 23.3337 43.4371V41.0755C23.3337 40.6633 23.3594 40.2425 23.4195 39.8132C23.4796 39.3838 23.5742 38.9629 23.6944 38.5593C23.8232 38.1557 23.9863 37.7779 24.1924 37.4258C24.3985 37.0737 24.639 36.7645 24.9309 36.4983C25.2229 36.2321 25.5579 36.026 25.9443 35.8714C26.3308 35.7168 26.7686 35.6395 27.2667 35.6395C27.7648 35.6395 28.2028 35.7168 28.5892 35.8714C28.9757 36.026 29.3106 36.2321 29.6026 36.4897C29.8946 36.7559 30.135 37.0565 30.3411 37.4086C30.5472 37.7607 30.7104 38.1385 30.8392 38.5421C30.968 38.9457 31.0625 39.358 31.114 39.7874C31.1656 40.2168 31.1999 40.6375 31.2085 41.0583V43.4371ZM23.8146 43.4199C23.8146 43.729 23.8317 44.0382 23.8661 44.3473C23.9004 44.665 23.952 44.9743 24.0293 45.2834L30.427 38.8342C30.3239 38.4649 30.178 38.1127 30.0062 37.7864C29.8259 37.4601 29.6112 37.1681 29.3535 36.9191C29.0959 36.67 28.7953 36.4726 28.4518 36.3352C28.1083 36.1892 27.7133 36.1205 27.2667 36.1205C26.8202 36.1205 26.4251 36.1892 26.0816 36.3352C25.7381 36.4726 25.4376 36.6701 25.1886 36.9106C24.931 37.151 24.7163 37.443 24.5445 37.7693C24.3728 38.0957 24.2268 38.4477 24.1238 38.8084C24.0207 39.1776 23.9434 39.5555 23.8919 39.9419C23.8404 40.3283 23.8146 40.7062 23.8146 41.0755V43.4199ZM30.7275 41.0755C30.7275 40.7921 30.7018 40.5087 30.6761 40.2168C30.6503 39.9248 30.6073 39.6328 30.5472 39.3494L24.158 45.7901C24.2697 46.1422 24.4157 46.477 24.5874 46.7947C24.7678 47.1125 24.9824 47.3873 25.2315 47.6192C25.4805 47.8511 25.7811 48.04 26.116 48.1774C26.4509 48.3148 26.8374 48.3835 27.2753 48.3835C27.7133 48.3835 28.1083 48.3148 28.4518 48.1688C28.7953 48.0228 29.0959 47.8339 29.3449 47.5848C29.594 47.3444 29.8087 47.0524 29.989 46.7261C30.1608 46.3997 30.3067 46.0563 30.4098 45.687C30.5128 45.3178 30.5901 44.9398 30.6417 44.5534C30.6846 44.167 30.7189 43.7892 30.7189 43.4199V41.0755H30.7275Z" fill="#F4F2F2"/>
<path d="M4.75949 77.1002C5.17169 77.1002 5.58395 77.0315 5.99615 76.9198C6.40835 76.8082 6.78614 76.6365 7.11247 76.4046C7.4388 76.1727 7.71365 75.8894 7.91975 75.5459C8.12585 75.2024 8.22889 74.7901 8.22889 74.3264C8.22889 73.8627 8.15158 73.4505 7.98842 73.0898C7.82525 72.7206 7.61055 72.4113 7.32716 72.1537C7.04377 71.8961 6.70892 71.6986 6.32248 71.5612C5.93604 71.4238 5.52378 71.3551 5.07723 71.3551C4.63067 71.3551 4.19271 71.4324 3.78909 71.5784C3.39407 71.7244 3.04201 71.9305 2.75004 72.1967C2.45806 72.4629 2.21755 72.7892 2.0458 73.1585C1.86546 73.5363 1.77103 73.9571 1.75385 74.4208H1.273C1.29018 73.8884 1.40182 73.4076 1.59933 72.9696C1.79685 72.5316 2.07161 72.1623 2.41511 71.8446C2.75861 71.5354 3.15365 71.295 3.60879 71.1233C4.06393 70.9515 4.55339 70.8656 5.07723 70.8656C5.60107 70.8656 6.07343 70.9515 6.51998 71.1147C6.95794 71.2778 7.34435 71.5096 7.67068 71.8188C7.99701 72.1194 8.25465 72.4886 8.43498 72.918C8.61532 73.3474 8.70974 73.8283 8.70974 74.3608C8.70974 74.7558 8.64105 75.1165 8.50365 75.4342C8.36625 75.752 8.1859 76.0353 7.96263 76.2844C7.73935 76.5334 7.4732 76.7395 7.17264 76.9112C6.87208 77.083 6.54575 77.229 6.20224 77.332C6.58868 77.4179 6.94937 77.5467 7.28428 77.7184C7.6192 77.8902 7.91968 78.1049 8.16872 78.3625C8.41776 78.6201 8.62392 78.9293 8.76991 79.2814C8.9159 79.6335 8.9932 80.0371 8.9932 80.4923C8.9932 81.0419 8.89006 81.54 8.69255 81.9865C8.49503 82.4245 8.22027 82.8023 7.87677 83.1114C7.53327 83.4206 7.12962 83.6611 6.6573 83.8243C6.19358 83.996 5.68692 84.0732 5.16308 84.0732C4.60489 84.0732 4.08108 83.9874 3.583 83.8071C3.08492 83.6267 2.65553 83.3777 2.27768 83.0514C1.89983 82.725 1.60791 82.33 1.37605 81.8663C1.15277 81.4025 1.02391 80.8873 1.00674 80.3205H1.48769C1.50487 80.8186 1.61641 81.2738 1.82251 81.6774C2.02861 82.081 2.29487 82.4245 2.6212 82.7078C2.95612 82.9912 3.33394 83.2145 3.7719 83.3691C4.20987 83.5237 4.67358 83.601 5.15448 83.601C5.63539 83.601 6.0648 83.5323 6.477 83.3949C6.8892 83.2575 7.24128 83.0599 7.54185 82.8023C7.84241 82.5447 8.08293 82.2183 8.25468 81.8405C8.42643 81.4626 8.51224 81.0246 8.51224 80.5266C8.51224 79.9856 8.40919 79.5304 8.18591 79.1612C7.97122 78.7919 7.68784 78.4913 7.33575 78.2594C6.98366 78.0276 6.58862 77.8645 6.13348 77.7614C5.68692 77.6584 5.22321 77.6069 4.75089 77.5983H3.7719V77.1002H4.75949Z" fill="#F4F2F2"/>
<path d="M20.364 78.646C20.364 79.0667 20.3297 79.4875 20.2696 79.9169C20.2181 80.3463 20.1235 80.7584 19.9947 81.162C19.8659 81.5657 19.7028 81.9436 19.5053 82.2957C19.3078 82.6477 19.0588 82.9569 18.7754 83.2145C18.4834 83.4721 18.1484 83.6868 17.762 83.8328C17.3755 83.9873 16.9375 84.0646 16.4395 84.0646C15.9414 84.0646 15.5121 83.9873 15.1257 83.8328C14.7392 83.6782 14.4043 83.4721 14.1123 83.2145C13.8203 82.9569 13.5713 82.6477 13.3652 82.2957C13.1591 81.9436 12.9959 81.5657 12.8671 81.162C12.7383 80.7584 12.6438 80.3463 12.5837 79.9169C12.5236 79.4875 12.4892 79.0667 12.4892 78.646V76.2844C12.4892 75.8722 12.515 75.4514 12.5751 75.022C12.6352 74.5926 12.7297 74.1718 12.8499 73.7682C12.9788 73.3646 13.1419 72.9868 13.348 72.6347C13.5541 72.2826 13.7945 71.9734 14.0865 71.7071C14.3785 71.4409 14.7134 71.2348 15.0999 71.0803C15.4863 70.9257 15.9242 70.8484 16.4223 70.8484C16.9204 70.8484 17.3584 70.9257 17.7448 71.0803C18.1312 71.2348 18.4662 71.4409 18.7582 71.6985C19.0501 71.9648 19.2906 72.2654 19.4967 72.6175C19.7028 72.9696 19.8659 73.3474 19.9947 73.751C20.1235 74.1546 20.2181 74.5669 20.2696 74.9962C20.3211 75.4256 20.3554 75.8464 20.364 76.2672V78.646ZM12.9702 78.6288C12.9702 78.9379 12.9873 79.247 13.0216 79.5562C13.056 79.8739 13.1076 80.1831 13.1849 80.4923L19.5825 74.043C19.4795 73.6738 19.3335 73.3216 19.1618 72.9953C18.9814 72.669 18.7667 72.377 18.5091 72.1279C18.2515 71.8789 17.9509 71.6814 17.6074 71.544C17.2639 71.398 16.8688 71.3293 16.4223 71.3293C15.9757 71.3293 15.5807 71.398 15.2372 71.544C14.8937 71.6814 14.5932 71.879 14.3442 72.1194C14.0865 72.3599 13.8718 72.6519 13.7001 72.9782C13.5283 73.3045 13.3824 73.6566 13.2793 74.0173C13.1763 74.3865 13.099 74.7643 13.0474 75.1508C12.9959 75.5372 12.9702 75.9151 12.9702 76.2844V78.6288ZM19.8831 76.2844C19.8831 76.001 19.8574 75.7176 19.8316 75.4256C19.8059 75.1336 19.7629 74.8417 19.7028 74.5583L13.3136 80.9989C13.4252 81.351 13.5712 81.6859 13.743 82.0036C13.9233 82.3213 14.138 82.5962 14.387 82.8281C14.6447 83.0599 14.9367 83.2489 15.2716 83.3863C15.6065 83.5237 15.9929 83.5924 16.4309 83.5924C16.8688 83.5924 17.2639 83.5237 17.6074 83.3777C17.9509 83.2317 18.2515 83.0427 18.5005 82.7937C18.7495 82.5532 18.9642 82.2613 19.1446 81.9349C19.3163 81.6086 19.4623 81.2651 19.5653 80.8959C19.6684 80.5266 19.7457 80.1487 19.7972 79.7623C19.8402 79.3758 19.8745 78.998 19.8745 78.6288V76.2844H19.8831Z" fill="#F4F2F2"/>
<path d="M31.2092 78.646C31.2092 79.0667 31.1748 79.4875 31.1147 79.9169C31.0546 80.3463 30.9687 80.7584 30.8399 81.162C30.711 81.5657 30.5479 81.9436 30.3504 82.2957C30.1529 82.6477 29.9038 82.9569 29.6204 83.2145C29.3284 83.4721 28.9936 83.6868 28.6071 83.8328C28.2207 83.9873 27.7827 84.0646 27.2846 84.0646C26.7865 84.0646 26.3571 83.9873 25.9707 83.8328C25.5842 83.6782 25.2494 83.4721 24.9574 83.2145C24.6654 82.9569 24.4164 82.6477 24.2103 82.2957C24.0042 81.9436 23.8411 81.5657 23.7123 81.162C23.5834 80.7584 23.4889 80.3463 23.4288 79.9169C23.3687 79.4875 23.3344 79.0667 23.3344 78.646V76.2844C23.3344 75.8722 23.3601 75.4514 23.4202 75.022C23.4803 74.5926 23.5748 74.1718 23.6951 73.7682C23.8239 73.3646 23.987 72.9868 24.1931 72.6347C24.3992 72.2826 24.6396 71.9734 24.9316 71.7071C25.2236 71.4409 25.5586 71.2348 25.945 71.0803C26.3314 70.9257 26.7693 70.8484 27.2674 70.8484C27.7655 70.8484 28.2035 70.9257 28.5899 71.0803C28.9764 71.2348 29.3113 71.4409 29.6033 71.6985C29.8953 71.9648 30.1357 72.2654 30.3418 72.6175C30.5479 72.9696 30.711 73.3474 30.8399 73.751C30.9687 74.1546 31.0632 74.5669 31.1147 74.9962C31.1662 75.4256 31.2006 75.8464 31.2092 76.2672V78.646ZM23.8153 78.6288C23.8153 78.9379 23.8324 79.247 23.8668 79.5562C23.9011 79.8739 23.9527 80.1831 24.03 80.4923L30.4277 74.043C30.3246 73.6738 30.1786 73.3216 30.0069 72.9953C29.8265 72.669 29.6119 72.377 29.3542 72.1279C29.0966 71.8789 28.796 71.6814 28.4525 71.544C28.109 71.398 27.714 71.3293 27.2674 71.3293C26.8209 71.3293 26.4258 71.398 26.0823 71.544C25.7388 71.6814 25.4383 71.879 25.1893 72.1194C24.9317 72.3599 24.717 72.6519 24.5452 72.9782C24.3735 73.3045 24.2275 73.6566 24.1244 74.0173C24.0214 74.3865 23.9441 74.7643 23.8926 75.1508C23.841 75.5372 23.8153 75.9151 23.8153 76.2844V78.6288ZM30.7282 76.2844C30.7282 76.001 30.7025 75.7176 30.6767 75.4256C30.651 75.1336 30.608 74.8417 30.5479 74.5583L24.1587 80.9989C24.2704 81.351 24.4163 81.6859 24.5881 82.0036C24.7684 82.3213 24.9831 82.5962 25.2322 82.8281C25.4812 83.0599 25.7818 83.2489 26.1167 83.3863C26.4516 83.5237 26.838 83.5924 27.276 83.5924C27.714 83.5924 28.109 83.5237 28.4525 83.3777C28.796 83.2317 29.0966 83.0427 29.3456 82.7937C29.5947 82.5532 29.8094 82.2613 29.9897 81.9349C30.1614 81.6086 30.3074 81.2651 30.4105 80.8959C30.5135 80.5266 30.5908 80.1487 30.6424 79.7623C30.6853 79.3758 30.7196 78.998 30.7196 78.6288V76.2844H30.7282Z" fill="#F4F2F2"/>
<path d="M9.12438 119.102H1.43857V118.63L5.64649 113.778C5.89553 113.486 6.15317 113.186 6.41939 112.859C6.69419 112.533 6.93464 112.198 7.1665 111.837C7.38978 111.477 7.57862 111.107 7.72461 110.721C7.87059 110.335 7.94789 109.94 7.94789 109.536C7.94789 109.072 7.87069 108.651 7.71611 108.282C7.56154 107.913 7.33825 107.604 7.06345 107.346C6.78006 107.088 6.45371 106.891 6.06727 106.762C5.68083 106.625 5.26866 106.556 4.81352 106.556C4.33262 106.556 3.90323 106.642 3.51679 106.822C3.13035 107.003 2.7954 107.243 2.51201 107.544C2.22862 107.844 2.01392 108.196 1.85076 108.6C1.68759 109.004 1.60177 109.433 1.5846 109.888H1.10364C1.12082 109.373 1.22385 108.883 1.40419 108.42C1.58452 107.956 1.84216 107.552 2.16849 107.209C2.49482 106.865 2.87274 106.59 3.3193 106.384C3.76585 106.178 4.25531 106.084 4.79633 106.084C5.33734 106.084 5.80102 106.161 6.24757 106.316C6.68554 106.47 7.07205 106.702 7.39838 107.003C7.72471 107.303 7.97364 107.664 8.15398 108.093C8.33432 108.523 8.42025 109.004 8.42025 109.536C8.42025 109.991 8.33433 110.438 8.16258 110.867C7.99083 111.296 7.77613 111.709 7.50992 112.112C7.25229 112.516 6.96891 112.894 6.65976 113.263C6.35061 113.632 6.05871 113.976 5.77532 114.293L2.04825 118.639H9.10729V119.111L9.12438 119.102Z" fill="#F4F2F2"/>
<path d="M20.367 113.855C20.367 114.276 20.3327 114.697 20.2726 115.126C20.221 115.556 20.1265 115.968 19.9977 116.371C19.8689 116.775 19.7058 117.153 19.5083 117.505C19.3107 117.857 19.0617 118.166 18.7783 118.424C18.4864 118.681 18.1514 118.896 17.765 119.042C17.3785 119.197 16.9405 119.274 16.4425 119.274C15.9444 119.274 15.5151 119.197 15.1286 119.042C14.7422 118.888 14.4072 118.681 14.1153 118.424C13.8233 118.166 13.5742 117.857 13.3681 117.505C13.162 117.153 12.9989 116.775 12.8701 116.371C12.7413 115.968 12.6468 115.556 12.5867 115.126C12.5265 114.697 12.4922 114.276 12.4922 113.855V111.494C12.4922 111.082 12.5179 110.661 12.5781 110.231C12.6382 109.802 12.7327 109.381 12.8529 108.978C12.9817 108.574 13.1449 108.196 13.351 107.844C13.5571 107.492 13.7975 107.183 14.0895 106.917C14.3814 106.65 14.7164 106.444 15.1028 106.29C15.4893 106.135 15.9272 106.058 16.4253 106.058C16.9233 106.058 17.3613 106.135 17.7478 106.29C18.1342 106.444 18.4692 106.65 18.7612 106.908C19.0531 107.174 19.2936 107.475 19.4997 107.827C19.7058 108.179 19.8689 108.557 19.9977 108.96C20.1265 109.364 20.221 109.776 20.2726 110.206C20.3241 110.635 20.3584 111.056 20.367 111.477V113.855ZM12.9732 113.838C12.9732 114.147 12.9903 114.456 13.0246 114.766C13.059 115.083 13.1106 115.393 13.1878 115.702L19.5855 109.252C19.4825 108.883 19.3365 108.531 19.1647 108.205C18.9844 107.878 18.7697 107.586 18.5121 107.337C18.2545 107.088 17.9538 106.891 17.6103 106.753C17.2668 106.607 16.8718 106.539 16.4253 106.539C15.9787 106.539 15.5837 106.607 15.2402 106.753C14.8967 106.891 14.5962 107.088 14.3471 107.329C14.0895 107.569 13.8748 107.861 13.7031 108.188C13.5313 108.514 13.3853 108.866 13.2823 109.227C13.1792 109.596 13.1019 109.974 13.0504 110.36C12.9989 110.747 12.9732 111.124 12.9732 111.494V113.838ZM19.8861 111.494C19.8861 111.21 19.8604 110.927 19.8346 110.635C19.8088 110.343 19.7659 110.051 19.7058 109.768L13.3166 116.208C13.4282 116.56 13.5742 116.895 13.7459 117.213C13.9263 117.531 14.141 117.806 14.39 118.037C14.6476 118.269 14.9396 118.458 15.2746 118.596C15.6095 118.733 15.9959 118.802 16.4339 118.802C16.8718 118.802 17.2668 118.733 17.6103 118.587C17.9538 118.441 18.2544 118.252 18.5035 118.003C18.7525 117.763 18.9672 117.471 19.1475 117.144C19.3193 116.818 19.4653 116.475 19.5683 116.105C19.6714 115.736 19.7487 115.358 19.8002 114.972C19.8431 114.585 19.8775 114.207 19.8775 113.838V111.494H19.8861Z" fill="#F4F2F2"/>
<path d="M31.2121 113.855C31.2121 114.276 31.1778 114.697 31.1177 115.126C31.0576 115.556 30.9716 115.968 30.8428 116.371C30.714 116.775 30.5509 117.153 30.3534 117.505C30.1559 117.857 29.9068 118.166 29.6234 118.424C29.3314 118.681 28.9965 118.896 28.6101 119.042C28.2237 119.197 27.7857 119.274 27.2876 119.274C26.7895 119.274 26.3601 119.197 25.9737 119.042C25.5872 118.888 25.2524 118.681 24.9604 118.424C24.6684 118.166 24.4194 117.857 24.2133 117.505C24.0072 117.153 23.844 116.775 23.7152 116.371C23.5864 115.968 23.4919 115.556 23.4318 115.126C23.3717 114.697 23.3373 114.276 23.3373 113.855V111.494C23.3373 111.082 23.3631 110.661 23.4232 110.231C23.4833 109.802 23.5778 109.381 23.698 108.978C23.8269 108.574 23.99 108.196 24.1961 107.844C24.4022 107.492 24.6426 107.183 24.9346 106.917C25.2266 106.65 25.5615 106.444 25.948 106.29C26.3344 106.135 26.7723 106.058 27.2704 106.058C27.7685 106.058 28.2065 106.135 28.5929 106.29C28.9793 106.444 29.3143 106.65 29.6063 106.908C29.8983 107.174 30.1387 107.475 30.3448 107.827C30.5509 108.179 30.714 108.557 30.8428 108.96C30.9716 109.364 31.0662 109.776 31.1177 110.206C31.1692 110.635 31.2036 111.056 31.2121 111.477V113.855ZM23.8183 113.838C23.8183 114.147 23.8354 114.456 23.8698 114.766C23.9041 115.083 23.9557 115.393 24.033 115.702L30.4306 109.252C30.3276 108.883 30.1816 108.531 30.0099 108.205C29.8295 107.878 29.6148 107.586 29.3572 107.337C29.0996 107.088 28.799 106.891 28.4555 106.753C28.112 106.607 27.7169 106.539 27.2704 106.539C26.8238 106.539 26.4288 106.607 26.0853 106.753C25.7418 106.891 25.4413 107.088 25.1923 107.329C24.9346 107.569 24.72 107.861 24.5482 108.188C24.3765 108.514 24.2305 108.866 24.1274 109.227C24.0244 109.596 23.9471 109.974 23.8955 110.36C23.844 110.747 23.8183 111.124 23.8183 111.494V113.838ZM30.7312 111.494C30.7312 111.21 30.7055 110.927 30.6797 110.635C30.654 110.343 30.611 110.051 30.5509 109.768L24.1617 116.208C24.2733 116.56 24.4193 116.895 24.5911 117.213C24.7714 117.531 24.9861 117.806 25.2351 118.037C25.4842 118.269 25.7848 118.458 26.1197 118.596C26.4546 118.733 26.841 118.802 27.279 118.802C27.7169 118.802 28.112 118.733 28.4555 118.587C28.799 118.441 29.0996 118.252 29.3486 118.003C29.5976 117.763 29.8123 117.471 29.9927 117.144C30.1644 116.818 30.3104 116.475 30.4135 116.105C30.5165 115.736 30.5938 115.358 30.6453 114.972C30.6883 114.585 30.7226 114.207 30.7226 113.838V111.494H30.7312Z" fill="#F4F2F2"/>
<path d="M6.40088 154.311H5.91133V142.074L2.14998 143.834V143.302L6.22907 141.455H6.40088V154.311Z" fill="#F4F2F2"/>
<path d="M20.3634 149.064C20.3634 149.485 20.3291 149.906 20.2689 150.335C20.2174 150.764 20.1229 151.177 19.9941 151.58C19.8653 151.984 19.7022 152.362 19.5046 152.714C19.3071 153.066 19.0581 153.375 18.7747 153.633C18.4827 153.89 18.1478 154.105 17.7613 154.251C17.3749 154.406 16.9369 154.483 16.4388 154.483C15.9408 154.483 15.5115 154.406 15.125 154.251C14.7386 154.096 14.4036 153.89 14.1116 153.633C13.8197 153.375 13.5706 153.066 13.3645 152.714C13.1584 152.362 12.9953 151.984 12.8665 151.58C12.7377 151.177 12.6431 150.764 12.583 150.335C12.5229 149.906 12.4886 149.485 12.4886 149.064V146.703C12.4886 146.29 12.5143 145.87 12.5744 145.44C12.6345 145.011 12.7291 144.59 12.8493 144.186C12.9781 143.783 13.1412 143.405 13.3473 143.053C13.5534 142.701 13.7939 142.392 14.0858 142.125C14.3778 141.859 14.7128 141.653 15.0992 141.498C15.4857 141.344 15.9236 141.267 16.4216 141.267C16.9197 141.267 17.3577 141.344 17.7442 141.498C18.1306 141.653 18.4655 141.859 18.7575 142.117C19.0495 142.383 19.2899 142.684 19.496 143.036C19.7021 143.388 19.8653 143.766 19.9941 144.169C20.1229 144.573 20.2174 144.985 20.2689 145.414C20.3205 145.844 20.3548 146.265 20.3634 146.685V149.064ZM12.9695 149.047C12.9695 149.356 12.9867 149.665 13.021 149.974C13.0554 150.292 13.1069 150.601 13.1842 150.911L19.5819 144.461C19.4788 144.092 19.3329 143.74 19.1611 143.413C18.9808 143.087 18.7661 142.795 18.5085 142.546C18.2508 142.297 17.9502 142.1 17.6067 141.962C17.2632 141.816 16.8682 141.748 16.4216 141.748C15.9751 141.748 15.5801 141.816 15.2366 141.962C14.893 142.1 14.5926 142.297 14.3435 142.538C14.0859 142.778 13.8712 143.07 13.6995 143.396C13.5277 143.723 13.3817 144.075 13.2787 144.435C13.1756 144.805 13.0983 145.183 13.0468 145.569C12.9953 145.955 12.9695 146.333 12.9695 146.703V149.047ZM19.8824 146.703C19.8824 146.419 19.8567 146.136 19.831 145.844C19.8052 145.552 19.7622 145.26 19.7021 144.976L13.3129 151.417C13.4246 151.769 13.5706 152.104 13.7423 152.422C13.9227 152.74 14.1374 153.014 14.3864 153.246C14.644 153.478 14.936 153.667 15.2709 153.805C15.6058 153.942 15.9923 154.011 16.4302 154.011C16.8682 154.011 17.2632 153.942 17.6067 153.796C17.9502 153.65 18.2508 153.461 18.4999 153.212C18.7489 152.971 18.9636 152.679 19.1439 152.353C19.3157 152.027 19.4617 151.683 19.5647 151.314C19.6678 150.945 19.7451 150.567 19.7966 150.18C19.8395 149.794 19.8738 149.416 19.8738 149.047V146.703H19.8824Z" fill="#F4F2F2"/>
<path d="M31.2119 149.064C31.2119 149.485 31.1775 149.906 31.1174 150.335C31.0573 150.764 30.9714 151.177 30.8426 151.58C30.7138 151.984 30.5506 152.362 30.3531 152.714C30.1556 153.066 29.9065 153.375 29.6231 153.633C29.3311 153.89 28.9963 154.105 28.6098 154.251C28.2234 154.406 27.7854 154.483 27.2873 154.483C26.7892 154.483 26.3598 154.406 25.9734 154.251C25.587 154.096 25.2521 153.89 24.9601 153.633C24.6681 153.375 24.4191 153.066 24.213 152.714C24.0069 152.362 23.8438 151.984 23.715 151.58C23.5862 151.177 23.4916 150.764 23.4315 150.335C23.3714 149.906 23.3371 149.485 23.3371 149.064V146.703C23.3371 146.29 23.3628 145.87 23.4229 145.44C23.483 145.011 23.5775 144.59 23.6978 144.186C23.8266 143.783 23.9897 143.405 24.1958 143.053C24.4019 142.701 24.6424 142.392 24.9343 142.125C25.2263 141.859 25.5613 141.653 25.9477 141.498C26.3341 141.344 26.772 141.267 27.2701 141.267C27.7682 141.267 28.2062 141.344 28.5926 141.498C28.9791 141.653 29.314 141.859 29.606 142.117C29.898 142.383 30.1384 142.684 30.3445 143.036C30.5506 143.388 30.7138 143.766 30.8426 144.169C30.9714 144.573 31.0659 144.985 31.1174 145.414C31.1689 145.844 31.2033 146.265 31.2119 146.685V149.064ZM23.818 149.047C23.818 149.356 23.8351 149.665 23.8695 149.974C23.9038 150.292 23.9554 150.601 24.0327 150.911L30.4304 144.461C30.3273 144.092 30.1813 143.74 30.0096 143.413C29.8293 143.087 29.6146 142.795 29.3569 142.546C29.0993 142.297 28.7987 142.1 28.4552 141.962C28.1117 141.816 27.7167 141.748 27.2701 141.748C26.8236 141.748 26.4285 141.816 26.085 141.962C25.7415 142.1 25.441 142.297 25.192 142.538C24.9344 142.778 24.7197 143.07 24.5479 143.396C24.3762 143.723 24.2302 144.075 24.1272 144.435C24.0241 144.805 23.9468 145.183 23.8953 145.569C23.8437 145.955 23.818 146.333 23.818 146.703V149.047ZM30.7309 146.703C30.7309 146.419 30.7052 146.136 30.6795 145.844C30.6537 145.552 30.6107 145.26 30.5506 144.976L24.1614 151.417C24.2731 151.769 24.4191 152.104 24.5908 152.422C24.7711 152.74 24.9858 153.014 25.2349 153.246C25.4839 153.478 25.7845 153.667 26.1194 153.805C26.4543 153.942 26.8407 154.011 27.2787 154.011C27.7167 154.011 28.1117 153.942 28.4552 153.796C28.7987 153.65 29.0993 153.461 29.3483 153.212C29.5974 152.971 29.8121 152.679 29.9924 152.353C30.1642 152.027 30.3101 151.683 30.4132 151.314C30.5162 150.945 30.5935 150.567 30.6451 150.18C30.688 149.794 30.7223 149.416 30.7223 149.047V146.703H30.7309Z" fill="#F4F2F2"/>
<path d="M48.139 182.444V192.32H47.2797V182.444H48.139Z" fill="#4D4D4D"/>
<path d="M47.495 181.799V182.659H37.619V181.799H47.495Z" fill="#4D4D4D"/>
<path d="M47.495 110.78V111.64H37.619V110.78H47.495Z" fill="#4D4D4D"/>
<path d="M47.495 39.7611V40.6205H37.619V39.7611H47.495Z" fill="#4D4D4D"/>
<path d="M47.495 75.2707V76.1301H37.619V75.2707H47.495Z" fill="#4D4D4D"/>
<path d="M47.495 146.289V147.149H37.619V146.289H47.495Z" fill="#4D4D4D"/>
<path d="M47.495 4.25198V5.11135H37.619V4.25198H47.495Z" fill="#4D4D4D"/>
<path d="M68.5369 4.28672H47.5919V182.453H68.5369V4.28672Z" fill="#565656"/>
<path d="M92.8302 32.0675H71.8852V182.453H92.8302V32.0675Z" fill="#565656"/>
<path d="M117.124 66.5464H96.1786V182.444H117.124V66.5464Z" fill="#565656"/>
<path d="M141.427 49.3026H120.482V182.444H141.427V49.3026Z" fill="#565656"/>
<path d="M165.724 88.5734H144.779V182.444H165.724V88.5734Z" fill="#565656"/>
<path d="M189.759 43.2401H168.814V182.444H189.759V43.2401Z" fill="#FF5900"/>
<path d="M214.052 66.2286H193.107V182.452H214.052V66.2286Z" fill="#565656"/>
<path d="M238.345 17.3743H217.4V182.444H238.345V17.3743Z" fill="#565656"/>
<path d="M262.649 28.2287H241.704V182.444H262.649V28.2287Z" fill="#565656"/>
<path d="M286.942 141.258H265.997V182.444H286.942V141.258Z" fill="#565656"/>
</svg>
