<svg width="293" height="219" viewBox="0 0 293 219" fill="none" xmlns="http://www.w3.org/2000/svg">
<path d="M118.957 199.484C119.522 188.332 110.94 178.833 99.7875 178.268C88.6353 177.703 79.1366 186.286 78.5716 197.438C78.0067 208.59 86.5894 218.089 97.7416 218.654C108.894 219.219 118.392 210.636 118.957 199.484Z" fill="#FF5900"/>
<path d="M17.4638 63.7535H15.8237V52.9565L12.4497 54.2378V52.7429L17.3271 50.8637H17.4638V63.7535Z" fill="white"/>
<path d="M64.8561 63.7534H56.4166V62.5746L60.6364 57.8851C61.0123 57.4665 61.3283 57.0907 61.5846 56.7661C61.8408 56.4415 62.0458 56.1425 62.191 55.8691C62.3448 55.5958 62.4558 55.3395 62.5156 55.0918C62.5839 54.8441 62.6096 54.5964 62.6096 54.3316C62.6096 54.0155 62.5584 53.7166 62.4559 53.4347C62.3534 53.1528 62.1996 52.9136 62.0031 52.7086C61.8067 52.5036 61.5675 52.3413 61.2856 52.2132C61.0037 52.0936 60.6876 52.0338 60.3374 52.0338C59.9103 52.0338 59.5345 52.0936 59.2184 52.2217C58.9024 52.3499 58.6375 52.5207 58.4325 52.7513C58.219 52.982 58.0653 53.2553 57.9628 53.5799C57.8603 53.9045 57.809 54.2633 57.809 54.6647H56.1605C56.1605 54.118 56.2544 53.6141 56.4423 53.1272C56.6302 52.6488 56.9035 52.2302 57.2623 51.8629C57.6211 51.5042 58.0567 51.2138 58.5692 51.0088C59.0818 50.7952 59.6711 50.6927 60.3374 50.6927C60.9439 50.6927 61.4906 50.7781 61.9775 50.966C62.4644 51.1454 62.8744 51.3931 63.2076 51.7092C63.5407 52.0253 63.8054 52.4011 63.9848 52.8453C64.1642 53.2809 64.2582 53.7593 64.2582 54.2718C64.2582 54.6562 64.1899 55.032 64.0618 55.4079C63.9336 55.7837 63.7543 56.151 63.5322 56.5183C63.3101 56.8856 63.0538 57.2444 62.7634 57.6032C62.4729 57.9619 62.1654 58.3121 61.8408 58.6709L58.3813 62.4208H64.8475V63.7534H64.8561Z" fill="white"/>
<path d="M103.653 56.5187H104.823C105.233 56.5187 105.6 56.4589 105.916 56.3478C106.232 56.2368 106.497 56.0831 106.711 55.8866C106.924 55.6901 107.086 55.4595 107.206 55.1861C107.317 54.9128 107.377 54.6138 107.377 54.2892C107.377 53.5376 107.189 52.9738 106.804 52.598C106.42 52.2136 105.865 52.0256 105.122 52.0256C104.771 52.0256 104.455 52.0769 104.174 52.1794C103.892 52.2819 103.644 52.4271 103.439 52.6236C103.234 52.82 103.08 53.0507 102.969 53.324C102.858 53.5973 102.798 53.8963 102.798 54.238H101.15C101.15 53.7511 101.244 53.2898 101.44 52.8542C101.628 52.4186 101.901 52.0427 102.252 51.7181C102.602 51.3935 103.02 51.1458 103.507 50.9579C103.994 50.7699 104.532 50.676 105.13 50.676C105.728 50.676 106.232 50.7529 106.711 50.9066C107.189 51.0604 107.599 51.291 107.941 51.5985C108.282 51.906 108.547 52.2819 108.735 52.7432C108.923 53.1959 109.017 53.7255 109.017 54.3149C109.017 54.5626 108.983 54.8188 108.906 55.0836C108.829 55.3484 108.709 55.6047 108.556 55.861C108.393 56.1087 108.188 56.3478 107.941 56.5699C107.693 56.792 107.394 56.9714 107.044 57.1252C107.462 57.2619 107.812 57.4412 108.094 57.6548C108.376 57.8769 108.598 58.116 108.769 58.3894C108.94 58.6627 109.051 58.9446 109.119 59.2436C109.188 59.5425 109.222 59.8415 109.222 60.1405C109.222 60.7384 109.119 61.2765 108.914 61.7378C108.709 62.2076 108.419 62.6005 108.06 62.9166C107.693 63.2412 107.266 63.4804 106.762 63.6512C106.266 63.8221 105.728 63.8989 105.147 63.8989C104.567 63.8989 104.045 63.822 103.55 63.6597C103.055 63.4974 102.619 63.2669 102.252 62.9593C101.884 62.6518 101.594 62.276 101.38 61.8318C101.167 61.3876 101.056 60.8836 101.056 60.3199H102.696C102.696 60.653 102.756 60.9605 102.867 61.2424C102.978 61.5157 103.149 61.7549 103.354 61.9513C103.567 62.1478 103.823 62.2931 104.131 62.4041C104.438 62.5066 104.772 62.5664 105.147 62.5664C105.523 62.5664 105.856 62.5152 106.155 62.4212C106.454 62.3272 106.711 62.1735 106.924 61.977C107.138 61.7805 107.3 61.5243 107.42 61.2339C107.539 60.9434 107.59 60.5847 107.59 60.1747C107.59 59.7646 107.522 59.4315 107.394 59.1325C107.257 58.8421 107.078 58.5944 106.839 58.4065C106.599 58.21 106.309 58.0648 105.967 57.9708C105.626 57.8769 105.258 57.8256 104.848 57.8256H103.678V56.5016L103.653 56.5187Z" fill="white"/>
<path d="M154.971 59.4228V60.7553H153.178V63.745H151.538V60.7553H145.661V59.7901L151.427 50.8637H153.169V59.4228H154.971ZM147.48 59.4228H151.538V53.0419L151.273 53.5373L147.48 59.4228Z" fill="white"/>
<path d="M191.917 57.2873L192.566 50.8637H199.177V52.4525H193.95L193.591 55.8864C193.847 55.7412 194.146 55.613 194.505 55.4934C194.855 55.3824 195.265 55.3226 195.735 55.3226C196.333 55.3226 196.862 55.4251 197.332 55.6301C197.802 55.8351 198.204 56.1256 198.537 56.5014C198.87 56.8773 199.118 57.33 199.297 57.8596C199.476 58.3892 199.562 58.9786 199.562 59.6278C199.562 60.2428 199.476 60.8065 199.314 61.3361C199.152 61.8572 198.895 62.3099 198.562 62.6943C198.229 63.0787 197.811 63.3691 197.298 63.5912C196.794 63.8048 196.196 63.9158 195.513 63.9158C194.992 63.9158 194.496 63.8389 194.026 63.6937C193.557 63.5485 193.147 63.3264 192.779 63.0274C192.421 62.7285 192.122 62.3612 191.882 61.9084C191.652 61.4643 191.507 60.9347 191.447 60.3453H193.001C193.104 61.0799 193.369 61.6351 193.813 62.0109C194.249 62.3868 194.821 62.5747 195.504 62.5747C195.897 62.5747 196.239 62.5064 196.538 62.3697C196.837 62.2331 197.093 62.0366 197.298 61.7803C197.503 61.5241 197.657 61.2166 197.759 60.8578C197.862 60.499 197.913 60.0976 197.913 59.6534C197.913 59.2519 197.853 58.8761 197.742 58.5259C197.631 58.1756 197.46 57.8767 197.247 57.6204C197.025 57.3642 196.76 57.1591 196.444 57.0139C196.128 56.8687 195.761 56.7918 195.351 56.7918C195.077 56.7918 194.847 56.8089 194.65 56.8516C194.454 56.8858 194.274 56.9456 194.112 57.0139C193.95 57.0823 193.804 57.1677 193.668 57.2702C193.531 57.3727 193.386 57.4837 193.241 57.6119L191.934 57.2787L191.917 57.2873Z" fill="white"/>
<path d="M242.161 52.3243H242.016C241.469 52.3243 240.991 52.3842 240.564 52.4952C240.137 52.6062 239.761 52.76 239.436 52.9564C239.112 53.1529 238.83 53.3835 238.599 53.6483C238.369 53.9131 238.172 54.2121 238.018 54.5282C237.865 54.8442 237.745 55.1774 237.668 55.5276C237.583 55.8778 237.531 56.228 237.506 56.5868C237.66 56.4074 237.839 56.2366 238.035 56.0743C238.232 55.9205 238.454 55.7838 238.685 55.6642C238.915 55.5532 239.172 55.4592 239.436 55.3909C239.701 55.3225 239.983 55.2884 240.282 55.2884C240.923 55.2884 241.478 55.408 241.948 55.6557C242.409 55.9034 242.793 56.2195 243.101 56.6209C243.4 57.0224 243.622 57.4751 243.767 57.9877C243.912 58.4916 243.981 59.0127 243.981 59.5338C243.981 60.1317 243.895 60.704 243.733 61.2336C243.562 61.7632 243.314 62.233 242.973 62.6259C242.64 63.0274 242.221 63.3349 241.717 63.5655C241.222 63.7962 240.641 63.9072 239.983 63.9072C239.513 63.9072 239.095 63.8389 238.702 63.7022C238.317 63.5656 237.967 63.3862 237.66 63.147C237.352 62.9163 237.087 62.6345 236.857 62.3184C236.626 62.0024 236.438 61.6607 236.284 61.2934C236.131 60.9261 236.02 60.5502 235.943 60.1488C235.866 59.7558 235.832 59.3543 235.832 58.9614V58.1927C235.832 57.6033 235.866 57.0139 235.943 56.4159C236.02 55.8265 236.139 55.2542 236.319 54.7161C236.498 54.1694 236.737 53.6654 237.036 53.1871C237.335 52.7087 237.719 52.2987 238.172 51.9485C238.633 51.5983 239.172 51.3249 239.804 51.1285C240.436 50.932 241.17 50.8295 242.016 50.8295H242.161V52.3243ZM240.017 56.6637C239.744 56.6637 239.471 56.7064 239.214 56.8003C238.958 56.8857 238.71 57.0139 238.488 57.1762C238.266 57.3385 238.07 57.5264 237.899 57.7485C237.728 57.9706 237.591 58.2183 237.489 58.4916V59.0383C237.489 59.6021 237.557 60.1061 237.694 60.5502C237.83 60.9859 238.01 61.3617 238.24 61.6607C238.471 61.9597 238.736 62.1903 239.035 62.344C239.334 62.4978 239.65 62.5747 239.983 62.5747C240.367 62.5747 240.709 62.4978 240.999 62.3526C241.29 62.2074 241.546 62.0023 241.743 61.7461C241.948 61.4898 242.101 61.1738 242.204 60.815C242.306 60.4563 242.358 60.0548 242.358 59.6363C242.358 59.2604 242.315 58.8931 242.221 58.5343C242.127 58.1755 241.982 57.8595 241.785 57.5862C241.589 57.3128 241.35 57.0908 241.051 56.9199C240.76 56.7576 240.41 56.6722 240.017 56.6722V56.6637Z" fill="white"/>
<path d="M289.081 51.786L283.742 63.7533H282.025L287.347 52.3071H280.377V50.8721H289.081V51.7946V51.786Z" fill="white"/>
<path d="M20.0874 89.3457C20.0874 89.9863 19.908 90.5587 19.5664 91.0626C19.2247 91.5666 18.7634 91.9595 18.1911 92.2414C18.5243 92.3866 18.8233 92.5575 19.0881 92.771C19.3529 92.9846 19.5834 93.2238 19.7799 93.4886C19.9678 93.7619 20.1216 94.0523 20.2241 94.3769C20.3266 94.693 20.3779 95.0346 20.3779 95.3934C20.3779 95.9743 20.2669 96.4953 20.0533 96.9481C19.8398 97.4008 19.5493 97.7852 19.1735 98.0927C18.8062 98.4002 18.3705 98.6393 17.8751 98.8016C17.3796 98.9639 16.8501 99.0408 16.2863 99.0408C15.7225 99.0408 15.1673 98.9639 14.6718 98.8016C14.1764 98.6393 13.7408 98.4087 13.3734 98.1012C13.0061 97.7937 12.7157 97.4093 12.5022 96.9566C12.2886 96.5039 12.1861 95.9828 12.1861 95.3934C12.1861 95.0346 12.2374 94.693 12.3399 94.3684C12.4424 94.0438 12.5876 93.7534 12.7756 93.48C12.9635 93.2152 13.1942 92.9675 13.459 92.7625C13.7238 92.5489 14.0227 92.3696 14.3558 92.2329C14.0739 92.0877 13.8176 91.9254 13.587 91.7204C13.3564 91.5239 13.16 91.3018 13.0062 91.0541C12.8439 90.8064 12.7243 90.5416 12.6303 90.2511C12.5449 89.9607 12.4937 89.6618 12.4937 89.3372C12.4937 88.7734 12.5876 88.278 12.7756 87.8338C12.9635 87.3982 13.2283 87.0223 13.5615 86.7233C13.8946 86.4243 14.296 86.1937 14.7572 86.0314C15.2185 85.8691 15.7225 85.7923 16.2777 85.7923C16.833 85.7923 17.3284 85.8691 17.7897 86.0314C18.2595 86.1937 18.661 86.4243 19.0027 86.7233C19.3443 87.0223 19.6091 87.3982 19.8056 87.8338C20.002 88.2694 20.096 88.7734 20.096 89.3372L20.0874 89.3457ZM18.7464 95.3507C18.7464 94.992 18.6866 94.6588 18.567 94.3598C18.4474 94.0608 18.2765 93.8046 18.0544 93.5825C17.8323 93.369 17.5761 93.1981 17.2686 93.0785C16.9611 92.9589 16.6365 92.8992 16.2692 92.8992C15.9019 92.8992 15.5603 92.9589 15.2613 93.0785C14.9623 93.1981 14.706 93.3604 14.4925 93.5825C14.2789 93.7961 14.1166 94.0523 13.997 94.3598C13.8859 94.6588 13.8262 94.992 13.8262 95.3507C13.8262 95.7095 13.8859 96.0511 13.997 96.3501C14.108 96.6405 14.2789 96.8882 14.4925 97.0933C14.706 97.2897 14.9623 97.4435 15.2698 97.5546C15.5774 97.6571 15.9104 97.7169 16.2948 97.7169C16.6792 97.7169 16.9868 97.6656 17.2857 97.5546C17.5847 97.452 17.8409 97.2983 18.063 97.0933C18.2765 96.8968 18.4474 96.6491 18.567 96.3501C18.6866 96.0597 18.7464 95.7266 18.7464 95.3507ZM18.4389 89.3713C18.4389 89.0468 18.3876 88.7478 18.2765 88.4745C18.1655 88.2011 18.0203 87.9705 17.8239 87.774C17.6274 87.5775 17.4053 87.4238 17.1405 87.3127C16.8757 87.2017 16.5852 87.1504 16.2606 87.1504C15.936 87.1504 15.6541 87.2017 15.3893 87.3042C15.1331 87.4067 14.9025 87.5519 14.7146 87.7484C14.5267 87.9448 14.3814 88.1755 14.2789 88.4488C14.1764 88.7221 14.1251 89.0297 14.1251 89.3628C14.1251 89.6959 14.1764 90.0034 14.2789 90.2682C14.3814 90.533 14.5267 90.7637 14.7231 90.9601C14.9111 91.1481 15.1416 91.3018 15.4064 91.4043C15.6712 91.5068 15.9617 91.5581 16.2777 91.5581C16.5938 91.5581 16.8757 91.5068 17.149 91.4043C17.4138 91.3018 17.6445 91.1566 17.8324 90.9601C18.0203 90.7722 18.174 90.533 18.2765 90.2682C18.379 89.9949 18.4389 89.6959 18.4389 89.3628V89.3713Z" fill="white"/>
<path d="M58.7128 97.4087C59.2937 97.4087 59.8061 97.3575 60.2503 97.255C60.6945 97.1525 61.0789 97.0073 61.4035 96.8193C61.728 96.6314 62.0015 96.4093 62.2235 96.1531C62.4456 95.8968 62.6165 95.615 62.7617 95.3074C62.8984 94.9999 63.0009 94.6668 63.0692 94.3251C63.1375 93.9834 63.1717 93.6247 63.1973 93.2659C63.0521 93.4453 62.8898 93.6075 62.7104 93.7698C62.531 93.9236 62.3175 94.0603 62.0868 94.1799C61.8562 94.2995 61.5999 94.3935 61.3181 94.4618C61.0362 94.5301 60.7287 94.5643 60.4041 94.5643C59.7635 94.5643 59.2167 94.4362 58.7555 94.1884C58.2942 93.9407 57.9098 93.6076 57.6109 93.2061C57.3119 92.7961 57.0898 92.3348 56.9446 91.8223C56.7994 91.3098 56.731 90.7887 56.731 90.2762C56.731 89.6697 56.8165 89.0974 56.9873 88.5593C57.1582 88.0211 57.4059 87.5514 57.739 87.1413C58.0722 86.7399 58.4907 86.4153 58.9861 86.1761C59.4816 85.9369 60.0624 85.8173 60.7287 85.8173C61.2241 85.8173 61.6683 85.8857 62.0697 86.0223C62.4712 86.159 62.8214 86.3555 63.1204 86.5946C63.4279 86.8424 63.6842 87.1243 63.9063 87.4659C64.1284 87.7991 64.2992 88.1578 64.4444 88.5422C64.5811 88.9266 64.6836 89.3366 64.7519 89.7552C64.8203 90.1737 64.8459 90.6008 64.8459 91.0279V91.6173C64.8459 92.164 64.8203 92.7277 64.769 93.3C64.7178 93.8724 64.6067 94.4276 64.453 94.9657C64.2992 95.5039 64.0771 96.0079 63.7952 96.4862C63.5134 96.9646 63.146 97.3746 62.6933 97.7333C62.2406 98.0835 61.6854 98.3655 61.0362 98.5705C60.387 98.7755 59.6183 98.878 58.7299 98.878H58.559V97.4173H58.7299L58.7128 97.4087ZM60.6689 93.1975C60.9422 93.1975 61.2156 93.1549 61.4804 93.0609C61.7452 92.9669 61.9844 92.8388 62.2064 92.668C62.4285 92.4971 62.625 92.3007 62.7958 92.0786C62.9666 91.8479 63.1034 91.6002 63.2059 91.3183V90.7887C63.2059 90.2164 63.1375 89.7039 63.0093 89.2597C62.8727 88.8155 62.6933 88.4311 62.4712 88.1236C62.2406 87.8161 61.9844 87.577 61.6854 87.4147C61.3864 87.2524 61.0704 87.1669 60.7373 87.1669C60.3529 87.1669 60.0111 87.2438 59.7207 87.3976C59.4217 87.5513 59.174 87.7649 58.969 88.0297C58.764 88.2945 58.6103 88.6191 58.5078 88.9864C58.4053 89.3537 58.3455 89.7552 58.3455 90.1737C58.3455 90.5496 58.3968 90.9254 58.4907 91.2842C58.5847 91.6429 58.7299 91.9675 58.9178 92.2494C59.1057 92.5313 59.3534 92.7619 59.6439 92.9328C59.9343 93.1036 60.2759 93.1975 60.6774 93.1975H60.6689Z" fill="white"/>
<path d="M96.1693 98.8611H94.5293V88.064L91.1552 89.3453V87.8505L96.0327 85.9713H96.1693V98.8611Z" fill="white"/>
<path d="M109.828 93.9324C109.828 94.7524 109.734 95.4785 109.546 96.1106C109.358 96.7427 109.085 97.2809 108.734 97.708C108.384 98.1436 107.949 98.4682 107.436 98.6903C106.924 98.9124 106.334 99.0234 105.676 99.0234C105.019 99.0234 104.438 98.9124 103.917 98.6903C103.404 98.4682 102.96 98.1351 102.601 97.708C102.243 97.2723 101.969 96.7427 101.773 96.1106C101.585 95.4785 101.482 94.7524 101.482 93.9324V90.9171C101.482 90.0971 101.576 89.371 101.764 88.7389C101.952 88.1068 102.225 87.5687 102.584 87.133C102.943 86.6974 103.379 86.3643 103.891 86.1336C104.404 85.903 104.993 85.7919 105.651 85.7919C106.309 85.7919 106.898 85.903 107.419 86.1336C107.932 86.3643 108.376 86.6889 108.726 87.133C109.085 87.5687 109.358 88.1068 109.546 88.7389C109.734 89.371 109.828 90.0971 109.828 90.9171V93.9324ZM103.131 93.6078L108.145 89.7554C108.051 88.9012 107.803 88.252 107.393 87.8078C106.992 87.3636 106.402 87.1416 105.642 87.1416C104.78 87.1416 104.147 87.432 103.737 88.0128C103.327 88.5937 103.122 89.4394 103.122 90.5584V93.6078H103.131ZM108.179 91.3271L103.174 95.1624C103.276 95.991 103.532 96.6317 103.942 97.0673C104.352 97.503 104.933 97.725 105.668 97.725C106.539 97.725 107.171 97.4261 107.573 96.8367C107.974 96.2473 108.179 95.3931 108.179 94.2912V91.3271Z" fill="white"/>
<path d="M140.981 98.8617H139.341V88.0647L135.966 89.346V87.8511L140.844 85.9719H140.981V98.8617Z" fill="white"/>
<path d="M151.855 98.8617H150.215V88.0647L146.841 89.346V87.8511L151.718 85.9719H151.855V98.8617Z" fill="white"/>
<path d="M185.766 98.8616H184.126V88.0646L180.752 89.3458V87.851L185.629 85.9718H185.766V98.8616Z" fill="white"/>
<path d="M199.227 98.8614H190.788V97.6826L195.007 92.9931C195.383 92.5746 195.699 92.1987 195.956 91.8741C196.212 91.5495 196.417 91.2506 196.562 90.9772C196.716 90.7039 196.827 90.4476 196.887 90.1999C196.955 89.9522 196.981 89.7045 196.981 89.4397C196.981 89.1236 196.929 88.8246 196.827 88.5427C196.724 88.2609 196.571 88.0217 196.374 87.8167C196.178 87.6117 195.939 87.4494 195.657 87.3213C195.375 87.2017 195.059 87.1419 194.709 87.1419C194.281 87.1419 193.906 87.2017 193.589 87.3298C193.273 87.4494 193.009 87.6288 192.804 87.8594C192.59 88.09 192.436 88.3634 192.334 88.688C192.231 89.0126 192.18 89.3713 192.18 89.7728H190.532C190.532 89.2261 190.625 88.7221 190.813 88.2352C191.001 87.7569 191.275 87.3384 191.633 86.9711C191.992 86.6123 192.428 86.3219 192.94 86.1169C193.453 85.9033 194.042 85.8008 194.709 85.8008C195.315 85.8008 195.862 85.8862 196.349 86.0742C196.836 86.2535 197.245 86.5013 197.579 86.8173C197.912 87.1334 198.177 87.5092 198.356 87.9533C198.535 88.389 198.629 88.8674 198.629 89.3799C198.629 89.7643 198.561 90.1401 198.433 90.5159C198.305 90.8918 198.125 91.2591 197.903 91.6264C197.681 91.9937 197.425 92.3525 197.134 92.7112C196.844 93.07 196.537 93.4202 196.212 93.779L192.752 97.5289H199.219V98.8614H199.227Z" fill="white"/>
<path d="M230.56 98.8611H228.92V88.064L225.546 89.3453V87.8505L230.424 85.9713H230.56V98.8611Z" fill="white"/>
<path d="M238.033 91.6346H239.203C239.613 91.6346 239.981 91.5749 240.297 91.4638C240.613 91.3528 240.877 91.199 241.091 91.0025C241.305 90.806 241.467 90.5754 241.586 90.3021C241.697 90.0287 241.757 89.7298 241.757 89.4052C241.757 88.6535 241.569 88.0897 241.185 87.7139C240.801 87.3295 240.237 87.1416 239.502 87.1416C239.152 87.1416 238.836 87.1928 238.554 87.2953C238.272 87.3978 238.024 87.543 237.819 87.7395C237.614 87.9359 237.461 88.1666 237.35 88.4399C237.239 88.7133 237.179 89.0122 237.179 89.3539H235.53C235.53 88.867 235.624 88.4058 235.821 87.9701C236.008 87.5345 236.282 87.1586 236.632 86.834C236.982 86.5094 237.401 86.2618 237.888 86.0738C238.375 85.8859 238.913 85.7919 239.511 85.7919C240.109 85.7919 240.613 85.8688 241.091 86.0226C241.569 86.1763 241.979 86.407 242.321 86.7145C242.663 87.022 242.928 87.3978 243.115 87.8591C243.303 88.3118 243.397 88.8414 243.397 89.4308C243.397 89.6785 243.363 89.9348 243.286 90.1996C243.209 90.4644 243.09 90.7207 242.936 90.9769C242.774 91.2246 242.569 91.4638 242.321 91.6859C242.073 91.908 241.774 92.0873 241.424 92.2411C241.843 92.3778 242.193 92.5571 242.475 92.7707C242.757 92.9928 242.979 93.232 243.15 93.5053C243.32 93.7786 243.431 94.0605 243.5 94.3595C243.568 94.6585 243.602 94.9575 243.602 95.2564C243.602 95.8544 243.5 96.3925 243.295 96.8538C243.09 97.3236 242.799 97.7165 242.441 98.0326C242.073 98.3572 241.646 98.5963 241.142 98.7672C240.647 98.938 240.109 99.0149 239.528 99.0149C238.947 99.0149 238.426 98.938 237.93 98.7757C237.435 98.6134 236.999 98.3828 236.632 98.0753C236.265 97.7678 235.974 97.3919 235.761 96.9477C235.547 96.5035 235.436 95.9996 235.436 95.4358H237.076C237.076 95.7689 237.136 96.0764 237.247 96.3583C237.358 96.6317 237.529 96.8709 237.743 97.0673C237.956 97.2638 238.212 97.409 238.52 97.52C238.827 97.6225 239.16 97.6823 239.536 97.6823C239.912 97.6823 240.245 97.6311 240.544 97.5371C240.843 97.4432 241.1 97.2894 241.313 97.0929C241.527 96.8965 241.689 96.6402 241.808 96.3498C241.92 96.0508 241.979 95.7006 241.979 95.2906C241.979 94.8806 241.911 94.5475 241.783 94.2485C241.646 93.9581 241.467 93.7103 241.228 93.5224C240.988 93.3259 240.698 93.1807 240.356 93.0867C240.015 92.9928 239.647 92.9416 239.237 92.9416H238.067V91.6176L238.033 91.6346Z" fill="white"/>
<path d="M275.354 98.8617H273.714V88.0647L270.34 89.346V87.8511L275.217 85.9719H275.354V98.8617Z" fill="white"/>
<path d="M289.347 94.5393V95.8719H287.553V98.8615H285.913V95.8719H280.036V94.9066L285.802 85.9803H287.545V94.5393H289.347ZM281.856 94.5393H285.913V88.1585L285.648 88.6539L281.856 94.5393Z" fill="white"/>
<path d="M6.59069 133.976H4.9506V123.179L1.57657 124.461V122.966L6.45399 121.087H6.59069V133.976Z" fill="white"/>
<path d="M12.7419 127.518L13.3911 121.095H20.0025V122.684H14.7749L14.4162 126.118C14.6724 125.972 14.9714 125.844 15.3301 125.725C15.6803 125.614 16.0903 125.554 16.5601 125.554C17.1581 125.554 17.6877 125.656 18.166 125.861C18.6358 126.066 19.0373 126.357 19.3705 126.733C19.7036 127.108 19.9513 127.561 20.1307 128.091C20.3101 128.62 20.3955 129.21 20.3955 129.859C20.3955 130.474 20.3101 131.038 20.1478 131.567C19.9855 132.088 19.7292 132.541 19.3961 132.925C19.063 133.31 18.6444 133.6 18.1319 133.822C17.6279 134.036 17.0299 134.147 16.3466 134.147C15.8255 134.147 15.3301 134.07 14.8603 133.925C14.3905 133.78 13.9805 133.558 13.6132 133.259C13.2544 132.96 12.9554 132.592 12.7162 132.14C12.4856 131.695 12.3405 131.166 12.2807 130.576H13.8353C13.9378 131.311 14.2025 131.866 14.6467 132.242C15.0824 132.618 15.6548 132.806 16.3381 132.806C16.7311 132.806 17.0727 132.738 17.3717 132.601C17.6706 132.464 17.9269 132.268 18.1319 132.011C18.3369 131.755 18.4906 131.448 18.5931 131.089C18.6956 130.73 18.7469 130.329 18.7469 129.885C18.7469 129.483 18.6872 129.107 18.5761 128.757C18.4651 128.407 18.2942 128.108 18.0806 127.852C17.8585 127.595 17.5938 127.39 17.2777 127.245C16.9617 127.1 16.5943 127.023 16.1843 127.023C15.911 127.023 15.6804 127.04 15.4839 127.083C15.2875 127.117 15.1081 127.177 14.9458 127.245C14.7835 127.313 14.6383 127.399 14.5016 127.501C14.3649 127.604 14.2197 127.715 14.0745 127.843L12.7675 127.51L12.7419 127.518Z" fill="white"/>
<path d="M51.3759 133.977H49.7359V123.18L46.3618 124.462V122.967L51.2393 121.088H51.3759V133.977Z" fill="white"/>
<path d="M62.9751 122.548H62.8298C62.2831 122.548 61.8048 122.608 61.3777 122.719C60.9506 122.83 60.5747 122.984 60.2501 123.18C59.9255 123.377 59.6437 123.607 59.413 123.872C59.1824 124.137 58.986 124.436 58.8322 124.752C58.6785 125.068 58.5589 125.401 58.482 125.751C58.3966 126.102 58.3453 126.452 58.3196 126.811C58.4734 126.631 58.6528 126.46 58.8492 126.298C59.0457 126.144 59.2678 126.008 59.4984 125.888C59.7291 125.777 59.9853 125.683 60.2501 125.615C60.5149 125.546 60.7968 125.512 61.0958 125.512C61.7364 125.512 62.2917 125.632 62.7615 125.88C63.2313 126.127 63.6072 126.452 63.9147 126.845C64.2136 127.246 64.4358 127.699 64.581 128.211C64.7262 128.715 64.7945 129.236 64.7945 129.758C64.7945 130.355 64.709 130.928 64.5382 131.457C64.3674 131.987 64.1196 132.457 63.778 132.85C63.4448 133.251 63.0263 133.559 62.5223 133.789C62.0269 134.02 61.446 134.131 60.7968 134.131C60.327 134.131 59.9085 134.063 59.5155 133.926C59.1312 133.789 58.781 133.61 58.4734 133.371C58.1659 133.14 57.9011 132.858 57.6704 132.542C57.4398 132.226 57.252 131.884 57.0982 131.517C56.9445 131.15 56.8334 130.774 56.7565 130.373C56.6796 129.98 56.6455 129.578 56.6455 129.185V128.417C56.6455 127.827 56.6796 127.238 56.7565 126.64C56.8334 126.05 56.9529 125.478 57.1323 124.94C57.3117 124.393 57.5509 123.889 57.8499 123.411C58.1489 122.933 58.5332 122.523 58.9859 122.172C59.4472 121.822 59.9854 121.549 60.6175 121.352C61.2496 121.156 61.9842 121.053 62.8298 121.053H62.9751V122.548ZM60.8396 126.887C60.5662 126.887 60.2928 126.93 60.0366 127.024C59.7803 127.11 59.5326 127.238 59.3105 127.4C59.0884 127.562 58.892 127.75 58.7212 127.972C58.5504 128.194 58.4136 128.442 58.3111 128.715V129.262C58.3111 129.826 58.3795 130.33 58.5162 130.774C58.6529 131.21 58.8322 131.586 59.0628 131.885C59.2934 132.184 59.5583 132.414 59.8572 132.568C60.1562 132.722 60.4722 132.798 60.8054 132.798C61.1898 132.798 61.5315 132.722 61.8219 132.576C62.1209 132.431 62.3686 132.226 62.5736 131.97C62.7786 131.714 62.9323 131.398 63.0348 131.039C63.1373 130.68 63.1886 130.279 63.1886 129.86C63.1886 129.484 63.1373 129.117 63.0434 128.758C62.9494 128.399 62.8042 128.083 62.6077 127.81C62.4113 127.537 62.1721 127.315 61.8731 127.144C61.5742 126.981 61.2325 126.896 60.8396 126.896V126.887Z" fill="white"/>
<path d="M96.1749 133.976H94.5348V123.179L91.1608 124.461V122.966L96.0382 121.087H96.1749V133.976Z" fill="white"/>
<path d="M109.892 122.009L104.553 133.976H102.836L108.158 122.53H101.188V121.095H109.892V122.017V122.009Z" fill="white"/>
<path d="M140.972 133.977H139.332V123.18L135.958 124.461V122.967L140.836 121.087H140.972V133.977Z" fill="white"/>
<path d="M154.46 124.453C154.46 125.094 154.281 125.666 153.939 126.17C153.597 126.674 153.136 127.067 152.564 127.349C152.897 127.494 153.196 127.665 153.461 127.878C153.726 128.092 153.956 128.331 154.153 128.596C154.341 128.869 154.494 129.16 154.597 129.484C154.699 129.8 154.751 130.142 154.751 130.501C154.751 131.082 154.639 131.603 154.426 132.055C154.212 132.508 153.922 132.893 153.546 133.2C153.179 133.508 152.743 133.747 152.248 133.909C151.752 134.071 151.223 134.148 150.659 134.148C150.095 134.148 149.54 134.071 149.045 133.909C148.549 133.747 148.113 133.516 147.746 133.209C147.379 132.901 147.088 132.517 146.875 132.064C146.661 131.611 146.559 131.09 146.559 130.501C146.559 130.142 146.61 129.8 146.713 129.476C146.815 129.151 146.96 128.861 147.148 128.587C147.336 128.323 147.567 128.075 147.832 127.87C148.096 127.656 148.395 127.477 148.729 127.34C148.447 127.195 148.19 127.033 147.96 126.828C147.729 126.631 147.533 126.409 147.379 126.162C147.217 125.914 147.097 125.649 147.003 125.359C146.918 125.068 146.866 124.769 146.866 124.445C146.866 123.881 146.96 123.385 147.148 122.941C147.336 122.506 147.601 122.13 147.934 121.831C148.267 121.532 148.669 121.301 149.13 121.139C149.591 120.977 150.095 120.9 150.65 120.9C151.206 120.9 151.701 120.977 152.162 121.139C152.632 121.301 153.034 121.532 153.375 121.831C153.717 122.13 153.982 122.506 154.178 122.941C154.375 123.377 154.469 123.881 154.469 124.445L154.46 124.453ZM153.119 130.458C153.119 130.099 153.059 129.766 152.94 129.467C152.82 129.168 152.649 128.912 152.427 128.69C152.205 128.476 151.949 128.306 151.641 128.186C151.334 128.066 151.009 128.007 150.642 128.007C150.275 128.007 149.933 128.066 149.634 128.186C149.335 128.306 149.079 128.468 148.865 128.69C148.652 128.903 148.489 129.16 148.37 129.467C148.259 129.766 148.199 130.099 148.199 130.458C148.199 130.817 148.259 131.159 148.37 131.458C148.481 131.757 148.652 131.996 148.865 132.201C149.079 132.397 149.335 132.551 149.642 132.662C149.95 132.764 150.283 132.824 150.667 132.824C151.052 132.824 151.359 132.773 151.658 132.662C151.957 132.559 152.214 132.406 152.436 132.201C152.649 132.004 152.82 131.757 152.94 131.458C153.059 131.167 153.119 130.834 153.119 130.458ZM152.82 124.479C152.82 124.154 152.769 123.855 152.658 123.582C152.547 123.308 152.402 123.078 152.205 122.881C152.017 122.685 151.786 122.531 151.522 122.42C151.257 122.309 150.967 122.258 150.642 122.258C150.317 122.258 150.035 122.309 149.771 122.412C149.514 122.514 149.284 122.659 149.096 122.856C148.908 123.052 148.763 123.283 148.66 123.556C148.558 123.83 148.506 124.137 148.506 124.47C148.506 124.803 148.558 125.111 148.66 125.376C148.763 125.64 148.908 125.871 149.104 126.068C149.292 126.255 149.523 126.409 149.788 126.512C150.053 126.614 150.343 126.665 150.659 126.665C150.975 126.665 151.257 126.614 151.53 126.512C151.795 126.409 152.026 126.264 152.214 126.068C152.402 125.88 152.555 125.64 152.658 125.376C152.76 125.102 152.82 124.803 152.82 124.47V124.479Z" fill="white"/>
<path d="M185.766 133.977H184.126V123.18L180.752 124.461V122.967L185.629 121.087H185.766V133.977Z" fill="white"/>
<path d="M193.086 132.525C193.667 132.525 194.179 132.474 194.623 132.371C195.067 132.269 195.452 132.124 195.776 131.936C196.101 131.748 196.374 131.526 196.596 131.27C196.818 131.013 196.989 130.731 197.135 130.424C197.271 130.116 197.374 129.783 197.442 129.442C197.51 129.1 197.545 128.741 197.562 128.382C197.416 128.562 197.254 128.724 197.075 128.886C196.895 129.04 196.682 129.177 196.451 129.296C196.221 129.416 195.964 129.51 195.682 129.578C195.401 129.647 195.093 129.681 194.768 129.681C194.128 129.681 193.581 129.553 193.12 129.305C192.659 129.057 192.274 128.724 191.975 128.323C191.676 127.913 191.454 127.451 191.309 126.939C191.164 126.426 191.095 125.905 191.095 125.393C191.095 124.786 191.181 124.214 191.352 123.676C191.522 123.138 191.77 122.668 192.103 122.258C192.436 121.856 192.855 121.532 193.35 121.293C193.846 121.053 194.427 120.934 195.093 120.934C195.588 120.934 196.033 121.002 196.434 121.139C196.836 121.276 197.186 121.472 197.485 121.711C197.792 121.959 198.049 122.241 198.271 122.582C198.493 122.916 198.664 123.274 198.809 123.659C198.945 124.043 199.048 124.453 199.116 124.872C199.185 125.29 199.21 125.717 199.21 126.144V126.734C199.21 127.281 199.185 127.844 199.133 128.417C199.082 128.989 198.971 129.544 198.817 130.082C198.664 130.62 198.441 131.124 198.16 131.603C197.878 132.081 197.51 132.491 197.058 132.85C196.605 133.2 196.05 133.482 195.401 133.687C194.751 133.892 193.983 133.994 193.094 133.994H192.923V132.534H193.094L193.086 132.525ZM195.042 128.314C195.315 128.314 195.588 128.271 195.853 128.177C196.118 128.083 196.357 127.955 196.579 127.784C196.801 127.614 196.998 127.417 197.169 127.195C197.34 126.964 197.476 126.717 197.579 126.435V125.905C197.579 125.333 197.51 124.82 197.382 124.376C197.246 123.932 197.066 123.548 196.844 123.24C196.613 122.933 196.357 122.694 196.058 122.531C195.759 122.369 195.443 122.283 195.11 122.283C194.726 122.283 194.384 122.36 194.094 122.514C193.795 122.668 193.547 122.881 193.342 123.146C193.137 123.411 192.983 123.736 192.881 124.103C192.778 124.47 192.718 124.872 192.718 125.29C192.718 125.666 192.77 126.042 192.864 126.401C192.958 126.759 193.103 127.084 193.291 127.366C193.479 127.648 193.726 127.878 194.017 128.049C194.307 128.22 194.649 128.314 195.05 128.314H195.042Z" fill="white"/>
<path d="M233.15 133.977H224.71V132.798L228.93 128.108C229.306 127.69 229.622 127.314 229.878 126.989C230.134 126.665 230.339 126.366 230.485 126.092C230.638 125.819 230.749 125.563 230.809 125.315C230.878 125.067 230.903 124.82 230.903 124.555C230.903 124.239 230.852 123.94 230.749 123.658C230.647 123.376 230.493 123.137 230.297 122.932C230.1 122.727 229.861 122.565 229.579 122.436C229.297 122.317 228.981 122.257 228.631 122.257C228.204 122.257 227.828 122.317 227.512 122.445C227.196 122.564 226.931 122.744 226.726 122.974C226.513 123.205 226.359 123.478 226.256 123.803C226.154 124.128 226.103 124.486 226.103 124.888H224.454C224.454 124.341 224.548 123.837 224.736 123.35C224.924 122.872 225.197 122.453 225.556 122.086C225.915 121.727 226.35 121.437 226.863 121.232C227.375 121.018 227.965 120.916 228.631 120.916C229.237 120.916 229.784 121.001 230.271 121.189C230.758 121.369 231.168 121.616 231.501 121.932C231.834 122.248 232.099 122.624 232.278 123.068C232.458 123.504 232.552 123.982 232.552 124.495C232.552 124.879 232.483 125.255 232.355 125.631C232.227 126.007 232.048 126.374 231.826 126.742C231.604 127.109 231.347 127.468 231.057 127.826C230.766 128.185 230.459 128.535 230.134 128.894L226.675 132.644H233.141V133.977H233.15Z" fill="white"/>
<path d="M244.211 129.048C244.211 129.868 244.117 130.594 243.929 131.226C243.741 131.858 243.468 132.396 243.118 132.824C242.767 133.259 242.332 133.584 241.819 133.806C241.307 134.028 240.717 134.139 240.059 134.139C239.402 134.139 238.821 134.028 238.3 133.806C237.779 133.584 237.343 133.251 236.984 132.824C236.626 132.388 236.352 131.858 236.156 131.226C235.968 130.594 235.865 129.868 235.865 129.048V126.033C235.865 125.213 235.959 124.487 236.147 123.855C236.335 123.222 236.608 122.684 236.967 122.249C237.326 121.813 237.762 121.48 238.274 121.249C238.787 121.019 239.376 120.908 240.034 120.908C240.692 120.908 241.281 121.019 241.802 121.249C242.315 121.48 242.759 121.804 243.109 122.249C243.468 122.684 243.741 123.222 243.929 123.855C244.117 124.487 244.211 125.213 244.211 126.033V129.048ZM237.514 128.715L242.528 124.862C242.434 124.008 242.186 123.359 241.785 122.915C241.383 122.471 240.794 122.249 240.034 122.249C239.171 122.249 238.539 122.539 238.129 123.12C237.719 123.701 237.514 124.546 237.514 125.665V128.715ZM242.562 126.434L237.557 130.27C237.659 131.098 237.915 131.739 238.326 132.174C238.736 132.61 239.316 132.832 240.051 132.832C240.914 132.832 241.554 132.533 241.956 131.944C242.357 131.354 242.562 130.5 242.562 129.398V126.434Z" fill="white"/>
<path d="M277.94 133.977H269.501V132.798L273.721 128.109C274.096 127.69 274.412 127.314 274.669 126.99C274.925 126.665 275.13 126.366 275.275 126.093C275.429 125.819 275.54 125.563 275.6 125.316C275.668 125.068 275.694 124.82 275.694 124.555C275.694 124.239 275.643 123.94 275.54 123.658C275.438 123.377 275.284 123.137 275.087 122.932C274.891 122.727 274.652 122.565 274.37 122.437C274.088 122.317 273.772 122.257 273.422 122.257C272.995 122.257 272.619 122.317 272.303 122.445C271.987 122.565 271.722 122.744 271.517 122.975C271.303 123.206 271.149 123.479 271.047 123.804C270.944 124.128 270.893 124.487 270.893 124.888H269.245C269.245 124.342 269.339 123.838 269.526 123.351C269.714 122.872 269.988 122.454 270.347 122.087C270.705 121.728 271.141 121.437 271.653 121.232C272.166 121.019 272.755 120.916 273.422 120.916C274.028 120.916 274.575 121.002 275.062 121.19C275.549 121.369 275.959 121.617 276.3 121.933C276.633 122.249 276.898 122.625 277.078 123.069C277.257 123.505 277.351 123.983 277.351 124.495C277.351 124.88 277.283 125.256 277.154 125.632C277.026 126.007 276.847 126.375 276.625 126.742C276.403 127.109 276.147 127.468 275.856 127.827C275.566 128.186 275.258 128.536 274.934 128.895L271.474 132.644H277.94V133.977Z" fill="#212121"/>
<path d="M286.227 133.977H284.587V123.18L281.213 124.461V122.967L286.091 121.087H286.227V133.977Z" fill="#212121"/>
<path d="M9.1855 169.085H0.746046V167.906L4.96572 163.216C5.34156 162.798 5.6576 162.422 5.91386 162.097C6.17012 161.773 6.37509 161.474 6.52031 161.2C6.67406 160.927 6.78511 160.671 6.84491 160.423C6.91324 160.175 6.93896 159.928 6.93896 159.663C6.93896 159.347 6.88766 159.048 6.78516 158.766C6.68265 158.484 6.52887 158.245 6.33241 158.04C6.13594 157.835 5.8968 157.672 5.61491 157.544C5.33303 157.425 5.01699 157.365 4.66677 157.365C4.23967 157.365 3.86378 157.425 3.54773 157.553C3.23167 157.672 2.96694 157.852 2.76193 158.082C2.54838 158.313 2.39459 158.586 2.29208 158.911C2.18958 159.236 2.13839 159.594 2.13839 159.996H0.489746C0.489746 159.449 0.58367 158.945 0.771593 158.458C0.959516 157.98 1.23293 157.561 1.59169 157.194C1.95045 156.835 2.38601 156.545 2.89853 156.34C3.41105 156.126 4.0005 156.024 4.66677 156.024C5.27325 156.024 5.81987 156.109 6.30676 156.297C6.79365 156.477 7.20372 156.724 7.53685 157.04C7.86999 157.356 8.13482 157.732 8.3142 158.176C8.49358 158.612 8.5875 159.09 8.5875 159.603C8.5875 159.987 8.51918 160.363 8.39105 160.739C8.26292 161.115 8.08354 161.482 7.86145 161.849C7.63936 162.217 7.38308 162.576 7.09266 162.934C6.80223 163.293 6.49476 163.643 6.17016 164.002L2.71063 167.752H9.17694V169.085H9.1855Z" fill="white"/>
<path d="M20.0598 169.085H11.6203V167.906L15.84 163.216C16.2159 162.798 16.5319 162.422 16.7882 162.097C17.0444 161.773 17.2495 161.474 17.3947 161.2C17.5485 160.927 17.6595 160.671 17.7193 160.423C17.7876 160.175 17.8133 159.928 17.8133 159.663C17.8133 159.347 17.762 159.048 17.6595 158.766C17.557 158.484 17.4032 158.245 17.2067 158.04C17.0102 157.835 16.7711 157.672 16.4892 157.544C16.2073 157.425 15.8913 157.365 15.5411 157.365C15.114 157.365 14.7381 157.425 14.422 157.553C14.106 157.672 13.8412 157.852 13.6362 158.082C13.4227 158.313 13.2689 158.586 13.1664 158.911C13.0639 159.236 13.0127 159.594 13.0127 159.996H11.364C11.364 159.449 11.458 158.945 11.6459 158.458C11.8338 157.98 12.1072 157.561 12.466 157.194C12.8248 156.835 13.2604 156.545 13.7729 156.34C14.2855 156.126 14.8748 156.024 15.5411 156.024C16.1476 156.024 16.6943 156.109 17.1812 156.297C17.6681 156.477 18.078 156.724 18.4112 157.04C18.7443 157.356 19.0091 157.732 19.1885 158.176C19.3679 158.612 19.4618 159.09 19.4618 159.603C19.4618 159.987 19.3935 160.363 19.2653 160.739C19.1372 161.115 18.9578 161.482 18.7358 161.849C18.5137 162.217 18.2574 162.576 17.967 162.934C17.6765 163.293 17.3691 163.643 17.0445 164.002L13.5849 167.752H20.0512V169.085H20.0598Z" fill="white"/>
<path d="M53.9829 169.085H45.5434V167.906L49.7632 163.217C50.1391 162.798 50.4551 162.422 50.7114 162.098C50.9676 161.773 51.1726 161.474 51.3178 161.201C51.4716 160.927 51.5826 160.671 51.6424 160.423C51.7107 160.176 51.7363 159.928 51.7363 159.663C51.7363 159.347 51.685 159.048 51.5825 158.766C51.48 158.484 51.3264 158.245 51.1299 158.04C50.9334 157.835 50.6942 157.673 50.4123 157.545C50.1304 157.425 49.8144 157.365 49.4642 157.365C49.0371 157.365 48.6613 157.425 48.3452 157.553C48.0292 157.673 47.7643 157.852 47.5593 158.083C47.3458 158.314 47.1921 158.587 47.0896 158.911C46.9871 159.236 46.9358 159.595 46.9358 159.996H45.2871C45.2871 159.45 45.3812 158.946 45.5691 158.459C45.757 157.98 46.0303 157.562 46.3891 157.195C46.7478 156.836 47.1835 156.545 47.696 156.34C48.2085 156.127 48.7979 156.024 49.4642 156.024C50.0706 156.024 50.6174 156.11 51.1043 156.298C51.5911 156.477 52.0011 156.725 52.3342 157.041C52.6674 157.357 52.9322 157.733 53.1116 158.177C53.291 158.613 53.385 159.091 53.385 159.603C53.385 159.988 53.3166 160.364 53.1884 160.739C53.0603 161.115 52.8809 161.483 52.6588 161.85C52.4367 162.217 52.1806 162.576 51.8901 162.935C51.5997 163.294 51.2921 163.644 50.9676 164.002L47.5081 167.752H53.9743V169.085H53.9829Z" fill="white"/>
<path d="M58.8682 161.859H60.0385C60.4485 161.859 60.8158 161.799 61.1319 161.688C61.4479 161.577 61.7128 161.423 61.9263 161.227C62.1399 161.03 62.3021 160.799 62.4217 160.526C62.5328 160.253 62.5925 159.954 62.5925 159.629C62.5925 158.877 62.4047 158.314 62.0203 157.938C61.6359 157.553 61.072 157.366 60.3374 157.366C59.9872 157.366 59.6712 157.417 59.3893 157.519C59.0988 157.622 58.8597 157.767 58.6547 157.963C58.4497 158.16 58.296 158.391 58.1849 158.664C58.0739 158.937 58.014 159.236 58.014 159.578H56.3655C56.3655 159.091 56.4594 158.63 56.6559 158.194C56.8438 157.758 57.1171 157.383 57.4673 157.058C57.8176 156.733 58.2362 156.486 58.7231 156.298C59.21 156.11 59.748 156.016 60.346 156.016C60.9439 156.016 61.4565 156.093 61.9263 156.247C62.4047 156.4 62.8146 156.631 63.1563 156.938C63.498 157.246 63.7628 157.622 63.9508 158.083C64.1387 158.536 64.2326 159.065 64.2326 159.655C64.2326 159.902 64.1899 160.159 64.1215 160.424C64.0447 160.688 63.9251 160.945 63.7713 161.201C63.609 161.449 63.404 161.688 63.1563 161.91C62.9086 162.132 62.6096 162.311 62.2594 162.465C62.6779 162.602 63.0282 162.781 63.3101 162.995C63.592 163.217 63.814 163.456 63.9848 163.729C64.1557 164.003 64.2753 164.285 64.3351 164.583C64.4034 164.882 64.4376 165.181 64.4376 165.48C64.4376 166.078 64.3351 166.616 64.1301 167.078C63.9251 167.548 63.6347 167.94 63.2759 168.257C62.9086 168.581 62.4815 168.82 61.9775 168.991C61.4821 169.162 60.9439 169.239 60.3631 169.239C59.7822 169.239 59.2612 169.162 58.7657 169C58.2703 168.837 57.8346 168.607 57.4673 168.299C57.1 167.992 56.8097 167.616 56.5961 167.172C56.3826 166.728 56.2715 166.224 56.2715 165.66H57.9115C57.9115 165.993 57.9714 166.3 58.0824 166.582C58.1935 166.856 58.3643 167.095 58.5693 167.291C58.7828 167.488 59.0391 167.633 59.3466 167.744C59.6541 167.847 59.9872 167.906 60.3631 167.906C60.7389 167.906 61.0721 167.855 61.3711 167.761C61.67 167.667 61.9263 167.513 62.1399 167.317C62.3534 167.12 62.5157 166.864 62.6353 166.574C62.7463 166.275 62.8061 165.925 62.8061 165.515C62.8061 165.105 62.7377 164.771 62.6096 164.472C62.4729 164.182 62.2935 163.934 62.0544 163.746C61.8152 163.55 61.5248 163.405 61.1832 163.311C60.8415 163.217 60.4741 163.166 60.0641 163.166H58.8939V161.842L58.8682 161.859Z" fill="white"/>
<path d="M98.7735 169.085H90.3342V167.906L94.5538 163.216C94.9297 162.798 95.2457 162.422 95.502 162.097C95.7582 161.773 95.9632 161.474 96.1084 161.2C96.2622 160.927 96.3732 160.671 96.433 160.423C96.5013 160.175 96.5271 159.928 96.5271 159.663C96.5271 159.347 96.4758 159.048 96.3733 158.766C96.2708 158.484 96.117 158.245 95.9205 158.04C95.7241 157.835 95.4849 157.672 95.203 157.544C94.9211 157.425 94.6051 157.365 94.2549 157.365C93.8278 157.365 93.4519 157.425 93.1358 157.553C92.8198 157.672 92.5551 157.852 92.35 158.082C92.1365 158.313 91.9827 158.586 91.8802 158.911C91.7777 159.236 91.7264 159.594 91.7264 159.996H90.0779C90.0779 159.449 90.1718 158.945 90.3597 158.458C90.5476 157.98 90.821 157.561 91.1798 157.194C91.5386 156.835 91.9741 156.545 92.4866 156.34C92.9992 156.126 93.5886 156.024 94.2549 156.024C94.8614 156.024 95.408 156.109 95.8949 156.297C96.3818 156.477 96.7918 156.724 97.125 157.04C97.4581 157.356 97.7229 157.732 97.9023 158.176C98.0817 158.612 98.1756 159.09 98.1756 159.603C98.1756 159.987 98.1073 160.363 97.9792 160.739C97.851 161.115 97.6717 161.482 97.4496 161.849C97.2275 162.217 96.9712 162.576 96.6808 162.934C96.3903 163.293 96.0829 163.643 95.7583 164.002L92.2987 167.752H98.7651V169.085H98.7735Z" fill="white"/>
<path d="M110.176 164.762V166.095H108.382V169.084H106.742V166.095H100.865V165.13L106.631 156.203H108.374V164.762H110.176ZM102.685 164.762H106.742V158.381L106.477 158.877L102.685 164.762Z" fill="white"/>
<path d="M143.567 169.085H135.128V167.906L139.347 163.216C139.723 162.798 140.039 162.422 140.296 162.097C140.552 161.773 140.757 161.474 140.902 161.2C141.056 160.927 141.167 160.671 141.227 160.423C141.295 160.175 141.321 159.928 141.321 159.663C141.321 159.347 141.269 159.048 141.167 158.766C141.064 158.484 140.911 158.245 140.714 158.04C140.518 157.835 140.278 157.672 139.997 157.544C139.715 157.425 139.399 157.365 139.048 157.365C138.621 157.365 138.245 157.425 137.929 157.553C137.613 157.672 137.349 157.852 137.144 158.082C136.93 158.313 136.776 158.586 136.674 158.911C136.571 159.236 136.52 159.594 136.52 159.996H134.871C134.871 159.449 134.965 158.945 135.153 158.458C135.341 157.98 135.615 157.561 135.973 157.194C136.332 156.835 136.768 156.545 137.28 156.34C137.793 156.126 138.382 156.024 139.048 156.024C139.655 156.024 140.202 156.109 140.688 156.297C141.175 156.477 141.585 156.724 141.918 157.04C142.252 157.356 142.516 157.732 142.696 158.176C142.875 158.612 142.969 159.09 142.969 159.603C142.969 159.987 142.901 160.363 142.773 160.739C142.644 161.115 142.465 161.482 142.243 161.849C142.021 162.217 141.765 162.576 141.474 162.934C141.184 163.293 140.876 163.643 140.552 164.002L137.092 167.752H143.559V169.085H143.567Z" fill="white"/>
<path d="M147.13 162.627L147.779 156.203H154.39V157.792H149.163L148.804 161.226C149.06 161.081 149.359 160.952 149.718 160.833C150.068 160.722 150.478 160.662 150.948 160.662C151.546 160.662 152.075 160.765 152.545 160.97C153.015 161.175 153.417 161.465 153.75 161.841C154.083 162.217 154.331 162.669 154.51 163.199C154.689 163.729 154.775 164.318 154.775 164.967C154.775 165.582 154.689 166.146 154.527 166.676C154.365 167.197 154.108 167.649 153.775 168.034C153.442 168.418 153.024 168.709 152.511 168.931C152.007 169.144 151.409 169.255 150.726 169.255C150.205 169.255 149.709 169.178 149.24 169.033C148.77 168.888 148.36 168.666 147.992 168.367C147.634 168.068 147.335 167.701 147.096 167.248C146.865 166.804 146.72 166.274 146.66 165.685H148.214C148.317 166.419 148.582 166.975 149.026 167.35C149.462 167.726 150.034 167.914 150.717 167.914C151.11 167.914 151.452 167.846 151.751 167.709C152.05 167.573 152.306 167.376 152.511 167.12C152.716 166.864 152.87 166.556 152.972 166.197C153.075 165.839 153.126 165.437 153.126 164.993C153.126 164.591 153.066 164.216 152.955 163.865C152.844 163.515 152.673 163.216 152.46 162.96C152.238 162.704 151.973 162.499 151.657 162.353C151.341 162.208 150.974 162.131 150.564 162.131C150.29 162.131 150.06 162.148 149.863 162.191C149.667 162.225 149.487 162.285 149.325 162.353C149.163 162.422 149.017 162.507 148.881 162.61C148.744 162.712 148.599 162.823 148.454 162.951L147.147 162.618L147.13 162.627Z" fill="white"/>
<path d="M188.352 169.085H179.913V167.906L184.132 163.216C184.508 162.798 184.824 162.422 185.081 162.097C185.337 161.773 185.542 161.474 185.687 161.2C185.841 160.927 185.952 160.671 186.012 160.423C186.08 160.175 186.106 159.928 186.106 159.663C186.106 159.347 186.054 159.048 185.952 158.766C185.849 158.484 185.696 158.245 185.499 158.04C185.303 157.835 185.064 157.672 184.782 157.544C184.5 157.425 184.184 157.365 183.834 157.365C183.406 157.365 183.031 157.425 182.714 157.553C182.398 157.672 182.134 157.852 181.929 158.082C181.715 158.313 181.561 158.586 181.459 158.911C181.356 159.236 181.305 159.594 181.305 159.996H179.657C179.657 159.449 179.75 158.945 179.938 158.458C180.126 157.98 180.4 157.561 180.758 157.194C181.117 156.835 181.553 156.545 182.065 156.34C182.578 156.126 183.167 156.024 183.834 156.024C184.44 156.024 184.987 156.109 185.474 156.297C185.96 156.477 186.37 156.724 186.704 157.04C187.037 157.356 187.302 157.732 187.481 158.176C187.66 158.612 187.754 159.09 187.754 159.603C187.754 159.987 187.686 160.363 187.558 160.739C187.43 161.115 187.25 161.482 187.028 161.849C186.806 162.217 186.55 162.576 186.259 162.934C185.969 163.293 185.662 163.643 185.337 164.002L181.877 167.752H188.344V169.085H188.352Z" fill="white"/>
<path d="M197.364 157.664H197.219C196.672 157.664 196.194 157.724 195.767 157.835C195.34 157.946 194.964 158.099 194.639 158.296C194.315 158.492 194.033 158.723 193.802 158.988C193.572 159.253 193.375 159.552 193.221 159.868C193.068 160.184 192.948 160.517 192.871 160.867C192.786 161.217 192.735 161.567 192.709 161.926C192.863 161.747 193.042 161.576 193.239 161.414C193.435 161.26 193.657 161.123 193.888 161.004C194.118 160.893 194.375 160.799 194.639 160.73C194.904 160.662 195.186 160.628 195.485 160.628C196.126 160.628 196.681 160.747 197.151 160.995C197.621 161.243 197.996 161.559 198.304 161.96C198.603 162.362 198.825 162.815 198.97 163.327C199.115 163.831 199.184 164.352 199.184 164.873C199.184 165.471 199.098 166.043 198.927 166.573C198.757 167.103 198.509 167.572 198.167 167.965C197.834 168.367 197.416 168.674 196.912 168.905C196.416 169.136 195.835 169.247 195.186 169.247C194.716 169.247 194.298 169.178 193.905 169.042C193.52 168.905 193.17 168.726 192.863 168.486C192.555 168.256 192.29 167.974 192.06 167.658C191.829 167.342 191.641 167 191.487 166.633C191.334 166.266 191.223 165.89 191.146 165.488C191.069 165.095 191.035 164.694 191.035 164.301V163.532C191.035 162.943 191.069 162.353 191.146 161.755C191.223 161.166 191.342 160.594 191.522 160.056C191.701 159.509 191.94 159.005 192.239 158.527C192.538 158.048 192.922 157.638 193.375 157.288C193.836 156.938 194.375 156.664 195.007 156.468C195.639 156.271 196.373 156.169 197.219 156.169H197.364V157.664ZM195.22 162.003C194.947 162.003 194.674 162.046 194.417 162.14C194.161 162.225 193.913 162.353 193.691 162.507C193.469 162.669 193.273 162.857 193.102 163.079C192.931 163.301 192.794 163.549 192.692 163.823V164.369C192.692 164.933 192.76 165.437 192.897 165.881C193.034 166.317 193.213 166.693 193.444 166.992C193.674 167.291 193.939 167.521 194.238 167.675C194.537 167.829 194.853 167.906 195.186 167.906C195.571 167.906 195.912 167.829 196.203 167.684C196.502 167.538 196.749 167.333 196.954 167.077C197.159 166.821 197.313 166.505 197.416 166.146C197.518 165.787 197.569 165.386 197.569 164.967C197.569 164.591 197.518 164.224 197.424 163.865C197.33 163.507 197.185 163.19 196.988 162.917C196.792 162.644 196.553 162.422 196.254 162.251C195.955 162.089 195.613 162.003 195.22 162.003Z" fill="white"/>
<path d="M233.15 169.085H224.71V167.906L228.93 163.216C229.306 162.798 229.622 162.422 229.878 162.097C230.134 161.773 230.339 161.474 230.485 161.2C230.638 160.927 230.749 160.671 230.809 160.423C230.878 160.175 230.903 159.928 230.903 159.663C230.903 159.347 230.852 159.048 230.749 158.766C230.647 158.484 230.493 158.245 230.297 158.04C230.1 157.835 229.861 157.672 229.579 157.544C229.297 157.425 228.981 157.365 228.631 157.365C228.204 157.365 227.828 157.425 227.512 157.553C227.196 157.672 226.931 157.852 226.726 158.082C226.513 158.313 226.359 158.586 226.256 158.911C226.154 159.236 226.103 159.594 226.103 159.996H224.454C224.454 159.449 224.548 158.945 224.736 158.458C224.924 157.98 225.197 157.561 225.556 157.194C225.915 156.835 226.35 156.545 226.863 156.34C227.375 156.126 227.965 156.024 228.631 156.024C229.237 156.024 229.784 156.109 230.271 156.297C230.758 156.477 231.168 156.724 231.501 157.04C231.834 157.356 232.099 157.732 232.278 158.176C232.458 158.612 232.552 159.09 232.552 159.603C232.552 159.987 232.483 160.363 232.355 160.739C232.227 161.115 232.048 161.482 231.826 161.849C231.604 162.217 231.347 162.576 231.057 162.934C230.766 163.293 230.459 163.643 230.134 164.002L226.675 167.752H233.141V169.085H233.15Z" fill="white"/>
<path d="M244.279 157.126L238.941 169.093H237.224L242.545 157.647H235.575V156.212H244.279V157.134V157.126Z" fill="white"/>
<path d="M277.94 169.085H269.501V167.906L273.721 163.217C274.096 162.798 274.412 162.422 274.669 162.098C274.925 161.773 275.13 161.474 275.275 161.201C275.429 160.927 275.54 160.671 275.6 160.423C275.668 160.176 275.694 159.928 275.694 159.663C275.694 159.347 275.643 159.048 275.54 158.766C275.438 158.484 275.284 158.245 275.087 158.04C274.891 157.835 274.652 157.673 274.37 157.545C274.088 157.425 273.772 157.365 273.422 157.365C272.995 157.365 272.619 157.425 272.303 157.553C271.987 157.673 271.722 157.852 271.517 158.083C271.303 158.314 271.149 158.587 271.047 158.911C270.944 159.236 270.893 159.595 270.893 159.996H269.245C269.245 159.45 269.339 158.946 269.526 158.459C269.714 157.98 269.988 157.562 270.347 157.195C270.705 156.836 271.141 156.545 271.653 156.34C272.166 156.135 272.755 156.024 273.422 156.024C274.028 156.024 274.575 156.11 275.062 156.298C275.549 156.477 275.959 156.725 276.3 157.041C276.633 157.357 276.898 157.733 277.078 158.177C277.257 158.613 277.351 159.091 277.351 159.603C277.351 159.988 277.283 160.364 277.154 160.739C277.026 161.115 276.847 161.483 276.625 161.85C276.403 162.217 276.147 162.576 275.856 162.935C275.566 163.294 275.258 163.644 274.934 164.002L271.474 167.752H277.94V169.085Z" fill="white"/>
<path d="M288.848 159.569C288.848 160.21 288.668 160.782 288.327 161.286C287.985 161.79 287.524 162.183 286.951 162.465C287.285 162.61 287.584 162.781 287.848 162.995C288.113 163.208 288.344 163.447 288.54 163.712C288.728 163.986 288.882 164.276 288.984 164.601C289.087 164.917 289.138 165.258 289.138 165.617C289.138 166.198 289.027 166.719 288.814 167.172C288.6 167.624 288.31 168.009 287.934 168.316C287.566 168.624 287.131 168.863 286.635 169.025C286.14 169.188 285.61 169.264 285.047 169.264C284.483 169.264 283.928 169.188 283.432 169.025C282.937 168.863 282.501 168.632 282.134 168.325C281.766 168.017 281.476 167.633 281.262 167.18C281.049 166.727 280.946 166.206 280.946 165.617C280.946 165.258 280.998 164.917 281.1 164.592C281.203 164.267 281.348 163.977 281.536 163.704C281.724 163.439 281.954 163.191 282.219 162.986C282.484 162.773 282.783 162.593 283.116 162.457C282.834 162.311 282.578 162.149 282.347 161.944C282.117 161.748 281.92 161.525 281.767 161.278C281.604 161.03 281.485 160.765 281.391 160.475C281.297 160.184 281.254 159.885 281.254 159.561C281.254 158.997 281.348 158.502 281.536 158.057C281.724 157.622 281.989 157.246 282.322 156.947C282.655 156.648 283.056 156.417 283.518 156.255C283.979 156.093 284.483 156.016 285.038 156.016C285.593 156.016 286.089 156.093 286.55 156.255C287.011 156.417 287.421 156.648 287.763 156.947C288.105 157.246 288.369 157.622 288.566 158.057C288.762 158.493 288.856 158.997 288.856 159.561L288.848 159.569ZM287.498 165.574C287.498 165.216 287.438 164.882 287.319 164.583C287.199 164.285 287.028 164.028 286.806 163.806C286.584 163.593 286.328 163.422 286.02 163.302C285.713 163.183 285.388 163.123 285.021 163.123C284.654 163.123 284.312 163.183 284.013 163.302C283.714 163.422 283.458 163.584 283.244 163.806C283.031 164.02 282.868 164.276 282.757 164.583C282.646 164.882 282.587 165.216 282.587 165.574C282.587 165.933 282.646 166.275 282.757 166.574C282.868 166.864 283.039 167.112 283.244 167.317C283.458 167.513 283.714 167.667 284.022 167.778C284.329 167.881 284.662 167.94 285.047 167.94C285.431 167.94 285.739 167.889 286.038 167.778C286.336 167.676 286.593 167.522 286.815 167.317C287.028 167.12 287.199 166.873 287.319 166.574C287.438 166.283 287.498 165.95 287.498 165.574ZM287.199 159.595C287.199 159.27 287.148 158.971 287.037 158.698C286.926 158.425 286.781 158.194 286.584 157.998C286.396 157.801 286.166 157.647 285.901 157.536C285.636 157.425 285.346 157.374 285.021 157.374C284.696 157.374 284.414 157.425 284.15 157.528C283.893 157.63 283.663 157.776 283.475 157.972C283.287 158.168 283.142 158.399 283.039 158.672C282.937 158.946 282.885 159.253 282.885 159.586C282.885 159.92 282.937 160.227 283.039 160.492C283.142 160.757 283.287 160.987 283.483 161.184C283.671 161.372 283.902 161.525 284.167 161.628C284.432 161.73 284.722 161.782 285.038 161.782C285.354 161.782 285.636 161.73 285.909 161.628C286.174 161.525 286.405 161.38 286.593 161.184C286.781 160.996 286.934 160.757 287.037 160.492C287.139 160.219 287.199 159.92 287.199 159.586V159.595Z" fill="white"/>
<path d="M9.1855 204.201H0.746046V203.022L4.96572 198.332C5.34156 197.914 5.6576 197.538 5.91386 197.213C6.17012 196.889 6.37509 196.59 6.52031 196.317C6.67406 196.043 6.78511 195.787 6.84491 195.539C6.91324 195.291 6.93896 195.044 6.93896 194.779C6.93896 194.463 6.88766 194.164 6.78516 193.882C6.68265 193.6 6.52887 193.361 6.33241 193.156C6.13594 192.951 5.8968 192.789 5.61491 192.661C5.33303 192.541 5.01699 192.481 4.66677 192.481C4.23967 192.481 3.86378 192.541 3.54773 192.669C3.23167 192.789 2.96694 192.968 2.76193 193.199C2.54838 193.429 2.39459 193.703 2.29208 194.027C2.18958 194.352 2.13839 194.711 2.13839 195.112H0.489746C0.489746 194.565 0.58367 194.061 0.771593 193.575C0.959516 193.096 1.23293 192.678 1.59169 192.31C1.95045 191.952 2.38601 191.661 2.89853 191.456C3.41105 191.243 4.0005 191.14 4.66677 191.14C5.27325 191.14 5.81987 191.226 6.30676 191.413C6.79365 191.593 7.20372 191.841 7.53685 192.157C7.86999 192.473 8.13482 192.848 8.3142 193.293C8.49358 193.728 8.5875 194.207 8.5875 194.719C8.5875 195.104 8.51918 195.479 8.39105 195.855C8.26292 196.231 8.08354 196.598 7.86145 196.966C7.63936 197.333 7.38308 197.692 7.09266 198.051C6.80223 198.409 6.49476 198.76 6.17016 199.118L2.71063 202.868H9.17694V204.201H9.1855Z" fill="white"/>
<path d="M13.9163 202.748C14.4972 202.748 15.0097 202.697 15.4539 202.594C15.8981 202.492 16.2824 202.347 16.607 202.159C16.9316 201.971 17.2049 201.749 17.427 201.493C17.6491 201.236 17.82 200.954 17.9652 200.647C18.1019 200.339 18.2043 200.006 18.2727 199.665C18.341 199.323 18.3752 198.964 18.4008 198.605C18.2556 198.785 18.0934 198.947 17.914 199.109C17.7346 199.263 17.5211 199.4 17.2904 199.519C17.0598 199.639 16.8035 199.733 16.5216 199.801C16.2398 199.87 15.9322 199.904 15.6076 199.904C14.967 199.904 14.4203 199.776 13.9591 199.528C13.4978 199.28 13.1134 198.947 12.8145 198.546C12.5155 198.136 12.2934 197.674 12.1482 197.162C12.003 196.649 11.9346 196.128 11.9346 195.616C11.9346 195.009 12.02 194.437 12.1908 193.899C12.3617 193.361 12.6094 192.891 12.9425 192.481C13.2756 192.079 13.6943 191.755 14.1897 191.516C14.6851 191.276 15.2659 191.157 15.9322 191.157C16.4276 191.157 16.8719 191.225 17.2733 191.362C17.6748 191.498 18.025 191.695 18.324 191.934C18.6315 192.182 18.8878 192.464 19.1099 192.805C19.332 193.139 19.5028 193.497 19.648 193.882C19.7847 194.266 19.8872 194.676 19.9555 195.095C20.0239 195.513 20.0495 195.94 20.0495 196.367V196.957C20.0495 197.504 20.0238 198.067 19.9725 198.64C19.9213 199.212 19.8102 199.767 19.6565 200.305C19.5027 200.843 19.2807 201.347 18.9988 201.826C18.7169 202.304 18.3496 202.714 17.8969 203.073C17.4442 203.423 16.8889 203.705 16.2397 203.91C15.5905 204.115 14.8218 204.217 13.9334 204.217H13.7626V202.757H13.9334L13.9163 202.748ZM15.8724 198.537C16.1458 198.537 16.4191 198.494 16.6839 198.4C16.9487 198.306 17.1878 198.178 17.4099 198.007C17.632 197.837 17.8285 197.64 17.9994 197.418C18.1702 197.187 18.3069 196.94 18.4094 196.658V196.128C18.4094 195.556 18.3411 195.043 18.2129 194.599C18.0763 194.155 17.8969 193.771 17.6748 193.463C17.4442 193.156 17.1879 192.916 16.8889 192.754C16.5899 192.592 16.2739 192.506 15.9407 192.506C15.5564 192.506 15.2147 192.583 14.9243 192.737C14.6253 192.891 14.3776 193.104 14.1726 193.369C13.9676 193.634 13.8138 193.959 13.7113 194.326C13.6088 194.693 13.5491 195.095 13.5491 195.513C13.5491 195.889 13.6002 196.265 13.6942 196.624C13.7882 196.982 13.9334 197.307 14.1213 197.589C14.3092 197.871 14.5569 198.101 14.8474 198.272C15.1378 198.443 15.4795 198.537 15.881 198.537H15.8724Z" fill="white"/>
<path d="M47.9948 196.965H49.165C49.575 196.965 49.9424 196.906 50.2584 196.795C50.5745 196.683 50.8392 196.53 51.0527 196.333C51.2663 196.137 51.4287 195.906 51.5482 195.633C51.6593 195.359 51.719 195.06 51.719 194.736C51.719 193.984 51.5312 193.42 51.1468 193.045C50.7624 192.66 50.2071 192.472 49.464 192.472C49.1137 192.472 48.7977 192.524 48.5158 192.626C48.2339 192.729 47.9862 192.874 47.7812 193.07C47.5762 193.267 47.4224 193.497 47.3114 193.771C47.2003 194.044 47.1406 194.343 47.1406 194.685H45.492C45.492 194.198 45.586 193.736 45.7824 193.301C45.9704 192.865 46.2437 192.489 46.5939 192.165C46.9441 191.84 47.3626 191.592 47.8495 191.405C48.3364 191.217 48.8746 191.123 49.4725 191.123C50.0704 191.123 50.5744 191.2 51.0527 191.353C51.5311 191.507 51.9412 191.738 52.2828 192.045C52.6245 192.353 52.8893 192.729 53.0772 193.19C53.2651 193.643 53.3591 194.172 53.3591 194.762C53.3591 195.009 53.325 195.265 53.2481 195.53C53.1712 195.795 53.0516 196.051 52.8978 196.308C52.7441 196.564 52.5306 196.795 52.2828 197.017C52.0351 197.239 51.7361 197.418 51.3859 197.572C51.8045 197.708 52.1547 197.888 52.4365 198.101C52.7184 198.324 52.9406 198.563 53.1114 198.836C53.2822 199.109 53.4018 199.391 53.4616 199.69C53.53 199.989 53.5641 200.288 53.5641 200.587C53.5641 201.185 53.4616 201.723 53.2566 202.185C53.0516 202.654 52.7612 203.047 52.4024 203.363C52.0351 203.688 51.608 203.927 51.104 204.098C50.6086 204.269 50.0705 204.346 49.4896 204.346C48.9088 204.346 48.3877 204.269 47.8923 204.106C47.3968 203.944 46.9612 203.714 46.5939 203.406C46.2266 203.098 45.9361 202.723 45.7226 202.278C45.509 201.834 45.398 201.33 45.398 200.767H47.0381C47.0381 201.1 47.0978 201.407 47.2089 201.689C47.3199 201.962 47.4908 202.202 47.6958 202.398C47.9094 202.595 48.1657 202.74 48.4732 202.851C48.7807 202.953 49.1138 203.013 49.4896 203.013C49.8655 203.013 50.1986 202.962 50.4976 202.868C50.7966 202.774 51.0527 202.62 51.2663 202.424C51.4798 202.227 51.6422 201.971 51.7618 201.672C51.8728 201.373 51.9326 201.023 51.9326 200.613C51.9326 200.203 51.8643 199.87 51.7361 199.571C51.5995 199.28 51.4201 199.032 51.1809 198.845C50.9417 198.648 50.6513 198.503 50.3096 198.409C49.9679 198.315 49.6007 198.264 49.1907 198.264H48.0204V196.94L47.9948 196.965Z" fill="white"/>
<path d="M65.0448 199.271C65.0448 200.091 64.9509 200.818 64.7629 201.45C64.575 202.082 64.3017 202.62 63.9515 203.056C63.6013 203.491 63.1656 203.816 62.6531 204.038C62.1406 204.26 61.5511 204.371 60.8934 204.371C60.2357 204.371 59.6549 204.26 59.1338 204.038C58.6213 203.816 58.1771 203.483 57.8183 203.056C57.4596 202.62 57.1862 202.09 56.9898 201.45C56.8019 200.818 56.6994 200.091 56.6994 199.271V196.256C56.6994 195.436 56.7933 194.71 56.9812 194.078C57.1692 193.446 57.4425 192.908 57.8012 192.472C58.16 192.036 58.5956 191.703 59.1082 191.473C59.6207 191.242 60.2101 191.131 60.8679 191.131C61.5256 191.131 62.1149 191.242 62.636 191.473C63.1485 191.703 63.5927 192.028 63.9429 192.472C64.3017 192.908 64.575 193.446 64.7629 194.078C64.9509 194.71 65.0448 195.436 65.0448 196.256V199.271ZM58.3479 198.938L63.362 195.086C63.2681 194.232 63.0204 193.583 62.6103 193.138C62.2089 192.694 61.6195 192.472 60.8593 192.472C59.9966 192.472 59.3644 192.763 58.9544 193.343C58.5444 193.924 58.3394 194.77 58.3394 195.889V198.938H58.3479ZM63.3962 196.658L58.3907 200.493C58.4932 201.322 58.7495 201.962 59.1595 202.398C59.5695 202.833 60.1502 203.056 60.8849 203.056C61.7561 203.056 62.3883 202.757 62.7898 202.167C63.1913 201.578 63.3962 200.732 63.3962 199.622V196.658Z" fill="white"/>
<path d="M92.7799 196.965H93.9502C94.3602 196.965 94.7274 196.906 95.0435 196.795C95.3595 196.683 95.6244 196.53 95.8379 196.333C96.0515 196.137 96.2137 195.906 96.3333 195.633C96.4444 195.359 96.5042 195.06 96.5042 194.736C96.5042 193.984 96.3163 193.42 95.9319 193.045C95.5475 192.66 94.9923 192.472 94.2491 192.472C93.8989 192.472 93.5829 192.524 93.301 192.626C93.0191 192.729 92.7714 192.874 92.5664 193.07C92.3614 193.267 92.2076 193.497 92.0965 193.771C91.9855 194.044 91.9258 194.343 91.9258 194.685H90.2771C90.2771 194.198 90.371 193.736 90.5675 193.301C90.7554 192.865 91.0288 192.489 91.3791 192.165C91.7293 191.84 92.1478 191.592 92.6347 191.405C93.1216 191.217 93.6598 191.123 94.2577 191.123C94.8556 191.123 95.3596 191.2 95.8379 191.353C96.3163 191.507 96.7262 191.738 97.0679 192.045C97.4096 192.353 97.6744 192.729 97.8624 193.19C98.0503 193.643 98.1442 194.172 98.1442 194.762C98.1442 195.009 98.11 195.265 98.0332 195.53C97.9563 195.795 97.8368 196.051 97.683 196.308C97.5207 196.555 97.3156 196.795 97.0679 197.017C96.8202 197.239 96.5213 197.418 96.1711 197.572C96.5896 197.708 96.9398 197.888 97.2217 198.101C97.5036 198.324 97.7257 198.563 97.8966 198.836C98.0674 199.109 98.1784 199.391 98.2467 199.69C98.315 199.989 98.3492 200.288 98.3492 200.587C98.3492 201.185 98.2467 201.723 98.0417 202.185C97.8367 202.654 97.5463 203.047 97.1875 203.363C96.8202 203.688 96.3932 203.927 95.8892 204.098C95.3938 204.269 94.8556 204.346 94.2748 204.346C93.6939 204.346 93.1729 204.269 92.6774 204.106C92.182 203.944 91.7464 203.714 91.3791 203.406C91.0117 203.098 90.7213 202.723 90.5078 202.278C90.2942 201.834 90.1832 201.33 90.1832 200.767H91.8232C91.8232 201.1 91.883 201.407 91.994 201.689C92.1051 201.962 92.2759 202.202 92.4809 202.398C92.6944 202.595 92.9507 202.74 93.2582 202.851C93.5657 202.953 93.8989 203.013 94.2748 203.013C94.6506 203.013 94.9837 202.962 95.2827 202.868C95.5816 202.774 95.8379 202.62 96.0515 202.424C96.265 202.227 96.4273 201.971 96.5469 201.672C96.6579 201.373 96.7178 201.023 96.7178 200.613C96.7178 200.203 96.6495 199.87 96.5213 199.571C96.3847 199.28 96.2053 199.032 95.9661 198.845C95.7269 198.648 95.4365 198.503 95.0948 198.409C94.7531 198.315 94.3858 198.264 93.9757 198.264H92.8055V196.94L92.7799 196.965Z" fill="white"/>
<path d="M107.053 204.2H105.412V193.403L102.038 194.684V193.19L106.916 191.31H107.053V204.2Z" fill="white"/>
<path d="M151.853 204.2H150.213V193.403L146.839 194.684V193.19L151.716 191.31H151.853V204.2Z" fill="#4A4A4A"/>
<path d="M199.228 204.201H190.789V203.022L195.009 198.333C195.384 197.914 195.7 197.538 195.957 197.214C196.213 196.889 196.418 196.59 196.563 196.317C196.717 196.043 196.828 195.787 196.888 195.539C196.956 195.292 196.982 195.044 196.982 194.779C196.982 194.463 196.931 194.164 196.828 193.882C196.726 193.6 196.572 193.361 196.375 193.156C196.179 192.951 195.94 192.789 195.658 192.661C195.376 192.541 195.06 192.481 194.71 192.481C194.283 192.481 193.907 192.541 193.591 192.669C193.275 192.789 193.01 192.968 192.805 193.199C192.591 193.429 192.437 193.703 192.335 194.027C192.232 194.352 192.181 194.711 192.181 195.112H190.533C190.533 194.565 190.627 194.062 190.814 193.575C191.002 193.096 191.276 192.678 191.635 192.31C191.993 191.952 192.429 191.661 192.942 191.456C193.454 191.243 194.043 191.14 194.71 191.14C195.316 191.14 195.863 191.226 196.35 191.414C196.837 191.593 197.247 191.841 197.58 192.157C197.913 192.473 198.178 192.849 198.357 193.293C198.536 193.728 198.63 194.207 198.63 194.719C198.63 195.104 198.562 195.479 198.434 195.855C198.306 196.231 198.126 196.599 197.904 196.966C197.682 197.333 197.426 197.692 197.136 198.051C196.845 198.409 196.538 198.76 196.213 199.118L192.754 202.868H199.22V204.201H199.228Z" fill="#4A4A4A"/>
<path d="M238.035 196.965H239.205C239.615 196.965 239.982 196.906 240.298 196.795C240.614 196.683 240.879 196.53 241.093 196.333C241.306 196.137 241.469 195.906 241.588 195.633C241.699 195.359 241.759 195.06 241.759 194.736C241.759 193.984 241.571 193.42 241.187 193.045C240.802 192.66 240.238 192.472 239.504 192.472C239.154 192.472 238.838 192.524 238.556 192.626C238.274 192.729 238.026 192.874 237.821 193.07C237.616 193.267 237.462 193.497 237.351 193.771C237.24 194.044 237.18 194.343 237.18 194.685H235.532C235.532 194.198 235.626 193.736 235.822 193.301C236.01 192.865 236.283 192.489 236.634 192.165C236.984 191.84 237.403 191.592 237.889 191.405C238.376 191.217 238.914 191.123 239.512 191.123C240.11 191.123 240.614 191.2 241.093 191.353C241.571 191.507 241.981 191.738 242.323 192.045C242.664 192.353 242.929 192.729 243.117 193.19C243.305 193.643 243.399 194.172 243.399 194.762C243.399 195.009 243.365 195.266 243.288 195.53C243.211 195.795 243.091 196.051 242.938 196.308C242.775 196.555 242.57 196.795 242.323 197.017C242.075 197.239 241.776 197.418 241.426 197.572C241.844 197.709 242.195 197.888 242.476 198.101C242.758 198.324 242.98 198.563 243.151 198.836C243.322 199.109 243.433 199.391 243.501 199.69C243.57 199.989 243.604 200.288 243.604 200.587C243.604 201.185 243.501 201.723 243.296 202.185C243.091 202.654 242.801 203.047 242.442 203.363C242.075 203.688 241.648 203.927 241.144 204.098C240.648 204.269 240.11 204.346 239.529 204.346C238.949 204.346 238.428 204.269 237.932 204.106C237.437 203.944 237.001 203.714 236.634 203.406C236.266 203.098 235.976 202.723 235.763 202.278C235.549 201.834 235.438 201.33 235.438 200.767H237.078C237.078 201.1 237.138 201.407 237.249 201.689C237.36 201.962 237.531 202.202 237.744 202.398C237.958 202.595 238.214 202.74 238.522 202.851C238.829 202.953 239.162 203.013 239.538 203.013C239.914 203.013 240.247 202.962 240.546 202.868C240.845 202.774 241.101 202.62 241.315 202.424C241.528 202.227 241.691 201.971 241.81 201.672C241.921 201.373 241.981 201.023 241.981 200.613C241.981 200.203 241.913 199.87 241.785 199.571C241.648 199.28 241.468 199.032 241.229 198.845C240.99 198.648 240.7 198.503 240.358 198.409C240.016 198.315 239.649 198.264 239.239 198.264H238.069V196.94L238.035 196.965Z" fill="#4A4A4A"/>
<path d="M289.347 199.869V201.202H287.553V204.192H285.913V201.202H280.036V200.237L285.802 191.31H287.545V199.869H289.347ZM281.856 199.869H285.913V193.489L285.648 193.984L281.856 199.869Z" fill="#4A4A4A"/>
<path d="M3.70486 1.46565L5.6268 7.36817L7.70243 1.46565H9.56462V13.2792H8.10398V8.56401L8.22358 3.63534L6.04534 9.99055H5.1826L3.17526 3.79764L3.29486 8.55551V13.2706H1.83412V1.45716H3.68776L3.70486 1.46565Z" fill="#808080"/>
<path d="M11.6073 8.80352C11.6073 8.17142 11.7012 7.58202 11.8806 7.03533C12.06 6.48865 12.3248 6.01886 12.675 5.61739C13.0167 5.21592 13.4353 4.89983 13.9307 4.6692C14.4261 4.43856 14.9729 4.32755 15.5964 4.32755C16.22 4.32755 16.7752 4.43856 17.2706 4.6692C17.7661 4.89983 18.1846 5.21592 18.5263 5.61739C18.8679 6.01886 19.1328 6.48865 19.3207 7.03533C19.5086 7.58202 19.594 8.16288 19.594 8.80352V8.98292C19.594 9.61503 19.5001 10.2044 19.3207 10.7426C19.1328 11.2807 18.8765 11.7505 18.5263 12.152C18.1846 12.5534 17.7661 12.8695 17.2706 13.0916C16.7752 13.3222 16.2199 13.4332 15.6049 13.4332C14.9899 13.4332 14.4261 13.3222 13.9307 13.0916C13.4353 12.861 13.0167 12.5534 12.675 12.152C12.3334 11.7505 12.0685 11.2807 11.8806 10.7426C11.6927 10.2044 11.6073 9.61503 11.6073 8.98292V8.80352ZM13.1107 8.98292C13.1107 9.41856 13.1619 9.82853 13.2644 10.2215C13.3669 10.6144 13.5207 10.9561 13.7342 11.2551C13.9393 11.554 14.2041 11.7847 14.5201 11.9641C14.8362 12.1349 15.1949 12.2203 15.6134 12.2203C16.032 12.2203 16.3822 12.1349 16.6983 11.9641C17.0058 11.7932 17.2706 11.554 17.4756 11.2551C17.6806 10.9561 17.843 10.6144 17.9455 10.2215C18.048 9.82853 18.0992 9.41856 18.0992 8.98292V8.80352C18.0992 8.37643 18.048 7.96641 17.9369 7.57348C17.8344 7.18055 17.6721 6.83885 17.4671 6.53989C17.2621 6.24092 16.9972 6.01032 16.6897 5.83094C16.3822 5.65156 16.015 5.56614 15.5964 5.56614C15.1779 5.56614 14.8191 5.65156 14.5116 5.83094C14.2041 6.01032 13.9478 6.24092 13.7342 6.53989C13.5292 6.83885 13.3669 7.18055 13.2644 7.57348C13.1619 7.96641 13.1107 8.37643 13.1107 8.80352V8.98292Z" fill="#808080"/>
<path d="M23.344 4.49819L23.4465 5.79653C23.7626 5.34381 24.1555 4.98505 24.6253 4.72879C25.0866 4.47253 25.6076 4.34443 26.1799 4.33589C26.6412 4.33589 27.0598 4.40421 27.4357 4.53234C27.8115 4.66047 28.1276 4.8655 28.3924 5.13884C28.6572 5.41218 28.8621 5.76238 29.0074 6.18948C29.1526 6.61658 29.2209 7.12057 29.2209 7.70142V13.2707H27.7175V7.72702C27.7175 7.33409 27.6748 7.00952 27.5894 6.73618C27.5039 6.46284 27.3759 6.24927 27.205 6.07843C27.0342 5.90759 26.8292 5.78801 26.5815 5.71113C26.3338 5.63426 26.0519 5.60008 25.7358 5.60008C25.2319 5.60008 24.7876 5.72822 24.4118 5.97593C24.0274 6.22365 23.7285 6.55676 23.4978 6.96677V13.2622H21.9944V4.48964H23.344V4.49819Z" fill="#808080"/>
<path d="M48.4132 2.74732V13.2796H46.9525V2.74732H43.3051V1.46603H52.0692V2.74732H48.4132Z" fill="#808080"/>
<path d="M59.7556 12.0666C59.4651 12.5023 59.0978 12.8354 58.6622 13.0746C58.2265 13.3137 57.7225 13.4333 57.1417 13.4333C56.6804 13.4333 56.2619 13.365 55.8946 13.2198C55.5187 13.0745 55.2027 12.8525 54.9379 12.5535C54.6731 12.2545 54.4681 11.8616 54.3229 11.4003C54.1777 10.9305 54.1093 10.3753 54.1093 9.71758V4.49846H55.6127V9.72613C55.6127 10.2045 55.6469 10.5974 55.7238 10.9134C55.8007 11.2295 55.9116 11.4772 56.0654 11.6651C56.2191 11.853 56.3985 11.9812 56.6206 12.0581C56.8427 12.1349 57.0904 12.1691 57.3809 12.1691C57.9959 12.1691 58.4828 12.041 58.8586 11.7933C59.2345 11.5455 59.5163 11.2124 59.6957 10.7853V4.48991H61.2076V13.2625H59.841L59.7556 12.0495V12.0666Z" fill="#808080"/>
<path d="M67.9065 13.4419C67.2915 13.4419 66.7277 13.3394 66.2066 13.1259C65.6941 12.9123 65.2499 12.6219 64.8826 12.2461C64.5153 11.8702 64.2249 11.4175 64.0199 10.8964C63.8149 10.3754 63.7124 9.81156 63.7124 9.20508V8.86343C63.7124 8.15445 63.8234 7.52237 64.0541 6.9586C64.2847 6.40337 64.5836 5.92499 64.9595 5.5406C65.3353 5.15622 65.7624 4.85727 66.2407 4.65226C66.7191 4.44725 67.206 4.34476 67.7099 4.34476C68.342 4.34476 68.8973 4.45576 69.3671 4.66931C69.8369 4.8914 70.2299 5.19037 70.5459 5.57475C70.862 5.95914 71.0926 6.42044 71.2463 6.9415C71.4001 7.46256 71.477 8.03486 71.477 8.64134V9.31613H65.2072C65.2243 9.7176 65.3012 10.0935 65.4379 10.4437C65.5745 10.7939 65.7624 11.1014 66.0015 11.3662C66.2407 11.631 66.5312 11.836 66.8643 11.9898C67.1974 12.1435 67.5733 12.2204 67.9748 12.2204C68.5129 12.2204 68.9828 12.1094 69.4013 11.8958C69.8199 11.6823 70.1615 11.3918 70.4434 11.0331L71.3574 11.7506C71.2122 11.9727 71.0328 12.1863 70.8107 12.3913C70.5886 12.5963 70.341 12.7757 70.0505 12.9294C69.7601 13.0832 69.4355 13.2113 69.0767 13.3053C68.718 13.3992 68.3165 13.4505 67.8894 13.4505L67.9065 13.4419ZM67.7099 5.57475C67.411 5.57475 67.1206 5.62601 66.8473 5.73705C66.574 5.8481 66.3347 6.0104 66.1211 6.22395C65.9076 6.4375 65.7197 6.70234 65.5745 7.00985C65.4292 7.31736 65.3182 7.67608 65.2584 8.08609H69.9821V7.97509C69.965 7.68466 69.9138 7.39422 69.8199 7.1038C69.7259 6.81337 69.5893 6.55709 69.4013 6.335C69.2134 6.10437 68.9827 5.92502 68.7094 5.7798C68.4275 5.64313 68.1029 5.56626 67.7185 5.56626L67.7099 5.57475Z" fill="#808080"/>
<path d="M96.069 10.0758L96.9658 1.46548H98.3838L96.9488 13.279H95.4198L93.8993 4.37831L92.3703 13.279H90.8328L89.3977 1.46548H90.8242L91.7212 10.0758L93.2416 1.46548H94.5485L96.0775 10.0758H96.069Z" fill="#808080"/>
<path d="M104.056 13.4414C103.441 13.4414 102.877 13.3389 102.356 13.1253C101.843 12.9118 101.399 12.6214 101.032 12.2455C100.665 11.8697 100.374 11.4169 100.169 10.8959C99.9641 10.3748 99.8616 9.81101 99.8616 9.20453V8.86288C99.8616 8.1539 99.9726 7.52182 100.203 6.95805C100.434 6.40282 100.733 5.92444 101.109 5.54005C101.485 5.15567 101.912 4.85672 102.39 4.65171C102.868 4.4467 103.355 4.34421 103.859 4.34421C104.491 4.34421 105.047 4.45521 105.516 4.66876C105.986 4.89085 106.379 5.18982 106.695 5.5742C107.011 5.95859 107.242 6.41989 107.396 6.94095C107.549 7.462 107.626 8.03431 107.626 8.64079V9.31558H101.356C101.373 9.71705 101.45 10.0929 101.587 10.4431C101.724 10.7933 101.912 11.1009 102.151 11.3657C102.39 11.6305 102.68 11.8355 103.014 11.9892C103.347 12.143 103.723 12.2199 104.124 12.2199C104.662 12.2199 105.132 12.1088 105.551 11.8953C105.969 11.6817 106.311 11.3913 106.593 11.0325L107.507 11.7501C107.361 11.9722 107.182 12.1857 106.96 12.3907C106.738 12.5957 106.49 12.7751 106.2 12.9289C105.909 13.0826 105.585 13.2107 105.226 13.3047C104.867 13.3987 104.466 13.4499 104.039 13.4499L104.056 13.4414ZM103.859 5.5742C103.56 5.5742 103.27 5.62546 102.996 5.7365C102.723 5.84755 102.484 6.00985 102.27 6.2234C102.057 6.43695 101.869 6.70179 101.724 7.0093C101.579 7.31681 101.468 7.67552 101.408 8.08554H106.131V7.97454C106.114 7.68411 106.063 7.39367 105.969 7.10325C105.875 6.81282 105.738 6.55654 105.551 6.33445C105.363 6.10382 105.132 5.92447 104.859 5.77925C104.577 5.64258 104.252 5.5657 103.868 5.5657L103.859 5.5742Z" fill="#808080"/>
<path d="M109.865 8.81174C109.865 8.15401 109.95 7.55609 110.113 7.0094C110.275 6.46272 110.514 5.99288 110.822 5.59141C111.129 5.19848 111.496 4.89095 111.932 4.66886C112.368 4.44677 112.846 4.33577 113.384 4.33577C113.922 4.33577 114.367 4.42118 114.76 4.60056C115.152 4.77995 115.494 5.02763 115.776 5.36931V0.816488H117.279V13.2792H115.904L115.836 12.3566C115.545 12.7154 115.195 12.9802 114.794 13.1681C114.384 13.3475 113.914 13.4415 113.376 13.4415C112.838 13.4415 112.368 13.3304 111.932 13.0998C111.505 12.8692 111.138 12.5616 110.83 12.1602C110.531 11.7587 110.292 11.2889 110.121 10.7422C109.95 10.1955 109.874 9.61469 109.874 8.98259V8.81174H109.865ZM111.368 8.98259C111.368 9.40969 111.411 9.81969 111.505 10.1955C111.599 10.5799 111.736 10.9216 111.932 11.212C112.12 11.5025 112.368 11.7331 112.667 11.9039C112.966 12.0748 113.324 12.1602 113.734 12.1602C113.991 12.1602 114.221 12.1346 114.426 12.0748C114.631 12.015 114.819 11.9296 114.99 11.8185C115.161 11.7075 115.306 11.5793 115.434 11.417C115.562 11.2633 115.682 11.0924 115.776 10.9045V6.83C115.579 6.47124 115.315 6.18079 114.99 5.95016C114.657 5.71952 114.247 5.60851 113.76 5.60851C113.342 5.60851 112.974 5.69392 112.675 5.86476C112.376 6.0356 112.129 6.27478 111.941 6.5652C111.744 6.86417 111.607 7.19732 111.514 7.59025C111.42 7.97463 111.377 8.38464 111.377 8.81174V8.98259H111.368Z" fill="#808080"/>
<path d="M137.268 2.74722V13.2795H135.807V2.74722H132.159V1.46592H140.924V2.74722H137.268Z" fill="#808080"/>
<path d="M144.418 5.80561C144.735 5.34435 145.119 4.98558 145.58 4.72932C146.041 4.47306 146.554 4.34496 147.126 4.33642C147.588 4.33642 148.006 4.40474 148.382 4.53287C148.758 4.66954 149.074 4.87453 149.347 5.15642C149.612 5.4383 149.817 5.79706 149.962 6.22416C150.107 6.65126 150.176 7.16381 150.176 7.7532V13.2798H148.672V7.7361C148.672 7.01858 148.502 6.48043 148.16 6.13021C147.818 5.77999 147.323 5.60916 146.691 5.60916C146.212 5.60916 145.777 5.72873 145.384 5.95936C144.991 6.18999 144.675 6.50608 144.427 6.89901V13.2713H142.924V0.808594H144.427V5.79706L144.418 5.80561Z" fill="#808080"/>
<path d="M158.58 12.0665C158.29 12.5021 157.922 12.8353 157.487 13.0745C157.051 13.3136 156.547 13.4332 155.966 13.4332C155.505 13.4332 155.086 13.3649 154.719 13.2197C154.343 13.0744 154.027 12.8524 153.762 12.5534C153.498 12.2544 153.293 11.8615 153.147 11.4002C153.002 10.9304 152.934 10.3752 152.934 9.71747V4.49836H154.437V9.72602C154.437 10.2044 154.471 10.5973 154.548 10.9133C154.625 11.2294 154.736 11.4771 154.89 11.665C155.044 11.8529 155.223 11.9811 155.445 12.058C155.667 12.1348 155.915 12.169 156.205 12.169C156.82 12.169 157.307 12.0409 157.683 11.7932C158.059 11.5454 158.341 11.2123 158.52 10.7852V4.48981H160.032V13.2624H158.665L158.58 12.0494V12.0665Z" fill="#808080"/>
<path d="M179.763 8.06155H174.851V13.2807H173.331V1.46714H180.583V2.74843H174.851V6.78881H179.763V8.06155Z" fill="#808080"/>
<path d="M188.91 4.3367C189.046 4.3367 189.2 4.33671 189.345 4.34525C189.499 4.34525 189.644 4.37087 189.781 4.38795C189.918 4.40503 190.046 4.43062 190.165 4.45625C190.285 4.48187 190.379 4.51607 190.456 4.5417L190.251 6.01089C189.96 5.94255 189.679 5.89986 189.422 5.86569C189.157 5.84007 188.884 5.82299 188.602 5.82299C187.902 5.82299 187.329 5.98529 186.894 6.30134C186.458 6.61739 186.142 7.07012 185.937 7.64243V13.2715H184.425V4.499H185.852L185.929 5.89134C186.287 5.41299 186.714 5.02859 187.218 4.75525C187.722 4.47336 188.286 4.3367 188.927 4.3367H188.91Z" fill="#808080"/>
<path d="M193.371 4.49921H197.855V11.9819H200.717V13.2803H193.371V11.9819H196.352V5.8061H193.371V4.49921ZM196.155 2.19287C196.155 1.94516 196.232 1.73162 196.378 1.56078C196.523 1.38994 196.753 1.30448 197.052 1.30448C197.351 1.30448 197.573 1.38994 197.727 1.56078C197.881 1.73162 197.958 1.93661 197.958 2.19287C197.958 2.44913 197.881 2.63702 197.727 2.79932C197.573 2.96161 197.351 3.03852 197.052 3.03852C196.753 3.03852 196.523 2.96161 196.378 2.79932C196.232 2.63702 196.155 2.43205 196.155 2.19287Z" fill="#808080"/>
<path d="M225.872 10.2902C225.872 9.93149 225.786 9.62397 225.624 9.37625C225.462 9.12854 225.248 8.915 224.983 8.74416C224.727 8.57332 224.437 8.42811 224.129 8.31706C223.822 8.20602 223.523 8.10353 223.232 8.00956C222.814 7.87289 222.395 7.71059 221.96 7.52267C221.532 7.33474 221.14 7.10411 220.781 6.82222C220.431 6.54888 220.14 6.22427 219.909 5.84843C219.679 5.47258 219.576 5.02841 219.576 4.52443C219.576 4.02046 219.687 3.55922 219.909 3.15774C220.132 2.75627 220.431 2.42313 220.789 2.14125C221.148 1.86791 221.567 1.65437 222.019 1.50915C222.481 1.36394 222.942 1.29561 223.403 1.29561C223.916 1.29561 224.411 1.38101 224.889 1.55185C225.368 1.72269 225.786 1.96184 226.154 2.26935C226.521 2.57686 226.82 2.9527 227.042 3.38834C227.264 3.82398 227.384 4.31944 227.392 4.85758H225.855C225.812 4.51591 225.727 4.20837 225.607 3.92649C225.479 3.6446 225.316 3.40546 225.111 3.20899C224.906 3.01253 224.659 2.85024 224.377 2.7392C224.095 2.62815 223.77 2.5769 223.42 2.5769C223.13 2.5769 222.856 2.61957 222.583 2.69644C222.31 2.77332 222.071 2.9015 221.857 3.06379C221.643 3.22609 221.473 3.42251 221.345 3.66169C221.216 3.90086 221.157 4.17423 221.157 4.49029C221.157 4.83196 221.251 5.1224 221.413 5.35303C221.575 5.58366 221.789 5.78863 222.053 5.95093C222.31 6.11322 222.592 6.24992 222.891 6.35242C223.19 6.46347 223.471 6.55745 223.736 6.63432C224.027 6.72828 224.326 6.83078 224.625 6.95037C224.924 7.06996 225.205 7.19806 225.487 7.35182C225.761 7.50557 226.017 7.67644 226.256 7.86437C226.495 8.05229 226.7 8.26584 226.88 8.50501C227.059 8.74419 227.196 9.00898 227.298 9.29941C227.401 9.58983 227.452 9.90588 227.452 10.2561C227.452 10.7857 227.332 11.247 227.102 11.6399C226.863 12.0328 226.564 12.3659 226.188 12.6222C225.812 12.887 225.393 13.0835 224.924 13.2116C224.454 13.3483 223.984 13.4081 223.514 13.4081C222.993 13.4081 222.472 13.3226 221.977 13.1689C221.473 13.0066 221.02 12.7759 220.627 12.4684C220.225 12.1609 219.909 11.7936 219.662 11.3494C219.414 10.9053 219.277 10.4098 219.26 9.84605H220.789C220.841 10.2134 220.934 10.538 221.088 10.8198C221.242 11.1017 221.439 11.3409 221.669 11.5459C221.908 11.7424 222.182 11.8961 222.489 11.9901C222.797 12.0926 223.138 12.1438 223.506 12.1438C223.796 12.1438 224.086 12.1097 224.368 12.0328C224.65 11.956 224.906 11.8449 225.129 11.6911C225.351 11.5374 225.53 11.3409 225.675 11.1103C225.812 10.8711 225.889 10.5977 225.889 10.2731L225.872 10.2902Z" fill="#808080"/>
<path d="M235.422 13.2798C235.362 13.1687 235.319 13.0235 235.276 12.8527C235.242 12.6818 235.217 12.5025 235.2 12.3231C235.046 12.4768 234.884 12.622 234.696 12.7502C234.508 12.8868 234.303 13.0064 234.081 13.1089C233.858 13.2114 233.619 13.2883 233.363 13.3481C233.107 13.4079 232.842 13.4335 232.552 13.4335C232.09 13.4335 231.663 13.3652 231.287 13.2285C230.911 13.0919 230.595 12.9125 230.331 12.6818C230.066 12.4512 229.869 12.1779 229.724 11.8618C229.579 11.5458 229.511 11.2041 229.511 10.8368C229.511 10.3584 229.605 9.93136 229.801 9.5726C229.989 9.21384 230.262 8.90633 230.613 8.66715C230.963 8.42798 231.39 8.24859 231.885 8.12901C232.381 8.00942 232.936 7.94961 233.542 7.94961H235.182V7.25771C235.182 6.99291 235.131 6.75371 235.037 6.54017C234.943 6.32662 234.798 6.14723 234.627 6.00202C234.448 5.85681 234.234 5.73725 233.978 5.66037C233.722 5.57495 233.431 5.54077 233.115 5.54077C232.816 5.54077 232.552 5.57494 232.312 5.65182C232.073 5.7287 231.877 5.83118 231.714 5.95077C231.552 6.0789 231.424 6.22413 231.339 6.39497C231.253 6.56581 231.202 6.74518 231.202 6.92456H229.69C229.69 6.60851 229.775 6.29248 229.938 5.98497C230.1 5.67746 230.331 5.40409 230.63 5.15637C230.929 4.90866 231.296 4.71223 231.723 4.55848C232.15 4.40472 232.637 4.32783 233.184 4.32783C233.679 4.32783 234.14 4.38759 234.567 4.50718C234.995 4.62676 235.362 4.81471 235.678 5.06243C235.985 5.31014 236.233 5.61767 236.412 5.98497C236.592 6.35227 236.677 6.77938 236.677 7.27481V11.3578C236.677 11.6483 236.703 11.9558 236.754 12.2889C236.805 12.6135 236.882 12.904 236.985 13.1431V13.2712H235.422V13.2798ZM232.774 12.1352C233.064 12.1352 233.337 12.101 233.594 12.0241C233.85 11.9473 234.081 11.8447 234.286 11.7251C234.491 11.597 234.67 11.4603 234.824 11.298C234.977 11.1357 235.097 10.9735 235.182 10.8026V9.0259H233.79C232.91 9.0259 232.235 9.154 231.749 9.4188C231.262 9.67506 231.023 10.0851 231.023 10.6403C231.023 10.8539 231.057 11.0589 231.134 11.2382C231.21 11.4262 231.313 11.5799 231.458 11.7166C231.603 11.8533 231.791 11.9558 232.013 12.0327C232.236 12.1096 232.492 12.1437 232.782 12.1437L232.774 12.1352Z" fill="#808080"/>
<path d="M243.177 2.37169V4.49868H246.517V5.66037H243.177V10.4268C243.177 10.7685 243.22 11.0503 243.305 11.2724C243.39 11.4945 243.51 11.6739 243.664 11.802C243.818 11.9387 243.988 12.0241 244.185 12.0839C244.381 12.1352 244.595 12.1693 244.817 12.1693C244.979 12.1693 245.15 12.1608 245.321 12.1437C245.492 12.1266 245.663 12.101 245.825 12.0754C245.987 12.0498 246.141 12.0241 246.286 11.9899C246.431 11.9558 246.551 11.9387 246.636 11.9131L246.85 12.9723C246.722 13.0492 246.577 13.1175 246.397 13.1687C246.218 13.2285 246.021 13.2713 245.816 13.314C245.603 13.3567 245.381 13.3823 245.15 13.4079C244.919 13.4336 244.68 13.4421 244.45 13.4421C244.057 13.4421 243.698 13.3908 243.356 13.2798C243.015 13.1687 242.724 12.9894 242.476 12.7502C242.229 12.511 242.032 12.195 241.887 11.8191C241.742 11.4347 241.673 10.9734 241.673 10.4353V5.66892H239.367V4.50718H241.673V2.38024H243.185L243.177 2.37169Z" fill="#808080"/>
<path d="M271.827 10.2902C271.827 9.93149 271.741 9.62397 271.579 9.37625C271.417 9.12854 271.203 8.915 270.938 8.74416C270.682 8.57332 270.392 8.42811 270.084 8.31706C269.777 8.20602 269.478 8.10353 269.187 8.00956C268.769 7.87289 268.35 7.71059 267.914 7.52267C267.487 7.33474 267.094 7.10411 266.736 6.82222C266.385 6.54888 266.095 6.22427 265.864 5.84843C265.634 5.47258 265.531 5.02841 265.531 4.52443C265.531 4.02046 265.642 3.55922 265.864 3.15774C266.087 2.75627 266.385 2.42313 266.744 2.14125C267.103 1.86791 267.522 1.65437 267.974 1.50915C268.436 1.36394 268.897 1.29561 269.358 1.29561C269.871 1.29561 270.366 1.38101 270.844 1.55185C271.323 1.72269 271.741 1.96184 272.109 2.26935C272.476 2.57686 272.775 2.9527 272.997 3.38834C273.219 3.82398 273.339 4.31944 273.347 4.85758H271.81C271.767 4.51591 271.681 4.20837 271.553 3.92649C271.425 3.6446 271.263 3.40546 271.058 3.20899C270.853 3.01253 270.605 2.85024 270.323 2.7392C270.041 2.62815 269.717 2.5769 269.367 2.5769C269.076 2.5769 268.803 2.61957 268.53 2.69644C268.256 2.77332 268.009 2.9015 267.795 3.06379C267.581 3.22609 267.411 3.42251 267.282 3.66169C267.154 3.90086 267.094 4.17423 267.094 4.49029C267.094 4.83196 267.188 5.1224 267.351 5.35303C267.513 5.58366 267.735 5.78863 267.991 5.95093C268.248 6.11322 268.53 6.24992 268.829 6.35242C269.127 6.46347 269.409 6.55745 269.674 6.63432C269.965 6.72828 270.264 6.83078 270.563 6.95037C270.862 7.06996 271.143 7.19806 271.425 7.35182C271.699 7.50557 271.955 7.67644 272.194 7.86437C272.433 8.05229 272.638 8.26584 272.818 8.50501C272.997 8.74419 273.134 9.00898 273.236 9.29941C273.339 9.58983 273.39 9.90588 273.39 10.2561C273.39 10.7857 273.27 11.247 273.04 11.6399C272.809 12.0328 272.502 12.3659 272.126 12.6222C271.75 12.887 271.331 13.0835 270.862 13.2116C270.392 13.3483 269.922 13.4081 269.452 13.4081C268.931 13.4081 268.418 13.3226 267.914 13.1689C267.41 13.0066 266.958 12.7759 266.565 12.4684C266.163 12.1609 265.847 11.7936 265.6 11.3494C265.352 10.9053 265.215 10.4098 265.198 9.84605H266.727C266.778 10.2134 266.872 10.538 267.026 10.8198C267.18 11.1017 267.376 11.3409 267.607 11.5459C267.846 11.7424 268.12 11.8961 268.427 11.9901C268.735 12.0926 269.076 12.1438 269.444 12.1438C269.734 12.1438 270.024 12.1097 270.306 12.0328C270.588 11.956 270.844 11.8449 271.066 11.6911C271.289 11.5374 271.468 11.3409 271.613 11.1103C271.75 10.8711 271.827 10.5977 271.827 10.2731V10.2902Z" fill="#808080"/>
<path d="M281.308 12.0672C281.018 12.5028 280.651 12.836 280.215 13.0751C279.779 13.3143 279.275 13.4339 278.694 13.4339C278.233 13.4339 277.815 13.3656 277.447 13.2203C277.071 13.0751 276.755 12.8531 276.491 12.5541C276.226 12.2551 276.021 11.8622 275.876 11.4009C275.73 10.9396 275.662 10.3759 275.662 9.71816V4.49904H277.165V9.72671C277.165 10.2051 277.2 10.598 277.277 10.914C277.353 11.2301 277.464 11.4778 277.618 11.6657C277.772 11.8536 277.951 11.9818 278.173 12.0586C278.395 12.1355 278.643 12.1697 278.934 12.1697C279.549 12.1697 280.036 12.0416 280.411 11.7938C280.787 11.5461 281.069 11.213 281.249 10.7859V4.49049H282.76V13.263H281.394L281.308 12.0501V12.0672Z" fill="#808080"/>
<path d="M286.928 4.49847L287.031 5.79681C287.347 5.34409 287.74 4.98533 288.21 4.72907C288.671 4.47281 289.192 4.34471 289.764 4.33617C290.226 4.33617 290.644 4.40449 291.02 4.53262C291.396 4.66075 291.712 4.86577 291.977 5.13912C292.241 5.41246 292.446 5.76266 292.592 6.18976C292.737 6.61686 292.805 7.12085 292.805 7.7017V13.271H291.302V7.7273C291.302 7.33437 291.259 7.0098 291.174 6.73646C291.088 6.46312 290.96 6.24955 290.789 6.07871C290.618 5.90787 290.413 5.78829 290.166 5.71141C289.918 5.63454 289.636 5.60036 289.32 5.60036C288.816 5.60036 288.372 5.7285 287.996 5.97621C287.612 6.22393 287.313 6.55704 287.082 6.96705V13.2625H285.579V4.48992H286.928V4.49847Z" fill="#808080"/>
</svg>
