<svg width="16" height="17" viewBox="0 0 16 17" fill="none" xmlns="http://www.w3.org/2000/svg">
<path d="M15.3235 1.45866C14.1654 3.06283 10.29 8.62984 7.24302 15.3443C6.9111 16.0758 6.22289 16.5839 5.42566 16.6822C5.41587 16.6834 5.40603 16.6846 5.39624 16.6858C4.43921 16.8046 3.50804 16.3205 3.05987 15.4665C2.42512 14.257 1.69581 13.0845 0.878083 11.9596C0.434255 11.3491 0.519625 10.4994 1.08476 9.99899C1.09459 9.99026 1.10446 9.98158 1.11437 9.97289C2.20787 9.01475 3.8967 9.25866 4.68592 10.4797C4.87561 10.7732 5.05374 11.0741 5.21978 11.3816C7.04374 7.9032 10.2269 4.14551 13.3001 1.19828C13.7827 0.735423 14.4845 0.583005 15.1162 0.802233C15.3877 0.896488 15.4917 1.22569 15.3235 1.45866Z" fill="#FF5900"/>
</svg>
