<svg width="16" height="17" viewBox="0 0 16 17" fill="none" xmlns="http://www.w3.org/2000/svg">
<path d="M13.5497 1.06102C14.1486 0.637837 14.9347 0.586766 15.5841 0.927496C15.8631 1.07399 15.9222 1.44842 15.7019 1.67367C14.7827 2.61306 12.5465 4.96747 9.94737 8.18506C12.7281 11.0041 15.0608 13.7391 15.1463 14.4565C15.2799 15.5772 14.4595 16.0664 13.4055 16.1531C12.5275 16.226 11.9098 15.6882 11.3897 14.9771C10.2497 13.4184 9.11311 11.9692 8.02302 10.645C6.9065 12.1244 5.76817 13.7278 4.67343 15.4162C4.1942 16.1553 3.60816 16.7263 2.72765 16.7029C1.67029 16.6757 0.822778 16.2336 0.893267 15.107C0.938708 14.389 3.27289 11.4116 6.04868 8.32073C3.43921 5.34325 1.29845 3.26172 0.317031 2.36559C0.0844432 2.15311 0.122501 1.7764 0.39272 1.61441C1.02189 1.23768 1.80955 1.24414 2.43132 1.63297C3.87346 2.53509 5.92946 4.2979 7.96947 6.24071C10.0465 4.05419 12.1371 2.05943 13.5497 1.06102Z" fill="#FF383C"/>
</svg>
